<svg width="212" height="212" fill="none" xmlns="http://www.w3.org/2000/svg"><path d="m27.085 171.817.085 1.544v.246l.195 3.616.034.687.174 3.184.059 1.128.148 2.739.081 1.565.127 2.302.106 2.006.102 1.865s0 .424.047.895M28.298 194.323c.02.45.042.819.042.819v.352h19.89l.042-.776.098-1.828.11-2.043.119-2.256.089-1.611.144-2.701.064-1.166.072-1.31M49.031 180.959c.026-.547.051-.984.051-.984l.038-.729.191-3.578v-.289l.102-1.865M49.468 172.733l.051-.916M28.692 195.494l-.352-.352" stroke="#263238" stroke-linecap="round" stroke-linejoin="round"/><path d="m32.767 195.494-1.641-1.641-2.035-2.035-.984-.984M36.846 195.494l-1.641-1.641-2.04-2.04-2.035-2.031-2.04-2.039-1.216-1.213M40.916 195.494l-1.64-1.641-2.036-2.035-.539-.539M36.112 190.694l-.92-.916-2.035-2.035-2.031-2.031-2.04-2.039-.521-.522M44.995 195.494l-1.641-1.641-2.04-2.039-2.035-2.031-2.04-2.04-2.034-2.035-2.04-2.039-2.04-2.04-2.034-2.039-1.68-1.675M48.29 194.718l-.849-.848-2.035-2.035-.606-.61M43.96 190.376l-.61-.615-2.035-2.035-2.04-2.014-2.035-2.039-2.048-2.044-2.035-2.039-.933-.942M31.126 177.555l-2.04-2.019-1.102-1.106M29.468 171.822l1.658 1.654 2.04 2.039 2.034 2.036 2.04 2.039 2.04 2.044 2.035 2.035 2.039 2.039 2.035 2.035 2.04 2.04 1.068 1.068M33.543 171.822l1.662 1.658 2.035 2.035 2.04 2.04 2.035 2.035 2.039 2.044 2.04 2.039 2.035 2.035 1.276 1.277M37.617 171.822l1.658 1.654 2.04 2.039 2.039 2.04 2.035 2.035 2.04 2.044 1.484 1.484M41.692 171.822l1.662 1.658 2.035 2.035 2.04 2.04 1.691 1.692M45.767 171.822l1.662 1.658 1.9 1.9" stroke="#263238" stroke-linecap="round" stroke-linejoin="round"/><path d="m48.387 192.895-.963.958-1.64 1.641M48.616 188.596l-1.187 1.187-2.04 2.035-2.035 2.035-1.64 1.641M48.849 184.283l-1.42 1.425-2.04 2.035-2.04 2.039-2.034 2.031-2.04 2.04-1.64 1.641M49.082 179.976l-1.653 1.653-2.036 2.04-2.039 2.035-.293.297M42.027 187.031l-.712.713-2.036 2.035-2.04 2.039-2.047 2.035-.81.81M49.311 175.668l-1.882 1.887-2.04 2.035-2.035 2.044-2.04 2.035-2.039 2.039-2.035 2.035-2.04 2.04-2.035 2.031-2.04 2.039-1.64 1.641M28.209 192.7l.882-.882 2.039-2.04 2.035-2.035 2.027-2.031.623-.623M36.723 184.186l.517-.522 2.04-2.035 2.035-2.039 2.039-2.036 2.035-2.039 2.04-2.035.81-.81M28 188.833l1.09-1.09 2.036-2.035 2.04-2.039 2.034-2.035 2.04-2.044 2.04-2.035 2.035-2.04 2.039-2.035 1.658-1.658M27.793 184.962l1.272-1.297 2.04-2.04.763-.759M32.449 180.306l.716-.716 2.035-2.04 2.04-2.035 2.035-2.039.636-.632M27.585 181.095l1.506-1.505 2.035-2.035 2.04-2.019 2.039-2.035.996-.996M27.378 177.228l1.708-1.713 2.04-2.039 1.662-1.654M28.713 171.817l-1.543 1.544M33.382 169.223h14.53M48.76 169.223h1.594v2.599h-5.626M43.333 171.822H31.8M31.312 171.822H26.25v-1.098M26.25 170.503v-1.272h5.732M41.73 149.083v17.829M41.73 143.282v3.799M122.684 195.426v-61.543H41.73v7.25" stroke="#263238" stroke-linecap="round" stroke-linejoin="round"/><path d="M111.809 137.49h6.478v54.908M46.127 166.916V137.49h61.925M49.23 130.461h2.057M54.238 130.461h70.299v3.396h-84.66v-3.396h8.043M141.294 128.781l-1.014 6.555M135.099 101.879h4.889a4.656 4.656 0 0 1 3.556 1.629 4.66 4.66 0 0 1 1.065 3.764l-2.764 17.927M130.126 101.879h3.574M109.553 126.454l3.176-20.611a4.658 4.658 0 0 1 4.621-3.964h10.232M106.008 149.447l1.59-10.324M124.092 162.617h4.863a8.93 8.93 0 0 0 6.216-2.506M97.287 162.617h16.947M90.282 161.086a8.91 8.91 0 0 0 5.008 1.531" stroke="#263238" stroke-linecap="round" stroke-linejoin="round"/><path d="M116.863 149.447H89.672a3.34 3.34 0 0 0-3.341 3.341v.848a8.942 8.942 0 0 0 1.933 5.563M137.669 151.529a3.346 3.346 0 0 0-3.096-2.082h-4.829M116.922 165.081h-11.634l-2.447-2.464" stroke="#263238" stroke-linecap="round" stroke-linejoin="round"/><path d="M108.633 165.08h6.983v8.158a.773.773 0 0 1-.771.772h-5.453a.775.775 0 0 1-.772-.772v-8.158h.013Z" stroke="#263238" stroke-linecap="round" stroke-linejoin="round"/><path d="M114.306 174.006h-4.367v10.057h4.367v-10.057ZM92.101 190.257c7.28-4.846 17.838-6.195 17.838-6.195M116.905 188.811c-7.365-1.081-14.696.547-21.624 2.332M128.947 191.144c-1.696-.424-3.392-.81-5.088-1.158M124.092 186.429a34.892 34.892 0 0 1 8.056 3.816M114.306 184.062c.92.128 1.836.293 2.743.475M92.958 195.736a2.739 2.739 0 1 0 0-5.478 2.739 2.739 0 0 0 0 5.478ZM134.408 192.997a2.74 2.74 0 0 1-4.676 1.937 2.737 2.737 0 0 1 1.937-4.676 2.74 2.74 0 0 1 2.739 2.739ZM128.332 157.029l2.15-14.565a3.163 3.163 0 0 1 2.705-2.679l9.989-1.374a1.544 1.544 0 0 0 1.34-1.535 1.55 1.55 0 0 0-1.552-1.552h-1.272l-9.896 1.527a5.506 5.506 0 0 0-3.093 1.616 5.504 5.504 0 0 0-1.503 3.149l-2.069 15.79a.978.978 0 0 0 .564 1.016.984.984 0 0 0 .403.087" stroke="#263238" stroke-linecap="round" stroke-linejoin="round"/><path d="m143.176 138.424-2.599 13.826a1.302 1.302 0 0 1 1.302 1.298v2.641a3.293 3.293 0 0 1-3.299 3.295h-12.147" stroke="#263238" stroke-linecap="round" stroke-linejoin="round"/><path d="m141.455 138.661-2.701 13.293h-7.102M89.706 141.595l-.725 5.55M92.237 147.697l.772-5.232a3.166 3.166 0 0 1 2.705-2.68l9.989-1.374M69.786 109.684l3.892 18.156a1.696 1.696 0 0 0 1.654 1.336h28.938a1.138 1.138 0 0 0 1.117-.886c.039-.168.04-.342.002-.509l-4.053-18.16a1.697 1.697 0 0 0-1.654-1.323H70.906a1.14 1.14 0 0 0-.892.426 1.138 1.138 0 0 0-.228.96Z" stroke="#263238" stroke-linecap="round" stroke-linejoin="round"/><path d="M86.479 116.668H84.24l-.636 2.005 1.607 2.006h2.239l.636-2.006-1.607-2.005ZM106.806 127.942h11.49v.624a1.126 1.126 0 0 1-1.128 1.123h-.297M169.477 172.836s6.381.504 6.648 5.215c0 0-6.461 2.972-6.648-5.215ZM182.104 174.005s3.566-4.821 9.328-2.349c0 0-3.519 5.83-9.328 2.349ZM190.944 158.784s1.022 9.277-7.42 6.721c0 0 2.684-6.818 7.42-6.721ZM180.577 153.624s6.678 3.6 1.768 9.061c0 0-4.689-3.901-1.768-9.061ZM172.365 161.909s7.258-.729 7.258 5.987c0 .008-7.258.288-7.258-5.987Z" stroke="#263238" stroke-linecap="round" stroke-linejoin="round"/><path d="M177.804 181.841c-.106-2.251-.106-5.152 1.272-8.221 3.176-7.073 4.24-13.03 2.591-17.227" stroke="#263238" stroke-linecap="round" stroke-linejoin="round"/><path d="M174.747 163.715s4.351 1.73 5.83 6.211M188.646 162.494s-2.514 3.426-6.784 3.057M188.646 172.641s-6.962 2.009-9.731 1.352M171.559 174.955s3.112 3.418 6.245 3.362M186.081 181.841h-15.133a.369.369 0 0 0-.369.369v1.149a.368.368 0 0 0 .369.369h.424l1.349 11.766h11.554l1.348-11.766h.424a.37.37 0 0 0 .369-.369v-1.149a.37.37 0 0 0-.335-.369ZM172.365 183.728h8.798M182.825 183.728h1.322" stroke="#263238" stroke-linecap="round" stroke-linejoin="round"/><path d="M97.6 36.998v117.838a1.02 1.02 0 0 1-1.021 1.021H26.776a1.02 1.02 0 0 1-1.022-1.021V36.998a1.022 1.022 0 0 1 1.022-1.022h22.069a1.08 1.08 0 0 1 1.081 1.08v2.477a1.081 1.081 0 0 0 1.081 1.081h21.344a1.081 1.081 0 0 0 1.082-1.08v-2.477a1.081 1.081 0 0 1 1.08-1.081h22.049a1.021 1.021 0 0 1 1.039 1.022Z" fill="#fff" stroke="#263238" stroke-linecap="round" stroke-linejoin="round"/><path d="M97.6 47.602H25.755v10.824H97.6V47.602Z" fill="#BFBFBF" stroke="#263238" stroke-linecap="round" stroke-linejoin="round"/><path d="M35.15 80.114h29.243M42.37 85.19h45.835M35.15 88.98h53.055M35.15 92.77h53.055M35.15 96.557h53.055M35.15 100.348h53.055M35.15 104.138h53.055M35.15 107.925h24.634" stroke="#263238" stroke-width="3" stroke-linecap="round" stroke-linejoin="round"/><path d="M89.515 51.68h2.71M89.515 52.932h2.71M89.515 54.179h2.71M33.284 52.932h-2.29M32.046 54.314l-1.386-1.386 1.386-1.387M85.52 51.68h-3.412v2.494h3.413V51.68Z" stroke="#263238" stroke-linecap="round" stroke-linejoin="round"/><path d="m82.108 51.68 1.704 1.247 1.709-1.246M77.698 54.657H75.4l-.305-2.976h2.908l-.305 2.976Z" stroke="#263238" stroke-linecap="round" stroke-linejoin="round"/><path d="M75.977 51.681v-.479h1.149v.48" stroke="#263238" stroke-linecap="round" stroke-linejoin="round"/><path d="M97.6 147.259v7.577a1.015 1.015 0 0 1-.627.944 1.026 1.026 0 0 1-.39.078H26.776a1.02 1.02 0 0 1-1.022-1.022v-7.577H97.6Z" fill="#4B8F46" stroke="#263238" stroke-linecap="round" stroke-linejoin="round"/><path d="M43.986 67.547h29.247" stroke="#263238" stroke-width="3" stroke-linecap="round" stroke-linejoin="round"/><path d="M38.61 71.105a3.608 3.608 0 1 0-1.157-7.124 3.608 3.608 0 0 0 1.157 7.124Z" fill="#4B8F46" stroke="#263238" stroke-linecap="round" stroke-linejoin="round"/><path d="M39.504 69.802c-.22 0-.848-.483-.636-.878.212-.394.636-1.047.636-1.047.187-.367.29-.77.305-1.183.09-.615-.262-1.662-1.78-1.662s-1.875 1.047-1.785 1.662c.014.412.118.816.305 1.183 0 0 .424.653.64 1.047.216.395-.424.878-.64.878-.355.08-.701.191-1.035.335 0 0 1.455 1.022 2.515 1.022s2.514-1.022 2.514-1.022a5.757 5.757 0 0 0-1.039-.335Z" fill="#263238"/><path d="M25.754 115.408H97.6" stroke="#263238" stroke-linecap="round" stroke-linejoin="round"/><path d="M97.6 135.133H25.755v12.126H97.6v-12.126Z" fill="#BFBFBF" stroke="#263238" stroke-linecap="round" stroke-linejoin="round"/><path d="M81.832 119.958h5.936a2.098 2.098 0 0 1 2.099 2.099v5.936a2.1 2.1 0 0 1-2.099 2.099h-5.936a2.094 2.094 0 0 1-2.095-2.095v-5.936a2.094 2.094 0 0 1 2.095-2.103Z" fill="#4B8F46" stroke="#263238" stroke-linecap="round" stroke-linejoin="round"/><path d="m83.248 124.232 1.425-1.425a1.573 1.573 0 0 1 2.688 1.115c0 .418-.166.82-.462 1.115l-2.32 2.32a1.063 1.063 0 0 1-.744.308 1.05 1.05 0 0 1-.744-1.792l2.205-2.205a.493.493 0 0 1 .695.695L84.8 125.55" stroke="#263238" stroke-width="1.5" stroke-linecap="round" stroke-linejoin="round"/><path d="M35.15 123.116h39.783M35.15 126.907h33.148" stroke="#263238" stroke-width="3" stroke-linecap="round" stroke-linejoin="round"/><path d="M43.901 138.13h-7.657c-.778 0-1.408.63-1.408 1.408v3.247c0 .778.63 1.408 1.408 1.408H43.9c.777 0 1.408-.63 1.408-1.408v-3.247c0-.778-.63-1.408-1.408-1.408Z" stroke="#263238" stroke-linecap="round" stroke-linejoin="round"/><path d="M41.65 142.396v-.424a1.07 1.07 0 0 0-.663-.991 1.071 1.071 0 0 0-.41-.082h-1.773" stroke="#263238" stroke-linecap="round" stroke-linejoin="round"/><path d="m39.457 141.849-.958-.958.958-.958M65.767 138.13h-7.658c-.777 0-1.407.63-1.407 1.408v3.247c0 .778.63 1.408 1.407 1.408h7.658c.777 0 1.407-.63 1.407-1.408v-3.247c0-.778-.63-1.408-1.407-1.408Z" stroke="#263238" stroke-linecap="round" stroke-linejoin="round"/><path d="M64.024 142.396v-.424a1.072 1.072 0 0 0-1.073-1.073H61.18" stroke="#263238" stroke-linecap="round" stroke-linejoin="round"/><path d="m61.82 141.849-.959-.958.958-.958M60.827 141.849l-.962-.958.962-.958M80.475 144.197h7.658c.777 0 1.407-.63 1.407-1.407v-3.248c0-.778-.63-1.408-1.407-1.408h-7.658c-.777 0-1.407.63-1.407 1.408v3.248c0 .777.63 1.407 1.407 1.407Z" stroke="#263238" stroke-linecap="round" stroke-linejoin="round"/><path d="M82.727 142.396v-.424a1.072 1.072 0 0 1 1.072-1.073h1.773" stroke="#263238" stroke-linecap="round" stroke-linejoin="round"/><path d="m84.919 141.849.958-.958-.958-.958" stroke="#263238" stroke-linecap="round" stroke-linejoin="round"/><path d="M97.6 36.993v10.6H25.755v-10.6a1.021 1.021 0 0 1 1.022-1.021h22.069a1.08 1.08 0 0 1 1.081 1.08v2.477a1.081 1.081 0 0 0 1.081 1.081h21.344a1.081 1.081 0 0 0 1.082-1.081v-2.472a1.081 1.081 0 0 1 1.08-1.081h22.049a1.015 1.015 0 0 1 1.039 1.017Z" fill="#4B8F46" stroke="#263238" stroke-linecap="round" stroke-linejoin="round"/><path d="M119.03 83.498v1.06" stroke="#263238" stroke-linecap="round" stroke-linejoin="round"/><path d="M119.03 86.62v36.06" stroke="#263238" stroke-linecap="round" stroke-linejoin="round" stroke-dasharray="4.86 4.86"/><path d="M119.03 123.71v1.06h-1.06" stroke="#263238" stroke-linecap="round" stroke-linejoin="round"/><path d="M115.973 124.771H93.009" stroke="#263238" stroke-linecap="round" stroke-linejoin="round" stroke-dasharray="4.71 4.71"/><path d="M92.012 124.771h-1.06" stroke="#263238" stroke-linecap="round" stroke-linejoin="round"/><path d="M169.337 187.336s.115 3.256-1.005 4.372c-1.119 1.115-.67 4.028-.67 4.028h10.121l.28-3.053-1.696-6.093-7.03.746ZM144.516 186.59s1.115 2.942-3.023 4.367c-4.138 1.425-6.597 1.425-6.932 3.769v1.01h8.84l2.79-.895.895.895h4.922l.556-1.79-.772-5.859-7.276-1.497Z" fill="#757575" stroke="#263238" stroke-linecap="round" stroke-linejoin="round"/><path d="m145.241 106.322-2.094 11.584s-1.213 17.282-1.069 24.49c.144 7.208 2.659 39.826 2.493 41.128-.165 1.302-1.505 2.726-1.424 2.938.08.212.508 1.874.508 1.874l8.315 1.192 1.153-2.184s-1.467-1.87-1.153-2.438c.482-1.126.868-2.29 1.153-3.481.17-.78 1.798-45.012 1.798-45.012s11.448 43.774 11.448 45.432c0 1.658 1.844 3.515 1.844 3.515l-.64 3.32 1.488 1.62s4.304-1.955 8.553 0l-.225-3.303-1.272-1.654.335-2.311s-1.726-17.935-3.63-26.44c-1.903-8.506-3.129-36.888-3.65-38.932-.522-2.044-2.26-12.453-2.26-12.453l-21.671 1.115Z" fill="#263238"/><path d="M132.822 45.185h-27.585a2.523 2.523 0 0 0-2.523 2.523v32.067a2.523 2.523 0 0 0 2.523 2.523h27.585a2.523 2.523 0 0 0 2.523-2.523V47.708a2.523 2.523 0 0 0-2.523-2.523Z" fill="#4B8F46" stroke="#263238" stroke-linecap="round" stroke-linejoin="round"/><path d="M126.119 53.331H109.85v23.29h16.269v-23.29Z" fill="#fff"/><mask id="a" style="mask-type:luminance" maskUnits="userSpaceOnUse" x="109" y="53" width="18" height="24"><path d="M126.119 53.331H109.85v23.29h16.269v-23.29Z" fill="#fff"/></mask><g mask="url(#a)"><path opacity=".4" d="M126.119 53.331H109.85v23.29h16.269v-23.29Z" fill="#4B8F46"/></g><path d="M126.119 53.331H109.85v23.29h16.269v-23.29Z" stroke="#263238" stroke-linecap="round" stroke-linejoin="round"/><path d="m125.586 50.04-15.954 3.186 4.559 22.84 15.954-3.186-4.559-22.84Z" fill="#fff" stroke="#263238" stroke-linecap="round" stroke-linejoin="round"/><path d="M110.825 52.873a1.581 1.581 0 0 1 1.459-.975 1.573 1.573 0 0 1 1.573 1.572v3.282a1.049 1.049 0 1 1-2.099 0v-3.116a.493.493 0 0 1 .984 0v1.675" stroke="#263238" stroke-width="1.5" stroke-linecap="round" stroke-linejoin="round"/><path d="M136.002 88.383c0 2.28-3.392 2.968-3.392 2.968-6.207-5.695-7.606-12.69-10.625-13.802a2.378 2.378 0 0 1-.742-.453 5.652 5.652 0 0 1-1.349-2.159l4.016-.8a8.898 8.898 0 0 1 1.081-2.969c.293-.424-.131-1.374-.628-2.45a1.343 1.343 0 0 1 .208-1.336 7.614 7.614 0 0 1 2.167 2.862c.615 1.64 0 5.512 1.81 7.411 3.244 3.418 3.732 3.223 6.784 5.852.382 1.6.606 3.232.67 4.876Z" fill="#fff"/><mask id="b" style="mask-type:luminance" maskUnits="userSpaceOnUse" x="119" y="67" width="18" height="25"><path d="M136.002 88.383c0 2.28-3.392 2.968-3.392 2.968-6.207-5.695-7.606-12.69-10.625-13.802a2.378 2.378 0 0 1-.742-.453 5.652 5.652 0 0 1-1.349-2.159l4.016-.8a8.898 8.898 0 0 1 1.081-2.969c.293-.424-.131-1.374-.628-2.45a1.343 1.343 0 0 1 .208-1.336 7.614 7.614 0 0 1 2.167 2.862c.615 1.64 0 5.512 1.81 7.411 3.244 3.418 3.732 3.223 6.784 5.852.382 1.6.606 3.232.67 4.876Z" fill="#fff"/></mask><g mask="url(#b)"><path opacity=".4" d="M121.239 77.083a5.64 5.64 0 0 1-1.349-2.159l4.016-.801a5.484 5.484 0 0 0 0 1.912c.127.496-1.446.5-2.667 1.048Z" fill="#4B8F46"/></g><path d="M136.002 88.383c0 2.28-3.392 2.968-3.392 2.968-6.207-5.695-7.606-12.69-10.625-13.802a2.378 2.378 0 0 1-.742-.453 5.652 5.652 0 0 1-1.349-2.159l4.016-.8a8.898 8.898 0 0 1 1.081-2.969c.293-.424-.131-1.374-.628-2.45a1.343 1.343 0 0 1 .208-1.336 7.614 7.614 0 0 1 2.167 2.862c.615 1.64 0 5.512 1.81 7.411 3.244 3.418 3.732 3.223 6.784 5.852.382 1.6.606 3.232.67 4.876Z" stroke="#263238" stroke-linecap="round" stroke-linejoin="round"/><path d="M147.196 71.16v14.874s-1.934 1.908-4.032 3.918c-2.243 2.15-4.664 4.414-5.135 4.596-.895.348-2.684-1.022-2.684-1.022-1.005.67-2.014-.755-2.014-.755-1.005 1.03-2.014-.7-.78-2.488 1.234-1.79 2.794-6.784 2.794-6.784a.773.773 0 0 1 1.119 0s7.696-10.885 10.732-12.339Z" fill="#4B8F46"/><mask id="c" style="mask-type:luminance" maskUnits="userSpaceOnUse" x="131" y="71" width="17" height="24"><path d="M147.196 71.16v14.874s-1.934 1.908-4.032 3.918c-2.243 2.15-4.664 4.414-5.135 4.596-.895.348-2.684-1.022-2.684-1.022-1.005.67-2.014-.755-2.014-.755-1.005 1.03-2.014-.7-.78-2.488 1.234-1.79 2.794-6.784 2.794-6.784a.773.773 0 0 1 1.119 0s7.696-10.885 10.732-12.339Z" fill="#fff"/></mask><g mask="url(#c)"><path opacity=".2" d="M147.196 77.524v8.51s-1.934 1.908-4.032 3.918a7.133 7.133 0 0 1-1.781-3.341c-.25-1.773 1.844-.492 1.844-.492-1.509-1.518.255-8.48.344-7.297.076.954.322 3.027.424 3.778-.204-2.671 2.476-4.774 3.201-5.076Z" fill="#000" fill-opacity=".7"/></g><path d="M147.196 71.16v14.874s-1.934 1.908-4.032 3.918c-2.243 2.15-4.664 4.414-5.135 4.596-.895.348-2.684-1.022-2.684-1.022-1.005.67-2.014-.755-2.014-.755-1.005 1.03-2.014-.7-.78-2.488 1.234-1.79 2.794-6.784 2.794-6.784a.773.773 0 0 1 1.119 0s7.696-10.885 10.732-12.339Z" stroke="#263238" stroke-linecap="round" stroke-linejoin="round"/><path d="M167.773 106.284c.826 1.344-21.938 1.921-23.507.848a1.544 1.544 0 0 1-.466-.479c-.713-1.158.466-2.879.466-2.879s-.199-23.672 2.93-32.614a72.784 72.784 0 0 1 9.095-.424c2.031.03 4.278.144 6.601.424 1.696.186 3.757.534 5.805.916 3.422.644 6.784 1.399 8.094 1.696l.598.14s-10.443 31.032-9.616 32.372Z" fill="#4B8F46"/><mask id="d" style="mask-type:luminance" maskUnits="userSpaceOnUse" x="143" y="70" width="35" height="38"><path d="M167.773 106.284c.826 1.344-21.938 1.921-23.507.848a1.544 1.544 0 0 1-.466-.479c-.713-1.158.466-2.879.466-2.879s-.199-23.672 2.93-32.614a72.784 72.784 0 0 1 9.095-.424c2.031.03 4.278.144 6.601.424 1.696.186 3.757.534 5.805.916 3.422.644 6.784 1.399 8.094 1.696l.598.14s-10.443 31.032-9.616 32.372Z" fill="#fff"/></mask><g mask="url(#d)" fill="#000" fill-opacity=".7"><path opacity=".2" d="M154.709 76.036s-1.522-2.573 1.013-4.876c.175-.16.365-.302.569-.424 2.031.03 4.278.144 6.601.424 1.696.187 3.757.535 5.805.916l-9.112 4.817-1.891-1.93-2.985 1.073ZM167.773 106.284c.826 1.345-21.938 1.921-23.507.848a1.544 1.544 0 0 1-.466-.479c4.519.823 15.688-.212 18.719-1.437 3.604-1.45 5.703-8.026 4.554-7.356-1.149.67-4.974.254-2.082-1.175 2.892-1.429 6.106-6.11 6.106-6.11s-2.036-5.88-1.366-7.076c.488-.878 1.116.746 1.417 1.696-.513-2.417 1.318-4.83 1.318-4.83l4.342-6.589.598.14s-10.46 31.029-9.633 32.368Z"/></g><path d="M167.773 106.284c.826 1.344-21.938 1.921-23.507.848a1.544 1.544 0 0 1-.466-.479c-.713-1.158.466-2.879.466-2.879s-.199-23.672 2.93-32.614a72.784 72.784 0 0 1 9.095-.424c2.031.03 4.278.144 6.601.424 1.696.186 3.757.534 5.805.916 3.422.644 6.784 1.399 8.094 1.696l.598.14s-10.443 31.032-9.616 32.372Z" stroke="#263238" stroke-linecap="round" stroke-linejoin="round"/><path d="M166.501 71.554s-8.48 3.392-11.249-.153a2.807 2.807 0 0 0 2.442-1.166 4.277 4.277 0 0 0 .683-2.26 9.917 9.917 0 0 0-.144-2.243c-.327-1.988 8.022-.704 8.022-.704s-1.794 5.525.246 6.526Z" fill="#fff" stroke="#263238" stroke-linecap="round" stroke-linejoin="round"/><path d="M161.48 67.186s-1.458 2.515-3.786 3.05a4.268 4.268 0 0 0 .683-2.26c1.577-.459 3.103-.79 3.103-.79Z" fill="#263238"/><path d="M166.255 64.57c2.361-3.497 5.961-17.303-5.652-14.606-5.775 1.34-5.029 8.904-5.029 8.904l-1.988 2.463 1.645 1.395-.068 1.641.559.2s-.491 3.99 0 4.24c.899.457 6.806-.263 6.806-1.696" fill="#fff"/><path d="M166.255 64.57c2.361-3.497 5.961-17.303-5.652-14.606-5.775 1.34-5.029 8.904-5.029 8.904l-1.988 2.463 1.645 1.395-.068 1.641.559.2s-.491 3.99 0 4.24c.899.457 6.806-.263 6.806-1.696" stroke="#263238" stroke-linecap="round" stroke-linejoin="round"/><path d="M155.722 64.571c.97.122 1.949.139 2.922.051a1.884 1.884 0 0 1-2.26.848M156.558 55.841s1.971-.195 2.904 1.132" stroke="#263238" stroke-linecap="round" stroke-linejoin="round"/><path d="M157.728 58.868c0 .394-.161.712-.356.712-.195 0-.356-.318-.356-.712 0-.394.157-.717.356-.717.199 0 .356.323.356.717ZM169.846 52.067c-1.87-1.929-9.875-4.757-12.152-3.59-3.341 1.271-2.442 4.922-2.442 4.922l.47-1.272s.246 1.077 1.972 1.725v-.805a7.539 7.539 0 0 0 3.447.538l-.364-.542c.45.102.894.235 1.327.398-1.272 2.375.165 4.054.165 4.054v3.214s1.696 1.657 2.175 3.328a2.492 2.492 0 0 0 1.823 1.882c3.681-2.255 5.546-11.82 3.579-13.852Z" fill="#263238"/><path d="M161.875 61.183s1.819-2.45 2.756-2.06c.937.39 1.178 2.65.687 3.684-.492 1.034-2.265 3.146-2.655 2.361" fill="#fff"/><path d="M161.875 61.183s1.819-2.45 2.756-2.06c.937.39 1.178 2.65.687 3.684-.492 1.034-2.265 3.146-2.655 2.361M136.464 83.498a15.538 15.538 0 0 1 0 8.573M133.331 92.771s1.696-2.599 2.014-4.388" stroke="#263238" stroke-linecap="round" stroke-linejoin="round"/><path d="m155.722 73.017.848 3.019s-4.998 16.71-5.558 21.518l1.119 1.696 2.12-1.599s2.095-16.45 3.452-21.043l2.573-3.485-1.624-.161-2.93.055Z" fill="#263238"/><path d="m157.028 70.235.984 2.044 8.48-2.044 2.196 1.84-9.234 3.96-1.45-2.9-2.761 1.942s-2.031-4.54 1.785-4.842Z" fill="#4B8F46" stroke="#263238" stroke-linecap="round" stroke-linejoin="round"/><path d="M176.694 98.53a32.783 32.783 0 0 0-5.788 6.961c-2.264 3.859-5.703 7.717-7.467 8.722 0 0 .17 3.439 2.349 5.368 0 0 14.34-12.72 16.112-16.689 1.773-3.968-5.206-4.363-5.206-4.363Z" fill="#fff" stroke="#263238" stroke-linecap="round" stroke-linejoin="round"/><path d="M177.389 73.916c2.684 1.272 6.36 23.96 6.47 27.102.03 1.005-1.997 3.18-1.997 3.18s.034 1.95-1.213 2.12c0 0-3.705-3.816-6.839-5.283a1.063 1.063 0 0 1 .579-1.374c.171-.07.357-.095.541-.072l-2.43-10.6c-2.603-8.734 2.879-13.144 2.879-13.144" fill="#4B8F46"/><path d="M177.389 73.916c2.684 1.272 6.36 23.96 6.47 27.102.03 1.005-1.997 3.18-1.997 3.18s.034 1.95-1.213 2.12c0 0-3.705-3.816-6.839-5.283a1.063 1.063 0 0 1 .579-1.374c.171-.07.357-.095.541-.072l-2.43-10.6c-2.603-8.734 2.879-13.144 2.879-13.144" stroke="#263238" stroke-linecap="round" stroke-linejoin="round"/><path d="M174.93 99.593s3.688.28 5.702 3.298" stroke="#263238" stroke-linecap="round" stroke-linejoin="round"/><path d="M158.211 110.239a46.535 46.535 0 0 0 6.784-.742l-.178-2.039a64.536 64.536 0 0 1-6.826.661c.063.577.161 1.493.22 2.12ZM165.822 109.341c.424-.089.848-.187 1.272-.289l-.305-1.929s-.399.089-1.145.216l.178 2.002ZM157.037 108.154a80.978 80.978 0 0 1-9.973-.301l-.241 1.835c3.418.465 6.867.664 10.316.598l-.102-2.132ZM146.386 107.785l-.848-.089-.225 1.76s.306.055.848.136l.225-1.807Z" fill="#757575" stroke="#263238" stroke-linecap="round" stroke-linejoin="round"/><path d="m153.039 110.435-3.689-.127.28-2.345 3.688.127-.279 2.345Z" fill="#BFBFBF" stroke="#263238" stroke-linecap="round" stroke-linejoin="round"/><path d="M135.01 194.841h7.882l3.689-.784 1.569.784h3.243M168.107 194.841h8.892M169.227 191.164s3.85-1.564 6.207-.517M160.878 81.667l6.195.632-1.45 6.504-3.273.415-2.765-1.755.683-5.164M176.274 82.298s-2.659 1.039-2.939 5.088M143.227 79.996s.301 4.312 1.577 6.644M145.856 104.135s10.82-.823 13.992-3.757M170.317 84.838s.678 2.705 2.018 3.544" stroke="#263238" stroke-linecap="round" stroke-linejoin="round"/><g opacity=".2" stroke="#fff" stroke-linecap="round" stroke-linejoin="round"><path d="M150.52 113.254s-.14 7.874.475 8.862c.615.987.979 1.174.979 1.174M151.979 112.783s.029 11.834 1.339 15.777M162.519 111.936s.14 6.254 4.554 8.997M168.387 118.948s.17 6.504 0 7.844c-.169 1.34.925 7.666.925 10.291 0 2.624.92 6.737.92 7.657M153.713 130.592s6.419 2.073 7.78 1.827M153.713 131.982c-.67-.576-5.788 1.989-6.458 1.696M153.713 133.717c-.17.288-5.203 7.284-5.873 6.512M154.552 132.809s5.326 5.308 6.941 5.893M169.227 184.647s3.858-3.54 4.278-4.278c.42-.737-3.689-1.577-3.689-1.577M170.232 186.589s2.853-1.009 4.698-.123M146.331 182.85s3.689-2.273 3.608-3.625M151.389 183.74s-4.303 2.375-5.563 2.362c-1.259-.013 3.439 1.747 4.613 1.497"/></g><path d="m115.472 68.752 6.343-1.264M115.171 67.136l11.045-2.204M114.874 65.52l11.041-2.205M114.573 63.905l11.041-2.205M114.272 62.286l11.041-2.205M113.971 60.67l11.041-2.205M113.67 59.054l11.041-2.204M116.316 56.85l8.094-1.616M17.867 195.735h177.868" stroke="#263238" stroke-linecap="round" stroke-linejoin="round"/></svg>