<svg width="151" height="151" fill="none" xmlns="http://www.w3.org/2000/svg"><path d="M47.496 18.941h10.053v16.027H46.266V20.17a1.23 1.23 0 0 1 1.23-1.229Z" fill="#E0E0E0"/><path d="m61.804 20.928-7.791-.033-22.756-.106h-2.742l-6.82-.033a6.121 6.121 0 0 0-6.157 6.076l-.417 98.072a6.121 6.121 0 0 0 6.104 6.139l40.108.185a6.126 6.126 0 0 0 6.158-6.089l.417-98.071a6.125 6.125 0 0 0-6.104-6.14Z" fill="#F5F5F5"/><path d="M59.733 35.14c0 .097-8.456.172-18.918.172-10.461 0-18.92-.075-18.92-.172 0-.097 8.456-.175 18.92-.175 10.465 0 18.918.066 18.918.175ZM61.149 39.897H21.46v2.654H61.15v-2.654ZM59.733 50.352c0 .094-8.456.172-18.918.172-10.461 0-18.92-.09-18.92-.172 0-.082 8.456-.175 18.92-.175 10.465 0 18.918.078 18.918.175ZM59.733 55.184c0 .097-8.456.172-18.918.172-10.461 0-18.92-.075-18.92-.172 0-.097 8.456-.175 18.92-.175 10.465 0 18.918.078 18.918.175ZM59.733 60.016c0 .096-8.456.172-18.918.172-10.461 0-18.92-.076-18.92-.172 0-.097 8.456-.172 18.92-.172 10.465 0 18.918.075 18.918.172ZM59.733 64.848c0 .097-8.456.175-18.918.175-10.461 0-18.92-.078-18.92-.175 0-.097 8.456-.172 18.92-.172 10.465 0 18.918.078 18.918.172ZM59.733 69.683c0 .094-8.456.172-18.918.172-10.461 0-18.92-.078-18.92-.172 0-.094 8.456-.175 18.92-.175 10.465 0 18.918.078 18.918.175ZM60.276 75.161c0 .097-8.474.176-18.92.176-10.446 0-18.92-.079-18.92-.176 0-.096 8.47-.172 18.92-.172 10.45 0 18.92.076 18.92.172Z" fill="#E0E0E0"/><path d="M61.729 84.089H21.94v38.493H61.73V84.089Z" fill="#EBEBEB"/><path d="M48.87 95.625a2.864 2.864 0 1 1-5.728 0 2.864 2.864 0 0 1 5.728 0Z" fill="#E0E0E0"/><path d="m58.654 87.103-33.615-.028c.036-.042-.363.363-.193.197v16.936c0 5.391 0 10.488.018 15.175v.166h.166l24.413-.084 6.817-.042 1.787-.019h.453c.05.005.1.005.148 0l-8.154-13.967-5.469 6.723-8.993-12.681-10.83 19.732c0-4.642 0-9.679.018-15.003V87.456l33.265-.027c.034 9.54.064 17.489.082 23.079l.042 6.538c0 .743 0 1.323.021 1.73v.45a1.112 1.112 0 0 0 0 .157.717.717 0 0 0 0-.139v-.431c0-.402 0-.97.018-1.701 0-1.51.025-3.714.043-6.502.02-5.647.048-13.69.084-23.344v-.163h-.12Z" fill="#E0E0E0"/><path d="M61.342 20.593a1.649 1.649 0 0 0-1.649-1.652H48.24a1.647 1.647 0 0 1 1.648 1.646V36.67l5.738-3.229 5.738 2.942s-.039-11.434-.02-15.789Z" fill="#EBEBEB"/><path d="m55.988 24.957.398.81a.239.239 0 0 0 .173.126l.906.13a.23.23 0 0 1 .126.39l-.646.628a.232.232 0 0 0-.066.202l.154.906a.23.23 0 0 1-.333.242l-.8-.42a.22.22 0 0 0-.211 0l-.813.417a.226.226 0 0 1-.317-.117.227.227 0 0 1-.012-.125l.151-.906a.231.231 0 0 0-.066-.202l-.646-.628a.23.23 0 0 1 .013-.338.23.23 0 0 1 .113-.052l.906-.13a.236.236 0 0 0 .172-.127l.378-.806a.229.229 0 0 1 .42 0Z" fill="#fff"/><path d="M113.03 18.138h10.053v16.027H111.8V19.367a1.231 1.231 0 0 1 1.23-1.23Z" fill="#E0E0E0"/><path d="m127.338 20.128-7.791-.036-22.759-.103h-2.74l-6.818-.057a6.12 6.12 0 0 0-6.161 6.088l-.417 98.072a6.127 6.127 0 0 0 6.103 6.139l40.109.184a6.108 6.108 0 0 0 4.342-1.767 6.107 6.107 0 0 0 1.819-4.321l.414-98.053a6.144 6.144 0 0 0-.456-2.346 6.133 6.133 0 0 0-3.303-3.326 6.114 6.114 0 0 0-2.342-.474Z" fill="#F5F5F5"/><path d="M125.267 34.34c0 .094-8.472.172-18.921.172s-18.92-.078-18.92-.172c0-.093 8.471-.175 18.92-.175 10.449 0 18.921.079 18.921.175ZM126.683 39.097H86.994v2.654h39.689v-2.654ZM125.267 49.55c0 .096-8.472.174-18.921.174s-18.92-.078-18.92-.175c0-.096 8.471-.172 18.92-.172 10.449 0 18.921.075 18.921.172ZM125.267 54.381c0 .097-8.472.175-18.921.175s-18.92-.078-18.92-.175c0-.096 8.471-.172 18.92-.172 10.449 0 18.921.078 18.921.172ZM125.267 59.216c0 .094-8.472.172-18.921.172s-18.92-.078-18.92-.172c0-.093 8.471-.175 18.92-.175 10.449 0 18.921.079 18.921.175ZM125.267 64.048c0 .097-8.472.172-18.921.172s-18.92-.075-18.92-.172c0-.096 8.471-.175 18.92-.175 10.449 0 18.921.079 18.921.175ZM125.267 68.88c0 .097-8.472.175-18.921.175s-18.92-.078-18.92-.175c0-.096 8.471-.172 18.92-.172 10.449 0 18.921.076 18.921.172ZM125.807 74.36c0 .094-8.471.173-18.917.173-10.446 0-18.923-.079-18.923-.172 0-.094 8.47-.175 18.923-.175 10.452 0 18.917.078 18.917.175Z" fill="#E0E0E0"/><path d="M127.263 83.285H87.474v38.493h39.789V83.285Z" fill="#EBEBEB"/><path d="M114.401 94.828a2.86 2.86 0 0 1-1.768 2.645 2.863 2.863 0 1 1 1.768-2.645Z" fill="#E0E0E0"/><path d="m124.185 86.303-33.615-.028-.194.194v16.936c0 5.394 0 10.488.019 15.178v.166h.163l24.413-.084 6.82-.045 1.784-.019h.453c.05.005.099.005.148 0l-8.154-13.97-5.469 6.725-8.99-12.68-10.83 19.732c0-4.639 0-9.664.018-15.003V86.656l33.265-.027c.037 9.54.064 17.492.085 23.082l.042 6.535c0 .746.015 1.323.018 1.733v.45a1.37 1.37 0 0 0 0 .157.646.646 0 0 0 0-.139v-.431c0-.402 0-.97.018-1.701 0-1.51.028-3.714.043-6.502.021-5.647.051-13.69.084-23.344v-.163l-.121-.003Z" fill="#E0E0E0"/><path d="M126.873 19.793a1.65 1.65 0 0 0-1.646-1.655h-11.455a1.648 1.648 0 0 1 1.646 1.649v16.078l5.738-3.225 5.738 2.938s-.036-11.418-.021-15.785Z" fill="#EBEBEB"/><path d="m121.519 24.16.401.809a.224.224 0 0 0 .173.124l.906.13a.225.225 0 0 1 .113.051.23.23 0 0 1 .013.338l-.646.631a.218.218 0 0 0-.058.093.215.215 0 0 0-.008.11l.151.905a.225.225 0 0 1-.21.266.229.229 0 0 1-.123-.027l-.797-.42a.243.243 0 0 0-.214 0l-.797.42a.229.229 0 0 1-.242-.014.225.225 0 0 1-.091-.225l.151-.906a.214.214 0 0 0-.063-.202l-.646-.631a.225.225 0 0 1 .011-.34.225.225 0 0 1 .115-.05l.891-.13a.224.224 0 0 0 .172-.123l.381-.81a.22.22 0 0 1 .084-.1.224.224 0 0 1 .249 0c.037.024.066.06.084.1ZM114.721 59.476l2.521-4.446a11.923 11.923 0 0 1 3.007-15.798 11.92 11.92 0 1 1-.153 18.973l-5.375 1.27Z" fill="#fff"/><path d="m114.721 59.476 5.369-1.304-.021.063a.033.033 0 0 1-.009-.012.038.038 0 0 1 0-.03.037.037 0 0 1 .033-.022c.009 0 .018.004.024.01a12.243 12.243 0 0 0 2.438 1.45c1.03.454 2.12.759 3.237.905.618.084 1.243.114 1.866.088.324-.018.65-.027.979-.058l.993-.15a11.883 11.883 0 0 0 7.342-4.736 11.727 11.727 0 0 0 1.981-4.545c.337-1.73.289-3.515-.142-5.225a11.601 11.601 0 0 0-2.518-4.832l-.481-.528c-.157-.178-.344-.323-.516-.486a6.958 6.958 0 0 0-.532-.465l-.564-.423a4.97 4.97 0 0 0-.583-.384l-.604-.362-.625-.302a5.075 5.075 0 0 0-.628-.278 11.996 11.996 0 0 0-5.267-.815c-1.696.115-3.345.6-4.832 1.422a11.97 11.97 0 0 0-5.602 6.861 12.843 12.843 0 0 0-.526 3.833 11.843 11.843 0 0 0 1.734 5.865.038.038 0 0 1 .005.018.038.038 0 0 1-.005.018l-2.555 4.427 2.491-4.463v.039a11.839 11.839 0 0 1-1.779-5.901c-.025-1.31.149-2.615.517-3.872a12.08 12.08 0 0 1 5.647-6.946 11.746 11.746 0 0 1 4.899-1.45c1.817-.13 3.64.15 5.333.822.219.08.432.175.637.284l.634.302.604.368c.205.116.402.247.589.39l.571.429c.196.136.359.302.541.468.181.166.362.302.522.495l.486.535a11.718 11.718 0 0 1 2.552 4.892c.436 1.733.483 3.54.139 5.294a11.78 11.78 0 0 1-1.987 4.594 11.977 11.977 0 0 1-7.435 4.774l-1.006.151c-.332.027-.661.036-.987.055-.63.024-1.261-.008-1.885-.097a11.98 11.98 0 0 1-3.262-.93c-.87-.396-1.691-.891-2.446-1.477l.055-.054a.04.04 0 0 1 0 .054h-.015l-5.406 1.241Z" fill="#263238"/><path d="M125.028 43.187h-1.268a1.1 1.1 0 0 0-1.014.678 1.102 1.102 0 0 0-.083.42v7.001l7.629-.112v-6.9a1.093 1.093 0 0 1 1.078-1.087h-6.342Z" fill="#4B8F46"/><path d="M125.028 43.187h-1.268a1.1 1.1 0 0 0-1.014.678 1.102 1.102 0 0 0-.083.42v7.001l7.629-.112v-6.9a1.093 1.093 0 0 1 1.078-1.087h-6.342Z" fill="#000" opacity=".3"/><path d="M132.276 44.274a1.08 1.08 0 0 0-.318-.776 1.097 1.097 0 0 0-.775-.32h-7.629a1.092 1.092 0 0 1 1.096 1.096v10.162a.31.31 0 0 0 .037.158.304.304 0 0 0 .426.111l3.355-1.884 3.361 1.721a.303.303 0 0 0 .45-.275c-.003-1.748-.021-7.553-.003-9.993Z" fill="#4B8F46"/><path d="m128.462 47.091.278.565a.155.155 0 0 0 .049.058.166.166 0 0 0 .071.03l.626.09a.164.164 0 0 1 .079.036.16.16 0 0 1 .008.235l-.45.442a.154.154 0 0 0-.048.142l.109.622a.164.164 0 0 1-.064.157.16.16 0 0 1-.169.012l-.559-.302a.16.16 0 0 0-.148 0l-.558.302a.163.163 0 0 1-.087.018.162.162 0 0 1-.137-.1.164.164 0 0 1-.009-.087l.106-.622a.154.154 0 0 0-.046-.142l-.453-.441a.16.16 0 0 1 .091-.272l.625-.09a.153.153 0 0 0 .118-.087l.281-.566a.161.161 0 0 1 .143-.089c.03 0 .059.008.085.024a.169.169 0 0 1 .059.065Z" fill="#fff"/><path d="M62.514 8.879h10.054v16.027H61.306V10.108a1.229 1.229 0 0 1 1.208-1.23Z" fill="#4B8F46"/><path d="M62.514 8.879H72.58v16.027H61.306V10.108a1.209 1.209 0 0 1 1.208-1.23Z" fill="#000" opacity=".3"/><path d="m76.838 10.873-7.792-.037-22.759-.106h-2.739l-6.819-.03a6.124 6.124 0 0 0-6.16 6.089l-.417 98.053a6.124 6.124 0 0 0 6.103 6.14l40.112.187a6.127 6.127 0 0 0 6.157-6.088l.417-98.072a6.125 6.125 0 0 0-6.103-6.136Z" fill="#FAFAFA"/><path d="M76.838 10.872H77.297c.117.003.234.015.35.036l.447.07.535.138c.187.06.39.14.604.22.214.082.438.194.661.336.509.294.972.659 1.377 1.084.497.516.895 1.12 1.175 1.779.334.762.51 1.584.516 2.416v2.818c-.027 7.966-.07 19.494-.117 33.736-.049 14.242-.124 31.203-.197 50.032 0 2.354-.009 4.737-.027 7.149 0 1.208-.005 2.416-.015 3.624v.906l-.027.465-.07.459a5.976 5.976 0 0 1-.604 1.758 6.433 6.433 0 0 1-1.102 1.51 6.712 6.712 0 0 1-1.51 1.111 6.299 6.299 0 0 1-1.785.604l-.47.069-.475.024c-.302.016-.631 0-.945 0l-7.614-.036-31.71-.145a6.246 6.246 0 0 1-3.817-1.328 6.168 6.168 0 0 1-2.183-3.368 7.304 7.304 0 0 1-.188-2.011v-2.005c0-1.331.006-2.659.018-3.984.02-5.291.043-10.501.067-15.631l.13-29.551c.042-9.42.081-18.365.12-26.74l.055-12.118c0-1.943.009-3.847.027-5.711v-2.08l.021-.345c0-.115.034-.23.049-.341a6.136 6.136 0 0 1 5.345-5.14c.42-.044.843-.06 1.265-.049H40.891l9.06.049 14.51.081 9.173.057 2.385.018h.813-3.192l-9.172-.027-14.511-.054-9.06-.036h-3.685a9.124 9.124 0 0 0-1.253.048 6.04 6.04 0 0 0-5.252 5.074c0 .111-.039.223-.048.335l-.018.341v2.075c0 1.862-.007 3.767-.021 5.714-.014 3.887-.03 7.926-.049 12.116l-.105 26.742c-.037 9.42-.079 19.3-.121 29.55-.02 5.123-.042 10.333-.066 15.632v5.986c-.032.663.03 1.327.184 1.972a5.99 5.99 0 0 0 2.114 3.283 6.086 6.086 0 0 0 3.72 1.295l31.71.148 7.614.037h.939l.465-.025.46-.066a6.227 6.227 0 0 0 1.742-.604 6.522 6.522 0 0 0 1.476-1.084 6.341 6.341 0 0 0 1.079-1.471 5.801 5.801 0 0 0 .589-1.715l.069-.447.024-.453c.018-.302 0-.604 0-.906l.018-3.639c0-2.416.01-4.798.03-7.146.088-18.833.163-35.79.23-50.032.066-14.242.127-25.77.17-33.737v-2.817a6.118 6.118 0 0 0-.505-2.395 5.917 5.917 0 0 0-1.169-1.733 6.111 6.111 0 0 0-1.368-1.085c-.22-.142-.45-.23-.655-.338-.206-.109-.414-.16-.604-.223l-.529-.14-.444-.075a2.382 2.382 0 0 0-.35-.04l-.254-.014-.196-.012Z" fill="#263238"/><path d="M76.183 77.599h-39.69v2.654h39.69V77.6Z" fill="#4B8F46"/><path d="M74.766 88.051c0 .097-8.456.175-18.92.175-10.464 0-18.92-.078-18.92-.175 0-.097 8.47-.172 18.92-.172 10.449 0 18.92.075 18.92.172ZM74.766 25.066c0 .096-8.456.175-18.92.175-10.464 0-18.92-.079-18.92-.175 0-.097 8.47-.172 18.92-.172 10.449 0 18.92.087 18.92.172ZM74.766 92.883c0 .097-8.456.175-18.92.175-10.464 0-18.92-.078-18.92-.175 0-.097 8.47-.172 18.92-.172 10.449 0 18.92.079 18.92.172ZM74.766 97.718c0 .094-8.456.172-18.92.172-10.464 0-18.92-.078-18.92-.172 0-.094 8.47-.175 18.92-.175 10.449 0 18.92.078 18.92.175ZM74.766 102.55c0 .097-8.456.172-18.92.172-10.464 0-18.92-.075-18.92-.172 0-.096 8.47-.175 18.92-.175 10.449 0 18.92.079 18.92.175ZM74.766 107.382c0 .097-8.456.175-18.92.175-10.464 0-18.92-.078-18.92-.175 0-.097 8.47-.172 18.92-.172 10.449 0 18.92.075 18.92.172ZM75.307 112.864c0 .093-8.471.172-18.918.172-10.446 0-18.92-.079-18.92-.172 0-.094 8.456-.176 18.92-.176 10.465 0 18.918.079 18.918.176Z" fill="#263238"/><path d="M76.714 30.59H36.926v38.493h39.788V30.59Z" fill="#455A64"/><path d="M63.855 42.126a2.863 2.863 0 1 1-5.726-.007 2.863 2.863 0 0 1 5.726.007Z" fill="#000" opacity=".3"/><path d="m73.64 33.603-33.616-.027c.04-.042-.362.363-.193.197v16.936c0 5.39.015 10.488.018 15.178v.166h.166l24.414-.081 6.819-.045 1.785-.019h.453c.049.005.098.005.148 0l-8.154-13.97-5.473 6.725-9.002-12.662-10.83 19.732c0-4.641 0-9.664.018-15.003V33.957l33.266-.027c.036 9.54.063 17.489.084 23.082.018 2.802.03 5.01.042 6.535 0 .746 0 1.323.018 1.733v.447a1.22 1.22 0 0 0 0 .16.764.764 0 0 0 0-.142v-.428c0-.405 0-.97.019-1.704 0-1.51.024-3.711.042-6.499.021-5.647.048-13.69.084-23.347v-.164h-.108Z" fill="#000" opacity=".3"/><path d="M76.373 10.534a1.65 1.65 0 0 0-1.646-1.655H63.272a1.646 1.646 0 0 1 1.658 1.649v16.078l5.738-3.225 5.738 2.939s-.048-11.434-.033-15.786Z" fill="#4B8F46"/><path d="m71.021 14.895.399.81a.228.228 0 0 0 .172.126l.906.13a.229.229 0 0 1 .127.39l-.646.63a.226.226 0 0 0-.067.203l.151.888a.227.227 0 0 1-.329.241l-.8-.42a.225.225 0 0 0-.215 0l-.797.42a.23.23 0 0 1-.332-.241l.154-.888a.227.227 0 0 0-.067-.202l-.646-.632a.229.229 0 0 1 .013-.337.229.229 0 0 1 .114-.052l.906-.13a.232.232 0 0 0 .172-.127l.399-.81a.23.23 0 0 1 .386 0Z" fill="#fff"/><path d="m97.79 144.691-39.426-.033a8.589 8.589 0 0 1-8.582-8.589l.02-98.844a8.585 8.585 0 0 1 8.593-8.586l39.426.024a8.584 8.584 0 0 1 8.583 8.589l-.018 98.844a8.596 8.596 0 0 1-5.305 7.943 8.598 8.598 0 0 1-3.29.652Z" fill="#263238"/><path d="M97.778 32.166h-7.643a1.897 1.897 0 0 0-1.854 1.939v1.386a1.896 1.896 0 0 1-1.855 1.94h-14.9a1.906 1.906 0 0 1-1.858-1.943v-1.386a1.897 1.897 0 0 0-1.854-1.942h-9.383a6.013 6.013 0 0 0-6.016 6.013l-.021 96.477a6.013 6.013 0 0 0 6.013 6.016l39.347.024a6.025 6.025 0 0 0 4.255-1.76 6.012 6.012 0 0 0 1.764-4.253l.018-96.48a6.019 6.019 0 0 0-6.013-6.03Z" fill="#FAFAFA"/><path d="M75.198 132.578a.756.756 0 0 1-.9.754.755.755 0 0 1-.6-.592.758.758 0 1 1 1.5-.162ZM79.426 132.545a.754.754 0 1 1-.761-.749.758.758 0 0 1 .761.749ZM83.445 133.038a.755.755 0 1 0-1.082-1.055.755.755 0 0 0 1.082 1.055Z" fill="#263238"/><path d="M96.275 96.31H59.717v2.39h36.558v-2.39Z" fill="#4B8F46"/><path d="M95.752 104.166c0 .084-8.208.157-18.328.157s-18.332-.073-18.332-.157c0-.085 8.206-.157 18.332-.157 10.126 0 18.328.069 18.328.157ZM95.752 108.514c0 .085-8.208.154-18.328.154s-18.332-.069-18.332-.154c0-.084 8.206-.157 18.332-.157 10.126 0 18.328.061 18.328.157ZM95.752 112.86c0 .088-8.208.157-18.328.157s-18.332-.069-18.332-.157 8.206-.154 18.332-.154c10.126 0 18.328.07 18.328.154ZM95.752 117.209c0 .084-8.208.157-18.328.157s-18.332-.073-18.332-.157c0-.085 8.206-.157 18.332-.157 10.126 0 18.328.069 18.328.157ZM95.752 121.555c0 .088-8.208.157-18.328.157s-18.332-.069-18.332-.157c0-.087 8.206-.154 18.332-.154 10.126 0 18.328.07 18.328.154ZM96.275 126.487c0 .085-8.206.154-18.326.154-10.12 0-18.331-.069-18.331-.154 0-.084 8.205-.157 18.331-.157s18.326.07 18.326.157Z" fill="#263238"/><path d="M76.037 54.78H59.35v16.145h16.688V54.78Z" fill="#455A64"/><path d="M70.644 59.621a1.208 1.208 0 1 1-2.416 0 1.208 1.208 0 0 1 2.416 0Z" fill="#000" opacity=".3"/><path d="M74.748 56.045h-14.1l-.082.084v13.54h.07l10.237-.037 2.86-.018h1.002l-3.406-5.892-2.295 2.817-3.775-5.309-4.53 8.278V56.193h13.953l.036 9.682c0 1.175 0 2.114.018 2.742v.982a.406.406 0 0 0 0-.06v-.895c0-.637 0-1.555.018-2.718 0-2.367.021-5.738.036-9.79v-.07l-.042-.021Z" fill="#000" opacity=".3"/><path d="M96.737 54.78H80.048v16.145h16.689V54.78Z" fill="#455A64"/><path d="M91.343 59.621a1.207 1.207 0 1 1-2.415 0 1.207 1.207 0 0 1 2.415 0Z" fill="#000" opacity=".3"/><path d="M95.447 56.045h-14.1c.018 0-.151.154-.079.084V69.666h.07l10.24-.037 2.86-.018h1l-3.41-5.89-2.292 2.818-3.778-5.309-4.53 8.278V56.193h13.956c0 4.001.024 7.339.033 9.682 0 1.175.015 2.114.018 2.742v.982-.955c0-.637 0-1.555.018-2.718 0-2.367.021-5.738.036-9.79v-.07l-.042-.021Z" fill="#000" opacity=".3"/><path d="M76.037 73.92H59.35v16.146h16.688V73.92Z" fill="#455A64"/><path d="M70.644 78.762a1.208 1.208 0 1 1-2.416 0 1.208 1.208 0 0 1 2.416 0Z" fill="#000" opacity=".3"/><path d="M74.748 75.198h-14.1l-.082.082V88.789h.07l10.237-.034 2.86-.018h1.002l-3.418-5.862-2.295 2.82-3.775-5.308-4.53 8.274V75.334H74.67l.036 9.682c0 1.175 0 2.114.018 2.742v.982a.507.507 0 0 0 0-.06V87.785c0-.638 0-1.559.018-2.718 0-2.368.021-5.738.036-9.791v-.079h-.03Z" fill="#000" opacity=".3"/><path d="M96.728 73.92H80.039v16.146h16.689V73.92Z" fill="#455A64"/><path d="M91.334 78.762a1.208 1.208 0 1 1-2.416 0 1.208 1.208 0 0 1 2.416 0Z" fill="#000" opacity=".3"/><path d="M95.432 75.198h-14.1l-.082.082V88.789h.07l10.237-.034 2.86-.018H95.432l-3.413-5.871-2.295 2.82-3.775-5.309-4.53 8.275V75.334h13.953c0 4.002.027 7.336.036 9.682 0 1.175 0 2.114.018 2.742v.915a.246.246 0 0 0 0 .067.507.507 0 0 0 0-.06V87.785c0-.638 0-1.559.018-2.718 0-2.368.021-5.738.033-9.791v-.079h-.045Z" fill="#000" opacity=".3"/><path d="M96.92 45.034a1.208 1.208 0 1 1 1.167-1.208c.001.236-.065.468-.19.668l.187.444a.061.061 0 0 1 0 .063.054.054 0 0 1-.06 0l-.418-.193a1.12 1.12 0 0 1-.685.226Zm0-2.322a1.105 1.105 0 0 0 0 2.21c.229-.003.449-.082.626-.226a.051.051 0 0 1 .054 0l.32.148-.142-.344a.057.057 0 0 1 0-.054c.125-.186.191-.405.19-.629a1.084 1.084 0 0 0-1.047-1.105Z" fill="#263238"/><path d="M101.107 45.076a.041.041 0 0 1-.031 0l-.851-.604-.849.604a.058.058 0 0 1-.057 0 .06.06 0 0 1-.027-.048v-2.256a.054.054 0 0 1 .054-.054h1.761c.014 0 .028.005.038.016.01.01.016.024.016.038v2.256c0 .01-.003.02-.009.028a.052.052 0 0 1-.021.02h-.024Zm-.882-.736a.06.06 0 0 1 .033 0l.794.567v-2.096h-1.655v2.096l.798-.567a.057.057 0 0 1 .03 0Z" fill="#4B8F46"/><path d="M55.01 45.227H55.29l.761-.02-.027.026V44.361a.302.302 0 0 1 .263-.239h.365a.302.302 0 0 1 .257.302v.806l-.042-.045h.96l-.045.045v-1.51a.303.303 0 0 0-.133-.22l-.42-.417-.405-.398-.196-.194c-.07-.066-.118-.133-.193-.148a.258.258 0 0 0-.215.043c-.057.045-.12.117-.178.172l-.36.326c-.217.223-.446.432-.603.622a.65.65 0 0 0-.049.356V45.221a.5.5 0 0 1 0-.114v-.342c0-.133 0-.344-.015-.552v-.345a.713.713 0 0 1 .052-.395c.178-.22.39-.41.604-.646l.34-.35c.064-.061.113-.122.188-.185a.343.343 0 0 1 .287-.057.529.529 0 0 1 .236.169l.196.193.408.399c.139.133.277.271.42.41a.39.39 0 0 1 .16.287v1.556h-1.051V44.397a.23.23 0 0 0-.188-.227h-.347a.233.233 0 0 0-.202.182V45.234h-1.006c-.085-.004-.106-.004-.103-.007Z" fill="#263238"/><path d="M93.233 41.74H61.23c-.853 0-1.546.691-1.546 1.545v.937c0 .854.693 1.546 1.547 1.546h32.002c.854 0 1.547-.692 1.547-1.546v-.937c0-.853-.693-1.546-1.547-1.546Z" fill="#E0E0E0"/><path d="M54.94 116.339a6.804 6.804 0 0 0-11.144 2.676l.806 3.12c.302-1.063.964-2.09 1.979-2.528 1.014-.438 2.28-.196 3.36.196 1.082.393 2.142.921 3.29.991 1.147.069 2.446-.474 2.787-1.571.323-1.032-.299-2.132-1.078-2.884Z" fill="#4B8F46"/><path d="M54.94 116.339a6.804 6.804 0 0 0-11.144 2.676l.806 3.12c.302-1.063.964-2.09 1.979-2.528 1.014-.438 2.28-.196 3.36.196 1.082.393 2.142.921 3.29.991 1.147.069 2.446-.474 2.787-1.571.323-1.032-.299-2.132-1.078-2.884Z" fill="#000" opacity=".4"/><path d="M35.506 126.746c-1.682-1.601-1.6-4.385-.758-6.551.843-2.165 2.673-3.829 4.72-4.925a14.954 14.954 0 0 1 13.035-.423 6.188 6.188 0 0 0-5.001 2.932c-.925 1.532-1.13 3.392-1.89 5.011a7.896 7.896 0 0 1-10.106 3.95M34.697 117.133c-1.864-2.201-2.114-5.738-1.84-8.607.275-2.869.943-5.762.49-8.61-.269-1.688-.924-3.297-1.145-4.995-.22-1.697.09-3.609 1.405-4.705 1.51-1.256 3.886-.96 5.457.22 1.57 1.181 2.48 3.036 3.144 4.884 1.461 4.062 1.996 8.565.797 12.711-1.2 4.147-4.017 7.852-8.154 9.102" fill="#4B8F46"/><path d="M33.803 135.193a1.364 1.364 0 0 1 0-.254v-.728c.024-.631.084-1.543.226-2.664.165-1.314.404-2.617.716-3.904a18.056 18.056 0 0 1 1.782-4.53 18.881 18.881 0 0 1 2.911-3.89 18.431 18.431 0 0 1 3.053-2.54c.465-.32.906-.565 1.302-.791.396-.227.746-.381 1.03-.52l.67-.281c.077-.037.157-.066.239-.087a2.14 2.14 0 0 1-.227.115c-.16.078-.38.178-.655.302-.275.123-.622.323-1.015.54-.392.218-.824.48-1.283.807a19.146 19.146 0 0 0-5.89 6.414c-1.715 2.999-2.186 6.155-2.524 8.362a36.479 36.479 0 0 0-.275 2.655c-.018.302-.033.547-.042.725.001.09-.005.18-.018.269Z" fill="#263238"/><path d="M17.718 108.451c-3.448 2.081-3.44 3.975-2.863 5.765.577 1.791 2.694 3.02 4.449 2.359.993-.378 1.712-1.238 2.325-2.114.613-.876 1.19-1.812 2.05-2.416a3 3 0 0 1 2.09-.574l-8.05-3.02ZM25.77 111.477l.884.332a1.915 1.915 0 0 0-.884-.332Z" fill="#4B8F46"/><path d="M17.718 108.451c-3.448 2.081-3.44 3.975-2.863 5.765.577 1.791 2.694 3.02 4.449 2.359.993-.378 1.712-1.238 2.325-2.114.613-.876 1.19-1.812 2.05-2.416a3 3 0 0 1 2.09-.574l-8.05-3.02Z" fill="#000" opacity=".4"/><path d="m27.678 112.344-3.198-1.208 1.31.175c.343.039.67.163.952.359l.936.674Z" fill="#000"/><path d="M15.136 110.734c.906-1.248 3.129-1.61 4.53-.988 1.401.622 2.44 1.857 3.361 3.087.922 1.229 1.813 2.533 3.099 3.388 1.287.855 3.065 1.169 4.337.302a3.725 3.725 0 0 0 1.473-2.552 8.427 8.427 0 0 0-.202-3.02c-.302-1.447-.8-2.957-1.96-3.878-1.29-1.023-3.08-1.072-4.726-1.017-1.89.06-3.808.202-5.581.857-1.773.656-3.585 2.069-4.337 3.806" fill="#4B8F46"/><path d="M30.934 132.43a.23.23 0 0 1 0-.075v-.224c0-.205 0-.492-.027-.855-.024-.758-.055-1.83-.09-3.149-.037-1.32-.098-2.912-.194-4.666-.097-1.755-.23-3.685-.495-5.693a18.423 18.423 0 0 0-.571-2.893 15.122 15.122 0 0 0-1.078-2.531 14.695 14.695 0 0 0-1.335-2.096 13.618 13.618 0 0 0-1.456-1.597 10.713 10.713 0 0 0-2.582-1.743c-.17-.078-.317-.154-.447-.205l-.338-.133-.206-.082-.069-.033.073.018.214.07.341.117c.136.049.284.121.456.194.96.44 1.847 1.025 2.63 1.733a13.536 13.536 0 0 1 1.486 1.601c.513.664.967 1.371 1.356 2.114.438.815.8 1.669 1.079 2.552.272.954.466 1.928.58 2.914.265 2.017.392 3.947.483 5.705.09 1.757.13 3.343.16 4.672.03 1.329.036 2.416.039 3.153v1.078a.208.208 0 0 1-.01.054ZM32.175 133.991a9.863 9.863 0 0 1-.377-1.483 15.608 15.608 0 0 1-.157-4.161 27.781 27.781 0 0 1 1.313-6.04c.71-2.22 1.67-4.594 2.492-7.146.404-1.239.735-2.502.99-3.781.229-1.192.392-2.395.49-3.605.157-2.052.193-4.111.108-6.167-.057-1.758-.15-3.18-.211-4.162-.027-.483-.048-.86-.067-1.13v-.301a.416.416 0 0 1 0-.1.37.37 0 0 1 0 .1c0 .072.019.172.03.302.022.269.055.646.094 1.13.079.98.188 2.4.26 4.158a50.274 50.274 0 0 1-.075 6.185 33.78 33.78 0 0 1-.484 3.624 32.519 32.519 0 0 1-.99 3.799c-.825 2.558-1.791 4.928-2.504 7.139a28.12 28.12 0 0 0-1.338 5.998 16.097 16.097 0 0 0 .109 4.14c.084.483.163.858.23 1.109.03.117.05.214.069.302.01.029.016.059.018.09Z" fill="#263238"/><path d="M40.73 135.549H24.533l-.372-3.119h16.57v3.119Z" fill="#455A64"/><path d="m26.268 135.193 2.026 9.353h8.804l1.893-9.353H26.268Z" fill="#455A64"/><path d="M40.73 135.549c0 .042-3.563.066-7.954.054-4.391-.012-7.955-.057-7.955-.099 0-.043 3.561-.067 7.955-.055 4.394.012 7.955.058 7.955.1Z" fill="#455A64"/><path d="M37.95 140.167a6.635 6.635 0 0 0-1.426-.819 5.04 5.04 0 0 0-1.737-.35 6.068 6.068 0 0 0-2.132.393c-.74.25-1.428.54-2.099.7a4.996 4.996 0 0 1-1.812.055 3.795 3.795 0 0 1-1.165-.369 2.091 2.091 0 0 1-.281-.178c-.064-.048-.094-.073-.088-.079.006-.006.136.082.396.203a4.01 4.01 0 0 0 1.153.302c.59.076 1.188.047 1.767-.085.65-.163 1.338-.456 2.084-.706a6.03 6.03 0 0 1 2.183-.39c.61.021 1.21.153 1.773.39.377.154.733.357 1.057.604.088.067.171.14.25.217.052.072.08.106.076.112Z" fill="#263238"/><path d="M37.825 140.789a7.054 7.054 0 0 0-1.368-.807 4.64 4.64 0 0 0-1.673-.344 6.043 6.043 0 0 0-2.065.372c-.713.238-1.384.516-2.02.688a5.198 5.198 0 0 1-1.746.193 2.893 2.893 0 0 1-1.142-.302 1.887 1.887 0 0 1-.275-.172.436.436 0 0 1-.084-.072c.003-.003.136.075.383.19.356.153.737.238 1.124.251a5.289 5.289 0 0 0 1.7-.224c.625-.175 1.29-.456 2.011-.697a5.977 5.977 0 0 1 2.114-.366c.59.018 1.172.149 1.713.387a4.48 4.48 0 0 1 1.011.604 2.124 2.124 0 0 1 .317.299Z" fill="#fff"/><path d="M38.11 139.545a7.777 7.777 0 0 0-1.465-.864 5.408 5.408 0 0 0-1.78-.426 5.79 5.79 0 0 0-2.2.387 19.45 19.45 0 0 1-2.172.71 5.57 5.57 0 0 1-1.875 0 4.17 4.17 0 0 1-1.208-.381 1.958 1.958 0 0 1-.302-.181c-.064-.045-.094-.073-.091-.079.003-.006.142.085.408.206a4.73 4.73 0 0 0 1.208.329 5.734 5.734 0 0 0 1.83-.036c.729-.202 1.448-.44 2.153-.713a5.751 5.751 0 0 1 2.259-.384c.627.047 1.24.206 1.812.469.385.172.747.391 1.078.652.092.068.179.143.26.223.06.067.087.085.084.088Z" fill="#fff"/><path d="M40.873 135.562c0 .042-3.645.078-8.14.078-4.493 0-8.138-.036-8.138-.078s3.645-.076 8.154-.076 8.124.034 8.124.076ZM142.369 144.637c0 .045-29.128.079-65.054.079s-65.06-.034-65.06-.079 29.122-.078 65.06-.078 65.054.036 65.054.078Z" fill="#263238"/><path d="M74.722 56.096A1.09 1.09 0 0 0 73.629 55H66a1.094 1.094 0 0 1 1.096 1.096V66.26a.3.3 0 0 0 .307.314.301.301 0 0 0 .155-.046l3.355-1.884 3.362 1.721a.303.303 0 0 0 .45-.275c-.003-1.748-.021-7.553-.003-9.993Z" fill="#4B8F46"/><path d="m70.907 58.913.278.565a.162.162 0 0 0 .121.088l.625.09a.16.16 0 0 1 .088.272l-.45.44a.159.159 0 0 0-.048.143l.108.622a.159.159 0 0 1-.063.157.16.16 0 0 1-.17.012L70.839 61a.16.16 0 0 0-.148 0l-.559.302a.16.16 0 0 1-.232-.169l.105-.622a.157.157 0 0 0-.045-.142l-.453-.441a.16.16 0 0 1 .09-.272l.626-.09a.154.154 0 0 0 .118-.088l.28-.565a.16.16 0 0 1 .287 0Z" fill="#fff"/><path d="M74.722 75.096A1.09 1.09 0 0 0 73.629 74H66a1.094 1.094 0 0 1 1.096 1.096V85.26a.3.3 0 0 0 .307.314.301.301 0 0 0 .155-.046l3.355-1.884 3.362 1.721a.303.303 0 0 0 .45-.275c-.003-1.748-.021-7.553-.003-9.993Z" fill="#4B8F46"/><path d="m70.907 77.913.278.565a.162.162 0 0 0 .121.088l.625.09a.16.16 0 0 1 .088.272l-.45.44a.159.159 0 0 0-.048.143l.108.622a.159.159 0 0 1-.063.157.16.16 0 0 1-.17.012L70.839 80a.16.16 0 0 0-.148 0l-.559.302a.16.16 0 0 1-.232-.169l.105-.622a.157.157 0 0 0-.045-.142l-.453-.441a.16.16 0 0 1 .09-.272l.626-.09a.154.154 0 0 0 .118-.088l.28-.565a.16.16 0 0 1 .287 0Z" fill="#fff"/><path d="M95.722 75.096A1.09 1.09 0 0 0 94.629 74H87a1.094 1.094 0 0 1 1.096 1.096V85.26a.3.3 0 0 0 .307.314.301.301 0 0 0 .155-.046l3.355-1.884 3.362 1.721a.303.303 0 0 0 .45-.275c-.003-1.748-.021-7.553-.003-9.993Z" fill="#4B8F46"/><path d="m91.907 77.913.278.565a.162.162 0 0 0 .121.088l.625.09a.16.16 0 0 1 .088.272l-.45.44a.159.159 0 0 0-.048.143l.108.622a.159.159 0 0 1-.063.157.16.16 0 0 1-.17.012L91.839 80a.16.16 0 0 0-.148 0l-.559.302a.16.16 0 0 1-.232-.169l.105-.622a.157.157 0 0 0-.045-.142l-.453-.441a.16.16 0 0 1 .09-.272l.626-.09a.154.154 0 0 0 .118-.088l.28-.565a.16.16 0 0 1 .287 0Z" fill="#fff"/><path d="M95.722 56.096A1.09 1.09 0 0 0 94.629 55H87a1.094 1.094 0 0 1 1.096 1.096V66.26a.3.3 0 0 0 .307.314.301.301 0 0 0 .155-.046l3.355-1.884 3.362 1.721a.303.303 0 0 0 .45-.275c-.003-1.748-.021-7.553-.003-9.993Z" fill="#4B8F46"/><path d="m91.907 58.913.278.565a.162.162 0 0 0 .121.088l.625.09a.16.16 0 0 1 .088.272l-.45.44a.159.159 0 0 0-.048.143l.108.622a.159.159 0 0 1-.063.157.16.16 0 0 1-.17.012L91.839 61a.16.16 0 0 0-.148 0l-.559.302a.16.16 0 0 1-.232-.169l.105-.622a.157.157 0 0 0-.045-.142l-.453-.441a.16.16 0 0 1 .09-.272l.626-.09a.154.154 0 0 0 .118-.088l.28-.565a.16.16 0 0 1 .287 0Z" fill="#fff"/></svg>