<svg width="152" height="152" fill="none" xmlns="http://www.w3.org/2000/svg"><path d="M106.136 22.314h11.582s1.11-3.345-.891-4.56c-2-1.216-2 .443-3.557-.225-1.282-.55-1.52-1.596-1.884-2.703a8.03 8.03 0 0 0-.128-.38 5.098 5.098 0 0 0-.48-.988M109.416 12.02c-2.9-2.128-7.701-1.329-7.701 3.182 0 1.11-2.669 0-3.669 1.444s.112 2.335-1.216 2.779c-1.328.444-1.444-.666-3.113-.556-1.669.11-1.444 1.666-2 2.112-.556.447-.553.222-1.776.332-1.222.11-1.447 1-1.447 1h15.596" stroke="#B2B2B2" stroke-width=".5" stroke-linecap="round" stroke-linejoin="round"/><path d="M112.398 21.097a3.264 3.264 0 0 0-.882-3.247c-1.486-1.374-3.04-.608-3.468 0-.429.608-.441 1.763-1.156 1.873-.714.11-.55-1.216-2.091-.882-1.541.335-.936 1.873-1.651 2.201-.714.329-.714-.878-1.705-.495-.991.383-.937 1.1-.937 1.1M104.491 17.358a2.785 2.785 0 0 0-2.818-.244c-1.593.736-.857 2.268-1.593 2.636-.736.368-1.104-.064-2.022.368-.918.432-.86 1.04-.86 1.04M27.056 42.961a1.563 1.563 0 0 0-.885-.188c-.957.063-.83.957-1.149 1.215-.319.259-.304.128-1.018.192a.87.87 0 0 0-.83.572h16.772s.413-1.238-.025-2.089" stroke="#B2B2B2" stroke-width=".5" stroke-linecap="round" stroke-linejoin="round"/><path d="M39.44 42.134c-1.145-.7-1.145.255-2.039-.128-.739-.304-.875-.912-1.082-1.55l-.073-.22c-.97-2.693-5.472-2.878-5.472.433 0 .638-1.52 0-2.104.83-.584.83.064 1.337-.702 1.592" stroke="#B2B2B2" stroke-width=".5" stroke-linecap="round" stroke-linejoin="round"/><path d="M36.9 44.052a1.876 1.876 0 0 0-.505-1.863c-.854-.79-1.739-.347-1.991 0-.253.346-.253 1.009-.663 1.073-.41.064-.304-.693-1.2-.505-.898.189-.536 1.073-.95 1.265-.413.191-.41-.508-.978-.286-.569.222-.535.648-.535.648M32.364 41.906a1.6 1.6 0 0 0-1.617-.14c-.912.422-.493 1.301-.912 1.52-.42.219-.633-.034-1.162.213-.529.246-.492.608-.492.608M66.272 13.838a1.543 1.543 0 0 0-.882-.188c-.957.063-.83.957-1.149 1.216-.319.258-.319.127-1.021.188a.869.869 0 0 0-.827.575h16.772s.413-1.238-.025-2.089" stroke="#B2B2B2" stroke-width=".5" stroke-linecap="round" stroke-linejoin="round"/><path d="M78.642 13.01c-1.146-.701-1.146.256-2.04-.127-.739-.304-.876-.912-1.082-1.55l-.073-.22c-.97-2.693-5.472-2.881-5.472.433 0 .635-1.52 0-2.104.827-.584.826.064 1.34-.702 1.596" stroke="#B2B2B2" stroke-width=".5" stroke-linecap="round" stroke-linejoin="round"/><path d="M76.1 14.929a1.873 1.873 0 0 0-.507-1.858c-.852-.79-1.736-.35-1.989 0-.252.35-.252 1.01-.662 1.074-.41.063-.304-.697-1.201-.505-.897.191-.538 1.073-.948 1.261-.41.189-.41-.504-.98-.282-.568.222-.538.632-.538.632M71.562 12.783a1.598 1.598 0 0 0-1.618-.14c-.912.42-.492 1.301-.912 1.52-.42.219-.635-.037-1.161.21-.526.246-.492.608-.492.608" stroke="#B2B2B2" stroke-width=".5" stroke-linecap="round" stroke-linejoin="round"/><path d="M132.267 29.515H66.059v111.571h66.208V29.515Z" fill="#ADADAD" stroke="#ADADAD" stroke-width=".5" stroke-linecap="round" stroke-linejoin="round"/><path d="M132.267 29.515H94.146v111.571h38.121V29.515Z" fill="#fff" stroke="#ADADAD" stroke-width=".5" stroke-linecap="round" stroke-linejoin="round"/><path d="M127.841 29.515H98.569v111.571h29.272V29.515Z" fill="#fff" stroke="#ADADAD" stroke-width=".5" stroke-linecap="round" stroke-linejoin="round"/><path d="M132.267 29.515H94.146v7.642h38.121v-7.642Z" fill="#ADADAD" stroke="#ADADAD" stroke-width=".5" stroke-linecap="round" stroke-linejoin="round"/><path d="M122.466 127.376h-18.519v13.713h18.519v-13.713Z" fill="#fff" stroke="#ADADAD" stroke-width=".5" stroke-linecap="round" stroke-linejoin="round"/><path d="M122.466 127.376h-9.259v13.713h9.259v-13.713ZM78.864 42.033h-8.406v7.634h8.406v-7.634Z" fill="#fff" stroke="#ADADAD" stroke-width=".5" stroke-linecap="round" stroke-linejoin="round"/><path d="M78.864 39.836h-8.406v3.32h8.406v-3.32ZM90.878 42.033h-8.406v7.634h8.406v-7.634Z" fill="#fff" stroke="#ADADAD" stroke-width=".5" stroke-linecap="round" stroke-linejoin="round"/><path d="M90.878 39.836h-8.406v3.32h8.406v-3.32ZM78.864 56.687h-8.406v7.633h8.406v-7.633Z" fill="#fff" stroke="#ADADAD" stroke-width=".5" stroke-linecap="round" stroke-linejoin="round"/><path d="M78.864 54.488h-8.406v3.32h8.406v-3.32ZM90.878 56.687h-8.406v7.633h8.406v-7.633Z" fill="#fff" stroke="#ADADAD" stroke-width=".5" stroke-linecap="round" stroke-linejoin="round"/><path d="M90.878 54.488h-8.406v3.32h8.406v-3.32ZM78.864 71.339h-8.406v7.633h8.406V71.34Z" fill="#fff" stroke="#ADADAD" stroke-width=".5" stroke-linecap="round" stroke-linejoin="round"/><path d="M78.864 69.142h-8.406v3.32h8.406v-3.32ZM90.878 71.339h-8.406v7.633h8.406V71.34Z" fill="#fff" stroke="#ADADAD" stroke-width=".5" stroke-linecap="round" stroke-linejoin="round"/><path d="M90.878 69.142h-8.406v3.32h8.406v-3.32ZM78.864 85.992h-8.406v7.634h8.406v-7.634Z" fill="#fff" stroke="#ADADAD" stroke-width=".5" stroke-linecap="round" stroke-linejoin="round"/><path d="M78.864 83.791h-8.406v3.32h8.406v-3.32ZM90.878 85.992h-8.406v7.634h8.406v-7.634Z" fill="#fff" stroke="#ADADAD" stroke-width=".5" stroke-linecap="round" stroke-linejoin="round"/><path d="M90.878 83.791h-8.406v3.32h8.406v-3.32ZM78.864 100.645h-8.406v7.633h8.406v-7.633Z" fill="#fff" stroke="#ADADAD" stroke-width=".5" stroke-linecap="round" stroke-linejoin="round"/><path d="M78.864 98.444h-8.406v3.32h8.406v-3.32ZM90.878 100.645h-8.406v7.633h8.406v-7.633Z" fill="#fff" stroke="#ADADAD" stroke-width=".5" stroke-linecap="round" stroke-linejoin="round"/><path d="M90.878 98.444h-8.406v3.32h8.406v-3.32ZM78.864 115.295h-8.406v7.633h8.406v-7.633Z" fill="#fff" stroke="#ADADAD" stroke-width=".5" stroke-linecap="round" stroke-linejoin="round"/><path d="M78.864 113.097h-8.406v3.319h8.406v-3.319ZM90.878 115.295h-8.406v7.633h8.406v-7.633Z" fill="#fff" stroke="#ADADAD" stroke-width=".5" stroke-linecap="round" stroke-linejoin="round"/><path d="M90.878 113.097h-8.406v3.319h8.406v-3.319ZM105.628 42.033h-8.406v7.634h8.406v-7.634Z" fill="#fff" stroke="#ADADAD" stroke-width=".5" stroke-linecap="round" stroke-linejoin="round"/><path d="M105.628 39.836h-8.406v3.32h8.406v-3.32ZM117.645 42.033h-8.406v7.634h8.406v-7.634Z" fill="#fff" stroke="#ADADAD" stroke-width=".5" stroke-linecap="round" stroke-linejoin="round"/><path d="M117.645 39.836h-8.406v3.32h8.406v-3.32ZM129.659 42.033h-8.406v7.634h8.406v-7.634Z" fill="#fff" stroke="#ADADAD" stroke-width=".5" stroke-linecap="round" stroke-linejoin="round"/><path d="M129.659 39.836h-8.406v3.32h8.406v-3.32ZM105.628 56.687h-8.406v7.633h8.406v-7.633Z" fill="#fff" stroke="#ADADAD" stroke-width=".5" stroke-linecap="round" stroke-linejoin="round"/><path d="M105.628 54.488h-8.406v3.32h8.406v-3.32ZM117.645 56.687h-8.406v7.633h8.406v-7.633Z" fill="#fff" stroke="#ADADAD" stroke-width=".5" stroke-linecap="round" stroke-linejoin="round"/><path d="M117.645 54.488h-8.406v3.32h8.406v-3.32ZM129.659 56.687h-8.406v7.633h8.406v-7.633Z" fill="#fff" stroke="#ADADAD" stroke-width=".5" stroke-linecap="round" stroke-linejoin="round"/><path d="M129.659 54.488h-8.406v3.32h8.406v-3.32ZM105.628 71.339h-8.406v7.633h8.406V71.34Z" fill="#fff" stroke="#ADADAD" stroke-width=".5" stroke-linecap="round" stroke-linejoin="round"/><path d="M105.628 69.142h-8.406v3.32h8.406v-3.32ZM117.645 71.339h-8.406v7.633h8.406V71.34Z" fill="#fff" stroke="#ADADAD" stroke-width=".5" stroke-linecap="round" stroke-linejoin="round"/><path d="M117.645 69.142h-8.406v3.32h8.406v-3.32ZM129.659 71.339h-8.406v7.633h8.406V71.34Z" fill="#fff" stroke="#ADADAD" stroke-width=".5" stroke-linecap="round" stroke-linejoin="round"/><path d="M129.659 69.142h-8.406v3.32h8.406v-3.32ZM105.628 85.992h-8.406v7.634h8.406v-7.634Z" fill="#fff" stroke="#ADADAD" stroke-width=".5" stroke-linecap="round" stroke-linejoin="round"/><path d="M105.628 83.791h-8.406v3.32h8.406v-3.32ZM117.645 85.992h-8.406v7.634h8.406v-7.634Z" fill="#fff" stroke="#ADADAD" stroke-width=".5" stroke-linecap="round" stroke-linejoin="round"/><path d="M117.645 83.791h-8.406v3.32h8.406v-3.32ZM129.659 85.992h-8.406v7.634h8.406v-7.634Z" fill="#fff" stroke="#ADADAD" stroke-width=".5" stroke-linecap="round" stroke-linejoin="round"/><path d="M129.659 83.791h-8.406v3.32h8.406v-3.32ZM105.628 100.645h-8.406v7.633h8.406v-7.633Z" fill="#fff" stroke="#ADADAD" stroke-width=".5" stroke-linecap="round" stroke-linejoin="round"/><path d="M105.628 98.444h-8.406v3.32h8.406v-3.32ZM117.645 100.645h-8.406v7.633h8.406v-7.633Z" fill="#fff" stroke="#ADADAD" stroke-width=".5" stroke-linecap="round" stroke-linejoin="round"/><path d="M117.645 98.444h-8.406v3.32h8.406v-3.32ZM129.659 100.645h-8.406v7.633h8.406v-7.633Z" fill="#fff" stroke="#ADADAD" stroke-width=".5" stroke-linecap="round" stroke-linejoin="round"/><path d="M129.659 98.444h-8.406v3.32h8.406v-3.32ZM105.628 115.295h-8.406v7.633h8.406v-7.633Z" fill="#fff" stroke="#ADADAD" stroke-width=".5" stroke-linecap="round" stroke-linejoin="round"/><path d="M105.628 113.097h-8.406v3.319h8.406v-3.319ZM117.645 115.295h-8.406v7.633h8.406v-7.633Z" fill="#fff" stroke="#ADADAD" stroke-width=".5" stroke-linecap="round" stroke-linejoin="round"/><path d="M117.645 113.097h-8.406v3.319h8.406v-3.319ZM129.659 115.295h-8.406v7.633h8.406v-7.633Z" fill="#fff" stroke="#ADADAD" stroke-width=".5" stroke-linecap="round" stroke-linejoin="round"/><path d="M129.659 113.097h-8.406v3.319h8.406v-3.319ZM129.553 127.354H96.812v4.153h32.741v-4.153Z" fill="#fff" stroke="#ADADAD" stroke-width=".5" stroke-linecap="round" stroke-linejoin="round"/><path d="M129.553 126.153H96.812v4.153h32.741v-4.153Z" fill="#fff" stroke="#ADADAD" stroke-width=".5" stroke-linecap="round" stroke-linejoin="round"/><path d="M83.858 23.775H66.023v10.996h17.835V23.775Z" fill="#ADADAD" stroke="#ADADAD" stroke-width=".5" stroke-linecap="round" stroke-linejoin="round"/><path d="M83.858 23.775h-6.17v10.996h6.17V23.775ZM129.063 26.463h-7.329v8.308h7.329v-8.308Z" fill="#fff" stroke="#ADADAD" stroke-width=".5" stroke-linecap="round" stroke-linejoin="round"/><path d="M125.674 26.463h-7.33v8.308h7.33v-8.308Z" fill="#ADADAD" stroke="#ADADAD" stroke-width=".5" stroke-linecap="round" stroke-linejoin="round"/><path d="M133.882 29.515H64.448v5.256h69.434v-5.256Z" fill="#fff" stroke="#ADADAD" stroke-width=".5" stroke-linecap="round" stroke-linejoin="round"/><path d="M133.879 29.515h-41.52v5.256h41.52v-5.256Z" fill="#fff" stroke="#ADADAD" stroke-width=".5" stroke-linecap="round" stroke-linejoin="round"/><path d="M94.146 29.515v2.207M95.28 29.515v2.207M95.28 32.317v1.684M96.417 29.515v2.207M96.417 32.412v1.563M97.478 32.412v.985M97.554 29.515v2.207M98.84 31.162v.56M98.915 29.515v1.255M94.146 32.166v1.307" stroke="#ADADAD" stroke-width=".5" stroke-linecap="round" stroke-linejoin="round"/><path d="M7.852 48.747c1.295.566 4.466.493 4.47.493.002 0-.682-2.077-.743-2.201-.696-1.456-2.897-3.858-4.684-3.618a2.128 2.128 0 0 0-1.727 2.681c.304 1.24 1.58 2.162 2.684 2.645Z" fill="#0F6A08"/><path d="M8.947 57.93c1.343.195 4.174-.626 4.399-.693a38.124 38.124 0 0 0 1.714 4.752c.39.912.812 1.797 1.243 2.687a26.24 26.24 0 0 0-.529-.757c-1.054-1.216-3.812-2.958-5.471-2.25a2.127 2.127 0 0 0-.949 3.04c.608 1.116 2.086 1.67 3.277 1.843 1.192.173 3.648-.474 4.277-.654.17.34.335.681.505 1.022.82 1.632 1.645 3.256 2.405 4.864.267.571.51 1.143.757 1.714-.228-.337-.426-.608-.46-.656-1.054-1.216-3.811-2.958-5.471-2.25a2.126 2.126 0 0 0-.949 3.04c.608 1.116 2.086 1.669 3.277 1.842 1.192.174 3.396-.41 4.156-.62.234.608.468 1.186.669 1.77.127.4.276.78.383 1.191l.334 1.216c.186.772.383 1.569.544 2.326.116.526.216 1.027.32 1.535a44.857 44.857 0 0 0-.849-1.763c-.857-1.368-3.32-3.502-5.07-3.056a2.13 2.13 0 0 0-1.396 2.858c.438 1.198 1.81 1.967 2.961 2.32 1.268.389 4.077.033 4.427 0 .17.839.325 1.656.459 2.432.1.571.194 1.121.276 1.65h1.125a90.62 90.62 0 0 0-.35-1.848 87.852 87.852 0 0 0-.574-2.69 23.337 23.337 0 0 0 2.471-1.162c.912 1 3.296 2.17 3.6 2.32a90.106 90.106 0 0 1-1.444 3.38h1.188c.095-.225.189-.447.283-.68.332-.806.669-1.67 1.01-2.563.337.073 3.118.635 4.413.343 1.177-.264 2.6-.93 3.126-2.091a2.128 2.128 0 0 0-1.18-2.955c-1.712-.575-4.326 1.368-5.283 2.666-.058.079-.578.976-.912 1.55.136-.364.273-.717.407-1.097.273-.745.526-1.496.796-2.302.119-.395.24-.793.36-1.197.118-.404.212-.83.321-1.25.234-.979.423-1.982.59-2.994.65.237 2.982 1.049 4.19.964 1.206-.086 2.708-.526 3.404-1.596a2.127 2.127 0 0 0-.687-3.126c-1.605-.83-4.484.7-5.627 1.825-.07.07-.8.978-1.192 1.486.098-.608.195-1.216.274-1.84.222-1.79.389-3.61.568-5.425.052-.557.113-1.11.174-1.663.23.088 2.979 1.11 4.332 1.015 1.2-.085 2.708-.526 3.404-1.596a2.127 2.127 0 0 0-.717-3.095c-1.605-.827-4.484.7-5.627 1.824-.088.085-1.134 1.396-1.383 1.742.127-1.216.267-2.432.456-3.63.244-1.61.59-3.203 1.04-4.77.109.043 2.973 1.122 4.359 1.025 1.2-.082 2.708-.526 3.405-1.593a2.128 2.128 0 0 0-.73-3.08c-1.605-.826-4.481.7-5.627 1.825-.088.09-1.216 1.498-1.398 1.769.024-.091.042-.189.07-.277a27.821 27.821 0 0 1 1.89-4.514c.41-.806.849-1.55 1.292-2.265.511.255 2.87 1.398 4.126 1.45 1.216.049 2.75-.225 3.56-1.216a2.128 2.128 0 0 0-.374-3.162c-1.52-.997-4.533.204-5.795 1.216-.07.055-.705.69-1.161 1.156.204-.304.41-.654.608-.955.757-1.14 1.52-2.128 2.201-3.01.392-.495.754-.936 1.1-1.343.636 0 3.19-.088 4.308-.608 1.119-.52 2.338-1.468 2.602-2.715a2.129 2.129 0 0 0-1.787-2.633c-1.797-.191-3.93 2.268-4.587 3.743-.058.127-.715 2.222-.681 2.222h.036c-.34.386-.7.806-1.082 1.268-.703.863-1.49 1.845-2.271 2.973a37.544 37.544 0 0 0-2.356 3.751 27.63 27.63 0 0 0-2.013 4.53l-.018.057c0-.528 0-2.009-.027-2.127-.207-1.602-1.548-4.56-3.326-4.898a2.128 2.128 0 0 0-2.465 2.01c-.104 1.27.817 2.544 1.717 3.344 1.013.912 3.825 1.781 4.05 1.848a38.065 38.065 0 0 0-1.19 4.91c-.172.966-.303 1.945-.446 2.927 0-.46 0-.866-.024-.912-.207-1.6-1.548-4.56-3.326-4.898a2.129 2.129 0 0 0-2.463 2.01c-.106 1.274.815 2.544 1.715 3.344.9.8 3.295 1.611 3.928 1.824-.046.377-.097.754-.143 1.134-.216 1.824-.423 3.62-.684 5.39-.088.608-.2 1.234-.304 1.845 0-.404-.015-.748-.021-.8-.207-1.599-1.548-4.56-3.323-4.897a2.127 2.127 0 0 0-2.469 2.01c-.103 1.27.818 2.544 1.718 3.344.9.8 3.064 1.52 3.815 1.775-.134.608-.264 1.246-.42 1.842-.115.407-.197.806-.337 1.216-.14.41-.255.794-.383 1.186-.27.748-.547 1.52-.83 2.24-.191.502-.386.98-.58 1.456a42.3 42.3 0 0 0 .267-1.94 8.31 8.31 0 0 0-1.112-4.036 2.768 2.768 0 0 0-.03-.474 2.128 2.128 0 0 0-2.615-1.825c-1.745.466-2.852 3.53-2.934 5.141 0 .094.055 1.131.107 1.785-.089-.38-.17-.751-.265-1.14-.182-.773-.39-1.52-.608-2.36-.122-.395-.24-.793-.362-1.194-.121-.401-.282-.812-.422-1.216a44.501 44.501 0 0 0-1.162-2.821c.675-.161 3.068-.772 4.028-1.52.961-.748 1.97-1.934 1.961-3.21a2.129 2.129 0 0 0-2.31-2.19c-1.797.195-3.344 3.056-3.682 4.637-.018.1-.124 1.258-.17 1.897-.258-.563-.51-1.125-.79-1.684-.803-1.618-1.663-3.229-2.517-4.84-.262-.493-.517-.988-.776-1.48.244-.055 3.101-.721 4.174-1.545.958-.733 1.97-1.933 1.961-3.207a2.127 2.127 0 0 0-2.307-2.189c-1.797.195-3.344 3.04-3.682 4.636a50.152 50.152 0 0 0-.191 2.213 76.19 76.19 0 0 1-1.624-3.277 37.84 37.84 0 0 1-1.763-4.56c.113-.024 3.098-.702 4.202-1.547.954-.733 1.97-1.934 1.96-3.21a2.126 2.126 0 0 0-2.31-2.19c-1.794.198-3.344 3.059-3.679 4.637a43.753 43.753 0 0 0-.194 2.25c-.027-.092-.067-.183-.091-.271a27.425 27.425 0 0 1-.912-4.81c-.1-.896-.146-1.76-.174-2.602.569-.067 3.168-.413 4.241-1.064 1.073-.65 2.17-1.705 2.302-2.976a2.13 2.13 0 0 0-2.052-2.432c-1.824 0-3.673 2.67-4.168 4.204-.028.086-.21.964-.332 1.605 0-.38-.02-.772-.018-1.137 0-1.364.088-2.614.173-3.724.055-.629.116-1.194.18-1.726.523-.359 2.611-1.824 3.253-2.888.641-1.064 1.14-2.514.671-3.7a2.126 2.126 0 0 0-2.942-1.216c-1.618.845-2.031 4.077-1.773 5.667.025.136.63 2.246.657 2.228l.03-.021c-.07.51-.14 1.058-.203 1.657-.11 1.106-.225 2.358-.256 3.73a37.46 37.46 0 0 0 .122 4.429 27.65 27.65 0 0 0 .82 4.888c0 .018 0 .037.019.058a51.401 51.401 0 0 0-1.198-1.757c-1.055-1.216-3.812-2.955-5.472-2.25a2.127 2.127 0 0 0-.945 3.04c.596 1.116 2.067 1.672 3.259 1.843Z" fill="#0F6A08"/><path d="M39.924 49.443c.028.018.575-2.107.608-2.247.222-1.596-.288-4.815-1.915-5.6a2.128 2.128 0 0 0-2.91 1.29c-.434 1.197.12 2.666.773 3.678.757 1.189 3.441 2.876 3.444 2.879ZM87.303 119.733c.717.304 2.471.274 2.474.274.003 0-.377-1.149-.41-1.216-.386-.806-1.605-2.128-2.596-2.003a1.18 1.18 0 0 0-.949 1.483c.164.684.87 1.201 1.48 1.462Z" fill="#0F6A08"/><path d="M87.908 124.82c.745.106 2.313-.347 2.432-.383.257.896.574 1.775.948 2.629.216.499.45.994.687 1.49-.143-.21-.27-.395-.304-.42-.584-.675-2.11-1.638-3.04-1.246a1.19 1.19 0 0 0-.638.723 1.182 1.182 0 0 0 .112.958c.34.608 1.155.912 1.824 1.021.67.11 2.013-.264 2.368-.361l.28.565c.453.912.912 1.803 1.332 2.7.149.304.282.632.42.948a15.593 15.593 0 0 0-.256-.365c-.584-.675-2.11-1.635-3.04-1.246a1.178 1.178 0 0 0-.637.723 1.189 1.189 0 0 0 .11.958c.341.608 1.156.927 1.825 1.021.669.095 1.885-.228 2.304-.343.13.328.262.657.371.979.07.222.155.431.213.659.058.228.125.447.185.666.104.429.21.867.304 1.286l.177.851c-.143-.304-.438-.912-.469-.975-.477-.757-1.839-1.94-2.808-1.694a1.186 1.186 0 0 0-.773 1.584c.24.663 1 1.091 1.639 1.286.702.213 2.259.018 2.45 0 .094.465.18.912.255 1.347l.156.912h.608a61.061 61.061 0 0 0-.192-1.025 67.804 67.804 0 0 0-.32-1.489c.47-.186.927-.401 1.369-.645.514.556 1.824 1.216 1.994 1.286-.18.441-.356.866-.532 1.265l-.267.608h.656a40.97 40.97 0 0 0 .715-1.797c.188.04 1.729.353 2.447.192.65-.149 1.438-.517 1.73-1.159a1.195 1.195 0 0 0-.236-1.375 1.19 1.19 0 0 0-.418-.263c-.949-.304-2.396.76-2.925 1.477-.033.043-.304.541-.498.858.076-.201.152-.396.228-.608.152-.414.289-.83.441-1.277.064-.219.13-.438.197-.663.067-.225.119-.459.18-.693.127-.541.231-1.095.325-1.657.362.131 1.651.581 2.319.535.669-.045 1.502-.304 1.888-.885a1.177 1.177 0 0 0-.025-1.392 1.19 1.19 0 0 0-.373-.322c-.891-.459-2.484.386-3.116 1.015-.039.04-.444.544-.66.824.052-.337.107-.675.149-1.018.125-.991.219-2.001.304-3.007l.095-.912c.13.049 1.65.608 2.401.563.666-.046 1.499-.304 1.885-.882a1.196 1.196 0 0 0 .184-.948 1.199 1.199 0 0 0-.582-.77c-.888-.456-2.484.389-3.116 1.019-.049.048-.627.772-.766.963.073-.674.149-1.349.252-2.009.136-.892.329-1.774.578-2.642.057.025 1.644.623 2.413.569.666-.046 1.499-.304 1.885-.885a1.192 1.192 0 0 0 .184-.946 1.187 1.187 0 0 0-.582-.768c-.888-.46-2.484.386-3.116 1.015-.049.052-.672.83-.775.979.015-.049.024-.104.039-.152.273-.863.623-1.699 1.046-2.499.228-.447.471-.86.714-1.256.286.143 1.59.776 2.286.803.697.027 1.52-.125 1.97-.669a1.178 1.178 0 0 0 .13-1.389 1.198 1.198 0 0 0-.336-.362c-.833-.553-2.508.113-3.208.669-.039.03-.389.38-.644.638.115-.176.228-.361.34-.529a27.525 27.525 0 0 1 1.824-2.41c.353 0 1.767-.049 2.387-.338.62-.289 1.295-.815 1.441-1.505a1.187 1.187 0 0 0-.171-.949 1.17 1.17 0 0 0-.82-.507c-.994-.109-2.177 1.256-2.539 2.07-.033.07-.398 1.232-.38 1.232h.022c-.189.212-.386.443-.608.702a27.019 27.019 0 0 0-1.259 1.645c-.475.666-.91 1.359-1.304 2.076a15.619 15.619 0 0 0-1.116 2.508.092.092 0 0 1 0 .033v-1.176c-.115-.885-.857-2.529-1.839-2.712a1.173 1.173 0 0 0-.932.252 1.184 1.184 0 0 0-.436.861c-.058.705.453 1.41.952 1.854.562.502 2.128.985 2.243 1.025-.279.89-.499 1.798-.66 2.717a40.526 40.526 0 0 0-.246 1.621v-.511c-.115-.885-.857-2.529-1.842-2.712a1.186 1.186 0 0 0-1.365 1.113c-.058.705.453 1.407.948 1.854.496.447 1.824.891 2.177 1.004-.027.209-.055.416-.079.626-.119 1.003-.234 2.006-.38 2.985-.049.347-.112.684-.173 1.022v-.441c-.113-.888-.858-2.533-1.824-2.715a1.187 1.187 0 0 0-1.365 1.116c-.058.702.453 1.407.948 1.851.496.444 1.697.848 2.113.982-.073.347-.146.693-.231 1.021-.064.225-.109.447-.188.669l-.21.657c-.152.413-.304.842-.462 1.24-.107.28-.213.541-.304.809.055-.344.146-1.019.146-1.076a4.562 4.562 0 0 0-.608-2.235 1.491 1.491 0 0 0-.019-.261 1.189 1.189 0 0 0-.498-.827 1.182 1.182 0 0 0-.949-.179c-.966.258-1.58 1.954-1.626 2.845 0 .055.033.629.06.991-.048-.21-.093-.416-.145-.632a59.992 59.992 0 0 0-.338-1.307c-.063-.219-.13-.438-.2-.66-.07-.222-.155-.45-.231-.678a23.569 23.569 0 0 0-.645-1.563c.374-.088 1.7-.425 2.232-.836.532-.41 1.088-1.07 1.085-1.775a1.183 1.183 0 0 0-1.28-1.216c-.994.109-1.857 1.693-2.037 2.569 0 .055-.07.696-.097 1.049-.14-.304-.283-.624-.435-.934a84.547 84.547 0 0 0-1.395-2.678c-.146-.274-.286-.547-.429-.821.134-.03 1.715-.398 2.31-.854.53-.407 1.092-1.073 1.089-1.778a1.18 1.18 0 0 0-1.28-1.216c-.994.106-1.857 1.69-2.04 2.565 0 .067-.094.991-.106 1.216-.304-.608-.608-1.216-.897-1.824a20.262 20.262 0 0 1-.976-2.523c.061-.015 1.715-.389 2.326-.857.529-.407 1.091-1.07 1.085-1.778a1.182 1.182 0 0 0-1.28-1.216c-.994.106-1.857 1.69-2.037 2.565 0 .07-.103 1.064-.106 1.247-.015-.052-.036-.101-.052-.152a15.134 15.134 0 0 1-.507-2.663 18.516 18.516 0 0 1-.094-1.438c.303-.04 1.754-.231 2.35-.593.595-.362 1.2-.942 1.273-1.645a1.19 1.19 0 0 0-.658-1.229 1.187 1.187 0 0 0-.479-.117c-1.003 0-2.034 1.477-2.31 2.328-.015.046-.116.532-.183.888v-.629c0-.757.05-1.447.098-2.062.027-.349.064-.662.097-.957.289-.198 1.447-1.015 1.803-1.599.355-.584.632-1.392.37-2.049a1.175 1.175 0 0 0-.665-.698 1.187 1.187 0 0 0-.964.029c-.888.459-1.122 2.247-.976 3.128.016.076.35 1.244.365 1.234h.018a27.077 27.077 0 0 0-.255 2.98c-.03.817-.01 1.635.058 2.45.07.914.222 1.821.453 2.709v.03a21.84 21.84 0 0 0-.663-.97c-.584-.678-2.11-1.638-3.04-1.246a1.177 1.177 0 0 0-.637.723 1.189 1.189 0 0 0 .111.958c.32.635 1.134.942 1.794 1.04Z" fill="#0F6A08"/><path d="M105.062 120.119s.304-1.167.332-1.243c.121-.885-.161-2.669-1.061-3.104a1.18 1.18 0 0 0-.965-.001 1.179 1.179 0 0 0-.646.716c-.241.662.063 1.477.428 2.036.426.66 1.912 1.593 1.912 1.596Z" fill="#0F6A08"/><path d="M83.25 56.32H25.183a3.584 3.584 0 0 0-3.584 3.584v77.599a3.584 3.584 0 0 0 3.584 3.584H83.25a3.584 3.584 0 0 0 3.585-3.584v-77.6a3.584 3.584 0 0 0-3.585-3.584Z" fill="#263238"/><path d="M83.713 61.332H24.72v75.733h58.992V61.332Z" fill="#fff" stroke="#263238" stroke-width=".5" stroke-linecap="round" stroke-linejoin="round"/><path d="M42.238 72.675h23.958M69.321 82.995h8.302M45.436 82.995h21.91M35.224 82.995h8.731M30.81 82.995h2.274M69.485 91.103h8.138M55.979 91.103H67.84M35.72 91.103h18.447M30.81 91.103h2.767M64.874 99.214h12.75M37.532 99.214h25.037M30.81 99.214h4.743M74.593 107.321h3.03M39.508 107.321h31.956M30.81 107.321h6.39M74.1 115.433h3.523M46.591 115.433h24.873M30.81 115.433h13.638M61.745 123.54h15.878M30.81 123.54h27.804" stroke="#263238" stroke-width=".5" stroke-linecap="round" stroke-linejoin="round"/><path d="M61.986 54.608a1.593 1.593 0 0 1-1.301-2.49 5.59 5.59 0 1 0-9.425.088 1.578 1.578 0 0 1-1.358 2.402h-9.728l2.626 7.545H69.07l2.626-7.545h-9.71Zm-6.05-3.213a1.957 1.957 0 1 1-.006-3.915 1.957 1.957 0 0 1 .006 3.915Z" fill="#fff" stroke="#263238" stroke-width=".5" stroke-linecap="round" stroke-linejoin="round"/><path d="M41.014 130.807a6.755 6.755 0 1 0-9.082-10.002 6.755 6.755 0 0 0 9.082 10.002Z" fill="#263238" stroke="#263238" stroke-width=".5" stroke-linecap="round" stroke-linejoin="round"/><path d="M36.96 128.634a1.527 1.527 0 0 1-1.14-.529l-2.964-3.465a1.528 1.528 0 0 1-.443-1.133 1.52 1.52 0 0 1 2.745-.84l1.824 2.146 6.08-6.785a1.516 1.516 0 0 1 1.678-.504 1.523 1.523 0 0 1 1.038 1.412 1.517 1.517 0 0 1-.46 1.119l-7.248 8.072a1.524 1.524 0 0 1-1.128.501l.018.006Z" fill="#0F6A08"/><path d="M44.22 117.986a1.06 1.06 0 0 1 .97.627 1.06 1.06 0 0 1-.183 1.142l-7.247 8.071a1.057 1.057 0 0 1-.788.353 1.05 1.05 0 0 1-.793-.371l-2.98-3.472a1.055 1.055 0 0 1-.266-.777 1.059 1.059 0 0 1 1.151-.986 1.065 1.065 0 0 1 .727.383l2.18 2.542 6.438-7.172a1.063 1.063 0 0 1 .79-.352m0-.912a1.985 1.985 0 0 0-1.468.653l-5.745 6.399-1.502-1.751a1.979 1.979 0 0 0-2.126-.62 1.96 1.96 0 0 0-1.158.994 1.968 1.968 0 0 0 .29 2.195l2.964 3.46a1.991 1.991 0 0 0 1.474.687h.024a1.964 1.964 0 0 0 1.466-.654l7.25-8.071a1.978 1.978 0 0 0-.396-2.973 1.981 1.981 0 0 0-1.072-.319Z" fill="#263238"/><path d="M56.082 47.482V28.609M55.219 24.831v1.76l-.703 1.216a1.481 1.481 0 1 0 2.964 0v-1.216" stroke="#263238" stroke-width=".75" stroke-linecap="round" stroke-linejoin="round"/><path d="M53.69 24.749h2.967v-3.295H53.69v3.295Z" fill="#fff" stroke="#263238" stroke-width=".75" stroke-linecap="round" stroke-linejoin="round"/><path d="M52.595 23.648h5.162V17.03h-5.162v6.618Z" fill="#fff" stroke="#263238" stroke-width=".75" stroke-linecap="round" stroke-linejoin="round"/><path d="M51.057 22.387h8.183v-2.031h-8.183v2.03Z" fill="#fff" stroke="#263238" stroke-width=".75" stroke-linecap="round" stroke-linejoin="round"/><path d="M55.173 20.352h1.173l1.657 1.88-.173.154h-.863l-1.794-2.034ZM58.596 20.352l.645.727v1.307h-.022l-1.793-2.034h1.17ZM52.923 20.352h1.17l1.658 1.88-.174.154h-.863l-1.79-2.034ZM51.054 20.79v-.438h.787l1.657 1.88-.173.154h-.864l-1.407-1.596Z" fill="#263238"/><path d="M55.291 16.915v-3.982M1.359 12.832h56v-2.386L46.533 5.86H1.36" stroke="#263238" stroke-width=".75" stroke-linecap="round" stroke-linejoin="round"/><path d="M46.533 12.832v-6.97l-7.153 6.97v-6.97l7.153 6.97Z" stroke="#263238" stroke-width=".75" stroke-linecap="round" stroke-linejoin="round"/><path d="M39.39 12.832v-6.97l-7.157 6.97v-6.97l7.156 6.97Z" stroke="#263238" stroke-width=".75" stroke-linecap="round" stroke-linejoin="round"/><path d="M32.242 12.832v-6.97l-7.153 6.97v-6.97l7.153 6.97Z" stroke="#263238" stroke-width=".75" stroke-linecap="round" stroke-linejoin="round"/><path d="M25.098 12.832v-6.97l-7.156 6.97v-6.97l7.156 6.97Z" stroke="#263238" stroke-width=".75" stroke-linecap="round" stroke-linejoin="round"/><path d="M17.951 12.832v-6.97l-7.153 6.97v-6.97l7.153 6.97Z" stroke="#263238" stroke-width=".75" stroke-linecap="round" stroke-linejoin="round"/><path d="M10.807 12.832v-6.97l-7.156 6.97v-6.97l7.156 6.97Z" stroke="#263238" stroke-width=".75" stroke-linecap="round" stroke-linejoin="round"/><path d="m120.056 83.73-3.764 10.388-.24-.06-2.128-1.542-.787.775.827 4.065s3.344 1.72 3.952 1.608a8.773 8.773 0 0 0 1.331-.386s2.104-14.458 2.158-14.738c.055-.28-.297-1.052-1.349-.11ZM121.071 138.016s-1.052 1.602-1.909 2.277c-.857.674-2.87 1.647-3.429 2.1-.56.453-.304.858-.119 1.052.186.195 2.782.338 4.189.341 1.408.003 3.952-.608 3.952-.608s1.125.179 1.411.036c.286-.143.465-.462.511-.961.045-.498-.119-3.313-.119-3.313l-4.487-.924Z" fill="#fff" stroke="#263238" stroke-width=".5" stroke-linecap="round" stroke-linejoin="round"/><path d="M124.093 142.433c-1.095.176-1.31.426-3.432.742-1.745.261-4.332-.061-5.272-.228a.674.674 0 0 0 .225.492c.192.195 2.782.338 4.189.341 1.408.003 3.952-.608 3.952-.608s1.125.179 1.411.036c.286-.143.462-.459.508-.948-.53.027-1.058.085-1.581.173Z" fill="#263238" stroke="#263238" stroke-width=".5" stroke-linecap="round" stroke-linejoin="round"/><path d="M121.986 139.193s-1.216-.542-2.037.37" stroke="#263238" stroke-width=".5" stroke-linecap="round" stroke-linejoin="round"/><path d="M120.6 138.733s.936.733.812 1.52M121.077 140.037s-.957-.444-1.608.304" stroke="#263238" stroke-width=".5" stroke-linecap="round" stroke-linejoin="round"/><path d="M119.986 139.663s.735.608.632 1.246M120.384 140.895s-.885-.417-2.277.076" stroke="#263238" stroke-width=".5" stroke-linecap="round" stroke-linejoin="round"/><path d="M119.265 140.515a.625.625 0 0 1 .176.516.634.634 0 0 1-.297.456" stroke="#263238" stroke-width=".5" stroke-linecap="round" stroke-linejoin="round"/><path d="M128.005 139.535s-.52 1.861-.705 2.128c-.185.268-1.426 1.824-1.438 2.369-.012.544.386.963 1.374 1.188.988.225 2.52.304 3.742-.252s1.773-.739 2.08-1.59c.307-.851.103-3.706.103-3.706s-3.815-2.812-5.156-.137Z" fill="#fff" stroke="#263238" stroke-width=".5" stroke-linecap="round" stroke-linejoin="round"/><path d="M133.058 143.37c.118-.462.173-.937.164-1.414a9.177 9.177 0 0 1-.857 1.152c-.608.666-1.636 1.405-3.618 1.551a3.953 3.953 0 0 1-2.833-.87.9.9 0 0 0-.052.234c0 .557.386.964 1.374 1.189.988.225 2.52.304 3.742-.252 1.222-.557 1.773-.739 2.08-1.59Z" fill="#263238" stroke="#263238" stroke-width=".5" stroke-linecap="round" stroke-linejoin="round"/><path d="M130.69 138.903s-1.666-.082-2.189.912" stroke="#263238" stroke-width=".5" stroke-linecap="round" stroke-linejoin="round"/><path d="M128.866 138.928s1.431.304 1.65.985M130.358 140.12s-1.669-.079-2.192.912" stroke="#263238" stroke-width=".5" stroke-linecap="round" stroke-linejoin="round"/><path d="M128.531 140.144s1.432.304 1.654.985M130.027 141.335s-1.669-.079-2.192.912" stroke="#263238" stroke-width=".5" stroke-linecap="round" stroke-linejoin="round"/><path d="M128.2 141.359s1.432.304 1.651.985" stroke="#263238" stroke-width=".5" stroke-linecap="round" stroke-linejoin="round"/><path d="M118.031 103.013s.638 9.67.912 12.385.939 8.974.994 9.141c.055.167.222 2.381.222 2.381s-.164.887.058 2.827c.222 1.939.884 5.983.884 5.983s-.553.109-.498.553c.055.444.277 1.663.277 1.663s2.106.717 2.714.775c.608.058 1.824 0 1.824 0s.499-.833.444-1.274a13.572 13.572 0 0 0-.444-1.608l.277-3.268.465-13.349s1.718 13.018 1.994 13.957c.277.939.554 2.432.554 2.432s-.554.444-.554.72c0 .277.113 2.217.113 2.217s1.106-.888 2.158-.721c1.052.167 2.773 1.386 2.773 1.386.068-.562.178-1.117.331-1.663.222-.72-.222-2.547-.334-3.04a4.53 4.53 0 0 1-.055-1.717c.112-.499.167-2.049.222-2.548.054-.498-.055-12.907-.055-12.907l1.131-14.212-16.112-.499-.295.386Z" fill="#263238" stroke="#263238" stroke-width=".5" stroke-linecap="round" stroke-linejoin="round"/><path d="M123.935 79.174s-3.423 1.568-3.648 2.128c-.225.56-1.38 11.886-2.046 16.416-.666 4.529-.38 5.733-.38 5.733s.714 1.475 7.703 1.234c6.989-.24 9.464-1.282 9.558-1.9.094-.617.191.165.191-.264 0-.429.523-20.636 0-21.873-.522-1.237-3.471-3.28-4.329-3.374-.857-.094-7.049 1.9-7.049 1.9Z" fill="#0F6A08" stroke="#263238" stroke-width=".5" stroke-linecap="round" stroke-linejoin="round"/><path d="M129.586 78.25c-2.091.514-5.651 1.663-5.651 1.663s-3.423 1.568-3.648 2.128c-.078.313-.134.63-.167.951 1.52-.863 5.073-2.87 6.271-3.246a15.47 15.47 0 0 1 2.994-.608l3.955 2.638 1.66.043s-3.724-3.28-4.776-3.563a2.19 2.19 0 0 0-.638-.006ZM118.238 98.401v.055a37.605 37.605 0 0 0-.253 2.143c3.51.709 7.094.981 10.671.809 3.648-.222 5.672-.356 6.703-.423 0-.623.027-1.346.043-2.146-2.438.265-11.954 1.088-17.164-.438Z" fill="#fff" stroke="#263238" stroke-width=".5" stroke-linecap="round" stroke-linejoin="round"/><path d="M120.737 102.192c.024.432.06.852.106 1.259M121.776 92.167c-.48 2.87-1.14 5.721-1.073 9.065M122.652 88.519s-.356 1.483-.751 3.681" stroke="#263238" stroke-width=".5" stroke-miterlimit="10"/><path d="M111.957 104.762s.699 1.24 1.943-.14c.668-.739 3.183-8.415 3.183-8.415s-4.907 7.761-5.126 8.555ZM107.263 81.556l3.259-1.127s-.033 6.992.441 8.655l.471 1.668s-3.167-5.283-3.845-7.046c-.678-1.763-.326-2.15-.326-2.15Z" fill="#fff" stroke="#263238" stroke-width=".5" stroke-linecap="round" stroke-linejoin="round"/><path d="M114 91.695s-.578-1.596-1.566-1.268c-.988.329-1.714.304-1.79.745-.076.44 2.493 2.128 2.493 2.128s1.821-.115.863-1.605Z" fill="#fff" stroke="#263238" stroke-width=".5" stroke-linecap="round" stroke-linejoin="round"/><path d="M115.216 99.231s-3.21 5.311-3.253 5.53c0 0-2.201-3.727-5.168-8.293-2.967-4.566-5.758-15.364-5.758-15.364a5.336 5.336 0 0 1 3.168-1.542c2.086-.28 2.803-.197 2.803-.197s1.988 7.031 4.189 10.272a36.061 36.061 0 0 0 4.989 5.745l.912.824-1.882 3.025Z" fill="#fff" stroke="#263238" stroke-width=".5" stroke-linecap="round" stroke-linejoin="round"/><path d="M106.728 90.513a57.35 57.35 0 0 0 5.816 1.805M104.95 89.856s.255.1.687.259M108.127 89.166s2.082 2.088 4.256 2.502" stroke="#263238" stroke-width=".5" stroke-miterlimit="10"/><path d="M118.748 94.526s-2.663-1.237-3.091-1.283c-.429-.046-2.615.806-2.852.997-.237.192-.334.608-.048.666.285.058.76-.286.76-.286l1.237-.237.571.331s-1.997 1.189-2.188 1.572c-.192.383-.523 1.091-.332 1.234.192.143.286.478.569.478.15.002.301-.008.45-.03.361-.058.699-.213.979-.448.425-.38 1.377-.237 1.377-.237s1.143.38 1.428.286c.344-.152.677-.327.998-.523h.522l-.38-2.52Z" fill="#fff" stroke="#263238" stroke-width=".5" stroke-linecap="round" stroke-linejoin="round"/><path d="M112.805 97.52s1.019-1.06 1.134-1.197c.116-.137 1.842-1.007 1.842-1.007M113.374 97.997s1.38-1.216 1.477-1.289c.097-.073 1.259-.541 1.259-.541" stroke="#263238" stroke-width=".5" stroke-miterlimit="10"/><path d="M134.587 81.432s-1.855-.608-3.137 1.38c-1.283 1.989-2.052 11.613-2.052 11.613l-10.64.1.188 2.95s10.081 1.088 12.029 1.088c1.949 0 2.475.331 2.712-.38.237-.712 2.335-9.379 2.621-12.136.285-2.757-.818-4.423-1.721-4.615Z" fill="#fff" stroke="#263238" stroke-width=".5" stroke-linecap="round" stroke-linejoin="round"/><path d="M118.864 103.181s-2.937-.444-3.104-.113c-.167.332 0 4.864.277 5.153.276.289 2.161.666 2.715.331.553-.334.887-.553.997-.83.109-.276.112-3.766-.11-4.21a.725.725 0 0 0-.775-.331ZM122.351 103.734s-.447 4.49.277 4.764c.807.247 1.649.36 2.492.334.277-.057 1.274-.222 1.441-.665.167-.444.164-3.934.055-4.256-.109-.323-3.988-.621-4.265-.177ZM129.331 104.232s.222 5.04.331 5.262c.11.222 2.216 1.608 2.602 1.551.386-.058 3.49-.386 3.648-.997.158-.612.554-5.539.222-6.08-.331-.542-1.052-.776-1.717-.83-.666-.055-4.542.498-4.542.498a.593.593 0 0 0-.544.596ZM125.364 77.915l-2.284 1.237.809 1.475-1.143 7.132s6.758-8.798 6.849-8.941c.439-.302.9-.572 1.377-.809l-.428-1.76-.712.192-4.468 1.474Z" fill="#263238" stroke="#263238" stroke-width=".5" stroke-linecap="round" stroke-linejoin="round"/><path d="M122.953 68.096s-.411 1.267-.411 1.438c.022.23.056.458.104.684 0 0-1.265 1.778-1.198 1.878.067.1.821.891.821.891s.067 2.666.41 2.703c.344.036 2.566.033 2.566.033l-.207 3.897 5.095-2.94.104-3.42s1.368-1.744 1.368-2.632c0-.888-.137-1.06-.137-1.06l-8.515-1.472Z" fill="#fff" stroke="#263238" stroke-width=".5" stroke-linecap="round" stroke-linejoin="round"/><path d="m131.468 69.564-5.445-.939.043.392-.207 1.882s1.435-.991 1.709-1.128c.273-.137.82.82.513 1.401-.307.581-1.334 1.368-1.334 1.368s1.131 1.162 2.292 1.216c.398.025.797-.007 1.185-.097v-.416s1.368-1.745 1.368-2.633c0-.888-.124-1.046-.124-1.046Z" fill="#263238" stroke="#263238" stroke-width=".5" stroke-linecap="round" stroke-linejoin="round"/><path d="M122.883 69.428a.81.81 0 0 1 1.027.17" stroke="#263238" stroke-width=".5" stroke-miterlimit="10"/><path d="M123.226 70.762c.094 0 .171-.183.171-.41 0-.227-.077-.41-.171-.41-.094 0-.17.183-.17.41 0 .227.076.41.17.41Z" fill="#263238"/><path d="m124.287 75.65 2.086-.24-1.128 1.335V75.72l-.958-.07Z" fill="#263238" stroke="#263238" stroke-width=".5" stroke-miterlimit="10"/><path d="m128.321 70.078 1.903 3.596.9-.86-1.708-2.84-1.095.104Z" fill="#fff" stroke="#263238" stroke-width=".5" stroke-linecap="round" stroke-linejoin="round"/><path d="M122.281 67.275s-2.411.304-2.113.413c.298.11 12.744 3.934 12.744 3.934a7.851 7.851 0 0 1-.249-1.195c0-.303.498-2.24.304-4.231-.195-1.991-4.408-3.104-6.497-3.302-2.088-.197-3.137.797-3.344 1.891a12.795 12.795 0 0 1-.845 2.49Z" fill="#0F6A08" stroke="#263238" stroke-width=".5" stroke-linecap="round" stroke-linejoin="round"/><path d="m125.734 68.318-2.198-.79s1.277-2.904 1.232-3.257a6.063 6.063 0 0 1-.043-.66s.043-.57 1.979-.349" stroke="#263238" stroke-width=".5" stroke-linecap="round" stroke-linejoin="round"/></svg>