<svg width="152" height="152" fill="none" xmlns="http://www.w3.org/2000/svg"><path d="M103.333 33.777H81.378l.222-3.2h21.955l-.222 3.2ZM103.333 38.262H81.378l.222-3.202h21.955l-.222 3.202ZM103.333 42.748H81.378l.222-3.204h21.955l-.222 3.204ZM103.333 47.233H81.378l.222-3.205h21.955l-.222 3.205ZM103.333 51.716H81.378l.222-3.204h21.955l-.222 3.204ZM103.333 56.2H81.378L81.6 53h21.955l-.222 3.201ZM103.333 60.684H81.378l.222-3.2h21.955l-.222 3.2ZM103.333 65.171H81.378l.222-3.204h21.955l-.222 3.204ZM103.333 69.655H81.378l.222-3.204h21.955l-.222 3.204ZM103.333 74.14H81.378l.222-3.204h21.955l-.222 3.204ZM103.333 78.623H81.378l.222-3.204h21.955l-.222 3.204ZM126.549 33.777h-21.958l.222-3.2h21.958l-.222 3.2ZM126.549 38.262h-21.958l.222-3.202h21.958l-.222 3.202ZM126.549 42.748h-21.958l.222-3.204h21.958l-.222 3.204ZM126.549 47.233h-21.958l.222-3.205h21.958l-.222 3.205ZM126.549 51.716h-21.958l.222-3.204h21.958l-.222 3.204ZM126.549 56.2h-21.958l.222-3.201h21.958l-.222 3.201ZM126.549 60.684h-21.958l.222-3.2h21.958l-.222 3.2ZM126.549 65.171h-21.958l.222-3.204h21.958l-.222 3.204ZM126.549 69.655h-21.958l.222-3.204h21.958l-.222 3.204ZM126.549 74.14h-21.958l.222-3.204h21.958l-.222 3.204ZM126.549 78.623h-21.958l.222-3.204h21.958l-.222 3.204Z" fill="#CCC"/><path d="M78.298 30.4H32.935v38.918h45.363V30.4Z" fill="#0F6A08"/><path d="M76.027 32.346H35.203v35.027h40.824V32.346Z" fill="#fff"/><mask id="a" style="mask-type:luminance" maskUnits="userSpaceOnUse" x="35" y="32" width="42" height="36"><path d="M76.027 32.346H35.203v35.027h40.824V32.346Z" fill="#fff"/></mask><g mask="url(#a)"><path d="M76.027 42.965c-7.341 5.223-17.857 8.688-30.056 14.133a50.253 50.253 0 0 0-10.768 6.438v3.84h40.824V42.965ZM76.027 32.346H59.645a110.37 110.37 0 0 1-6.527 5.168c-9.324 6.837-5.284 13.68 5.907 8.7 5.742-2.55 12.135-8.457 17.002-13.604v-.264ZM42.256 36.274c0-2.855-3.554-.608-7.038 2.261v7.208c3.39-3.326 7.038-6.916 7.038-9.47ZM45.66 47.618a3.265 3.265 0 1 1-6.53 0 3.265 3.265 0 0 1 6.53 0Z" fill="#0F6A08"/><path opacity=".75" d="M76.027 42.965c-7.341 5.223-17.857 8.688-30.056 14.133a50.253 50.253 0 0 0-10.768 6.438v3.84h40.824V42.965ZM76.027 32.346H59.645a110.37 110.37 0 0 1-6.527 5.168c-9.324 6.837-5.284 13.68 5.907 8.7 5.742-2.55 12.135-8.457 17.002-13.604v-.264ZM42.256 36.274c0-2.855-3.554-.608-7.038 2.261v7.208c3.39-3.326 7.038-6.916 7.038-9.47ZM45.66 47.618a3.265 3.265 0 1 1-6.53 0 3.265 3.265 0 0 1 6.53 0Z" fill="#fff"/></g><path d="M68.972 58.031a4.353 4.353 0 1 1-8.707 0 4.353 4.353 0 0 1 8.707 0Z" fill="#fff"/><path d="M130.337 110.619a6.843 6.843 0 0 0-1.544 3.21l-3.098 1.736v-8.208l.061.082 4.934-3.611c.623.097 3.018.371 5.201-.806 2.535-1.365 4.387-6.04 4.387-6.04s-6.044-.684-8.09 1.851c-1.66 2.055-1.717 4.046-1.678 4.724l-4.815 3.523v-6.064a6.698 6.698 0 0 0 3.669-4.43c.876-3.41-3.8-10.132-3.8-10.132s-4.864 6.92-3.9 10.427c.827 2.97 3.04 3.913 3.706 4.132v13.148l-3.466-2.897c.079-.694.143-2.861-1.788-5.032-2.34-2.632-8.575-2.432-8.575-2.432s2.629 5.263 4.864 7.017c1.957 1.52 4.66.912 5.311.726l3.648 3.04v3.998h-5.427l2.216 13.85h6.649l2.222-13.847h-5.329v-2.645l3.405-1.909c.827.231 3.14.705 5.329-.389 2.736-1.365 4.97-4.29 4.97-4.29s-6.527-1.656-9.062 1.268Z" fill="#0F6A08"/><path opacity=".5" d="M130.337 110.619a6.843 6.843 0 0 0-1.544 3.21l-3.098 1.736v-8.208l.061.082 4.934-3.611c.623.097 3.018.371 5.201-.806 2.535-1.365 4.387-6.04 4.387-6.04s-6.044-.684-8.09 1.851c-1.66 2.055-1.717 4.046-1.678 4.724l-4.815 3.523v-6.064a6.698 6.698 0 0 0 3.669-4.43c.876-3.41-3.8-10.132-3.8-10.132s-4.864 6.92-3.9 10.427c.827 2.97 3.04 3.913 3.706 4.132v13.148l-3.466-2.897c.079-.694.143-2.861-1.788-5.032-2.34-2.632-8.575-2.432-8.575-2.432s2.629 5.263 4.864 7.017c1.957 1.52 4.66.912 5.311.726l3.648 3.04v3.998h-5.427l2.216 13.85h6.649l2.222-13.847h-5.329v-2.645l3.405-1.909c.827.231 3.14.705 5.329-.389 2.736-1.365 4.97-4.29 4.97-4.29s-6.527-1.656-9.062 1.268Z" fill="#fff"/><path d="m124.193 68.774-8.947.076s-.608-.076-.738.368c0 0-1.554 3.921-1.627 5.326-.073 1.404.304 1.182-.304 3.04-.608 1.857-2.292 6.21-3.253 9.761-1.292 4.77-1.629 9.835-1.711 14.759 0 .791-.486 7.6.745 7.6 1.021 0 10.436 1.25 10.549-.565.453-7.235-.855-14.303 1.656-21.338.976-2.736 2.095-5.618 2.925-8.475.83-2.858.973-5.831 1.52-8.755.368-2.02-.815-1.797-.815-1.797Z" fill="#263238"/><path d="M125.072 69.661c-.088-1.033-.879-.887-.879-.887l-8.947.076s-.608-.076-.738.368c0 0-1.554 3.921-1.627 5.326-.022.37-.012.743.031 1.112l.188.304s.304 2.587 3.846 2.736c3.541.15 5.548-1.48 6.286-3.04.739-1.56 1.037-4.067 1.627-5.548.063-.152.134-.301.213-.447Z" fill="#0F6A08"/><path d="M122.995 72.55c-.608 2.161-.24 2.76-.839 6.48-.599 3.722-2.76 7.905-3.602 11.763-.842 3.857-.477 17.401-.359 18.002.047.319.065.642.052.964.404-.152.647-.359.666-.641.453-7.236-.855-14.303 1.656-21.338.976-2.736 2.095-5.618 2.925-8.476.83-2.857.973-5.83 1.52-8.755.228-1.216-.131-1.614-.444-1.733a16.12 16.12 0 0 0-1.575 3.733Z" fill="#0F6A08"/><path d="m105.713 127.157-.061-.049v-8.354h1.201v-5.28h-4.438v5.28h1.197v8.497l-10.621 3.386v.84a.961.961 0 0 0 1.92 0v-.119l8.884-1.034v1.274a.838.838 0 0 0 1.432.593.839.839 0 0 0 .246-.593v-1.316l9.241 1.076v.119a.962.962 0 0 0 1.64.679.962.962 0 0 0 .282-.679v-.84l-10.923-3.48Z" fill="#263238"/><path d="M118.378 108.324H91.999c-.671 0-1.215.545-1.215 1.216v3.694c0 .671.544 1.216 1.215 1.216h26.379c.671 0 1.216-.545 1.216-1.216v-3.694c0-.671-.545-1.216-1.216-1.216ZM14.543 68.774l8.947.076s.608-.076.742.368c0 0 1.553 3.921 1.626 5.326.073 1.404-.304 1.182.304 3.04.608 1.857 2.292 6.21 3.253 9.761 1.295 4.77 1.63 9.835 1.712 14.759 0 .791.486 7.6-.745 7.6-1.019 0-10.434 1.25-10.549-.565-.45-7.235.854-14.303-1.657-21.338-.976-2.736-2.094-5.618-2.921-8.475-.827-2.858-.973-5.831-1.52-8.755-.359-2.02.808-1.797.808-1.797Z" fill="#263238"/><path d="M13.68 69.661c.088-1.033.876-.887.876-.887l8.946.076s.608-.076.742.368c0 0 1.553 3.921 1.626 5.326.02.37.009.743-.033 1.112l-.189.304s-.303 2.587-3.845 2.736c-3.542.15-5.557-1.48-6.299-3.043-.742-1.562-1.034-4.067-1.626-5.548a4.17 4.17 0 0 0-.198-.444Z" fill="#0F6A08"/><path d="M15.741 72.55c.608 2.161.24 2.76.84 6.48.598 3.722 2.762 7.905 3.602 11.763.839 3.857.489 17.401.358 18.002-.045.32-.063.642-.051.964-.402-.152-.648-.359-.666-.641-.45-7.236.854-14.303-1.657-21.338-.976-2.736-2.095-5.618-2.921-8.476-.827-2.857-.973-5.83-1.52-8.755-.225-1.216.133-1.614.443-1.733a15.957 15.957 0 0 1 1.572 3.733Z" fill="#0F6A08"/><path d="m33.023 127.157.061-.049v-8.354h-1.216v-5.28h4.442v5.28h-1.201v8.497l10.622 3.386v.84a.961.961 0 0 1-1.922 0v-.119l-8.849-1.034v1.274a.843.843 0 0 1-1.681 0v-1.316l-9.263 1.076v.119a.954.954 0 0 1-.261.713.967.967 0 0 1-.698.301.956.956 0 0 1-.902-.631.954.954 0 0 1-.057-.383v-.84l10.925-3.48Z" fill="#263238"/><path d="M20.359 114.446h26.378c.671 0 1.216-.544 1.216-1.216v-3.693c0-.672-.545-1.216-1.216-1.216H20.359c-.672 0-1.216.544-1.216 1.216v3.693c0 .672.544 1.216 1.216 1.216Z" fill="#263238"/><path d="M113.088 91.121h-72.23v41.514h72.23V91.121Z" fill="#CCC"/><path d="M113.033 92.118H40.894v1.15h72.139v-1.15Z" fill="#263238"/><path d="M113.623 90.44H39.249v1.814h74.374V90.44Z" fill="#CCC"/><path d="M60.089 86.834s.85 3.803.802 4.864c-.048 1.06-2.052 3.903-2.103 3.253a4.438 4.438 0 0 1 .352-1.602s-.702.951-.951.912c-.25-.04.2-1.353.2-1.353s-.75.75-1.003.608c-.252-.143.55-1.253.55-1.253s-.912.952-.948.651c-.037-.301.8-1.55.8-1.55s-.852-1.803-.913-2.554c.006-.525.18-1.033.499-1.45l2.715-.526Z" fill="#fff"/><mask id="b" style="mask-type:luminance" maskUnits="userSpaceOnUse" x="56" y="86" width="5" height="10"><path d="M60.089 86.834s.85 3.803.802 4.864c-.048 1.06-2.052 3.903-2.103 3.253a4.438 4.438 0 0 1 .352-1.602s-.702.951-.951.912c-.25-.04.2-1.353.2-1.353s-.75.75-1.003.608c-.252-.143.55-1.253.55-1.253s-.912.952-.948.651c-.037-.301.8-1.55.8-1.55s-.852-1.803-.913-2.554c.006-.525.18-1.033.499-1.45l2.715-.526Z" fill="#fff"/></mask><g mask="url(#b)"><path d="M60.089 86.834s.85 3.803.802 4.864c-.048 1.06-2.052 3.903-2.103 3.253a4.438 4.438 0 0 1 .352-1.602s-.702.951-.951.912c-.25-.04.2-1.353.2-1.353s-.75.75-1.003.608c-.252-.143.55-1.253.55-1.253s-.912.952-.948.651c-.037-.301.8-1.55.8-1.55s-.852-1.803-.913-2.554c.006-.525.18-1.033.499-1.45l2.715-.526Z" fill="#D9D9D9"/></g><path d="M60.089 86.834s.85 3.803.802 4.864c-.048 1.06-2.052 3.903-2.103 3.253a4.438 4.438 0 0 1 .352-1.602s-.702.951-.951.912c-.25-.04.2-1.353.2-1.353s-.75.75-1.003.608c-.252-.143.55-1.253.55-1.253s-.912.952-.948.651c-.037-.301.8-1.55.8-1.55s-.852-1.803-.913-2.554c.006-.525.18-1.033.499-1.45l2.715-.526Z" stroke="#263238" stroke-width=".5" stroke-linecap="round" stroke-linejoin="round"/><path d="M59.888 86.834s.608 2.654.553 3.405c-.054.75-.802 2.952-1.352 2.55-.55-.4.35-1.9.35-1.9s-1.545-1.085-1.9-2.103c-.357-1.019-.153-1.45-.153-1.45l2.502-.502Z" fill="#fff"/><mask id="c" style="mask-type:luminance" maskUnits="userSpaceOnUse" x="57" y="86" width="4" height="7"><path d="M59.888 86.834s.608 2.654.553 3.405c-.054.75-.802 2.952-1.352 2.55-.55-.4.35-1.9.35-1.9s-1.545-1.085-1.9-2.103c-.357-1.019-.153-1.45-.153-1.45l2.502-.502Z" fill="#fff"/></mask><g mask="url(#c)"><path d="M59.888 86.834s.608 2.654.553 3.405c-.054.75-.802 2.952-1.352 2.55-.55-.4.35-1.9.35-1.9s-1.545-1.085-1.9-2.103c-.357-1.019-.153-1.45-.153-1.45l2.502-.502Z" fill="#D9D9D9"/></g><path d="M59.888 86.834s.608 2.654.553 3.405c-.054.75-.802 2.952-1.352 2.55-.55-.4.35-1.9.35-1.9s-1.545-1.085-1.9-2.103c-.357-1.019-.153-1.45-.153-1.45l2.502-.502Z" stroke="#263238" stroke-width=".5" stroke-linecap="round" stroke-linejoin="round"/><path d="m58.055 74.397 2.13 12.692-3.003.678-3.003-9.785 3.876-3.585Z" fill="#263238" stroke="#263238" stroke-width=".5" stroke-linecap="round" stroke-linejoin="round"/><path d="M57.182 80.599s.195 15.115.484 19.185c.289 4.071-.775 9.497-1.742 11.048-.967 1.55-5.235 11.248-5.04 11.822.194.575 1.067 2.326 1.067 2.809v2.034s4.842 3.198 5.231 3.198c.39 0 .873.775-.097 1.359s-11.822.581-12.306.191a2.346 2.346 0 0 1-.678-1.064s-1.55.581-1.453-.872c.097-1.453 1.84-7.655 1.84-7.655s-1.065-6.785-.678-11.144c.386-4.36 1.744-9.595 1.744-10.659s-1.355-8.14-1.55-9.302c-.194-1.161-3.003-4.46-1.745-7.074 1.259-2.615 2.228-6.785 2.617-7.074.39-.29 5.621-.487 7.753 0 2.13.486 4.456.483 4.553 3.198Z" fill="#263238" stroke="#263238" stroke-width=".5" stroke-linecap="round" stroke-linejoin="round"/><path d="M47.576 50.132s-1.657 1.484-1.943 1.998c-.285.513-3.763 5.472-3.82 9.016-.059 3.545 2.571 14.264 2.571 14.264l-3.952 10.053 1.143.456 1.14-1.255v1.885s1.313 1.197 4.736 2.337c3.423 1.14 7.82-.17 7.82-.17l1.31-8.342v8.23l1.54-1.028.125-13.704s1.256-7.36 1.256-9.424c0-2.064-3.48-8.512-5.022-10.385-1.541-1.873-4.11-3.423-4.864-3.995-.754-.571-2.04.064-2.04.064Z" fill="#263238"/><mask id="d" style="mask-type:luminance" maskUnits="userSpaceOnUse" x="40" y="49" width="20" height="41"><path d="M47.576 50.132s-1.657 1.484-1.943 1.998c-.285.513-3.763 5.472-3.82 9.016-.059 3.545 2.571 14.264 2.571 14.264l-3.952 10.053 1.143.456 1.14-1.255v1.885s1.313 1.197 4.736 2.337c3.423 1.14 7.82-.17 7.82-.17l1.31-8.342v8.23l1.54-1.028.125-13.704s1.256-7.36 1.256-9.424c0-2.064-3.48-8.512-5.022-10.385-1.541-1.873-4.11-3.423-4.864-3.995-.754-.571-2.04.064-2.04.064Z" fill="#fff"/></mask><g mask="url(#d)"><path opacity=".17" d="M47.576 50.132s-1.657 1.484-1.943 1.998c-.285.513-3.763 5.472-3.82 9.016-.059 3.545 2.571 14.264 2.571 14.264l-3.952 10.053 1.143.456 1.14-1.255v1.885s1.313 1.197 4.736 2.337c3.423 1.14 7.82-.17 7.82-.17l1.31-8.342v8.23l1.54-1.028.125-13.704s1.256-7.36 1.256-9.424c0-2.064-3.48-8.512-5.022-10.385-1.541-1.873-4.11-3.423-4.864-3.995-.754-.571-2.04.064-2.04.064Z" fill="#fff"/><path d="M42.7 62.283s2.073 1.468 3.453 1.985M43.305 63.84s2.331.608 3.538.608M46.673 77.647l6.56.779-.431 1.38-6.044-.69" stroke="#263238" stroke-width=".5" stroke-linecap="round" stroke-linejoin="round"/></g><path d="M47.576 50.132s-1.657 1.484-1.943 1.998c-.285.513-3.763 5.472-3.82 9.016-.059 3.545 2.571 14.264 2.571 14.264l-3.952 10.053 1.143.456 1.14-1.255v1.885s1.313 1.197 4.736 2.337c3.423 1.14 7.82-.17 7.82-.17l1.31-8.342v8.23l1.54-1.028.125-13.704s1.256-7.36 1.256-9.424c0-2.064-3.48-8.512-5.022-10.385-1.541-1.873-4.11-3.423-4.864-3.995-.754-.571-2.04.064-2.04.064Z" stroke="#263238" stroke-width=".5" stroke-linecap="round" stroke-linejoin="round"/><path d="m47.233 50.464 6.335 6.849 3.709 7.077s-.8-5.25-1.484-6.688c-.684-1.438-3.766-5-4.113-5.8-.347-.8-4.447-1.438-4.447-1.438Z" fill="#fff" stroke="#263238" stroke-width=".5" stroke-linecap="round" stroke-linejoin="round"/><path d="m55.523 61.052 1.754 3.344s-.544-3.578-1.122-5.63l-.362-1.048a18.988 18.988 0 0 0-1.648-2.433l-.994-.197.417 2.237 1.283 1.05.672 2.677Z" fill="#263238" stroke="#263238" stroke-width=".5" stroke-linecap="round" stroke-linejoin="round"/><path d="m53.832 53.045.329.38 1.03 1.216.608 3.089-2.642-2.636s.347-1.59.675-2.05Z" fill="#fff" stroke="#263238" stroke-width=".5" stroke-linecap="round" stroke-linejoin="round"/><path d="M56.82 40.316s1.387 1.064 1.56 2.092c.173 1.027-.343 2.17-.286 2.569.058.398 1.083 1.313 1.028 1.769-.055.456-.912.626-.912.626s-.93 3.387-1.158 3.952c-.228.566-1.371.398-2.226.286l-1.54 4.56-5.084-5.98.8-2.398s-2.168-2.624-2.341-5.42c-.173-2.797 2.055-4.737 5.25-5.135 3.195-.398 5.88 1.14 6.22 1.77.34.628-1.31 1.31-1.31 1.31Z" fill="#fff"/><mask id="e" style="mask-type:luminance" maskUnits="userSpaceOnUse" x="46" y="37" width="14" height="20"><path d="M56.82 40.316s1.387 1.064 1.56 2.092c.173 1.027-.343 2.17-.286 2.569.058.398 1.083 1.313 1.028 1.769-.055.456-.912.626-.912.626s-.93 3.387-1.158 3.952c-.228.566-1.371.398-2.226.286l-1.54 4.56-5.084-5.98.8-2.398s-2.168-2.624-2.341-5.42c-.173-2.797 2.055-4.737 5.25-5.135 3.195-.398 5.88 1.14 6.22 1.77.34.628-1.31 1.31-1.31 1.31Z" fill="#fff"/></mask><g mask="url(#e)"><path d="M56.82 40.316s1.387 1.064 1.56 2.092c.173 1.027-.343 2.17-.286 2.569.058.398 1.083 1.313 1.028 1.769-.055.456-.912.626-.912.626s-.93 3.387-1.158 3.952c-.228.566-1.371.398-2.226.286l-1.54 4.56-5.084-5.98.8-2.398s-2.168-2.624-2.341-5.42c-.173-2.797 2.055-4.737 5.25-5.135 3.195-.398 5.88 1.14 6.22 1.77.34.628-1.31 1.31-1.31 1.31Z" fill="#D9D9D9"/><path d="M50.899 53.37c.857-.173 2.295-.471 3.59-.763l.334-.991c.712.094 1.624.228 2.037-.061-.973-.401-3.38-1.104-3.873-2.006-.608-1.122 1.52-4.387 1.52-6.02 0-1.632-2.04-3.468-2.04-3.468-.982-.934-2.772-1.216-4.362-1.216a4.28 4.28 0 0 0-1.453 3.541c.173 2.797 2.34 5.42 2.34 5.42l-.799 2.4L50.9 53.37Z" fill="#B8B8B8"/></g><path d="M56.82 40.316s1.387 1.064 1.56 2.092c.173 1.027-.343 2.17-.286 2.569.058.398 1.083 1.313 1.028 1.769-.055.456-.912.626-.912.626s-.93 3.387-1.158 3.952c-.228.566-1.371.398-2.226.286l-1.54 4.56-5.084-5.98.8-2.398s-2.168-2.624-2.341-5.42c-.173-2.797 2.055-4.737 5.25-5.135 3.195-.398 5.88 1.14 6.22 1.77.34.628-1.31 1.31-1.31 1.31Z" stroke="#263238" stroke-width=".5" stroke-linecap="round" stroke-linejoin="round"/><path d="M56.82 40.316s1.654-.684 1.31-1.31c-.343-.626-3.024-2.17-6.219-1.77-3.195.402-5.42 2.338-5.25 5.135.17 2.797 2.34 5.42 2.34 5.42l-.12.365c1.182.578 2.404-.365 2.404-.365a1.176 1.176 0 0 1-1.371-.228c-.684-.626-.742-2.623.115-2.796.858-.174 1.426.173 1.426.8 0 .625.17.227.63.17.458-.058.054-1.426.34-1.654a4.468 4.468 0 0 0 1.198-1.086c.513-.684-.97-1.252-1.14-1.881-.17-.63 4.338-.8 4.338-.8Z" fill="#263238" stroke="#263238" stroke-width=".5" stroke-linecap="round" stroke-linejoin="round"/><path d="m57.228 44.773-1.058.352h.958M57.632 43.715s-.453-.654-.957-.353c-.505.301-.553.505-.553.505M56.544 48.299c.31.211.687.298 1.058.243" stroke="#263238" stroke-width=".5" stroke-linecap="round" stroke-linejoin="round"/><path d="m47.974 49.105 6.39 6.277-.568 2.681-6.791-7.305.97-1.654ZM72.522 73.106s-2.25-1.338-2.614-1.216c-.365.121-3.891 2.675-3.648 3.283.243.608 2.128 1.398 3.222 1.824 1.095.425 3.344-.487 3.344-.487l-.304-3.404Z" fill="#fff" stroke="#263238" stroke-width=".5" stroke-linecap="round" stroke-linejoin="round"/><path d="M65.968 72.619s1.946-1.095 2.25-1.095c.304 0 2.067 1.581 2.067 1.581l-.73 1.095s2.31 1.155 2.067 1.58c-.243.426-1.155 1.095-2.128 1.216-.972.122-3.708-1.641-3.708-1.641l.182-2.736Z" fill="#fff"/><mask id="f" style="mask-type:luminance" maskUnits="userSpaceOnUse" x="65" y="71" width="7" height="7"><path d="M65.968 72.619s1.946-1.095 2.25-1.095c.304 0 2.067 1.581 2.067 1.581l-.73 1.095s2.31 1.155 2.067 1.58c-.243.426-1.155 1.095-2.128 1.216-.972.122-3.708-1.641-3.708-1.641l.182-2.736Z" fill="#fff"/></mask><g mask="url(#f)"><path d="M65.968 72.619s1.946-1.095 2.25-1.095c.304 0 2.067 1.581 2.067 1.581l-.73 1.095s2.31 1.155 2.067 1.58c-.243.426-1.155 1.095-2.128 1.216-.972.122-3.708-1.641-3.708-1.641l.182-2.736Z" fill="#D9D9D9"/></g><path d="M65.968 72.619s1.946-1.095 2.25-1.095c.304 0 2.067 1.581 2.067 1.581l-.73 1.095s2.31 1.155 2.067 1.58c-.243.426-1.155 1.095-2.128 1.216-.972.122-3.708-1.641-3.708-1.641l.182-2.736Z" stroke="#263238" stroke-width=".5" stroke-linecap="round" stroke-linejoin="round"/><path d="m64.618 72.133 1.703.304-.548 2.918-1.459-.486.304-2.736Z" fill="#fff" stroke="#263238" stroke-width=".5" stroke-linecap="round" stroke-linejoin="round"/><path d="M44.861 55.17s-1.641 3.161-1.824 4.742c-.182 1.581 6.506 14.167 6.992 14.592.487.426 14.71.852 14.71.852l.609-3.101-12.16-3.466-4.135-12.707" fill="#263238"/><mask id="g" style="mask-type:luminance" maskUnits="userSpaceOnUse" x="43" y="55" width="23" height="21"><path d="M44.861 55.17s-1.641 3.161-1.824 4.742c-.182 1.581 6.506 14.167 6.992 14.592.487.426 14.71.852 14.71.852l.609-3.101-12.16-3.466-4.135-12.707" fill="#fff"/></mask><g mask="url(#g)"><path opacity=".17" d="M44.861 55.17s-1.641 3.161-1.824 4.742c-.182 1.581 6.506 14.167 6.992 14.592.487.426 14.71.852 14.71.852l.609-3.101-12.16-3.466-4.135-12.707" fill="#fff"/></g><path d="M44.861 55.17s-1.641 3.161-1.824 4.742c-.182 1.581 6.506 14.167 6.992 14.592.487.426 14.71.852 14.71.852l.609-3.101-12.16-3.466-4.135-12.707" stroke="#263238" stroke-width=".5" stroke-linecap="round" stroke-linejoin="round"/><path d="M70.394 72.193s-.85-.73-1.155.122c-.304.851-2.189 2.918-1.338 2.98.852.06 2.433-1.703 2.433-1.703" fill="#fff"/><path d="M70.394 72.193s-.85-.73-1.155.122c-.304.851-2.189 2.918-1.338 2.98.852.06 2.433-1.703 2.433-1.703" stroke="#263238" stroke-width=".5" stroke-linecap="round" stroke-linejoin="round"/><path d="M66.625 75.599s-.22 1.024.304 1.459c.367.304.574-.547.486-1.155-.088-.608-.608-.79-.79-.304Z" fill="#fff" stroke="#263238" stroke-width=".5" stroke-linecap="round" stroke-linejoin="round"/><path d="M67.488 75.842s-.219 1.024.304 1.459c.368.304.575-.547.486-1.155-.088-.608-.62-.79-.79-.304Z" fill="#fff" stroke="#263238" stroke-width=".5" stroke-linecap="round" stroke-linejoin="round"/><path d="M68.327 76.206s-.219 1.025.304 1.46c.368.303.575-.548.486-1.156-.088-.608-.608-.79-.79-.304Z" fill="#fff" stroke="#263238" stroke-width=".5" stroke-linecap="round" stroke-linejoin="round"/><path d="M69.17 76.702s-.201.69.279.982c.337.207.529-.368.447-.778-.082-.41-.56-.532-.727-.204Z" fill="#fff" stroke="#263238" stroke-width=".5" stroke-linecap="round" stroke-linejoin="round"/><path d="m72.522 73.106.183 3.89 1.337-.364-.304-3.587-1.216.06Z" stroke="#263238" stroke-width=".5" stroke-linecap="round" stroke-linejoin="round"/><path d="m73.434 72.74.608 4.622 10.154-1.095.243-6.019-11.005 2.493Z" fill="#263238" stroke="#263238" stroke-width=".5" stroke-linecap="round" stroke-linejoin="round"/><path d="M55.632 91.16s-1.842 12.306-1.842 16.474c0 4.168-2.81 11.145-2.907 15.021" stroke="#fff" stroke-width=".5" stroke-linecap="round" stroke-linejoin="round"/><path d="M44.78 132.24c.483.389 11.335.389 12.305-.192.97-.58.483-1.359.097-1.359s-5.231-3.198-5.231-3.198-2.618 2.037-4.071 2.52c-1.453.484-3.779.581-3.779.581v.584c.125.41.36.778.678 1.064Z" fill="#fff" stroke="#263238" stroke-width=".5" stroke-linecap="round" stroke-linejoin="round"/><path d="M57.085 132.055c.51-.304.608-.669.547-.94a23.898 23.898 0 0 1-4.326.453c-2.927.079-7.533-.1-9.12-.167.132.327.34.617.608.845.469.389 11.321.389 12.291-.191Z" fill="#fff" stroke="#263238" stroke-width=".5" stroke-linecap="round" stroke-linejoin="round"/><path d="m43.819 131.257.282-.659.386-7.944s-1.745 6.202-1.839 7.655c-.073 1.058.73 1.037 1.17.948ZM85.67 88.737s-.966 14.44 0 20.253c.967 5.812 3.402 15.893 3.779 17.151.237.752.34 1.539.304 2.326l5.426.775s-1.647-19.088-1.647-21.316c0-2.229 1.842-18.897 1.842-18.897l-9.704-.292Z" fill="#263238" stroke="#263238" stroke-width=".5" stroke-linecap="round" stroke-linejoin="round"/><path d="M89.74 128.467s-5.909 2.52-6.59 3.003c-.68.484 1.456 1.165 4.07 1.165 2.615 0 5.236-.304 5.236-.304l1.063-.581.098.678h2.809s.486-2.326.304-2.906c-.138-.398-.3-.786-.484-1.165l-6.505.11Z" fill="#263238" stroke="#263238" stroke-width=".5" stroke-linecap="round" stroke-linejoin="round"/><path d="M84.798 87.576s.486 13.856 1.647 18.799c1.162 4.943 3.199 16.958 3.199 18.216.007.72-.09 1.437-.29 2.128l-.388 1.265a3.9 3.9 0 0 0 .304.872s2.517.581 4.164.581a10.947 10.947 0 0 0 3.04-.459s.052-3.04.15-4.484c.097-1.444-.387-10.756-.387-12.984 0-2.228-.583-3.49-.583-6.202 0-2.711-.484-9.98-.386-11.144.097-1.165 1.453-2.432 1.745-3.876.291-1.444.58-3.004.58-3.004l-12.795.292Z" fill="#263238" stroke="#263238" stroke-width=".5" stroke-linecap="round" stroke-linejoin="round"/><path d="M85.959 102.144s2.709 18.79 3.387 19.975c.404.757.512 1.637.304 2.469" stroke="#fff" stroke-width=".5" stroke-linecap="round" stroke-linejoin="round"/><path d="M82.472 76.626s-.362 3.706-.362 6.539c0 1.58-.015 3.648-.03 5.144a2.651 2.651 0 0 0 2.128 2.617c.636.14 1.285.218 1.936.234l-2.276-14.1s-1.031-1.741-1.396-.434Z" fill="#263238" stroke="#263238" stroke-width=".5" stroke-linecap="round" stroke-linejoin="round"/><path d="M93.23 51.376a6.082 6.082 0 0 1 1.502 1.115c.388.51.732 1.052 1.028 1.62 0 0 4.12 4.749 4.216 5.232.098.484-2.325 15.748-2.325 15.748l2.76 14.437s-4.456 2.471-7.85 2.617c-2.386.103-5.976-.66-7.903-1.122a1.878 1.878 0 0 1-1.438-1.66c-.189-2.03-.541-6.08-.748-9.913-.237-4.454.438-13.276.912-16.377.474-3.1 1.988-7.314 3.15-9.059 1.16-1.745 4.362-3.55 6.697-2.638Z" fill="#263238" stroke="#263238" stroke-width=".5" stroke-linecap="round" stroke-linejoin="round"/><path d="M95.76 54.111a11.288 11.288 0 0 0-1.015-1.599 6.081 6.081 0 0 0-1.502-1.115c-1.934-.764-4.463.343-5.931 1.742-.195.431-1.727 3.927-2.453 6.785-.776 3.04-.678 6.882-.678 6.882s2.568-3.295 6.055-7.171a46.24 46.24 0 0 1 5.685-5.341l-.161-.183Z" fill="#263238"/><mask id="h" style="mask-type:luminance" maskUnits="userSpaceOnUse" x="84" y="51" width="12" height="16"><path d="M95.76 54.111a11.288 11.288 0 0 0-1.015-1.599 6.081 6.081 0 0 0-1.502-1.115c-1.934-.764-4.463.343-5.931 1.742-.195.431-1.727 3.927-2.453 6.785-.776 3.04-.678 6.882-.678 6.882s2.568-3.295 6.055-7.171a46.24 46.24 0 0 1 5.685-5.341l-.161-.183Z" fill="#fff"/></mask><g mask="url(#h)"><path opacity=".17" d="M95.76 54.111a11.288 11.288 0 0 0-1.015-1.599 6.081 6.081 0 0 0-1.502-1.115c-1.934-.764-4.463.343-5.931 1.742-.195.431-1.727 3.927-2.453 6.785-.776 3.04-.678 6.882-.678 6.882s2.568-3.295 6.055-7.171a46.24 46.24 0 0 1 5.685-5.341l-.161-.183Z" fill="#fff"/></g><path d="M95.76 54.111a11.288 11.288 0 0 0-1.015-1.599 6.081 6.081 0 0 0-1.502-1.115c-1.934-.764-4.463.343-5.931 1.742-.195.431-1.727 3.927-2.453 6.785-.776 3.04-.678 6.882-.678 6.882s2.568-3.295 6.055-7.171a46.24 46.24 0 0 1 5.685-5.341l-.161-.183Z" stroke="#263238" stroke-width=".5" stroke-linecap="round" stroke-linejoin="round"/><path d="M86.98 55.367s-1.31 4.107-1.708 5.268c-.398 1.162-.438 2.983-.438 2.983s4.907-7.342 6.105-8.576c1.197-1.235 2.763-3.162 2.763-3.162l-1.055-.304-5.666 3.791Z" fill="#fff" stroke="#263238" stroke-width=".5" stroke-linecap="round" stroke-linejoin="round"/><path d="M87.342 53.878s-.58 1.708-.58 1.824c0 .115-.146 1.745-.146 1.745l2.07-2.8-1.344-.77Z" fill="#fff" stroke="#263238" stroke-width=".5" stroke-linecap="round" stroke-linejoin="round"/><path d="m92.61 50.464-5.666 4.615.873 2.541 5.812-5.922-1.018-1.234ZM91.878 87.065s-.806 2.004-1.046 2.66c-.24.657-.118 3.229-.088 3.5.03.27.508.328.508.328s.149 2.06.328 2.128c.186.046.377.076.569.088 0 0 .328 1.049.747.957a.68.68 0 0 0 .478-.568.79.79 0 0 0 .717-.328c.17-.251.312-.522.42-.806 0 0 .717-.359.775-.63.058-.27.24-1.215.24-1.215s.21-.06.21-.687c0-.626-.478-4.484-.478-4.484l-3.38-.943Z" fill="#fff" stroke="#263238" stroke-width=".5" stroke-linecap="round" stroke-linejoin="round"/><path d="m91.252 93.552.088-1.818M92.148 95.763l.195-2.69M93.374 96.152l.14-2.913M94.51 95.018l.174-2.028" stroke="#263238" stroke-width=".5" stroke-linecap="round" stroke-linejoin="round"/><path d="m97.785 58.022 2.18 1.307-.727 15.069-3.876 14.242-3.682-.966 1.162-11.248-.581-11.337s.824-2.641 2.712-4.094" fill="#263238"/><path d="m97.785 58.022 2.18 1.307-.727 15.069-3.876 14.242-3.682-.966 1.162-11.248-.581-11.337s.824-2.641 2.712-4.094" stroke="#263238" stroke-width=".5" stroke-linecap="round" stroke-linejoin="round"/><path d="M93.3 60.565s-.99 2.518-1.039 4.53M94.127 61.764s-1.696 2.77-1.696 4.022c0 1.252.447 11.704.447 11.704l-1.161 9.022" stroke="#fff" stroke-width=".5" stroke-linecap="round" stroke-linejoin="round"/><path d="M83.6 41.231s-1.164 3.308-1.055 3.782c.11.474.219 1.198.219 1.198s-1.824 2.253-1.599 2.508c.225.255 1.234.544 1.234.544s.836 3.49 1.165 3.815c.328.326 2.362-.398 2.362-.398l2.18 2.76 4.468-4.286-.544-2.253s2.362-4.143 2.326-6.107c-.037-1.964-4.068-4.578-6.94-4.542-2.874.037-5.56 1.092-5.017 1.855.32.452.73.834 1.201 1.124Z" fill="#fff"/><mask id="i" style="mask-type:luminance" maskUnits="userSpaceOnUse" x="81" y="38" width="14" height="18"><path d="M83.6 41.231s-1.164 3.308-1.055 3.782c.11.474.219 1.198.219 1.198s-1.824 2.253-1.599 2.508c.225.255 1.234.544 1.234.544s.836 3.49 1.165 3.815c.328.326 2.362-.398 2.362-.398l2.18 2.76 4.468-4.286-.544-2.253s2.362-4.143 2.326-6.107c-.037-1.964-4.068-4.578-6.94-4.542-2.874.037-5.56 1.092-5.017 1.855.32.452.73.834 1.201 1.124Z" fill="#fff"/></mask><g mask="url(#i)"><path d="M92.945 40.523a6.388 6.388 0 0 0-1.608.456l-4.284 1.736s-2.04 1.733-1.823 3.058c.215 1.326 2.04 3.162 1.632 4.488-.407 1.325-2.958 2.754-2.958 2.754l.8.03a13.591 13.591 0 0 0 1.234-.365l.334.423 4.128.149 2.186-2.098-.544-2.252s2.362-4.144 2.326-6.108c-.025-.723-.584-1.535-1.423-2.27Z" fill="#B8B8B8"/></g><path d="M83.6 41.231s-1.164 3.308-1.055 3.782c.11.474.219 1.198.219 1.198s-1.824 2.253-1.599 2.508c.225.255 1.234.544 1.234.544s.836 3.49 1.165 3.815c.328.326 2.362-.398 2.362-.398l2.18 2.76 4.468-4.286-.544-2.253s2.362-4.143 2.326-6.107c-.037-1.964-4.068-4.578-6.94-4.542-2.874.037-5.56 1.092-5.017 1.855.32.452.73.834 1.201 1.124Z" stroke="#263238" stroke-width=".5" stroke-linecap="round" stroke-linejoin="round"/><path d="M92.03 48.901s2.362-4.143 2.326-6.107c-.037-1.964-4.068-4.578-6.94-4.542-2.874.037-5.56 1.092-5.017 1.855.32.452.73.834 1.201 1.124 0 0 1.782.837 1.782 1.055 0 .22-1.055 1.38-.69 1.891.364.511 2.106 1.125 2.106 1.125s-.304.982.146 1.091c.45.11.654-.328.942-.608.29-.28 1.31-.693 1.457.545a3.754 3.754 0 0 1-.657 2.508c-.143.106 1.854 1.453 2.736 1.051.228-.103.496-.24.763-.383l-.155-.605Z" fill="#263238" stroke="#263238" stroke-width=".5" stroke-linecap="round" stroke-linejoin="round"/><path d="M83.308 47.12c.141 0 .255-.44.255-.983 0-.542-.114-.982-.255-.982-.14 0-.255.44-.255.982s.114.982.255.982ZM83.6 45.74l4.286.036M82.895 44.557s.407-.65.814.161M82.813 49.856c.44-.18.85-.427 1.216-.733" stroke="#263238" stroke-width=".5" stroke-linecap="round" stroke-linejoin="round"/><path d="M16.194 132.635H135.84" stroke="#263238" stroke-width="2" stroke-miterlimit="10"/></svg>