<svg width="166" height="166" fill="none" xmlns="http://www.w3.org/2000/svg"><path d="M32.536 128.899c29.037 15.169 76.118 15.169 105.154 0 29.037-15.169 29.037-39.764 0-54.936-29.036-15.172-76.104-15.17-105.154 0-29.05 15.17-29.023 39.767 0 54.936Z" fill="#F5F5F5"/><path d="m24.442 104.023-9.439-5.448V78.329l9.439 5.452v20.242Z" fill="#E0E0E0"/><path d="m24.442 83.78 13.486-7.785v20.242l-13.486 7.786V83.781Z" fill="#EBEBEB"/><path d="m37.928 75.995-13.486 7.786-9.439-5.452 13.486-7.785 9.439 5.451Z" fill="#F5F5F5"/><path d="M25.793 84.557 36.58 78.33l.249.143v7.5L26.039 92.2l-.25-.143.004-7.5Z" fill="#E0E0E0"/><path d="m26.039 84.703 10.79-6.231v7.5L26.039 92.2v-7.497Z" fill="#F5F5F5"/><path d="m30.268 83.532 1.836-1.06c.236-.139.429-.076.429.14a.86.86 0 0 1-.429.638l-1.836 1.059c-.239.139-.431.076-.431-.14a.857.857 0 0 1 .431-.637ZM25.544 94.046l10.787-6.229v7.5l.249.143-10.79 6.228-.246-.142v-7.5Z" fill="#E0E0E0"/><path d="m25.79 94.188 10.79-6.228v7.5l-10.79 6.228v-7.5Z" fill="#F5F5F5"/><path d="m30.02 93.02 1.852-1.056c.239-.14.432-.076.432.14a.857.857 0 0 1-.432.637L30.036 93.8c-.239.14-.432.076-.432-.14a.858.858 0 0 1 .415-.64ZM24.442 82.611l-9.439-5.451V56.918l9.439 5.448v20.245Z" fill="#E0E0E0"/><path d="m24.442 62.367 13.486-7.786v20.245l-13.486 7.786V62.367Z" fill="#EBEBEB"/><path d="m37.928 54.58-13.486 7.786-9.439-5.448 13.486-7.785 9.439 5.448Z" fill="#F5F5F5"/><path d="m25.79 63.146 10.79-6.228.249.143v7.5l-10.79 6.228-.25-.146v-7.497Z" fill="#E0E0E0"/><path d="m30.268 62.117 1.833-1.059c.24-.136.432-.073.432.143a.863.863 0 0 1-.432.637l-1.833 1.06c-.239.135-.431.076-.431-.14a.866.866 0 0 1 .431-.64ZM25.544 72.635l10.787-6.228v7.497l.249.142-10.79 6.229-.246-.143v-7.497Z" fill="#E0E0E0"/><path d="m25.79 72.778 10.79-6.228v7.496l-10.79 6.229v-7.497Z" fill="#F5F5F5"/><path d="m30.02 71.605 1.852-1.059c.236-.136.432-.073.432.143a.876.876 0 0 1-.432.638l-1.853 1.049c-.239.136-.431.073-.431-.14a.868.868 0 0 1 .431-.63ZM25.79 63.146l10.79-6.228v7.497l-10.79 6.228v-7.497Z" fill="#E0E0E0"/><path d="m41.975 60.623-5.907-3.41v6.608l5.907 3.406v-6.604Z" fill="#E0E0E0"/><path d="M29.837 71.712v-9.345l2.314-1.342.382.565 6.743-3.895v8.566l-9.44 5.451Z" fill="#EBEBEB"/><path d="m29.837 71.712.674-8.177 9.439-5.448-.674 8.174-9.44 5.451Z" fill="#F5F5F5"/><path d="m31.185 66.851-5.146-2.971v6.607l5.146 2.968V66.85Z" fill="#EBEBEB"/><path d="m31.185 66.26 10.79-6.228v7.497l-10.79 6.228V66.26Z" fill="#F5F5F5"/><path d="m35.414 65.089 1.833-1.06c.24-.135.432-.072.432.144a.868.868 0 0 1-.432.637l-1.833 1.059c-.239.136-.431.073-.431-.14a.867.867 0 0 1 .431-.64ZM31.185 66.26l-.359-.205v7.496l.359.206V66.26Z" fill="#E0E0E0"/><path d="m30.826 66.055 10.787-6.232.362.21-10.79 6.228-.359-.206Z" fill="#EBEBEB"/><path d="m135.954 91.758-9.442-5.451V66.064l9.442 5.449v20.245Z" fill="#E0E0E0"/><path d="m135.954 71.513 13.486-7.786v20.246l-13.486 7.785V71.513Z" fill="#EBEBEB"/><path d="m149.44 63.728-13.486 7.785-9.442-5.448 13.489-7.789 9.439 5.452Z" fill="#F5F5F5"/><path d="m137.302 72.293 10.79-6.229.249.143-.003 7.497-10.787 6.228-.249-.143v-7.496Z" fill="#E0E0E0"/><path d="m137.551 72.436 10.79-6.228-.003 7.497-10.787 6.228v-7.497Z" fill="#F5F5F5"/><path d="m141.781 71.264 1.832-1.06c.239-.135.432-.072.432.14a.873.873 0 0 1-.432.64l-1.832 1.06c-.239.136-.432.073-.432-.14a.871.871 0 0 1 .432-.64ZM137.053 81.781l10.79-6.231v7.5l.249.142-10.79 6.229-.249-.143v-7.497Z" fill="#E0E0E0"/><path d="m137.302 81.925 10.79-6.229v7.497l-10.79 6.228v-7.496Z" fill="#F5F5F5"/><path d="m141.532 80.752 1.836-1.059c.235-.136.428-.073.428.14a.882.882 0 0 1-.428.64l-1.836 1.06c-.239.135-.432.072-.432-.144a.865.865 0 0 1 .432-.637Z" fill="#E0E0E0"/><path d="M46.148 112.917s.036-5.266-3.284-9.213c-2.938-3.496-4.501-5.714-3.575-6.737.926-1.022 2.918-1.268 5.604 1.56 2.686 2.829 2.895 10.665 2.523 12.438l-1.268 1.952Z" fill="#4B8F46"/><path opacity=".2" d="M46.148 112.917s.036-5.266-3.284-9.213c-2.938-3.496-4.501-5.714-3.575-6.737.926-1.022 2.918-1.268 5.604 1.56 2.686 2.829 2.895 10.665 2.523 12.438l-1.268 1.952Z" fill="#000"/><path d="M46.706 107.256a.17.17 0 0 1-.104-.036.17.17 0 0 1-.059-.093c-1.162-5.435-4.143-8.44-5.82-9.748a.166.166 0 0 1 .082-.296.17.17 0 0 1 .124.034c1.71 1.328 4.754 4.402 5.94 9.94a.16.16 0 0 1-.022.124.167.167 0 0 1-.045.047.18.18 0 0 1-.06.025l-.036.003Z" fill="#fff"/><path d="m46.022 114.872-1.351.78a2.446 2.446 0 0 0-1.82-1.557c-1.477-.332-3.011-.275-4.047-1.557-1.036-1.281.226-2.676 0-3.619-.226-.943-.372-1.215-2.224-2.158-1.853-.943-2.583-2.506-1.189-3.565 1.395-1.059 3.652-.283 5.02.664 1.215.83 2.37 1.049 3.728 1.218 1.358.169 3.57.923 3.23 4.077a24.864 24.864 0 0 1-1.347 5.717Z" fill="#4B8F46"/><path d="M40.836 110.729a.172.172 0 0 1-.098-.032.174.174 0 0 1-.061-.084.17.17 0 0 1 .012-.127.167.167 0 0 1 .097-.082c.12-.037 2.988-.946 4.207.03.03.028.048.067.051.108a.165.165 0 0 1-.14.176.163.163 0 0 1-.117-.025c-1.076-.864-3.871.019-3.901.029l-.05.007Z" fill="#fff"/><path d="M46.171 114.62a.164.164 0 0 1-.162-.146c-.74-6.992-9.164-10.309-9.247-10.342a.166.166 0 0 1-.096-.216.17.17 0 0 1 .213-.096c.09.036 8.698 3.423 9.458 10.624a.165.165 0 0 1-.035.121.164.164 0 0 1-.11.062l-.02-.007Z" fill="#fff"/><path d="M128.75 110.281c.036-.116 1.46-7.447 0-12.646-1.328-4.768-3.061-6.527-5.532-6.916-2.47-.388-3.542 1.392-2.231 3.802 1.312 2.41 4.469 5.607 5.243 10.992.332 2.218.584 4.144.584 4.144l1.936.624Z" fill="#4B8F46"/><path opacity=".2" d="M128.75 110.281c.036-.116 1.46-7.447 0-12.646-1.328-4.768-3.061-6.527-5.532-6.916-2.47-.388-3.542 1.392-2.231 3.802 1.312 2.41 4.469 5.607 5.243 10.992.332 2.218.584 4.144.584 4.144l1.936.624Z" fill="#000"/><path d="M127.916 106.071a.174.174 0 0 1-.063-.017.161.161 0 0 1-.051-.039.151.151 0 0 1-.033-.056.177.177 0 0 1-.009-.064c.332-5.936-1.607-11.235-5.083-13.835a.165.165 0 0 1-.064-.11.164.164 0 0 1 .031-.122.169.169 0 0 1 .233-.033c3.562 2.656 5.561 8.074 5.212 14.12a.168.168 0 0 1-.054.113.173.173 0 0 1-.119.043Z" fill="#fff"/><path d="M132.571 114.098c-.189-1.364.594-3.409 2.457-3.894 1.862-.485 2.692-1.554 2.022-2.722-.671-1.169-.515-2.241 1.175-2.726 1.69-.485 3.17-1.328 2.198-3.114-.707-1.292-.863-2.128.87-4.671 1.437-2.112.262-3.35-1.538-3.118-1.799.232-2.911 2.377-4.037 2.736-1.125.358-1.384-1.554-2.868-.698-1.484.857-1.395 3.052-1.441 4.582-.047 1.531-.146 1.876-1.487 1.69-1.342-.186-2.656.033-2.627 3.277.024 2.782 1.508 6.228 1.508 6.228l3.768 2.43Z" fill="#4B8F46"/><path d="M130.217 112.024h-.017a.17.17 0 0 1-.149-.186c.936-8.363 8.114-15.418 9.987-16.849a.168.168 0 0 1 .234.031.168.168 0 0 1-.032.234c-1.849 1.412-8.934 8.374-9.857 16.621a.169.169 0 0 1-.166.149Z" fill="#fff"/><path d="M133.491 103.083a.169.169 0 0 1-.095-.029.171.171 0 0 1-.061-.077.172.172 0 0 1 .099-.216c2.676-.996 5.711-.524 5.84-.504a.167.167 0 0 1 .107.066c.025.036.036.08.029.123a.172.172 0 0 1-.189.139c-.03 0-3.078-.478-5.671.488a.17.17 0 0 1-.059.01ZM131.107 108.109a.164.164 0 0 1-.123-.056 9.79 9.79 0 0 1-2.188-4.539.173.173 0 0 1 .003-.064.153.153 0 0 1 .028-.059.152.152 0 0 1 .047-.044.17.17 0 0 1 .126-.019.153.153 0 0 1 .059.028.155.155 0 0 1 .044.048.16.16 0 0 1 .022.061 9.586 9.586 0 0 0 2.108 4.365.178.178 0 0 1 .039.086.178.178 0 0 1-.014.094.162.162 0 0 1-.061.071.162.162 0 0 1-.09.028Z" fill="#fff"/><path d="M46.022 63.488v51.387l52.595-30.364-.003-46.716-39.106 22.58-1.352-3.895-12.134 7.008Z" fill="#4B8F46"/><path opacity=".7" d="M46.022 63.488v51.387l52.595-30.364-.003-46.716-39.106 22.58-1.352-3.895-12.134 7.008Z" fill="#000"/><path d="m46.022 114.875 2.696-46.715 52.595-30.365-2.696 46.716-52.595 30.364Z" fill="#E0E0E0"/><path d="m46.022 114.876 4.044-45.936 52.595-30.368-4.044 45.94-52.595 30.364Z" fill="#4B8F46"/><path opacity=".7" d="m46.022 114.876 4.044-45.936 52.595-30.368-4.044 45.94-52.595 30.364Z" fill="#000"/><path d="M54.113 68.16v51.39l52.595-30.368V42.465l-39.11 22.58-1.347-3.895-12.138 7.008Z" fill="#4B8F46"/><path opacity=".5" d="M54.113 68.16v51.39l52.595-30.368V42.465l-39.11 22.58-1.347-3.895-12.138 7.008Z" fill="#000"/><path d="m54.113 119.55 2.696-46.72 52.595-30.364-2.696 46.715-52.595 30.369Z" fill="#E0E0E0"/><path d="m54.113 119.55 4.043-45.939 52.596-30.368-4.044 45.939-52.595 30.368Z" fill="#4B8F46"/><path opacity=".5" d="m54.113 119.55 4.043-45.939 52.596-30.368-4.044 45.939-52.595 30.368Z" fill="#000"/><path d="M98.604 135.901c-9.442-5.452-18.2-11.378-22.198-18.33l12.152-7.015 10.046 25.345Z" fill="#E0E0E0"/><path d="M63.551 73.611v51.387l52.596-30.364V47.918l-39.11 22.58-1.348-3.895-12.138 7.008Z" fill="#4B8F46"/><path opacity=".2" d="M63.551 73.611v51.387l52.596-30.364V47.918l-39.11 22.58-1.348-3.895-12.138 7.008Z" fill="#000"/><path d="M78.704 88.803c-.133 0-.153-.152-.153-.242V44.737a1.104 1.104 0 0 1 .492-.85l37.96-21.912a.354.354 0 0 1 .173-.053c.133 0 .153.153.153.242v43.824a1.104 1.104 0 0 1-.492.853l-37.96 21.913a.363.363 0 0 1-.173.05Z" fill="#fff"/><path d="M117.156 22.075a.298.298 0 0 1 0 .073v43.824a.949.949 0 0 1-.408.71L78.787 88.594l-.067.03a.204.204 0 0 1 0-.073V44.727a.953.953 0 0 1 .409-.707l37.961-21.912a.185.185 0 0 1 .069-.03m.02-.332a.517.517 0 0 0-.255.077L78.963 43.734a1.277 1.277 0 0 0-.575.996v43.825c0 .258.13.408.332.408a.512.512 0 0 0 .256-.076l37.961-21.912a1.262 1.262 0 0 0 .574-.996V22.153c0-.259-.129-.411-.332-.408Z" fill="#4B8F46"/><path opacity=".7" d="M117.156 22.075a.298.298 0 0 1 0 .073v43.824a.949.949 0 0 1-.408.71L78.787 88.594l-.067.03a.204.204 0 0 1 0-.073V44.727a.953.953 0 0 1 .409-.707l37.961-21.912a.185.185 0 0 1 .069-.03m.02-.332a.517.517 0 0 0-.255.077L78.963 43.734a1.277 1.277 0 0 0-.575.996v43.825c0 .258.13.408.332.408a.512.512 0 0 0 .256-.076l37.961-21.912a1.262 1.262 0 0 0 .574-.996V22.153c0-.259-.129-.411-.332-.408Z" fill="#fff"/><path d="m82.432 46.4 13.486-7.785v15.571l-13.486 7.785v-15.57Z" fill="#4B8F46"/><path opacity=".8" d="m82.432 46.4 13.486-7.785v15.571l-13.486 7.785v-15.57Z" fill="#fff"/><path d="M93.896 42.496v4.681l-.425.236v-1.43c0-.791-.64-1.06-1.437-.602l-5.714 3.304c-.793.458-1.438 1.47-1.438 2.26v1.431l-.421.253v-4.671l9.435-5.462Z" fill="#fff"/><path d="M91.3 54.415c-.69.399-1.252-.02-1.252-.94v-7.493l-1.736.943v7.553c0 .917-.561 1.992-1.252 2.38l-1.255.725v.498l6.743-3.895v-.495l-1.248.724Z" fill="#fff"/><path d="M98.604 37.848c0 .432.388.554.863.282l13.121-7.586c.233-.132.432-.316.581-.538.15-.222.247-.475.282-.74 0-.428-.388-.555-.863-.28l-13.11 7.57a1.726 1.726 0 0 0-.874 1.292ZM98.604 42.496c0 .432.388.558.863.283l13.111-7.57a1.734 1.734 0 0 0 .863-1.278c0-.428-.388-.555-.863-.28l-13.11 7.57a1.733 1.733 0 0 0-.864 1.275ZM98.604 47.177c0 .431.388.558.863.282l13.111-7.57a1.74 1.74 0 0 0 .863-1.274c0-.432-.388-.558-.863-.283l-13.11 7.57a1.733 1.733 0 0 0-.864 1.275ZM98.604 51.849c0 .431.388.558.863.282l13.111-7.57a1.74 1.74 0 0 0 .863-1.275c0-.431-.388-.557-.863-.282l-13.11 7.57a1.733 1.733 0 0 0-.864 1.275ZM82.432 65.866c0 .432.385.558.864.282l29.292-16.932a1.719 1.719 0 0 0 .863-1.275c0-.431-.388-.554-.863-.282L83.296 64.591a1.722 1.722 0 0 0-.864 1.275ZM82.432 70.537c0 .432.385.558.864.282l29.292-16.912a1.725 1.725 0 0 0 .863-1.278c0-.428-.388-.554-.863-.279L83.296 69.262a1.724 1.724 0 0 0-.864 1.275ZM82.432 75.211c0 .429.385.555.864.28l29.292-16.913c.233-.132.432-.316.581-.538.15-.221.247-.475.282-.74 0-.428-.388-.554-.863-.279L83.296 73.933a1.723 1.723 0 0 0-.864 1.278Z" fill="#455A64"/><path d="m63.551 124.999 9.44-41.265 52.595-30.368-9.439 41.268-52.596 30.365Z" fill="#4B8F46"/><path d="M76.42 86.964v30.607l12.138-7.008V79.959L76.42 86.964Z" fill="#4B8F46"/><path opacity=".2" d="M76.42 86.964v30.607l12.138-7.008V79.959L76.42 86.964Z" fill="#000"/><path d="M98.627 135.702c-1.032-.77-10.986-8.376-16.045-19.256-5.385-11.567-5.379-25.06-5.379-30.136v-.159l36.082-20.83c0 5.123 0 18.635 5.408 30.242 4.944 10.624 14.515 18.134 16.033 19.283l-36.099 20.856Z" fill="#fff"/><path d="M113.119 65.62c0 5.339.103 18.592 5.425 30.026 4.777 10.259 13.861 17.636 15.883 19.193l-35.79 20.664c-1.397-1.053-10.976-8.533-15.903-19.113-5.378-11.534-5.378-25-5.378-30.07v-.063l35.75-20.64m.332-.575L77.024 86.068c0 4.777-.1 18.658 5.395 30.461 5.408 11.583 16.185 19.372 16.185 19.372l36.424-21.029s-10.79-7.788-16.182-19.372c-5.498-11.802-5.395-25.683-5.395-30.46l-.013.002Z" fill="#4B8F46"/><path opacity=".7" d="M113.119 65.62c0 5.339.103 18.592 5.425 30.026 4.777 10.259 13.861 17.636 15.883 19.193l-35.79 20.664c-1.397-1.053-10.976-8.533-15.903-19.113-5.378-11.534-5.378-25-5.378-30.07v-.063l35.75-20.64m.332-.575L77.024 86.068c0 4.777-.1 18.658 5.395 30.461 5.408 11.583 16.185 19.372 16.185 19.372l36.424-21.029s-10.79-7.788-16.182-19.372c-5.498-11.802-5.395-25.683-5.395-30.46l-.013.002Z" fill="#fff"/><path d="m109.331 72.094-11.514 6.64a1.634 1.634 0 0 0-.836 1.258c.016.422.418.541.893.266l11.517-6.64a1.64 1.64 0 0 0 .833-1.242c-.02-.438-.415-.558-.893-.282ZM109.577 76.626l-11.514 6.64a1.534 1.534 0 0 0-.804 1.242c.037.408.455.518.93.242l11.517-6.64a1.512 1.512 0 0 0 .794-1.238c-.034-.412-.445-.511-.923-.246ZM110.038 81.032l-11.517 6.64c-.475.275-.82.823-.764 1.218.057.395.492.498.97.223l11.517-6.64c.475-.276.813-.82.754-1.216-.06-.395-.485-.5-.96-.225ZM110.729 85.304l-11.517 6.64c-.475.276-.804.814-.724 1.199.08.385.531.471.996.196l11.514-6.64c.478-.276.796-.81.717-1.195-.08-.386-.495-.475-.986-.2ZM111.665 89.435l-11.517 6.64c-.475.275-.784.8-.664 1.168.12.369.574.452 1.049.176l11.517-6.64c.478-.275.777-.796.664-1.168-.113-.372-.574-.452-1.049-.176ZM112.88 93.415 84.813 109.62c-.475.276-.764.787-.634 1.142.13.356.624.422 1.099.146l28.067-16.204c.478-.276.753-.784.624-1.143-.13-.358-.631-.421-1.089-.146ZM114.357 97.216l-28.064 16.205c-.478.276-.74.774-.58 1.112.159.339.663.392 1.148.117l28.067-16.205c.479-.276.734-.774.575-1.113-.16-.338-.668-.388-1.146-.116ZM116.2 100.839l-28.067 16.205c-.478.275-.714.76-.525 1.082.19.322.73.355 1.209.08l28.047-16.205c.475-.273.704-.754.515-1.076-.19-.322-.714-.362-1.179-.086ZM118.348 104.265l-28.064 16.201c-.478.276-.69.75-.475 1.053.216.302.784.332 1.262.053l28.064-16.205c.478-.276.684-.744.468-1.049-.216-.306-.777-.329-1.255-.053ZM120.798 107.521l-28.067 16.202c-.475.276-.664.737-.425 1.026.239.289.827.302 1.305.026l28.067-16.211c.475-.276.664-.73.418-1.019-.245-.289-.82-.309-1.298-.024ZM123.504 110.622l-28.057 16.202c-.478.275-.664.727-.385.996.278.269.87.275 1.344 0l28.067-16.205c.479-.276.645-.721.379-.996-.266-.276-.863-.269-1.348.003ZM126.492 113.587l-28.067 16.202c-.475.275-.631.717-.332.979.298.262.91.252 1.388-.023l28.044-16.205c.474-.276.624-.707.332-.973-.293-.265-.9-.255-1.365.02Z" fill="#455A64"/><path d="m93.644 81.154-13.24 7.636c.146 4.798.694 11.717 2.699 18.685l13.243-7.636c-2.008-6.968-2.556-13.89-2.702-18.685Z" fill="#4B8F46"/><path opacity=".8" d="m93.644 81.154-13.24 7.636c.146 4.798.694 11.717 2.699 18.685l13.243-7.636c-2.008-6.968-2.556-13.89-2.702-18.685Z" fill="#fff"/><path d="M85.802 87.735a2.188 2.188 0 0 0-.644-1.68l-4.754 2.742c.04 1.268.106 2.686.222 4.213a3.118 3.118 0 0 0 1.796-.332c1.87-.856 3.38-3.078 3.38-4.943Z" fill="#4B8F46"/><path opacity=".6" d="M85.802 87.735a2.188 2.188 0 0 0-.644-1.68l-4.754 2.742c.04 1.268.106 2.686.222 4.213a3.118 3.118 0 0 0 1.796-.332c1.87-.856 3.38-3.078 3.38-4.943Z" fill="#fff"/><path d="M95.22 95.257c-.882-1.112-2.678-4.548-3.445-6.045a.333.333 0 0 0-.614.056 36.44 36.44 0 0 0-1.435 8.715 12.615 12.615 0 0 1-2.812-3.127.295.295 0 0 0-.528.093c-1.447 5.574-.72 11.058-.72 11.058l10.68-6.168a61.298 61.298 0 0 1-1.125-4.582Z" fill="#4B8F46"/><path opacity=".6" d="M95.22 95.257c-.882-1.112-2.678-4.548-3.445-6.045a.333.333 0 0 0-.614.056 36.44 36.44 0 0 0-1.435 8.715 12.615 12.615 0 0 1-2.812-3.127.295.295 0 0 0-.528.093c-1.447 5.574-.72 11.058-.72 11.058l10.68-6.168a61.298 61.298 0 0 1-1.125-4.582Z" fill="#fff"/></svg>