<svg width="152" height="152" fill="none" xmlns="http://www.w3.org/2000/svg"><path d="M114.933 26.579c-15.048-8.6-28.375-1.52-35.042 6.019-6.666 7.539-11.634 15.154-20.003 16.553-8.37 1.398-21.067-2.15-30.528 4.514-9.46 6.664-9.424 24.363-1.933 34.398 7.49 10.035 26.87 14.832 49.23 18.057a58.956 58.956 0 0 0 24.049-1.334l10.157-3.688c4.961-2.265 9.12-4.815 12.64-6.885 5.357-3.162 7.244-10.868 8.269-16.514a68.011 68.011 0 0 0-.38-25.536c-2.244-10.597-7.36-20.389-16.459-25.584Z" fill="#0F6A08"/><path opacity=".8" d="M114.933 26.579c-15.048-8.6-28.375-1.52-35.042 6.019-6.666 7.539-11.634 15.154-20.003 16.553-8.37 1.398-21.067-2.15-30.528 4.514-9.46 6.664-9.424 24.363-1.933 34.398 7.49 10.035 26.87 14.832 49.23 18.057a58.956 58.956 0 0 0 24.049-1.334l10.157-3.688c4.961-2.265 9.12-4.815 12.64-6.885 5.357-3.162 7.244-10.868 8.269-16.514a68.011 68.011 0 0 0-.38-25.536c-2.244-10.597-7.36-20.389-16.459-25.584Z" fill="#fff"/><path opacity=".8" d="M137.937 37.112c-.341-5.618-4.177-7.46-6.609-4.785a4.748 4.748 0 0 0-.872 4.864c.854 2.308 2.322 6.403 3.198 9.607 1.289 4.73.857 8.384 2.362 6.45 1.504-1.933 2.35-9.04 1.921-16.136Z" fill="#0F6A08"/><path opacity=".8" d="M137.937 37.112c-.341-5.618-4.177-7.46-6.609-4.785a4.748 4.748 0 0 0-.872 4.864c.854 2.308 2.322 6.403 3.198 9.607 1.289 4.73.857 8.384 2.362 6.45 1.504-1.933 2.35-9.04 1.921-16.136Z" fill="#fff"/><path d="M73.015 36.252c2.362-.43 5.371-6.02 9.241-8.385 3.87-2.365.432-4.086-3.216-2.365 0 0-2.797.645-4.946 4.946-2.15 4.302-3.444 6.232-1.08 5.803Z" fill="#0F6A08"/><path opacity=".8" d="M73.015 36.252c2.362-.43 5.371-6.02 9.241-8.385 3.87-2.365.432-4.086-3.216-2.365 0 0-2.797.645-4.946 4.946-2.15 4.302-3.444 6.232-1.08 5.803Z" fill="#fff"/><path d="M69.145 33.242c1.918-.77 4.01-5.992 1.824-5.724a1.624 1.624 0 0 0-1.262.973c-.699 1.553-2.289 5.441-.562 4.751Z" fill="#0F6A08"/><path opacity=".8" d="M69.145 33.242c1.918-.77 4.01-5.992 1.824-5.724a1.624 1.624 0 0 0-1.262.973c-.699 1.553-2.289 5.441-.562 4.751Z" fill="#fff"/><path d="M80.858 130.474c33.968 0 61.505-1.024 61.505-2.287 0-1.262-27.537-2.286-61.505-2.286-33.969 0-61.505 1.024-61.505 2.286 0 1.263 27.536 2.287 61.505 2.287Z" fill="#0F6A08"/><path opacity=".8" d="M80.858 130.474c33.968 0 61.505-1.024 61.505-2.287 0-1.262-27.537-2.286-61.505-2.286-33.969 0-61.505 1.024-61.505 2.286 0 1.263 27.536 2.287 61.505 2.287Z" fill="#fff"/><path d="M110.419 42.256a.458.458 0 0 0-.456.456v2.338h-8.333v-2.338a.458.458 0 0 0-.456-.456.454.454 0 0 0-.456.456v58.885c0 .121.048.237.134.322a.452.452 0 0 0 .645 0 .456.456 0 0 0 .133-.322V88.424h8.333v13.173a.456.456 0 1 0 .912 0V42.703a.456.456 0 0 0-.456-.447Zm-.456 45.266h-8.333v-2.955h8.333v2.955Zm0-3.87h-8.333V80.7h8.333v2.951Zm0-3.867h-8.333v-2.943h8.333v2.943Zm0-3.864h-8.333v-2.93h8.333v2.93Zm0-3.861h-8.333v-2.897h8.333v2.897Zm0-3.849h-8.333v-2.915h8.333v2.915Zm0-3.83h-8.333v-2.943h8.333v2.943Zm0-3.867h-8.333v-2.943h8.333v2.943Zm0-3.858h-8.333v-2.951h8.333v2.951Zm0-3.867h-8.333v-2.958h8.333v2.958Zm0-3.87h-8.333v-2.957h8.333v2.957Z" fill="#fff"/><path d="M31.488 89.729s6.825-9.342 3.496-11.552c-3.462-2.283-5.089 4.633-5.821 8.028-1.563 7.248-1.122 8.786-.073 7.193l2.398-3.67Z" fill="#0F6A08"/><path opacity=".5" d="M31.488 89.729s6.825-9.342 3.496-11.552c-3.462-2.283-5.089 4.633-5.821 8.028-1.563 7.248-1.122 8.786-.073 7.193l2.398-3.67Z" fill="#fff"/><path d="M34.048 95.475s9.488-6.621 7.053-9.777c-2.532-3.286-6.317 2.736-8.114 5.703-3.833 6.348-3.912 7.947-2.405 6.78l3.466-2.706Z" fill="#0F6A08"/><path opacity=".5" d="M34.048 95.475s9.488-6.621 7.053-9.777c-2.532-3.286-6.317 2.736-8.114 5.703-3.833 6.348-3.912 7.947-2.405 6.78l3.466-2.706Z" fill="#fff"/><path d="M34.255 103.153s8.208-3.687 6.806-6.454c-1.459-2.878-5.225 1.17-7.028 3.183-3.852 4.299-4.144 5.509-2.821 4.837l3.043-1.566Z" fill="#0F6A08"/><path opacity=".5" d="M34.255 103.153s8.208-3.687 6.806-6.454c-1.459-2.878-5.225 1.17-7.028 3.183-3.852 4.299-4.144 5.509-2.821 4.837l3.043-1.566Z" fill="#fff"/><path d="M34.741 110.866s8.208-3.688 6.81-6.454c-1.462-2.876-5.226 1.17-7.032 3.186-3.848 4.299-4.143 5.508-2.818 4.834l3.04-1.566Z" fill="#0F6A08"/><path opacity=".5" d="M34.741 110.866s8.208-3.688 6.81-6.454c-1.462-2.876-5.226 1.17-7.032 3.186-3.848 4.299-4.143 5.508-2.818 4.834l3.04-1.566Z" fill="#fff"/><path d="M25.113 93.632s-9.022-7.244-11.366-4.022c-2.432 3.344 4.396 5.299 7.755 6.187 7.168 1.894 8.725 1.52 7.18.401l-3.569-2.566Z" fill="#0F6A08"/><path opacity=".5" d="M25.113 93.632s-9.022-7.244-11.366-4.022c-2.432 3.344 4.396 5.299 7.755 6.187 7.168 1.894 8.725 1.52 7.18.401l-3.569-2.566Z" fill="#fff"/><path d="M25.381 99.685S15.1 94.377 13.443 98.004c-1.724 3.773 5.36 4.32 8.816 4.52 7.402.432 8.855-.243 7.12-1.033l-3.998-1.806Z" fill="#0F6A08"/><path opacity=".5" d="M25.381 99.685S15.1 94.377 13.443 98.004c-1.724 3.773 5.36 4.32 8.816 4.52 7.402.432 8.855-.243 7.12-1.033l-3.998-1.806Z" fill="#fff"/><path d="M26.624 106.471s-8.816-4.256-10.132-1.147c-1.371 3.232 4.63 3.53 7.57 3.618 6.268.195 7.481-.413 5.994-1.021l-3.432-1.45Z" fill="#0F6A08"/><path opacity=".5" d="M26.624 106.471s-8.816-4.256-10.132-1.147c-1.371 3.232 4.63 3.53 7.57 3.618 6.268.195 7.481-.413 5.994-1.021l-3.432-1.45Z" fill="#fff"/><path d="M27.056 111.951s-8.317-5.168-9.956-2.216c-1.705 3.067 4.232 4.001 7.144 4.402 6.214.857 7.482.386 6.08-.395l-3.268-1.791Z" fill="#0F6A08"/><path opacity=".5" d="M27.056 111.951s-8.317-5.168-9.956-2.216c-1.705 3.067 4.232 4.001 7.144 4.402 6.214.857 7.482.386 6.08-.395l-3.268-1.791Z" fill="#fff"/><path d="M26.269 84.454s-1.563-13.567-6.688-12.18c-5.323 1.446-.867 8.31 1.395 11.63 4.806 7.065 6.576 7.844 6.196 5.636l-.903-5.086Z" fill="#0F6A08"/><path opacity=".5" d="M26.269 84.454s-1.563-13.567-6.688-12.18c-5.323 1.446-.867 8.31 1.395 11.63 4.806 7.065 6.576 7.844 6.196 5.636l-.903-5.086Z" fill="#fff"/><path d="M20.63 77.216s7.8 14.616 9.01 21.401c1.392 7.795 1.617 16.502.657 23.323M28.409 94.103 32.23 82.4M29.64 98.618l7.193-9.044M29.181 96.973 18.766 92.6M30.543 104.743l7.83-6M30.126 102.168l-8.18-1.702M30.519 108.434l-6.336-1.003M31.054 112.489l4.262-3.818M30.968 114.207l-7.28-1.83" stroke="#0F6A08" stroke-width="1.252" stroke-linecap="round" stroke-linejoin="round"/><path d="M25.576 116.436h8.606v1.781h-.751l-1.553 9.719H27.88l-1.554-9.719h-.75v-1.781Z" fill="#0F6A08"/><path opacity=".5" d="M25.576 116.436h8.606v1.781h-.751l-1.553 9.719H27.88l-1.554-9.719h-.75v-1.781Z" fill="#fff"/><path d="M39.748 24.66a2.803 2.803 0 0 0-2.79-.556c-1.673.556-3.275 2.973-2.87 5.019.282 1.416 1.596 3.505 1.994 4.301.398.797-.161 2.144-1.426 4.94-1.265 2.797-1.754 5.42 1.912 7.731 3.666 2.31 7.816-1.356 9.944-3.985 2.128-2.63-1.596-8.686-1.915-11.248-.32-2.563-.867-7.476-4.849-6.202Z" fill="#263238"/><path d="M48.366 42.286a8.778 8.778 0 0 1-7.022 2.535l-.879 3.664 1.672 8.363 10.917-5.658-2.471-6.384-2.217-2.52Z" fill="#0F6A08" stroke="#263238" stroke-width=".5" stroke-linecap="round" stroke-linejoin="round"/><path opacity=".3" d="M48.366 42.286a8.778 8.778 0 0 1-7.022 2.535l-.879 3.664 1.672 8.363 10.917-5.658-2.471-6.384-2.217-2.52Z" fill="#263238"/><path d="m48.366 42.286-1.672-11.078-4.955 1.015-2.471 1.593s-2.95 2.314-2.95 2.55c0 .238 4.99 8.586 4.99 8.586a9.247 9.247 0 0 0 7.058-2.666Z" fill="#fff"/><path d="m48.366 42.286-1.672-11.078-4.955 1.015-2.471 1.593s-2.95 2.314-2.95 2.55c0 .238 4.99 8.586 4.99 8.586a9.247 9.247 0 0 0 7.058-2.666Z" stroke="#263238" stroke-width=".5" stroke-linecap="round" stroke-linejoin="round"/><path opacity=".5" d="M41.718 41.811s3.493-2.59 3.17-1.824c-.322.767-2.735 2.679-3.383 2.736-.647.058.213-.912.213-.912Z" fill="#0F6A08"/><path d="m41.824 36.893.137.143.851.9.22 3.456 1.042-.164-.824-3.238 1.32 2.742 1.097-1.097-2.36-2.14-.057-1.7-1.207-.605" fill="#263238"/><path d="M39.906 32.79s-1.037.477-1.037 1.431c0 .955 1.122 3.226 1.824 3.703.703.477 1.907-1.709 1.907-1.709s1.823.876 2.31.08c.486-.797-1.116-3.427-2.15-4.144-1.033-.718-2.854.638-2.854.638Z" fill="#fff" stroke="#263238" stroke-width=".5" stroke-linecap="round" stroke-linejoin="round"/><path d="M39.03 31.831c.285.729.525 1.474.718 2.232.158.796 2.31 2.152 2.547 2.231.238.08.399-2.55.399-2.55l-.636-3.107-3.027 1.194Z" fill="#fff"/><mask id="a" style="mask-type:luminance" maskUnits="userSpaceOnUse" x="39" y="30" width="4" height="7"><path d="M39.03 31.831c.285.729.525 1.474.718 2.232.158.796 2.31 2.152 2.547 2.231.238.08.399-2.55.399-2.55l-.636-3.107-3.027 1.194Z" fill="#fff"/></mask><g mask="url(#a)"><path d="M42.125 30.968a3.091 3.091 0 0 0-.407-.085l-2.198.775-.289.754c.146.407.331.955.444 1.398.36.29.796.473 1.256.526.66.046 1.24-.465 1.65-1.091l-.456-2.277Z" fill="#0F6A08" style="mix-blend-mode:multiply" opacity=".5"/></g><path d="M39.03 31.831c.285.729.525 1.474.718 2.232.158.796 2.31 2.152 2.547 2.231.238.08.399-2.55.399-2.55l-.636-3.107-3.027 1.194Z" stroke="#263238" stroke-width=".5" stroke-linecap="round" stroke-linejoin="round"/><path d="M37.596 30.476s-.879-.715-.879 0c0 .714.8 1.115 1.435 1.115" fill="#fff"/><path d="M37.596 30.476s-.879-.715-.879 0c0 .714.8 1.115 1.435 1.115" stroke="#263238" stroke-width=".5" stroke-linecap="round" stroke-linejoin="round"/><path d="M42.295 28.165s.56-.876.718.082a2.432 2.432 0 0 1-.477 1.75l-.24-1.832Z" fill="#fff" stroke="#263238" stroke-width=".5" stroke-linecap="round" stroke-linejoin="round"/><g opacity=".5"><path d="M37.596 30.476s-.879-.715-.879 0c0 .714.8 1.115 1.435 1.115" fill="#0F6A08"/><path d="M37.596 30.476s-.879-.715-.879 0c0 .714.8 1.115 1.435 1.115" stroke="#263238" stroke-width=".5" stroke-linecap="round" stroke-linejoin="round"/></g><path opacity=".5" d="M42.295 28.165s.56-.876.718.082a2.432 2.432 0 0 1-.477 1.75l-.24-1.832Z" fill="#0F6A08" stroke="#263238" stroke-width=".5" stroke-linecap="round" stroke-linejoin="round"/><path d="M36.608 28.172s.684 2.848 2.152 4.256c1.468 1.407 3.04 1.42 3.584-1.089.447-2.067-.663-4.824-.663-4.824s-3.58-2.95-5.073 1.657Z" fill="#fff"/><mask id="b" style="mask-type:luminance" maskUnits="userSpaceOnUse" x="36" y="25" width="7" height="9"><path d="M36.608 28.172s.684 2.848 2.152 4.256c1.468 1.407 3.04 1.42 3.584-1.089.447-2.067-.663-4.824-.663-4.824s-3.58-2.95-5.073 1.657Z" fill="#fff"/></mask><g mask="url(#b)"><path d="m39.158 25.588.556 1.398s.876-.194 1.369.864c.492 1.057.988 2.608.705 3.809-.27 1.143-.912 1.52-1.9 1.547 1.076.46 2.052 0 2.456-1.873.447-2.067-.663-4.824-.663-4.824s-1.213-.994-2.523-.921Z" fill="#0F6A08" style="mix-blend-mode:multiply" opacity=".5"/></g><path d="M36.608 28.172s.684 2.848 2.152 4.256c1.468 1.407 3.04 1.42 3.584-1.089.447-2.067-.663-4.824-.663-4.824s-3.58-2.95-5.073 1.657Z" stroke="#263238" stroke-width=".5" stroke-linecap="round" stroke-linejoin="round"/><path d="M39.325 29.676c.086.16.07.334-.033.389-.103.054-.255-.034-.337-.195-.082-.161-.07-.331.033-.386.103-.055.255.033.337.192ZM40.912 29.184c.061.17.022.34-.088.377-.11.036-.25-.067-.304-.238-.055-.17-.021-.34.088-.377.11-.036.244.073.304.238Z" fill="#263238"/><path d="M41.022 28.271a.684.684 0 0 0-.827.05c-.438.34.389 2.045.389 2.045s.015.538-.675.289M41.022 31.208a.783.783 0 0 1-1.216.304M39.17 28.725s-.778-.733-1.118.68" stroke="#263238" stroke-width=".5" stroke-linecap="round" stroke-linejoin="round"/><path d="M41.727 25.611c-.854-.741-1.544-.732-1.845-.635a2.04 2.04 0 0 0-.933-.304c-2.39-.32-2.71 1.52-2.71 3.268 0 1.748-1.52 3.824-.476 4.065a1.246 1.246 0 0 0 1.434-.718s1.116-1.824 1.116-3.11c0-1.286 1.39-1.164 1.39-1.164a.742.742 0 0 1 1.118-.128c.632.541.705 1.177 1.216 1.34.51.165 1.365-.656 1.365-.656a12.026 12.026 0 0 0-1.675-1.957Z" fill="#263238"/><path d="M39.77 26.088s-.961-.772-1.825.095c-.863.866-.769 2.505-1.058 3.566-.288 1.06-1.06 1.252-1.06 1.252" stroke="#fff" stroke-width=".5" stroke-linecap="round" stroke-linejoin="round"/><path d="M39.097 25.8s-1.036-1.027-2.34.274c-.994.997-.55 1.65-.745 3.29M40.253 25.605s1.824-.866 2.602 1.35" stroke="#fff" stroke-width=".5" stroke-linecap="round" stroke-linejoin="round"/><path d="m36.319 36.373-2.757 11.096 8.086 2.292.398-1.435-5.31-2.45 1.802-6.384s-.237-1.195-1.52-2.547" fill="#fff"/><mask id="c" style="mask-type:luminance" maskUnits="userSpaceOnUse" x="33" y="36" width="10" height="14"><path d="m36.319 36.373-2.757 11.096 8.086 2.292.398-1.435-5.31-2.45 1.802-6.384s-.237-1.195-1.52-2.547" fill="#fff"/></mask><g mask="url(#c)"><path d="m42.058 48.335-5.31-2.45 1.802-6.384a4.9 4.9 0 0 0-.678-1.486l-.173-.131v1.763c0 1.128-1.41 4.724-1.906 5.57-.496.844-1.268 1.902-1.268 1.902l1.55-.705 5.877 2.353.106-.432Z" fill="#0F6A08" style="mix-blend-mode:multiply" opacity=".5"/></g><path d="m36.319 36.373-2.757 11.096 8.086 2.292.398-1.435-5.31-2.45 1.802-6.384s-.237-1.195-1.52-2.547" stroke="#263238" stroke-width=".5" stroke-linecap="round" stroke-linejoin="round"/><path d="m59.055 39.705-6.123-1.286-6.253-7.226.924 5.813 3.837 3.654 7.71.353-.095-1.308Z" fill="#fff"/><mask id="d" style="mask-type:luminance" maskUnits="userSpaceOnUse" x="46" y="31" width="14" height="11"><path d="m59.055 39.705-6.123-1.286-6.253-7.226.924 5.813 3.837 3.654 7.71.353-.095-1.308Z" fill="#fff"/></mask><g mask="url(#d)"><path d="m46.68 31.193.744 4.64.474 1.45.061.054c.18-.185 1.192-1.237 1.45-1.237s3.174 2.538 2.751 2.736l-.425.21 7.262 1.197.052-.556-6.11-1.283-6.26-7.21Z" fill="#0F6A08" style="mix-blend-mode:multiply" opacity=".5"/></g><path d="m59.055 39.705-6.123-1.286-6.253-7.226.924 5.813 3.837 3.654 7.71.353-.095-1.308Z" stroke="#263238" stroke-width=".5" stroke-linecap="round" stroke-linejoin="round"/><path d="M116.21 101.232 38.243 89.808a.945.945 0 0 1-.796-1.074L43.94 44.44a.944.944 0 0 1 1.07-.797l1.478.216a.94.94 0 0 0 .954-.462l1.961-3.39c.06-.106.14-.2.237-.273a2.173 2.173 0 0 1 1.59-.39l19.654 2.882c.44.064.851.261 1.176.566.087.087.155.19.2.304l1.749 4.329a.94.94 0 0 0 .739.58l48.229 7.072a.945.945 0 0 1 .8 1.07l-6.494 44.292a.943.943 0 0 1-1.073.794Z" fill="#263238" stroke="#263238" stroke-width=".5" stroke-miterlimit="10"/><path d="M117.04 101.016H39.76a1.706 1.706 0 0 1-1.708-1.709v-43.24a1.709 1.709 0 0 1 1.708-1.709h.21a1.718 1.718 0 0 0 1.59-1.076l1.176-2.958c.132-.341.372-.63.684-.82a2.189 2.189 0 0 1 1.107-.305H64.39c.267 0 .532.048.781.143.347.14.636.393.821.718l2.022 3.444a1.708 1.708 0 0 0 1.474.845h47.552a1.708 1.708 0 0 1 1.708 1.709v43.25a1.705 1.705 0 0 1-1.708 1.708Z" fill="#0F6A08"/><mask id="e" style="mask-type:luminance" maskUnits="userSpaceOnUse" x="38" y="49" width="81" height="53"><path d="M117.04 101.016H39.76a1.706 1.706 0 0 1-1.708-1.709v-43.24a1.709 1.709 0 0 1 1.708-1.709h.21a1.718 1.718 0 0 0 1.59-1.076l1.176-2.958c.132-.341.372-.63.684-.82a2.189 2.189 0 0 1 1.107-.305H64.39c.267 0 .532.048.781.143.347.14.636.393.821.718l2.022 3.444a1.708 1.708 0 0 0 1.474.845h47.552a1.708 1.708 0 0 1 1.708 1.709v43.25a1.705 1.705 0 0 1-1.708 1.708Z" fill="#fff"/></mask><g mask="url(#e)"><path opacity=".1" d="M117.04 101.016H39.76a1.706 1.706 0 0 1-1.708-1.709v-43.24a1.709 1.709 0 0 1 1.708-1.709h.21a1.718 1.718 0 0 0 1.59-1.076l1.176-2.958c.132-.341.372-.63.684-.82a2.189 2.189 0 0 1 1.107-.305H64.39c.267 0 .532.048.781.143.347.14.636.393.821.718l2.022 3.444a1.708 1.708 0 0 0 1.474.845h47.552a1.708 1.708 0 0 1 1.708 1.709v43.25a1.705 1.705 0 0 1-1.708 1.708Z" fill="#263238"/></g><path d="M117.04 101.016H39.76a1.706 1.706 0 0 1-1.708-1.709v-43.24a1.709 1.709 0 0 1 1.708-1.709h.21a1.718 1.718 0 0 0 1.59-1.076l1.176-2.958c.132-.341.372-.63.684-.82a2.189 2.189 0 0 1 1.107-.305H64.39c.267 0 .532.048.781.143.347.14.636.393.821.718l2.022 3.444a1.708 1.708 0 0 0 1.474.845h47.552a1.708 1.708 0 0 1 1.708 1.709v43.25a1.705 1.705 0 0 1-1.708 1.708Z" stroke="#263238" stroke-width=".5" stroke-miterlimit="10"/><path d="M59.888 54.212H47.521a1.113 1.113 0 0 1-.788-1.902 1.112 1.112 0 0 1 .788-.327h12.367a1.115 1.115 0 1 1 0 2.229Z" fill="#fff"/><path d="M117.04 108.561H39.76a1.707 1.707 0 0 1-1.708-1.709v-43.24a1.709 1.709 0 0 1 1.708-1.71h.21a1.715 1.715 0 0 0 1.59-1.075l1.176-2.955c.131-.342.372-.63.684-.82a2.16 2.16 0 0 1 1.107-.305H64.39c.267 0 .532.048.781.143.348.14.637.394.821.72l2.022 3.448a1.708 1.708 0 0 0 1.474.845h47.552a1.708 1.708 0 0 1 1.708 1.708v43.241a1.71 1.71 0 0 1-1.708 1.709Z" fill="#263238" stroke="#263238" stroke-width=".5" stroke-miterlimit="10"/><path d="m65.813 45.295-12.27-1.52a1.119 1.119 0 0 1-.97-1.243 1.116 1.116 0 0 1 1.247-.967l12.267 1.52a1.116 1.116 0 0 1 .548 1.985 1.113 1.113 0 0 1-.822.225Z" fill="#0F6A08"/><path opacity=".5" d="m65.813 45.295-12.27-1.52a1.119 1.119 0 0 1-.97-1.243 1.116 1.116 0 0 1 1.247-.967l12.267 1.52a1.116 1.116 0 0 1 .548 1.985 1.113 1.113 0 0 1-.822.225Z" fill="#fff"/><path d="M59.888 61.76H47.521a1.113 1.113 0 0 1-1.112-1.115 1.116 1.116 0 0 1 1.112-1.116h12.367a1.115 1.115 0 1 1 0 2.232Z" fill="#0F6A08"/><path opacity=".5" d="M59.888 61.76H47.521a1.113 1.113 0 0 1-1.112-1.115 1.116 1.116 0 0 1 1.112-1.116h12.367a1.115 1.115 0 1 1 0 2.232Z" fill="#fff"/><path d="M119.566 74.908H37.231c-.885 0-1.602.718-1.602 1.602v49.823c0 .885.717 1.602 1.602 1.602h82.335c.885 0 1.602-.717 1.602-1.602V76.51c0-.885-.717-1.602-1.602-1.602Z" fill="#fff"/><mask id="f" style="mask-type:luminance" maskUnits="userSpaceOnUse" x="35" y="74" width="87" height="54"><path d="M119.566 74.908H37.231c-.885 0-1.602.718-1.602 1.602v49.823c0 .885.717 1.602 1.602 1.602h82.335c.885 0 1.602-.717 1.602-1.602V76.51c0-.885-.717-1.602-1.602-1.602Z" fill="#fff"/></mask><g mask="url(#f)"><path d="M121.168 89.18a128.155 128.155 0 0 1-31.95 21.858c-17.282 8.266-37.036 13.963-48.546 16.897h78.891a1.61 1.61 0 0 0 1.605-1.602V89.181Z" fill="#0F6A08" style="mix-blend-mode:multiply"/><path opacity=".2" d="M121.168 89.18a128.155 128.155 0 0 1-31.95 21.858c-17.282 8.266-37.036 13.963-48.546 16.897h78.891a1.61 1.61 0 0 0 1.605-1.602V89.181Z" fill="#fff"/></g><path d="M119.566 74.908H37.231c-.885 0-1.602.718-1.602 1.602v49.823c0 .885.717 1.602 1.602 1.602h82.335c.885 0 1.602-.717 1.602-1.602V76.51c0-.885-.717-1.602-1.602-1.602Z" stroke="#263238" stroke-width=".5" stroke-miterlimit="10"/><path d="M36.866 79.565v-2.128a1.605 1.605 0 0 1 1.605-1.602h3.481M36.866 111.883V82.158M119.928 122.025v3.366a1.597 1.597 0 0 1-.988 1.483c-.195.08-.403.122-.614.122h-2.806M119.928 78.817v40.706" stroke="#263238" stroke-width=".5" stroke-miterlimit="10"/><path d="M91.115 94.297H65.679a.83.83 0 0 0-.83.83v12.978a.83.83 0 0 0 .83.829h25.436a.83.83 0 0 0 .83-.829V95.127a.83.83 0 0 0-.83-.83Z" fill="#263238" stroke="#263238" stroke-width=".5" stroke-miterlimit="10"/><path d="M91.115 94.297H65.679a.83.83 0 0 0-.83.83v2.79c0 .459.372.83.83.83h25.436a.83.83 0 0 0 .83-.83v-2.79a.83.83 0 0 0-.83-.83ZM41.648 49.762l.556 1.036 1.183.851a.459.459 0 0 0 .517.019l.103-.067a.362.362 0 0 0 .143-.456l-.672-1.545.453.353a.35.35 0 0 0 .483-.055.352.352 0 0 0 0-.44l-1.055-1.335-1.319.204-.392 1.435Z" fill="#fff" stroke="#263238" stroke-width=".5" stroke-miterlimit="10"/><path d="m44.02 51.6-1.059-1.39M43.399 51.65l-.83-1.101" stroke="#263238" stroke-width=".5" stroke-linecap="round" stroke-linejoin="round"/><path d="m59.055 39.705 1.654.097 2.012 1.286s.113.392-.167.447c-.28.055-1.79-.501-1.79-.501l-1.615-.022-.094-1.307Z" fill="#fff" stroke="#263238" stroke-width=".5" stroke-miterlimit="10"/><path d="m59.14 40.809 1.736.784s.28-.392-.112-.56l-.572-.391" fill="#fff"/><path d="m59.14 40.809 1.736.784s.28-.392-.112-.56l-.572-.391" stroke="#263238" stroke-width=".5" stroke-linejoin="round"/><path d="m120.466 70.455-.717-2.146-.806-1.103a.109.109 0 0 0-.126-.044.11.11 0 0 0-.075.11v3.18l.608.8 1.116-.797Z" fill="#fff"/><path d="m132.158 79.84-6.019.212a1.174 1.174 0 0 1-1.083-.635l-4.59-8.962s-1.034.56-1.113.797c-.079.237 3.399 8.958 4.466 11.637a1.173 1.173 0 0 0 1.134.735l6.728-.285" fill="#fff"/><path d="m132.158 79.84-6.019.212a1.174 1.174 0 0 1-1.083-.635l-4.59-8.962s-1.034.56-1.113.797c-.079.237 3.399 8.958 4.466 11.637a1.173 1.173 0 0 0 1.134.735l6.728-.285M120.907 71.571l-.943.39" stroke="#263238" stroke-width=".5" stroke-miterlimit="10"/><g opacity=".5"><path d="m132.158 79.84-6.019.212a1.174 1.174 0 0 1-1.083-.635l-4.59-8.962s-1.034.56-1.113.797c-.079.237 3.399 8.958 4.466 11.637a1.173 1.173 0 0 0 1.134.735l6.728-.285" fill="#0F6A08"/><path d="m132.158 79.84-6.019.212a1.174 1.174 0 0 1-1.083-.635l-4.59-8.962s-1.034.56-1.113.797c-.079.237 3.399 8.958 4.466 11.637a1.173 1.173 0 0 0 1.134.735l6.728-.285M120.907 71.57l-.943.39" stroke="#263238" stroke-width=".5" stroke-miterlimit="10"/></g><path d="m120.466 70.455-.717-2.146-.806-1.103a.109.109 0 0 0-.126-.044.11.11 0 0 0-.075.11v3.18l.608.8 1.116-.797Z" fill="#0F6A08"/><mask id="g" style="mask-type:luminance" maskUnits="userSpaceOnUse" x="118" y="67" width="3" height="5"><path d="m120.466 70.455-.717-2.146-.806-1.103a.109.109 0 0 0-.126-.044.11.11 0 0 0-.075.11v3.18l.608.8 1.116-.797Z" fill="#fff"/></mask><g mask="url(#g)"><path opacity=".5" d="m120.466 70.455-.717-2.146-.806-1.103a.109.109 0 0 0-.126-.044.11.11 0 0 0-.075.11v3.18l.608.8 1.116-.797Z" fill="#fff"/></g><path d="m120.466 70.455-.717-2.146-.806-1.103a.109.109 0 0 0-.126-.044.11.11 0 0 0-.075.11v3.18l.608.8 1.116-.797Z" stroke="#263238" stroke-width=".5" stroke-miterlimit="10"/><path d="M134.021 74.176c-.289.367-.496.79-.608 1.243-.088.584.052 2.83.052 2.83l-3.131.353s.237-2.283.249-2.663a3.38 3.38 0 0 1 1.657-2.25c1.076-.528 1.991-.27 1.781.487Z" fill="#fff"/><mask id="h" style="mask-type:luminance" maskUnits="userSpaceOnUse" x="130" y="73" width="5" height="6"><path d="M134.021 74.176c-.289.367-.496.79-.608 1.243-.088.584.052 2.83.052 2.83l-3.131.353s.237-2.283.249-2.663a3.38 3.38 0 0 1 1.657-2.25c1.076-.528 1.991-.27 1.781.487Z" fill="#fff"/></mask><g mask="url(#h)"><path d="M134 74.2a64.483 64.483 0 0 0-1.842-.468 3.41 3.41 0 0 0-1.584 2.204c0 .146-.042.572-.085 1.04.304-.07.787-.176 1.146-.24.284-.046.564-.116.836-.21l-.106 1.824h.07l1.021-.115s-.14-2.247-.052-2.83A3.19 3.19 0 0 1 134 74.2Z" fill="#0F6A08" style="mix-blend-mode:multiply" opacity=".5"/></g><path d="M134.021 74.176c-.289.367-.496.79-.608 1.243-.088.584.052 2.83.052 2.83l-3.131.353s.237-2.283.249-2.663a3.38 3.38 0 0 1 1.657-2.25c1.076-.528 1.991-.27 1.781.487Z" stroke="#263238" stroke-width=".5" stroke-miterlimit="10"/><path d="M134.672 74.562c2.596-3.429-3.663-6.992-5.308-3.584-.229.42-.411.865-.541 1.326-.249.152-.912.559-1.034.671-.121.113.304.402.539.545-.447 1.097-.38 2.252-.253 2.514.222.45 1.317.456 2.037.322s1.006-.824 1.216-1.012c.21-.189 1.256.051 1.623.16.368.11 1.216-.264 1.721-.942Z" fill="#fff"/><mask id="i" style="mask-type:luminance" maskUnits="userSpaceOnUse" x="127" y="69" width="9" height="8"><path d="M134.672 74.562c2.596-3.429-3.663-6.992-5.308-3.584-.229.42-.411.865-.541 1.326-.249.152-.912.559-1.034.671-.121.113.304.402.539.545-.447 1.097-.38 2.252-.253 2.514.222.45 1.317.456 2.037.322s1.006-.824 1.216-1.012c.21-.189 1.256.051 1.623.16.368.11 1.216-.264 1.721-.942Z" fill="#fff"/></mask><g mask="url(#i)"><path d="M132.103 74.234s.055.259-.468.469c-.523.21-.626.051-.781.416a1.3 1.3 0 0 1-1.043.94c-.495.093-.996.157-1.499.19.414.232 1.235.214 1.824.107.718-.13 1.007-.823 1.216-1.012.21-.188 1.256.052 1.624.161a.667.667 0 0 0 .261 0 2.84 2.84 0 0 0 .243-.967l-1.377-.304Z" fill="#0F6A08" style="mix-blend-mode:multiply" opacity=".5"/></g><path d="M134.672 74.562c2.596-3.429-3.663-6.992-5.308-3.584-.229.42-.411.865-.541 1.326-.249.152-.912.559-1.034.671-.121.113.304.402.539.545-.447 1.097-.38 2.252-.253 2.514.222.45 1.317.456 2.037.322s1.006-.824 1.216-1.012c.21-.189 1.256.051 1.623.16.368.11 1.216-.264 1.721-.942Z" stroke="#263238" stroke-width=".5" stroke-miterlimit="10"/><path d="M129.601 72.605c-.067.146-.179.237-.252.203-.073-.033-.079-.179 0-.325.079-.146.179-.237.252-.204.073.034.067.18 0 .326Z" fill="#263238"/><path d="M129.54 71.668s.304-.253.365.328M128.267 74.11s0 .303.547.303" stroke="#263238" stroke-width=".5" stroke-linecap="round" stroke-linejoin="round"/><path d="m127.525 94.003-.24 2.973s-1.663 11.838-1.584 13.197c.079 1.359.258 15.397.258 15.397l2.004.319 2.249-15.57 3.159-15.824-5.846-.492Z" fill="#0F6A08" stroke="#263238" stroke-width=".5" stroke-miterlimit="10"/><path opacity=".2" d="m127.525 94.003-.24 2.973s-1.663 11.838-1.584 13.197c.079 1.359.258 15.397.258 15.397l2.004.319 2.249-15.57 3.159-15.824-5.846-.492Z" fill="#263238"/><path d="M130.06 104.816s-.769 4.527-1.349 6.746c-.581 2.219-.578 4.432-.578 6.84 0 2.408-.866 6.846-.866 6.846" stroke="#263238" stroke-width=".5" stroke-miterlimit="10"/><path d="M131.589 93.274c1.32-.694 2.736-1.153 3.141-.231.802 1.842-.158 4.642-.158 4.642l.732 12.914 1.341 15.58-2.003-.323s-3.077-13.148-3.557-13.95c-.481-.803-1.237-12.06-1.237-12.06l-1.52-1.383" fill="#0F6A08"/><path d="M131.589 93.274c1.32-.694 2.736-1.153 3.141-.231.802 1.842-.158 4.642-.158 4.642l.732 12.914 1.341 15.58-2.003-.323s-3.077-13.148-3.557-13.95c-.481-.803-1.237-12.06-1.237-12.06l-1.52-1.383" stroke="#263238" stroke-width=".5" stroke-miterlimit="10"/><path d="M131.589 93.274c1.32-.694 2.736-1.153 3.141-.231.802 1.842-.158 4.642-.158 4.642l.732 12.914 1.341 15.58-2.003-.323s-3.077-13.148-3.557-13.95c-.481-.803-1.237-12.06-1.237-12.06l-1.52-1.383" fill="#263238" opacity=".2"/><path d="M133.152 103.057c.046 2.994.35 4.435.587 5.225.288.964.191 2.794.191 3.648 0 .855-.386-.191.484 3.761.869 3.952 1.444 9.442 1.444 9.442M133.152 96.53s.094-.195 0 4.335v.705" stroke="#263238" stroke-width=".5" stroke-miterlimit="10"/><path d="m128.704 95.669-.063 1.356-.313.942.468.547" stroke="#263238" stroke-width=".5" stroke-linecap="round" stroke-linejoin="round"/><path d="M128.09 96.478s.785.784 2.822.547" stroke="#263238" stroke-width=".5" stroke-linecap="round" stroke-linejoin="round"/><path d="M132.903 95.8c1.52-.304 1.617-.724 2.143-1.076a4.393 4.393 0 0 0-.304-1.681c-.398-.912-1.824-.463-3.14.23l-.639 1.01-3.426-.28-.109 1.344c1.759.603 3.64.759 5.475.453Z" fill="#263238"/><path d="m127.868 94.934-.033.535.869.2.067-.702-.903-.033Z" fill="#fff" stroke="#263238" stroke-width=".5" stroke-miterlimit="10"/><path d="m133.936 95.727-.146-1.332.441-.146.222 1.183" fill="#0F6A08"/><path d="m133.936 95.727-.146-1.332.441-.146.222 1.183" stroke="#263238" stroke-width=".5" stroke-miterlimit="10"/><path d="m130.538 96.17-.295-1.553h.738l.295 1.332" fill="#0F6A08"/><path d="m130.538 96.17-.295-1.553h.738l.295 1.332" stroke="#263238" stroke-width=".5" stroke-miterlimit="10"/><g opacity=".2" fill="#263238"><path d="m133.936 95.727-.146-1.332.441-.146.222 1.183M130.538 96.17l-.295-1.553h.738l.295 1.332"/></g><path d="M127.133 82.22s-.253 1.687-1.009 4.56a194.253 194.253 0 0 0-1.52 6.317l.422 1.77 1.262-1.855.845-10.792ZM129.24 79.78s-1.77.419-1.937 1.26c-.09.388-.147.783-.17 1.18l2.696-2.189 3.372-1.35-3.961 1.098Z" fill="#263238" stroke="#263238" stroke-width=".5" stroke-miterlimit="10"/><path d="M129.723 79.129s-1.438 1.626-2.01 2.295c-.571.669-.574 7.846-.574 8.901 0 1.055-.572 3.919.383 4.493.954.575 6.794.383 7.369-.574.574-.958.954-12.437.86-13.489a2.92 2.92 0 0 0-1.629-2.2c-.666-.308-4.399.574-4.399.574Z" fill="#fff"/><mask id="j" style="mask-type:luminance" maskUnits="userSpaceOnUse" x="126" y="78" width="10" height="18"><path d="M129.723 79.129s-1.438 1.626-2.01 2.295c-.571.669-.574 7.846-.574 8.901 0 1.055-.572 3.919.383 4.493.954.575 6.794.383 7.369-.574.574-.958.954-12.437.86-13.489a2.92 2.92 0 0 0-1.629-2.2c-.666-.308-4.399.574-4.399.574Z" fill="#fff"/></mask><g mask="url(#j)"><path d="M134.122 78.554a.768.768 0 0 0-.249-.055l-.414.216a3.92 3.92 0 0 1 1.356 2.243c.192 1.28.175 2.584-.052 3.858-.206 1.408-3.544 0-2.918.523.626.523 2.97 1.407 3.076 1.876.107.468-1.161 1.25-1.617 1.304-.456.055.304 1.094.781 1.979.478.884.304 2.128-.781 2.973-1.085.845-3.605 1.262-4.694 1.304-.352 0-.571.091-.638.195 1.672.374 6.405.13 6.919-.727.574-.957.954-12.436.86-13.488a2.92 2.92 0 0 0-1.629-2.201Z" fill="#0F6A08" style="mix-blend-mode:multiply" opacity=".5"/></g><path d="M129.723 79.129s-1.438 1.626-2.01 2.295c-.571.669-.574 7.846-.574 8.901 0 1.055-.572 3.919.383 4.493.954.575 6.794.383 7.369-.574.574-.958.954-12.437.86-13.489a2.92 2.92 0 0 0-1.629-2.2c-.666-.308-4.399.574-4.399.574Z" stroke="#263238" stroke-width=".5" stroke-miterlimit="10"/><path d="M132.663 86.409c-1.542-.48-2.892-1.824-2.892-1.824a6.52 6.52 0 0 0 2.603 3.952" fill="#fff"/><path d="M132.663 86.409c-1.542-.48-2.892-1.824-2.892-1.824a6.52 6.52 0 0 0 2.603 3.952" stroke="#263238" stroke-width=".5" stroke-linecap="round" stroke-linejoin="round"/><path d="m133.836 77.502-4.593 1.052-.286 1.34 5.165-1.34-.286-1.052Z" fill="#fff" stroke="#263238" stroke-width=".5" stroke-miterlimit="10"/><path d="m128.23 127.896-.267-2.018-2.004-.319-1.669 1.188-1.495.821v.328h5.435ZM136.894 128.054l-.249-1.875-2.003-.323-1.669 1.189-1.496.824v.185h5.417Z" fill="#263238" stroke="#263238" stroke-width=".5" stroke-miterlimit="10"/><path d="m119.591 68.704-1.235-.714s-.48-.058-.273.477l1.234.952" fill="#fff"/><path d="m119.591 68.704-1.235-.714s-.48-.058-.273.477l1.234.952" stroke="#263238" stroke-width=".5" stroke-linecap="round" stroke-linejoin="round"/><path d="M119.408 70.562a1.241 1.241 0 0 0-.252-.395l-.231-.25-1.256-1.556s-.389-.261-.304.304l.779 1.52-1.384-1.298s-.261-.216-.261.088 1.255 1.645 1.255 1.645l-1.386-.65s-.304.215-.085.431c.219.216 1.383.65 1.383.65l-1.036-.042s-.304.258-.089.347c.216.088 1.429.343 1.429.343.154.131.33.234.52.304l.304.562 1.164-.586-.55-1.417Z" fill="#fff" stroke="#263238" stroke-width=".5" stroke-linecap="round" stroke-linejoin="round"/><path d="m131.839 84.056-6.938 1.626a1.559 1.559 0 0 1-1.723-.97l-4.378-12.16 1.164-.586 4.837 8.959a1.086 1.086 0 0 0 1.167.55l5.305-1.499" fill="#fff"/><path d="m131.839 84.056-6.938 1.626a1.559 1.559 0 0 1-1.723-.97l-4.378-12.16 1.164-.586 4.837 8.959a1.086 1.086 0 0 0 1.167.55l5.305-1.499M120.618 73.112l-1.35.675" stroke="#263238" stroke-width=".5" stroke-miterlimit="10"/><path d="M130.975 71.014s-.738.739-.371 1.292c.218.32.385.672.493 1.043 0 0-.304.739-.061.739s.122-.554.553-.429c.432.125.861.86.493 1.107a4.194 4.194 0 0 1-.87.364.21.21 0 0 0-.145.175c-.004.04.003.08.021.116a.213.213 0 0 0 .082.086c.4.27.86.438 1.341.487.392.008.784-.033 1.167-.122 0 0 1.216-1.66 2.091-2.091.876-.432.493-2.399.493-2.645s-.86-.8-.86-.8.246-.553-.861-1.781c-1.106-1.228-3.198-1.478-3.259-1.046a.612.612 0 0 0 .247.608s-1.846-.8-2.706.06c-.86.861 2.152 2.837 2.152 2.837Z" fill="#263238" stroke="#263238" stroke-width=".5" stroke-miterlimit="10"/><path d="M130.975 71.015s1.496 1.824 3.712 2M130.446 71.571s.697 2.025 3.575 2.603" stroke="#fff" stroke-width=".5" stroke-linecap="round" stroke-linejoin="round"/></svg>