<svg width="181" height="181" fill="none" xmlns="http://www.w3.org/2000/svg"><path d="M133.19 72.93c-1.343-.724-1.951-.12-2.44-.724-.489-.605 1.34-2.198-2.32-3.783 0 0-.243-3.414-5.246-3.537-5.002-.123-3.659 3.41-5.002 4.275-1.343.865-1.709-.485-3.048.362-1.34.847-.724 2.56-1.832 2.806s-2.563-1.086-3.906-.246c-1.343.84-1.34 1.589-1.951 1.589-.612 0-1.81-.489-2.563 0-.753.488-1.586 1.086-1.586 1.086h30.868s.369-1.093-.974-1.828ZM74.955 84.683c-1.34-.724-1.951-.119-2.44-.724-.489-.604 1.343-2.197-2.317-3.782 0 0-.246-3.414-5.245-3.537-5-.123-3.663 3.417-5.003 4.272-1.34.854-1.708-.49-3.051.361-1.343.851-.724 2.56-1.828 2.806-1.105.246-2.563-1.086-3.907-.246-1.343.84-1.343 1.589-1.95 1.589-.609 0-1.832-.489-2.564 0-.73.489-1.585 1.086-1.585 1.086H75.94s.362-1.09-.985-1.825ZM112.99 57.552c-2.092-1.14-3.044-.192-3.804-1.14-.76-.95 2.092-3.425-3.62-5.894 0 0-.38-5.325-8.174-5.513-7.794-.189-5.705 5.321-7.794 6.653-2.089 1.332-2.66-.76-4.753.569-2.092 1.328-1.14 3.982-2.849 4.373-1.709.39-3.982-1.713-6.085-.38-2.103 1.332-2.089 2.472-3.041 2.472s-2.853-.76-3.982 0c-1.13.76-2.469 1.709-2.469 1.709h48.092s.568-1.71-1.521-2.85Z" fill="#4B8F46"/><g opacity=".4" fill="#fff"><path d="M133.19 72.93c-1.343-.724-1.951-.12-2.44-.724-.489-.605 1.34-2.198-2.32-3.783 0 0-.243-3.414-5.246-3.537-5.002-.123-3.659 3.41-5.002 4.275-1.343.865-1.709-.485-3.048.362-1.34.847-.724 2.56-1.832 2.806s-2.563-1.086-3.906-.246c-1.343.84-1.34 1.589-1.951 1.589-.612 0-1.81-.489-2.563 0-.753.488-1.586 1.086-1.586 1.086h30.868s.369-1.093-.974-1.828ZM74.955 84.683c-1.34-.724-1.951-.119-2.44-.724-.489-.604 1.343-2.197-2.317-3.782 0 0-.246-3.414-5.245-3.537-5-.123-3.663 3.417-5.003 4.272-1.34.854-1.708-.49-3.051.361-1.343.851-.724 2.56-1.828 2.806-1.105.246-2.563-1.086-3.907-.246-1.343.84-1.343 1.589-1.95 1.589-.609 0-1.832-.489-2.564 0-.73.489-1.585 1.086-1.585 1.086H75.94s.362-1.09-.985-1.825ZM112.99 57.552c-2.092-1.14-3.044-.192-3.804-1.14-.76-.95 2.092-3.425-3.62-5.894 0 0-.38-5.325-8.174-5.513-7.794-.189-5.705 5.321-7.794 6.653-2.089 1.332-2.66-.76-4.753.569-2.092 1.328-1.14 3.982-2.849 4.373-1.709.39-3.982-1.713-6.085-.38-2.103 1.332-2.089 2.472-3.041 2.472s-2.853-.76-3.982 0c-1.13.76-2.469 1.709-2.469 1.709h48.092s.568-1.71-1.521-2.85Z"/></g><path d="M57.047 150.217H39.892v1.806h17.155v-1.806Z" fill="#4B8F46" stroke="#fff" stroke-width=".5" stroke-miterlimit="10"/><path d="M40.62 150.257v1.799M41.52 150.257v1.799M42.661 150.257v1.799M46.705 150.257v1.799M56.417 150.257v1.799M55.52 150.257v1.799M54.38 150.257v1.799M52.746 150.257v1.799M50.336 150.257v1.799" stroke="#fff" stroke-width=".5" stroke-miterlimit="10"/><path d="M46.705 150.217h-.981v1.835h.98v-1.835ZM44.54 150.217h-.286v1.835h.286v-1.835Z" fill="#263238"/><path d="M43.602 150.34h-.818v1.593h.818v-1.593Z" fill="#fff"/><path d="M57.59 148.251H40.435v1.806H57.59v-1.806Z" fill="#4B8F46" stroke="#fff" stroke-width=".5" stroke-miterlimit="10"/><path d="M41.166 148.294v1.795M42.064 148.294v1.795M43.208 148.294v1.795M47.248 148.294v1.795M56.964 148.294v1.795M56.066 148.294v1.795M54.922 148.294v1.795M53.29 148.294v1.795M50.882 148.294v1.795" stroke="#fff" stroke-width=".5" stroke-miterlimit="10"/><path d="M47.251 148.251h-.98v1.835h.98v-1.835ZM45.087 148.251H44.8v1.835h.287v-1.835Z" fill="#263238"/><path d="M44.149 148.374h-.818v1.593h.818v-1.593Z" fill="#fff"/><path d="M57.59 146.289H40.435v1.806H57.59v-1.806Z" fill="#4B8F46" stroke="#fff" stroke-width=".5" stroke-miterlimit="10"/><path d="M41.166 146.329v1.796M42.064 146.329v1.796M43.208 146.329v1.796M47.248 146.329v1.796M56.964 146.329v1.796M56.066 146.329v1.796M54.922 146.329v1.796M53.29 146.329v1.796M50.882 146.329v1.796" stroke="#fff" stroke-width=".5" stroke-miterlimit="10"/><path d="M47.251 146.289h-.98v1.835h.98v-1.835ZM45.087 146.289H44.8v1.835h.287v-1.835Z" fill="#263238"/><path d="M44.149 146.412h-.818v1.593h.818v-1.593Z" fill="#fff"/><path d="M57.536 144.323H40.38v1.807h17.156v-1.807Z" fill="#4B8F46" stroke="#fff" stroke-width=".5" stroke-miterlimit="10"/><path d="M41.112 144.363v1.796M42.01 144.363v1.796M43.153 144.363v1.796M47.193 144.363v1.796M56.91 144.363v1.796M56.012 144.363v1.796M54.868 144.363v1.796M53.235 144.363v1.796M50.828 144.363v1.796" stroke="#fff" stroke-width=".5" stroke-miterlimit="10"/><path d="M47.193 144.323h-.98v1.836h.98v-1.836ZM45.032 144.323h-.286v1.836h.286v-1.836Z" fill="#263238"/><path d="M44.095 144.446h-.819v1.593h.819v-1.593Z" fill="#fff"/><path d="M56.88 142.357H39.725v1.807H56.88v-1.807Z" fill="#4B8F46" stroke="#fff" stroke-width=".5" stroke-miterlimit="10"/><path d="M40.456 142.401v1.796M41.354 142.401v1.796M42.498 142.401v1.796M46.538 142.401v1.796M56.254 142.401v1.796M55.356 142.401v1.796M54.212 142.401v1.796M52.58 142.401v1.796M50.173 142.401v1.796" stroke="#fff" stroke-width=".5" stroke-miterlimit="10"/><path d="M46.542 142.357h-.981v1.836h.98v-1.836ZM44.377 142.357h-.286v1.836h.286v-1.836Z" fill="#263238"/><path d="M43.44 142.48h-.819v1.593h.818v-1.593Z" fill="#fff"/><path d="M57.753 140.396H40.598v1.806h17.155v-1.806Z" fill="#4B8F46" stroke="#fff" stroke-width=".5" stroke-miterlimit="10"/><path d="M41.329 140.436v1.795M42.227 140.436v1.795M43.37 140.436v1.795M47.41 140.436v1.795M57.127 140.436v1.795M56.229 140.436v1.795M55.085 140.436v1.795M53.452 140.436v1.795M51.045 140.436v1.795" stroke="#fff" stroke-width=".5" stroke-miterlimit="10"/><path d="M47.414 140.396h-.98v1.835h.98v-1.835ZM45.25 140.396h-.287v1.835h.286v-1.835Z" fill="#263238"/><path d="M44.312 140.515h-.818v1.592h.818v-1.592Z" fill="#fff"/><path d="M56.283 138.43H39.128v1.806h17.155v-1.806Z" fill="#4B8F46" stroke="#fff" stroke-width=".5" stroke-miterlimit="10"/><path d="M39.86 138.47v1.795M40.757 138.47v1.795M41.897 138.47v1.795M45.94 138.47v1.795M55.657 138.47v1.795M54.76 138.47v1.795M53.615 138.47v1.795M51.983 138.47v1.795M49.572 138.47v1.795" stroke="#fff" stroke-width=".5" stroke-miterlimit="10"/><path d="M45.94 138.43h-.98v1.835h.98v-1.835ZM43.776 138.43h-.286v1.835h.286v-1.835Z" fill="#263238"/><path d="M42.839 138.553h-.819v1.593h.819v-1.593Z" fill="#fff"/><path d="M57.319 136.464H40.163v1.806H57.32v-1.806Z" fill="#4B8F46" stroke="#fff" stroke-width=".5" stroke-miterlimit="10"/><path d="M40.895 136.508v1.795M41.792 136.508v1.795M42.936 136.508v1.795M46.976 136.508v1.795M56.692 136.508v1.795M55.794 136.508v1.795M54.65 136.508v1.795M53.018 136.508v1.795M50.607 136.508v1.795" stroke="#fff" stroke-width=".5" stroke-miterlimit="10"/><path d="M46.976 136.464h-.98v1.835h.98v-1.835ZM44.811 136.464h-.286v1.835h.286v-1.835Z" fill="#263238"/><path d="M43.874 136.587h-.818v1.593h.818v-1.593Z" fill="#fff"/><path d="M57.861 134.502H40.706v1.806h17.155v-1.806Z" fill="#4B8F46" stroke="#fff" stroke-width=".5" stroke-miterlimit="10"/><path d="M41.438 134.542v1.796M42.335 134.542v1.796M43.48 134.542v1.796M47.52 134.542v1.796M57.235 134.542v1.796M56.337 134.542v1.796M55.194 134.542v1.796M53.56 134.542v1.796M51.154 134.542v1.796" stroke="#fff" stroke-width=".5" stroke-miterlimit="10"/><path d="M47.523 134.502h-.981v1.835h.98v-1.835ZM45.358 134.502h-.286v1.835h.286v-1.835Z" fill="#263238"/><path d="M44.42 134.622h-.818v1.593h.818v-1.593Z" fill="#fff"/><path d="M57.047 132.536H39.892v1.807h17.155v-1.807Z" fill="#4B8F46" stroke="#fff" stroke-width=".5" stroke-miterlimit="10"/><path d="M40.62 132.576v1.796M41.52 132.576v1.796M42.661 132.576v1.796M46.705 132.576v1.796M56.417 132.576v1.796M55.52 132.576v1.796M54.38 132.576v1.796M52.746 132.576v1.796M50.336 132.576v1.796" stroke="#fff" stroke-width=".5" stroke-miterlimit="10"/><path d="M46.705 132.536h-.981v1.835h.98v-1.835ZM44.54 132.536h-.286v1.835h.286v-1.835Z" fill="#263238"/><path d="M43.602 132.659h-.818v1.593h.818v-1.593Z" fill="#fff"/><path d="M57.507 130.571H40.352v1.807h17.155v-1.807Z" fill="#4B8F46" stroke="#fff" stroke-width=".5" stroke-miterlimit="10"/><path d="M41.083 130.61v1.799M41.98 130.61v1.799M43.124 130.61v1.799M47.164 130.61v1.799M56.88 130.61v1.799M55.983 130.61v1.799M54.839 130.61v1.799M53.206 130.61v1.799M50.799 130.61v1.799" stroke="#fff" stroke-width=".5" stroke-miterlimit="10"/><path d="M47.168 130.571h-.981v1.836h.981v-1.836ZM45.003 130.571h-.286v1.836h.286v-1.836Z" fill="#263238"/><path d="M44.066 130.694h-.818v1.593h.818v-1.593Z" fill="#fff"/><path d="M56.584 128.605H39.428v1.807h17.156v-1.807Z" fill="#4B8F46" stroke="#fff" stroke-width=".5" stroke-miterlimit="10"/><path d="M40.16 128.648v1.796M41.057 128.648v1.796M42.201 128.648v1.796M46.241 128.648v1.796M55.957 128.648v1.796M55.06 128.648v1.796M53.916 128.648v1.796M52.283 128.648v1.796M49.876 128.648v1.796" stroke="#fff" stroke-width=".5" stroke-miterlimit="10"/><path d="M46.241 128.605h-.98v1.836h.98v-1.836ZM44.077 128.605h-.286v1.836h.286v-1.836Z" fill="#263238"/><path d="M43.139 128.729h-.818v1.592h.818v-1.592Z" fill="#fff"/><path d="M56.815 126.644H39.66v1.806h17.155v-1.806Z" fill="#4B8F46" stroke="#fff" stroke-width=".5" stroke-miterlimit="10"/><path d="M40.391 126.683v1.795M41.29 126.683v1.795M42.43 126.683v1.795M46.473 126.683v1.795M56.19 126.683v1.795M55.288 126.683v1.795M54.147 126.683v1.795M52.515 126.683v1.795M50.104 126.683v1.795" stroke="#fff" stroke-width=".5" stroke-miterlimit="10"/><path d="M46.473 126.644h-.981v1.835h.981v-1.835ZM44.308 126.644h-.286v1.835h.286v-1.835Z" fill="#263238"/><path d="M43.37 126.767h-.817v1.592h.818v-1.592Z" fill="#fff"/><path d="M56.12 124.678H38.965v1.806H56.12v-1.806Z" fill="#4B8F46" stroke="#fff" stroke-width=".5" stroke-miterlimit="10"/><path d="M39.696 124.718v1.799M40.594 124.718v1.799M41.738 124.718v1.799M45.778 124.718v1.799M55.494 124.718v1.799M54.596 124.718v1.799M53.452 124.718v1.799M51.82 124.718v1.799M49.412 124.718v1.799" stroke="#fff" stroke-width=".5" stroke-miterlimit="10"/><path d="M45.782 124.678H44.8v1.835h.98v-1.835ZM43.617 124.678h-.286v1.835h.286v-1.835Z" fill="#263238"/><path d="M42.68 124.801h-.819v1.593h.818v-1.593Z" fill="#fff"/><path d="M56.815 122.712H39.66v1.806h17.155v-1.806Z" fill="#4B8F46" stroke="#fff" stroke-width=".5" stroke-miterlimit="10"/><path d="M40.391 122.755v1.795M41.29 122.755v1.795M42.43 122.755v1.795M46.473 122.755v1.795M56.19 122.755v1.795M55.288 122.755v1.795M54.147 122.755v1.795M52.515 122.755v1.795M50.104 122.755v1.795" stroke="#fff" stroke-width=".5" stroke-miterlimit="10"/><path d="M46.473 122.712h-.981v1.835h.981v-1.835ZM44.308 122.712h-.286v1.835h.286v-1.835Z" fill="#263238"/><path d="M43.37 122.835h-.817v1.593h.818v-1.593Z" fill="#fff"/><path d="M57.507 120.75H40.352v1.806h17.155v-1.806Z" fill="#4B8F46" stroke="#fff" stroke-width=".5" stroke-miterlimit="10"/><path d="M41.083 120.79v1.796M41.98 120.79v1.796M43.124 120.79v1.796M47.164 120.79v1.796M56.88 120.79v1.796M55.983 120.79v1.796M54.839 120.79v1.796M53.206 120.79v1.796M50.799 120.79v1.796" stroke="#fff" stroke-width=".5" stroke-miterlimit="10"/><path d="M47.168 120.75h-.981v1.835h.981v-1.835ZM45.003 120.75h-.286v1.835h.286v-1.835Z" fill="#263238"/><path d="M44.066 120.873h-.818v1.593h.818v-1.593Z" fill="#fff"/><path d="M57.623 118.784H40.467v1.807h17.156v-1.807Z" fill="#4B8F46" stroke="#fff" stroke-width=".5" stroke-miterlimit="10"/><path d="M41.199 118.824v1.796M42.096 118.824v1.796M43.24 118.824v1.796M47.28 118.824v1.796M56.996 118.824v1.796M56.099 118.824v1.796M54.955 118.824v1.796M53.322 118.824v1.796M50.915 118.824v1.796" stroke="#fff" stroke-width=".5" stroke-miterlimit="10"/><path d="M47.284 118.784h-.981v1.836h.98v-1.836ZM45.12 118.784h-.287v1.836h.286v-1.836Z" fill="#263238"/><path d="M44.181 118.907h-.818v1.593h.819v-1.593Z" fill="#fff"/><path d="M59.24 116.818H42.087v1.807H59.24v-1.807Z" fill="#4B8F46" stroke="#fff" stroke-width=".5" stroke-miterlimit="10"/><path d="M42.817 116.862v1.796M43.715 116.862v1.796M44.858 116.862v1.796M48.898 116.862v1.796M58.614 116.862v1.796M57.717 116.862v1.796M56.573 116.862v1.796M54.94 116.862v1.796M52.533 116.862v1.796" stroke="#fff" stroke-width=".5" stroke-miterlimit="10"/><path d="M48.902 116.818h-.981v1.836h.981v-1.836ZM46.737 116.818h-.286v1.836h.286v-1.836Z" fill="#263238"/><path d="M45.8 116.941h-.819v1.593h.819v-1.593Z" fill="#fff"/><path d="M149.762 150.217h-17.155v1.806h17.155v-1.806Z" fill="#4B8F46" stroke="#fff" stroke-width=".5" stroke-miterlimit="10"/><path d="M133.335 150.257v1.799M134.236 150.257v1.799M135.377 150.257v1.799M139.42 150.257v1.799M149.133 150.257v1.799M148.235 150.257v1.799M147.094 150.257v1.799M145.462 150.257v1.799M143.051 150.257v1.799" stroke="#fff" stroke-width=".5" stroke-miterlimit="10"/><path d="M139.42 150.217h-.981v1.835h.981v-1.835ZM137.255 150.217h-.286v1.835h.286v-1.835Z" fill="#263238"/><path d="M136.318 150.34h-.818v1.593h.818v-1.593Z" fill="#fff"/><path d="M149.082 148.251h-17.155v1.806h17.155v-1.806Z" fill="#4B8F46" stroke="#fff" stroke-width=".5" stroke-miterlimit="10"/><path d="M132.658 148.294v1.795M133.556 148.294v1.795M134.7 148.294v1.795M138.74 148.294v1.795M148.456 148.294v1.795M147.558 148.294v1.795M146.414 148.294v1.795M144.781 148.294v1.795M142.37 148.294v1.795" stroke="#fff" stroke-width=".5" stroke-miterlimit="10"/><path d="M138.74 148.251h-.982v1.835h.982v-1.835ZM136.575 148.251h-.286v1.835h.286v-1.835Z" fill="#263238"/><path d="M135.637 148.374h-.818v1.593h.818v-1.593Z" fill="#fff"/><path d="M148.908 146.289h-17.155v1.806h17.155v-1.806Z" fill="#4B8F46" stroke="#fff" stroke-width=".5" stroke-miterlimit="10"/><path d="M132.481 146.329v1.796M133.378 146.329v1.796M134.522 146.329v1.796M138.566 146.329v1.796M148.278 146.329v1.796M147.38 146.329v1.796M146.24 146.329v1.796M144.604 146.329v1.796M142.197 146.329v1.796" stroke="#fff" stroke-width=".5" stroke-miterlimit="10"/><path d="M138.566 146.289h-.981v1.835h.981v-1.835ZM136.401 146.289h-.286v1.835h.286v-1.835Z" fill="#263238"/><path d="M135.463 146.412h-.818v1.593h.818v-1.593Z" fill="#fff"/><path d="M150.251 144.323h-17.155v1.807h17.155v-1.807Z" fill="#4B8F46" stroke="#fff" stroke-width=".5" stroke-miterlimit="10"/><path d="M133.827 144.363v1.796M134.725 144.363v1.796M135.869 144.363v1.796M139.909 144.363v1.796M149.625 144.363v1.796M148.727 144.363v1.796M147.583 144.363v1.796M145.951 144.363v1.796M143.543 144.363v1.796" stroke="#fff" stroke-width=".5" stroke-miterlimit="10"/><path d="M139.909 144.323h-.981v1.836h.981v-1.836ZM137.748 144.323h-.286v1.836h.286v-1.836Z" fill="#263238"/><path d="M136.81 144.446h-.818v1.593h.818v-1.593Z" fill="#fff"/><path d="M149.596 142.357h-17.155v1.807h17.155v-1.807Z" fill="#4B8F46" stroke="#fff" stroke-width=".5" stroke-miterlimit="10"/><path d="M133.172 142.401v1.796M134.07 142.401v1.796M135.214 142.401v1.796M139.254 142.401v1.796M148.97 142.401v1.796M148.072 142.401v1.796M146.928 142.401v1.796M145.295 142.401v1.796M142.888 142.401v1.796" stroke="#fff" stroke-width=".5" stroke-miterlimit="10"/><path d="M139.257 142.357h-.981v1.836h.981v-1.836ZM137.092 142.357h-.286v1.836h.286v-1.836Z" fill="#263238"/><path d="M136.155 142.48h-.818v1.593h.818v-1.593Z" fill="#fff"/><path d="M150.468 140.396h-17.155v1.806h17.155v-1.806Z" fill="#4B8F46" stroke="#fff" stroke-width=".5" stroke-miterlimit="10"/><path d="M134.044 140.436v1.795M134.942 140.436v1.795M136.086 140.436v1.795M140.126 140.436v1.795M149.842 140.436v1.795M148.944 140.436v1.795M147.8 140.436v1.795M146.168 140.436v1.795M143.76 140.436v1.795" stroke="#fff" stroke-width=".5" stroke-miterlimit="10"/><path d="M140.13 140.396h-.981v1.835h.981v-1.835ZM137.965 140.396h-.286v1.835h.286v-1.835Z" fill="#263238"/><path d="M137.027 140.515h-.818v1.592h.818v-1.592Z" fill="#fff"/><path d="M148.999 138.43h-17.156v1.806h17.156v-1.806Z" fill="#4B8F46" stroke="#fff" stroke-width=".5" stroke-miterlimit="10"/><path d="M132.575 138.47v1.795M133.472 138.47v1.795M134.613 138.47v1.795M138.656 138.47v1.795M148.372 138.47v1.795M147.475 138.47v1.795M146.331 138.47v1.795M144.698 138.47v1.795M142.287 138.47v1.795" stroke="#fff" stroke-width=".5" stroke-miterlimit="10"/><path d="M138.656 138.43h-.981v1.835h.981v-1.835ZM136.492 138.43h-.286v1.835h.286v-1.835Z" fill="#263238"/><path d="M135.554 138.553h-.818v1.593h.818v-1.593Z" fill="#fff"/><path d="M150.034 136.464h-17.155v1.806h17.155v-1.806Z" fill="#4B8F46" stroke="#fff" stroke-width=".5" stroke-miterlimit="10"/><path d="M133.61 136.508v1.795M134.508 136.508v1.795M135.652 136.508v1.795M139.692 136.508v1.795M149.408 136.508v1.795M148.51 136.508v1.795M147.366 136.508v1.795M145.733 136.508v1.795M143.326 136.508v1.795" stroke="#fff" stroke-width=".5" stroke-miterlimit="10"/><path d="M139.692 136.464h-.981v1.835h.981v-1.835ZM137.527 136.464h-.286v1.835h.286v-1.835Z" fill="#263238"/><path d="M136.589 136.587h-.818v1.593h.818v-1.593Z" fill="#fff"/><path d="M149.219 134.502h-17.155v1.806h17.155v-1.806Z" fill="#4B8F46" stroke="#fff" stroke-width=".5" stroke-miterlimit="10"/><path d="M132.796 134.542v1.796M133.693 134.542v1.796M134.837 134.542v1.796M138.877 134.542v1.796M148.593 134.542v1.796M147.695 134.542v1.796M146.551 134.542v1.796M144.919 134.542v1.796M142.512 134.542v1.796" stroke="#fff" stroke-width=".5" stroke-miterlimit="10"/><path d="M138.881 134.502h-.981v1.835h.981v-1.835ZM136.716 134.502h-.286v1.835h.286v-1.835Z" fill="#263238"/><path d="M135.778 134.622h-.818v1.593h.818v-1.593Z" fill="#fff"/><path d="M148.713 132.536h-17.156v1.807h17.156v-1.807Z" fill="#4B8F46" stroke="#fff" stroke-width=".5" stroke-miterlimit="10"/><path d="M132.285 132.576v1.796M133.186 132.576v1.796M134.327 132.576v1.796M138.37 132.576v1.796M148.083 132.576v1.796M147.185 132.576v1.796M146.045 132.576v1.796M144.412 132.576v1.796M142.001 132.576v1.796" stroke="#fff" stroke-width=".5" stroke-miterlimit="10"/><path d="M138.37 132.536h-.981v1.835h.981v-1.835ZM136.206 132.536h-.286v1.835h.286v-1.835Z" fill="#263238"/><path d="M135.268 132.659h-.818v1.593h.818v-1.593Z" fill="#fff"/><path d="M150.222 130.571h-17.155v1.807h17.155v-1.807Z" fill="#4B8F46" stroke="#fff" stroke-width=".5" stroke-miterlimit="10"/><path d="M133.798 130.61v1.799M134.696 130.61v1.799M135.84 130.61v1.799M139.88 130.61v1.799M149.596 130.61v1.799M148.698 130.61v1.799M147.554 130.61v1.799M145.922 130.61v1.799M143.514 130.61v1.799" stroke="#fff" stroke-width=".5" stroke-miterlimit="10"/><path d="M139.883 130.571h-.981v1.836h.981v-1.836ZM137.719 130.571h-.286v1.836h.286v-1.836Z" fill="#263238"/><path d="M136.781 130.694h-.818v1.593h.818v-1.593Z" fill="#fff"/><path d="M149.299 128.605h-17.155v1.807h17.155v-1.807Z" fill="#4B8F46" stroke="#fff" stroke-width=".5" stroke-miterlimit="10"/><path d="M132.875 128.648v1.796M133.773 128.648v1.796M134.917 128.648v1.796M138.957 128.648v1.796M148.673 128.648v1.796M147.775 128.648v1.796M146.631 128.648v1.796M144.999 128.648v1.796M142.591 128.648v1.796" stroke="#fff" stroke-width=".5" stroke-miterlimit="10"/><path d="M138.957 128.605h-.981v1.836h.981v-1.836ZM136.792 128.605h-.286v1.836h.286v-1.836Z" fill="#263238"/><path d="M135.854 128.729h-.818v1.592h.818v-1.592Z" fill="#fff"/><path d="M149.531 126.644h-17.155v1.806h17.155v-1.806Z" fill="#4B8F46" stroke="#fff" stroke-width=".5" stroke-miterlimit="10"/><path d="M133.107 126.683v1.795M134.005 126.683v1.795M135.145 126.683v1.795M139.188 126.683v1.795M148.904 126.683v1.795M148.003 126.683v1.795M146.863 126.683v1.795M145.23 126.683v1.795M142.819 126.683v1.795" stroke="#fff" stroke-width=".5" stroke-miterlimit="10"/><path d="M139.188 126.644h-.981v1.835h.981v-1.835ZM137.024 126.644h-.286v1.835h.286v-1.835Z" fill="#263238"/><path d="M136.086 126.767h-.818v1.592h.818v-1.592Z" fill="#fff"/><path d="M148.836 124.678h-17.155v1.806h17.155v-1.806Z" fill="#4B8F46" stroke="#fff" stroke-width=".5" stroke-miterlimit="10"/><path d="M132.412 124.718v1.799M133.31 124.718v1.799M134.453 124.718v1.799M138.493 124.718v1.799M148.209 124.718v1.799M147.312 124.718v1.799M146.168 124.718v1.799M144.535 124.718v1.799M142.128 124.718v1.799" stroke="#fff" stroke-width=".5" stroke-miterlimit="10"/><path d="M138.497 124.678h-.981v1.835h.981v-1.835ZM136.332 124.678h-.286v1.835h.286v-1.835Z" fill="#263238"/><path d="M135.395 124.801h-.818v1.593h.818v-1.593Z" fill="#fff"/><path d="M149.531 122.712h-17.155v1.806h17.155v-1.806Z" fill="#4B8F46" stroke="#fff" stroke-width=".5" stroke-miterlimit="10"/><path d="M133.107 122.755v1.795M134.005 122.755v1.795M135.145 122.755v1.795M139.188 122.755v1.795M148.904 122.755v1.795M148.003 122.755v1.795M146.863 122.755v1.795M145.23 122.755v1.795M142.819 122.755v1.795" stroke="#fff" stroke-width=".5" stroke-miterlimit="10"/><path d="M139.188 122.712h-.981v1.835h.981v-1.835ZM137.024 122.712h-.286v1.835h.286v-1.835Z" fill="#263238"/><path d="M136.086 122.835h-.818v1.593h.818v-1.593Z" fill="#fff"/><path d="M150.222 120.75h-17.155v1.806h17.155v-1.806Z" fill="#4B8F46" stroke="#fff" stroke-width=".5" stroke-miterlimit="10"/><path d="M133.798 120.79v1.796M134.696 120.79v1.796M135.84 120.79v1.796M139.88 120.79v1.796M149.596 120.79v1.796M148.698 120.79v1.796M147.554 120.79v1.796M145.922 120.79v1.796M143.514 120.79v1.796" stroke="#fff" stroke-width=".5" stroke-miterlimit="10"/><path d="M139.883 120.75h-.981v1.835h.981v-1.835ZM137.719 120.75h-.286v1.835h.286v-1.835Z" fill="#263238"/><path d="M136.781 120.873h-.818v1.593h.818v-1.593Z" fill="#fff"/><path d="M150.338 118.784h-17.155v1.807h17.155v-1.807Z" fill="#4B8F46" stroke="#fff" stroke-width=".5" stroke-miterlimit="10"/><path d="M133.914 118.824v1.796M134.812 118.824v1.796M135.956 118.824v1.796M139.996 118.824v1.796M149.712 118.824v1.796M148.814 118.824v1.796M147.67 118.824v1.796M146.037 118.824v1.796M143.63 118.824v1.796" stroke="#fff" stroke-width=".5" stroke-miterlimit="10"/><path d="M139.999 118.784h-.981v1.836h.981v-1.836ZM137.835 118.784h-.286v1.836h.286v-1.836Z" fill="#263238"/><path d="M136.897 118.907h-.818v1.593h.818v-1.593Z" fill="#fff"/><path d="M149.27 116.818h-17.155v1.807h17.155v-1.807Z" fill="#4B8F46" stroke="#fff" stroke-width=".5" stroke-miterlimit="10"/><path d="M132.846 116.862v1.796M133.744 116.862v1.796M134.888 116.862v1.796M138.928 116.862v1.796M148.644 116.862v1.796M147.746 116.862v1.796M146.602 116.862v1.796M144.97 116.862v1.796M142.562 116.862v1.796" stroke="#fff" stroke-width=".5" stroke-miterlimit="10"/><path d="M138.931 116.818h-.981v1.836h.981v-1.836ZM136.767 116.818h-.286v1.836h.286v-1.836Z" fill="#263238"/><path d="M135.829 116.941h-.818v1.593h.818v-1.593Z" fill="#fff"/><path d="M149.762 114.878h-17.155v1.806h17.155v-1.806Z" fill="#4B8F46" stroke="#fff" stroke-width=".5" stroke-miterlimit="10"/><path d="M133.335 114.918v1.795M134.236 114.918v1.795M135.377 114.918v1.795M139.42 114.918v1.795M149.133 114.918v1.795M148.235 114.918v1.795M147.094 114.918v1.795M145.462 114.918v1.795M143.051 114.918v1.795" stroke="#fff" stroke-width=".5" stroke-miterlimit="10"/><path d="M139.42 114.878h-.981v1.835h.981v-1.835ZM137.255 114.878h-.286v1.835h.286v-1.835Z" fill="#263238"/><path d="M136.318 115.001h-.818v1.593h.818v-1.593Z" fill="#fff"/><path d="M149.082 112.912h-17.155v1.806h17.155v-1.806Z" fill="#4B8F46" stroke="#fff" stroke-width=".5" stroke-miterlimit="10"/><path d="M132.658 112.956v1.796M133.556 112.956v1.796M134.7 112.956v1.796M138.74 112.956v1.796M148.456 112.956v1.796M147.558 112.956v1.796M146.414 112.956v1.796M144.781 112.956v1.796M142.37 112.956v1.796" stroke="#fff" stroke-width=".5" stroke-miterlimit="10"/><path d="M138.74 112.912h-.982v1.835h.982v-1.835ZM136.575 112.912h-.286v1.835h.286v-1.835Z" fill="#263238"/><path d="M135.637 113.035h-.818v1.593h.818v-1.593Z" fill="#fff"/><path d="M148.908 110.95h-17.155v1.807h17.155v-1.807Z" fill="#4B8F46" stroke="#fff" stroke-width=".5" stroke-miterlimit="10"/><path d="M132.481 110.99v1.796M133.378 110.99v1.796M134.522 110.99v1.796M138.566 110.99v1.796M148.278 110.99v1.796M147.38 110.99v1.796M146.24 110.99v1.796M144.604 110.99v1.796M142.197 110.99v1.796" stroke="#fff" stroke-width=".5" stroke-miterlimit="10"/><path d="M138.566 110.95h-.981v1.836h.981v-1.836ZM136.401 110.95h-.286v1.836h.286v-1.836Z" fill="#263238"/><path d="M135.463 111.07h-.818v1.593h.818v-1.593Z" fill="#fff"/><path d="M150.251 108.984h-17.155v1.807h17.155v-1.807Z" fill="#4B8F46" stroke="#fff" stroke-width=".5" stroke-miterlimit="10"/><path d="M133.827 109.024v1.796M134.725 109.024v1.796M135.869 109.024v1.796M139.909 109.024v1.796M149.625 109.024v1.796M148.727 109.024v1.796M147.583 109.024v1.796M145.951 109.024v1.796M143.543 109.024v1.796" stroke="#fff" stroke-width=".5" stroke-miterlimit="10"/><path d="M139.909 108.984h-.981v1.836h.981v-1.836ZM137.748 108.984h-.286v1.836h.286v-1.836Z" fill="#263238"/><path d="M136.81 109.107h-.818v1.593h.818v-1.593Z" fill="#fff"/><path d="M149.596 107.02h-17.155v1.806h17.155v-1.806Z" fill="#4B8F46" stroke="#fff" stroke-width=".5" stroke-miterlimit="10"/><path d="M133.172 107.059v1.799M134.07 107.059v1.799M135.214 107.059v1.799M139.254 107.059v1.799M148.97 107.059v1.799M148.072 107.059v1.799M146.928 107.059v1.799M145.295 107.059v1.799M142.888 107.059v1.799" stroke="#fff" stroke-width=".5" stroke-miterlimit="10"/><path d="M139.257 107.02h-.981v1.835h.981v-1.835ZM137.092 107.02h-.286v1.835h.286v-1.835Z" fill="#263238"/><path d="M136.155 107.143h-.818v1.592h.818v-1.592Z" fill="#fff"/><path d="M150.468 105.057h-17.155v1.806h17.155v-1.806Z" fill="#4B8F46" stroke="#fff" stroke-width=".5" stroke-miterlimit="10"/><path d="M134.044 105.097v1.795M134.942 105.097v1.795M136.086 105.097v1.795M140.126 105.097v1.795M149.842 105.097v1.795M148.944 105.097v1.795M147.8 105.097v1.795M146.168 105.097v1.795M143.76 105.097v1.795" stroke="#fff" stroke-width=".5" stroke-miterlimit="10"/><path d="M140.13 105.057h-.981v1.835h.981v-1.835ZM137.965 105.057h-.286v1.835h.286v-1.835Z" fill="#263238"/><path d="M137.027 105.177h-.818v1.593h.818v-1.593Z" fill="#fff"/><path d="M148.999 103.092h-17.156v1.806h17.156v-1.806Z" fill="#4B8F46" stroke="#fff" stroke-width=".5" stroke-miterlimit="10"/><path d="M132.575 103.131v1.795M133.472 103.131v1.795M134.613 103.131v1.795M138.656 103.131v1.795M148.372 103.131v1.795M147.475 103.131v1.795M146.331 103.131v1.795M144.698 103.131v1.795M142.287 103.131v1.795" stroke="#fff" stroke-width=".5" stroke-miterlimit="10"/><path d="M138.656 103.092h-.981v1.835h.981v-1.835ZM136.492 103.092h-.286v1.835h.286v-1.835Z" fill="#263238"/><path d="M135.554 103.215h-.818v1.593h.818v-1.593Z" fill="#fff"/><path d="M150.034 101.126h-17.155v1.806h17.155v-1.806Z" fill="#4B8F46" stroke="#fff" stroke-width=".5" stroke-miterlimit="10"/><path d="M133.61 101.166v1.799M134.508 101.166v1.799M135.652 101.166v1.799M139.692 101.166v1.799M149.408 101.166v1.799M148.51 101.166v1.799M147.366 101.166v1.799M145.733 101.166v1.799M143.326 101.166v1.799" stroke="#fff" stroke-width=".5" stroke-miterlimit="10"/><path d="M139.692 101.126h-.981v1.835h.981v-1.835ZM137.527 101.126h-.286v1.835h.286v-1.835Z" fill="#263238"/><path d="M136.589 101.249h-.818v1.593h.818v-1.593Z" fill="#fff"/><path d="M149.219 99.16h-17.155v1.807h17.155V99.16Z" fill="#4B8F46" stroke="#fff" stroke-width=".5" stroke-miterlimit="10"/><path d="M132.796 99.203V101M133.693 99.203V101M134.837 99.203V101M138.877 99.203V101M148.593 99.203V101M147.695 99.203V101M146.551 99.203V101M144.919 99.203V101M142.512 99.203V101" stroke="#fff" stroke-width=".5" stroke-miterlimit="10"/><path d="M138.881 99.16h-.981v1.835h.981V99.16ZM136.716 99.16h-.286v1.835h.286V99.16Z" fill="#263238"/><path d="M135.778 99.283h-.818v1.593h.818v-1.593Z" fill="#fff"/><path d="M148.713 97.198h-17.156v1.807h17.156v-1.807Z" fill="#4B8F46" stroke="#fff" stroke-width=".5" stroke-miterlimit="10"/><path d="M132.285 97.238v1.796M133.186 97.238v1.796M134.327 97.238v1.796M138.37 97.238v1.796M148.083 97.238v1.796M147.185 97.238v1.796M146.045 97.238v1.796M144.412 97.238v1.796M142.001 97.238v1.796" stroke="#fff" stroke-width=".5" stroke-miterlimit="10"/><path d="M138.37 97.198h-.981v1.836h.981v-1.836ZM136.206 97.198h-.286v1.836h.286v-1.836Z" fill="#263238"/><path d="M135.268 97.321h-.818v1.593h.818v-1.593Z" fill="#fff"/><path d="M150.222 95.232h-17.155v1.807h17.155v-1.807Z" fill="#4B8F46" stroke="#fff" stroke-width=".5" stroke-miterlimit="10"/><path d="M133.798 95.272v1.796M134.696 95.272v1.796M135.84 95.272v1.796M139.88 95.272v1.796M149.596 95.272v1.796M148.698 95.272v1.796M147.554 95.272v1.796M145.922 95.272v1.796M143.514 95.272v1.796" stroke="#fff" stroke-width=".5" stroke-miterlimit="10"/><path d="M139.883 95.232h-.981v1.836h.981v-1.836ZM137.719 95.232h-.286v1.836h.286v-1.836Z" fill="#263238"/><path d="M136.781 95.356h-.818v1.592h.818v-1.592Z" fill="#fff"/><path d="M149.299 93.267h-17.155v1.806h17.155v-1.806Z" fill="#4B8F46" stroke="#fff" stroke-width=".5" stroke-miterlimit="10"/><path d="M132.875 93.31v1.796M133.773 93.31v1.796M134.917 93.31v1.796M138.957 93.31v1.796M148.673 93.31v1.796M147.775 93.31v1.796M146.631 93.31v1.796M144.999 93.31v1.796M142.591 93.31v1.796" stroke="#fff" stroke-width=".5" stroke-miterlimit="10"/><path d="M138.957 93.267h-.981v1.835h.981v-1.835ZM136.792 93.267h-.286v1.835h.286v-1.835Z" fill="#263238"/><path d="M135.854 93.39h-.818v1.593h.818V93.39Z" fill="#fff"/><path d="M149.531 91.305h-17.155v1.806h17.155v-1.806Z" fill="#4B8F46" stroke="#fff" stroke-width=".5" stroke-miterlimit="10"/><path d="M133.107 91.345v1.795M134.005 91.345v1.795M135.145 91.345v1.795M139.188 91.345v1.795M148.904 91.345v1.795M148.003 91.345v1.795M146.863 91.345v1.795M145.23 91.345v1.795M142.819 91.345v1.795" stroke="#fff" stroke-width=".5" stroke-miterlimit="10"/><path d="M139.188 91.305h-.981v1.835h.981v-1.835ZM137.024 91.305h-.286v1.835h.286v-1.835Z" fill="#263238"/><path d="M136.086 91.424h-.818v1.593h.818v-1.593Z" fill="#fff"/><path d="M129.751 150.217h-17.155v1.806h17.155v-1.806Z" fill="#4B8F46" stroke="#fff" stroke-width=".5" stroke-miterlimit="10"/><path d="M113.324 150.257v1.799M114.225 150.257v1.799M115.365 150.257v1.799M119.409 150.257v1.799M129.121 150.257v1.799M128.223 150.257v1.799M127.083 150.257v1.799M125.451 150.257v1.799M123.04 150.257v1.799" stroke="#fff" stroke-width=".5" stroke-miterlimit="10"/><path d="M119.409 150.217h-.981v1.835h.981v-1.835ZM117.244 150.217h-.286v1.835h.286v-1.835Z" fill="#263238"/><path d="M116.306 150.34h-.818v1.593h.818v-1.593Z" fill="#fff"/><path d="M130.294 148.251h-17.155v1.806h17.155v-1.806Z" fill="#4B8F46" stroke="#fff" stroke-width=".5" stroke-miterlimit="10"/><path d="M113.87 148.294v1.795M114.768 148.294v1.795M115.912 148.294v1.795M119.952 148.294v1.795M129.668 148.294v1.795M128.77 148.294v1.795M127.626 148.294v1.795M125.993 148.294v1.795M123.586 148.294v1.795" stroke="#fff" stroke-width=".5" stroke-miterlimit="10"/><path d="M119.955 148.251h-.981v1.835h.981v-1.835ZM117.791 148.251h-.286v1.835h.286v-1.835Z" fill="#263238"/><path d="M116.853 148.374h-.818v1.593h.818v-1.593Z" fill="#fff"/><path d="M128.897 146.289h-17.155v1.806h17.155v-1.806Z" fill="#4B8F46" stroke="#fff" stroke-width=".5" stroke-miterlimit="10"/><path d="M112.469 146.329v1.796M113.371 146.329v1.796M114.511 146.329v1.796M118.554 146.329v1.796M128.267 146.329v1.796M127.369 146.329v1.796M126.229 146.329v1.796M124.596 146.329v1.796M122.185 146.329v1.796" stroke="#fff" stroke-width=".5" stroke-miterlimit="10"/><path d="M118.554 146.289h-.981v1.835h.981v-1.835ZM116.39 146.289h-.286v1.835h.286v-1.835Z" fill="#263238"/><path d="M115.452 146.412h-.818v1.593h.818v-1.593Z" fill="#fff"/><path d="M130.24 144.323h-17.155v1.807h17.155v-1.807Z" fill="#4B8F46" stroke="#fff" stroke-width=".5" stroke-miterlimit="10"/><path d="M113.816 144.363v1.796M114.714 144.363v1.796M115.858 144.363v1.796M119.897 144.363v1.796M129.613 144.363v1.796M128.716 144.363v1.796M127.572 144.363v1.796M125.939 144.363v1.796M123.532 144.363v1.796" stroke="#fff" stroke-width=".5" stroke-miterlimit="10"/><path d="M119.901 144.323h-.981v1.836h.981v-1.836ZM117.736 144.323h-.286v1.836h.286v-1.836Z" fill="#263238"/><path d="M116.799 144.446h-.818v1.593h.818v-1.593Z" fill="#fff"/><path d="M129.588 142.357h-17.155v1.807h17.155v-1.807Z" fill="#4B8F46" stroke="#fff" stroke-width=".5" stroke-miterlimit="10"/><path d="M113.161 142.401v1.796M114.058 142.401v1.796M115.202 142.401v1.796M119.242 142.401v1.796M128.958 142.401v1.796M128.061 142.401v1.796M126.917 142.401v1.796M125.284 142.401v1.796M122.877 142.401v1.796" stroke="#fff" stroke-width=".5" stroke-miterlimit="10"/><path d="M119.246 142.357h-.981v1.836h.981v-1.836ZM117.081 142.357h-.286v1.836h.286v-1.836Z" fill="#263238"/><path d="M116.143 142.48h-.818v1.593h.818v-1.593Z" fill="#fff"/><path d="M130.457 140.396h-17.155v1.806h17.155v-1.806Z" fill="#4B8F46" stroke="#fff" stroke-width=".5" stroke-miterlimit="10"/><path d="M114.033 140.436v1.795M114.931 140.436v1.795M116.075 140.436v1.795M120.115 140.436v1.795M129.831 140.436v1.795M128.933 140.436v1.795M127.789 140.436v1.795M126.156 140.436v1.795M123.749 140.436v1.795" stroke="#fff" stroke-width=".5" stroke-miterlimit="10"/><path d="M120.118 140.396h-.981v1.835h.981v-1.835ZM117.953 140.396h-.285v1.835h.285v-1.835Z" fill="#263238"/><path d="M117.016 140.515h-.818v1.592h.818v-1.592Z" fill="#fff"/><path d="M128.987 138.43h-17.155v1.806h17.155v-1.806Z" fill="#4B8F46" stroke="#fff" stroke-width=".5" stroke-miterlimit="10"/><path d="M112.563 138.47v1.795M113.461 138.47v1.795M114.605 138.47v1.795M118.645 138.47v1.795M128.361 138.47v1.795M127.463 138.47v1.795M126.319 138.47v1.795M124.687 138.47v1.795M122.276 138.47v1.795" stroke="#fff" stroke-width=".5" stroke-miterlimit="10"/><path d="M118.645 138.43h-.981v1.835h.981v-1.835ZM116.48 138.43h-.286v1.835h.286v-1.835Z" fill="#263238"/><path d="M115.543 138.553h-.819v1.593h.819v-1.593Z" fill="#fff"/><path d="M129.147 136.464h-17.156v1.806h17.156v-1.806Z" fill="#4B8F46" stroke="#fff" stroke-width=".5" stroke-miterlimit="10"/><path d="M112.723 136.508v1.795M113.62 136.508v1.795M114.764 136.508v1.795M118.804 136.508v1.795M128.52 136.508v1.795M127.622 136.508v1.795M126.479 136.508v1.795M124.846 136.508v1.795M122.439 136.508v1.795" stroke="#fff" stroke-width=".5" stroke-miterlimit="10"/><path d="M118.808 136.464h-.981v1.835h.981v-1.835ZM116.643 136.464h-.286v1.835h.286v-1.835Z" fill="#263238"/><path d="M115.705 136.587h-.818v1.593h.818v-1.593Z" fill="#fff"/><path d="M129.208 134.502h-17.155v1.806h17.155v-1.806Z" fill="#4B8F46" stroke="#fff" stroke-width=".5" stroke-miterlimit="10"/><path d="M112.784 134.542v1.796M113.682 134.542v1.796M114.826 134.542v1.796M118.866 134.542v1.796M128.582 134.542v1.796M127.684 134.542v1.796M126.54 134.542v1.796M124.908 134.542v1.796M122.5 134.542v1.796" stroke="#fff" stroke-width=".5" stroke-miterlimit="10"/><path d="M118.869 134.502h-.981v1.835h.981v-1.835ZM116.705 134.502h-.286v1.835h.286v-1.835Z" fill="#263238"/><path d="M115.767 134.622h-.818v1.593h.818v-1.593Z" fill="#fff"/><path d="M128.701 132.536h-17.155v1.807h17.155v-1.807Z" fill="#4B8F46" stroke="#fff" stroke-width=".5" stroke-miterlimit="10"/><path d="M112.277 132.576v1.796M113.175 132.576v1.796M114.315 132.576v1.796M118.359 132.576v1.796M128.071 132.576v1.796M127.174 132.576v1.796M126.033 132.576v1.796M124.401 132.576v1.796M121.99 132.576v1.796" stroke="#fff" stroke-width=".5" stroke-miterlimit="10"/><path d="M118.359 132.536h-.981v1.835h.981v-1.835ZM116.194 132.536h-.286v1.835h.286v-1.835Z" fill="#263238"/><path d="M115.257 132.659h-.819v1.593h.819v-1.593Z" fill="#fff"/><path d="M130.211 130.571h-17.155v1.807h17.155v-1.807Z" fill="#4B8F46" stroke="#fff" stroke-width=".5" stroke-miterlimit="10"/><path d="M113.787 130.61v1.799M114.685 130.61v1.799M115.829 130.61v1.799M119.868 130.61v1.799M129.585 130.61v1.799M128.687 130.61v1.799M127.543 130.61v1.799M125.91 130.61v1.799M123.503 130.61v1.799" stroke="#fff" stroke-width=".5" stroke-miterlimit="10"/><path d="M119.872 130.571h-.981v1.836h.981v-1.836ZM117.707 130.571h-.286v1.836h.286v-1.836Z" fill="#263238"/><path d="M116.77 130.694h-.818v1.593h.818v-1.593Z" fill="#fff"/><path d="M129.288 128.605h-17.155v1.807h17.155v-1.807Z" fill="#4B8F46" stroke="#fff" stroke-width=".5" stroke-miterlimit="10"/><path d="M112.864 128.648v1.796M113.762 128.648v1.796M114.905 128.648v1.796M118.945 128.648v1.796M128.661 128.648v1.796M127.764 128.648v1.796M126.62 128.648v1.796M124.987 128.648v1.796M122.58 128.648v1.796" stroke="#fff" stroke-width=".5" stroke-miterlimit="10"/><path d="M118.945 128.605h-.981v1.836h.981v-1.836ZM116.781 128.605h-.286v1.836h.286v-1.836Z" fill="#263238"/><path d="M115.843 128.729h-.818v1.592h.818v-1.592Z" fill="#fff"/><path d="M129.519 126.644h-17.155v1.806h17.155v-1.806Z" fill="#4B8F46" stroke="#fff" stroke-width=".5" stroke-miterlimit="10"/><path d="M113.095 126.683v1.795M113.993 126.683v1.795M115.134 126.683v1.795M119.177 126.683v1.795M128.893 126.683v1.795M127.995 126.683v1.795M126.851 126.683v1.795M125.219 126.683v1.795M122.808 126.683v1.795" stroke="#fff" stroke-width=".5" stroke-miterlimit="10"/><path d="M119.177 126.644h-.981v1.835h.981v-1.835ZM117.012 126.644h-.286v1.835h.286v-1.835Z" fill="#263238"/><path d="M116.075 126.767h-.818v1.592h.818v-1.592Z" fill="#fff"/><path d="M130.052 124.678h-17.156v1.806h17.156v-1.806Z" fill="#4B8F46" stroke="#fff" stroke-width=".5" stroke-miterlimit="10"/><path d="M113.624 124.718v1.799M114.522 124.718v1.799M115.666 124.718v1.799M119.709 124.718v1.799M129.422 124.718v1.799M128.524 124.718v1.799M127.384 124.718v1.799M125.747 124.718v1.799M123.34 124.718v1.799" stroke="#fff" stroke-width=".5" stroke-miterlimit="10"/><path d="M119.709 124.678h-.981v1.835h.981v-1.835ZM117.544 124.678h-.286v1.835h.286v-1.835Z" fill="#263238"/><path d="M116.607 124.801h-.818v1.593h.818v-1.593Z" fill="#fff"/><path d="M129.751 122.506h-17.155v1.806h17.155v-1.806Z" fill="#4B8F46" stroke="#fff" stroke-width=".5" stroke-miterlimit="10"/><path d="M113.324 122.545v1.795M114.225 122.545v1.795M115.365 122.545v1.795M119.409 122.545v1.795M129.121 122.545v1.795M128.223 122.545v1.795M127.083 122.545v1.795M125.451 122.545v1.795M123.04 122.545v1.795" stroke="#fff" stroke-width=".5" stroke-miterlimit="10"/><path d="M119.409 122.506h-.981v1.835h.981v-1.835ZM117.244 122.506h-.286v1.835h.286v-1.835Z" fill="#263238"/><path d="M116.306 122.629h-.818v1.593h.818v-1.593Z" fill="#fff"/><path d="M130.294 120.54h-17.155v1.806h17.155v-1.806Z" fill="#4B8F46" stroke="#fff" stroke-width=".5" stroke-miterlimit="10"/><path d="M113.87 120.58v1.799M114.768 120.58v1.799M115.912 120.58v1.799M119.952 120.58v1.799M129.668 120.58v1.799M128.77 120.58v1.799M127.626 120.58v1.799M125.993 120.58v1.799M123.586 120.58v1.799" stroke="#fff" stroke-width=".5" stroke-miterlimit="10"/><path d="M119.955 120.54h-.981v1.835h.981v-1.835ZM117.791 120.54h-.286v1.835h.286v-1.835Z" fill="#263238"/><path d="M116.853 120.663h-.818v1.593h.818v-1.593Z" fill="#fff"/><path d="M128.897 118.578h-17.155v1.807h17.155v-1.807Z" fill="#4B8F46" stroke="#fff" stroke-width=".5" stroke-miterlimit="10"/><path d="M112.469 118.617v1.796M113.371 118.617v1.796M114.511 118.617v1.796M118.554 118.617v1.796M128.267 118.617v1.796M127.369 118.617v1.796M126.229 118.617v1.796M124.596 118.617v1.796M122.185 118.617v1.796" stroke="#fff" stroke-width=".5" stroke-miterlimit="10"/><path d="M118.554 118.578h-.981v1.835h.981v-1.835ZM116.39 118.578h-.286v1.835h.286v-1.835Z" fill="#263238"/><path d="M115.452 118.697h-.818v1.593h.818v-1.593Z" fill="#fff"/><path d="M130.24 116.612h-17.155v1.807h17.155v-1.807Z" fill="#4B8F46" stroke="#fff" stroke-width=".5" stroke-miterlimit="10"/><path d="M113.816 116.652v1.796M114.714 116.652v1.796M115.858 116.652v1.796M119.897 116.652v1.796M129.613 116.652v1.796M128.716 116.652v1.796M127.572 116.652v1.796M125.939 116.652v1.796M123.532 116.652v1.796" stroke="#fff" stroke-width=".5" stroke-miterlimit="10"/><path d="M119.901 116.612h-.981v1.836h.981v-1.836ZM117.736 116.612h-.286v1.836h.286v-1.836Z" fill="#263238"/><path d="M116.799 116.735h-.818v1.593h.818v-1.593Z" fill="#fff"/><path d="M129.588 114.646h-17.155v1.807h17.155v-1.807Z" fill="#4B8F46" stroke="#fff" stroke-width=".5" stroke-miterlimit="10"/><path d="M113.161 114.687v1.799M114.058 114.687v1.799M115.202 114.687v1.799M119.242 114.687v1.799M128.958 114.687v1.799M128.061 114.687v1.799M126.917 114.687v1.799M125.284 114.687v1.799M122.877 114.687v1.799" stroke="#fff" stroke-width=".5" stroke-miterlimit="10"/><path d="M119.246 114.646h-.981v1.836h.981v-1.836ZM117.081 114.646h-.286v1.836h.286v-1.836Z" fill="#263238"/><path d="M116.143 114.77h-.818v1.592h.818v-1.592Z" fill="#fff"/><path d="M130.457 112.681h-17.155v1.806h17.155v-1.806Z" fill="#4B8F46" stroke="#fff" stroke-width=".5" stroke-miterlimit="10"/><path d="M114.033 112.725v1.795M114.931 112.725v1.795M116.075 112.725v1.795M120.115 112.725v1.795M129.831 112.725v1.795M128.933 112.725v1.795M127.789 112.725v1.795M126.156 112.725v1.795M123.749 112.725v1.795" stroke="#fff" stroke-width=".5" stroke-miterlimit="10"/><path d="M120.118 112.681h-.981v1.835h.981v-1.835ZM117.953 112.681h-.285v1.835h.285v-1.835Z" fill="#263238"/><path d="M117.016 112.804h-.818v1.593h.818v-1.593Z" fill="#fff"/><path d="M128.987 110.719h-17.155v1.806h17.155v-1.806Z" fill="#4B8F46" stroke="#fff" stroke-width=".5" stroke-miterlimit="10"/><path d="M112.563 110.759v1.795M113.461 110.759v1.795M114.605 110.759v1.795M118.645 110.759v1.795M128.361 110.759v1.795M127.463 110.759v1.795M126.319 110.759v1.795M124.687 110.759v1.795M122.276 110.759v1.795" stroke="#fff" stroke-width=".5" stroke-miterlimit="10"/><path d="M118.645 110.719h-.981v1.835h.981v-1.835ZM116.48 110.719h-.286v1.835h.286v-1.835Z" fill="#263238"/><path d="M115.543 110.842h-.819v1.593h.819v-1.593Z" fill="#fff"/><path d="M129.147 108.753h-17.156v1.806h17.156v-1.806Z" fill="#4B8F46" stroke="#fff" stroke-width=".5" stroke-miterlimit="10"/><path d="M112.723 108.793v1.795M113.62 108.793v1.795M114.764 108.793v1.795M118.804 108.793v1.795M128.52 108.793v1.795M127.622 108.793v1.795M126.479 108.793v1.795M124.846 108.793v1.795M122.439 108.793v1.795" stroke="#fff" stroke-width=".5" stroke-miterlimit="10"/><path d="M118.808 108.753h-.981v1.835h.981v-1.835ZM116.643 108.753h-.286v1.835h.286v-1.835Z" fill="#263238"/><path d="M115.705 108.876h-.818v1.593h.818v-1.593Z" fill="#fff"/><path d="M129.208 106.787h-17.155v1.806h17.155v-1.806Z" fill="#4B8F46" stroke="#fff" stroke-width=".5" stroke-miterlimit="10"/><path d="M112.784 106.831v1.796M113.682 106.831v1.796M114.826 106.831v1.796M118.866 106.831v1.796M128.582 106.831v1.796M127.684 106.831v1.796M126.54 106.831v1.796M124.908 106.831v1.796M122.5 106.831v1.796" stroke="#fff" stroke-width=".5" stroke-miterlimit="10"/><path d="M118.869 106.787h-.981v1.835h.981v-1.835ZM116.705 106.787h-.286v1.835h.286v-1.835Z" fill="#263238"/><path d="M115.767 106.91h-.818v1.593h.818v-1.593Z" fill="#fff"/><path d="M128.701 104.825h-17.155v1.807h17.155v-1.807Z" fill="#4B8F46" stroke="#fff" stroke-width=".5" stroke-miterlimit="10"/><path d="M112.277 104.865v1.796M113.175 104.865v1.796M114.315 104.865v1.796M118.359 104.865v1.796M128.071 104.865v1.796M127.174 104.865v1.796M126.033 104.865v1.796M124.401 104.865v1.796M121.99 104.865v1.796" stroke="#fff" stroke-width=".5" stroke-miterlimit="10"/><path d="M118.359 104.825h-.981v1.836h.981v-1.836ZM116.194 104.825h-.286v1.836h.286v-1.836Z" fill="#263238"/><path d="M115.257 104.945h-.819v1.593h.819v-1.593Z" fill="#fff"/><path d="M130.211 102.859h-17.155v1.807h17.155v-1.807Z" fill="#4B8F46" stroke="#fff" stroke-width=".5" stroke-miterlimit="10"/><path d="M113.787 102.899v1.796M114.685 102.899v1.796M115.829 102.899v1.796M119.868 102.899v1.796M129.585 102.899v1.796M128.687 102.899v1.796M127.543 102.899v1.796M125.91 102.899v1.796M123.503 102.899v1.796" stroke="#fff" stroke-width=".5" stroke-miterlimit="10"/><path d="M119.872 102.859h-.981v1.836h.981v-1.836ZM117.707 102.859h-.286v1.836h.286v-1.836Z" fill="#263238"/><path d="M116.77 102.982h-.818v1.593h.818v-1.593Z" fill="#fff"/><path d="M129.288 100.895h-17.155v1.806h17.155v-1.806Z" fill="#4B8F46" stroke="#fff" stroke-width=".5" stroke-miterlimit="10"/><path d="M112.864 100.938v1.795M113.762 100.938v1.795M114.905 100.938v1.795M118.945 100.938v1.795M128.661 100.938v1.795M127.764 100.938v1.795M126.62 100.938v1.795M124.987 100.938v1.795M122.58 100.938v1.795" stroke="#fff" stroke-width=".5" stroke-miterlimit="10"/><path d="M118.945 100.895h-.981v1.835h.981v-1.835ZM116.781 100.895h-.286v1.835h.286v-1.835Z" fill="#263238"/><path d="M115.843 101.018h-.818v1.592h.818v-1.592Z" fill="#fff"/><path d="M129.519 98.932h-17.155v1.806h17.155v-1.806Z" fill="#4B8F46" stroke="#fff" stroke-width=".5" stroke-miterlimit="10"/><path d="M113.095 98.972v1.795M113.993 98.972v1.795M115.134 98.972v1.795M119.177 98.972v1.795M128.893 98.972v1.795M127.995 98.972v1.795M126.851 98.972v1.795M125.219 98.972v1.795M122.808 98.972v1.795" stroke="#fff" stroke-width=".5" stroke-miterlimit="10"/><path d="M119.177 98.932h-.981v1.835h.981v-1.835ZM117.012 98.932h-.286v1.835h.286v-1.835Z" fill="#263238"/><path d="M116.075 99.052h-.818v1.593h.818v-1.593Z" fill="#fff"/><path d="M130.052 96.967h-17.156v1.806h17.156v-1.806Z" fill="#4B8F46" stroke="#fff" stroke-width=".5" stroke-miterlimit="10"/><path d="M113.624 97.006V98.8M114.522 97.006V98.8M115.666 97.006V98.8M119.709 97.006V98.8M129.422 97.006V98.8M128.524 97.006V98.8M127.384 97.006V98.8M125.747 97.006V98.8M123.34 97.006V98.8" stroke="#fff" stroke-width=".5" stroke-miterlimit="10"/><path d="M119.709 96.967h-.981v1.835h.981v-1.835ZM117.544 96.967h-.286v1.835h.286v-1.835Z" fill="#263238"/><path d="M116.607 97.09h-.818v1.593h.818V97.09Z" fill="#fff"/><path d="M76.805 150.217H59.65v1.806h17.155v-1.806Z" fill="#4B8F46" stroke="#fff" stroke-width=".5" stroke-miterlimit="10"/><path d="M60.381 150.257v1.799M61.279 150.257v1.799M62.423 150.257v1.799M66.463 150.257v1.799M76.179 150.257v1.799M75.28 150.257v1.799M74.137 150.257v1.799M72.504 150.257v1.799M70.097 150.257v1.799" stroke="#fff" stroke-width=".5" stroke-miterlimit="10"/><path d="M66.466 150.217h-.98v1.835h.98v-1.835ZM64.302 150.217h-.287v1.835h.287v-1.835Z" fill="#263238"/><path d="M63.364 150.34h-.818v1.593h.818v-1.593Z" fill="#fff"/><path d="M76.66 148.251H59.505v1.806H76.66v-1.806Z" fill="#4B8F46" stroke="#fff" stroke-width=".5" stroke-miterlimit="10"/><path d="M60.233 148.294v1.795M61.13 148.294v1.795M62.274 148.294v1.795M66.318 148.294v1.795M76.03 148.294v1.795M75.132 148.294v1.795M73.989 148.294v1.795M72.356 148.294v1.795M69.949 148.294v1.795" stroke="#fff" stroke-width=".5" stroke-miterlimit="10"/><path d="M66.318 148.251h-.981v1.835h.98v-1.835ZM64.153 148.251h-.286v1.835h.286v-1.835Z" fill="#263238"/><path d="M63.215 148.374h-.818v1.593h.819v-1.593Z" fill="#fff"/><path d="M76.544 146.289H59.39v1.806h17.155v-1.806Z" fill="#4B8F46" stroke="#fff" stroke-width=".5" stroke-miterlimit="10"/><path d="M60.117 146.329v1.796M61.014 146.329v1.796M62.158 146.329v1.796M66.202 146.329v1.796M75.914 146.329v1.796M75.017 146.329v1.796M73.876 146.329v1.796M72.24 146.329v1.796M69.833 146.329v1.796" stroke="#fff" stroke-width=".5" stroke-miterlimit="10"/><path d="M66.202 146.289h-.981v1.835h.981v-1.835ZM64.037 146.289h-.286v1.835h.286v-1.835Z" fill="#263238"/><path d="M63.1 146.412h-.819v1.593h.819v-1.593Z" fill="#fff"/><path d="M76.258 144.323H59.103v1.807h17.155v-1.807Z" fill="#4B8F46" stroke="#fff" stroke-width=".5" stroke-miterlimit="10"/><path d="M59.834 144.363v1.796M60.732 144.363v1.796M61.872 144.363v1.796M65.916 144.363v1.796M75.628 144.363v1.796M74.73 144.363v1.796M73.59 144.363v1.796M71.958 144.363v1.796M69.547 144.363v1.796" stroke="#fff" stroke-width=".5" stroke-miterlimit="10"/><path d="M65.916 144.323h-.981v1.836h.981v-1.836ZM63.751 144.323h-.286v1.836h.286v-1.836Z" fill="#263238"/><path d="M62.814 144.446h-.819v1.593h.819v-1.593Z" fill="#fff"/><path d="M77.677 142.357H60.522v1.807h17.155v-1.807Z" fill="#4B8F46" stroke="#fff" stroke-width=".5" stroke-miterlimit="10"/><path d="M61.253 142.401v1.796M62.151 142.401v1.796M63.291 142.401v1.796M67.335 142.401v1.796M77.047 142.401v1.796M76.15 142.401v1.796M75.01 142.401v1.796M73.377 142.401v1.796M70.966 142.401v1.796" stroke="#fff" stroke-width=".5" stroke-miterlimit="10"/><path d="M67.335 142.357h-.981v1.836h.981v-1.836ZM65.17 142.357h-.286v1.836h.286v-1.836Z" fill="#263238"/><path d="M64.233 142.48h-.818v1.593h.818v-1.593Z" fill="#fff"/><path d="M77.514 140.396H60.36v1.806h17.155v-1.806Z" fill="#4B8F46" stroke="#fff" stroke-width=".5" stroke-miterlimit="10"/><path d="M61.09 140.436v1.795M61.988 140.436v1.795M63.132 140.436v1.795M67.172 140.436v1.795M76.888 140.436v1.795M75.99 140.436v1.795M74.847 140.436v1.795M73.214 140.436v1.795M70.807 140.436v1.795" stroke="#fff" stroke-width=".5" stroke-miterlimit="10"/><path d="M67.176 140.396h-.981v1.835h.98v-1.835ZM65.011 140.396h-.286v1.835h.286v-1.835Z" fill="#263238"/><path d="M64.073 140.515h-.818v1.592h.818v-1.592Z" fill="#fff"/><path d="M76.045 138.43H58.89v1.806h17.155v-1.806Z" fill="#4B8F46" stroke="#fff" stroke-width=".5" stroke-miterlimit="10"/><path d="M59.62 138.47v1.795M60.519 138.47v1.795M61.659 138.47v1.795M65.702 138.47v1.795M75.415 138.47v1.795M74.517 138.47v1.795M73.377 138.47v1.795M71.744 138.47v1.795M69.333 138.47v1.795" stroke="#fff" stroke-width=".5" stroke-miterlimit="10"/><path d="M65.702 138.43h-.98v1.835h.98v-1.835ZM63.538 138.43h-.286v1.835h.286v-1.835Z" fill="#263238"/><path d="M62.6 138.553h-.818v1.593h.818v-1.593Z" fill="#fff"/><path d="M77.08 136.464H59.925v1.806H77.08v-1.806Z" fill="#4B8F46" stroke="#fff" stroke-width=".5" stroke-miterlimit="10"/><path d="M60.656 136.508v1.795M61.554 136.508v1.795M62.694 136.508v1.795M66.738 136.508v1.795M76.454 136.508v1.795M75.552 136.508v1.795M74.412 136.508v1.795M72.78 136.508v1.795M70.369 136.508v1.795" stroke="#fff" stroke-width=".5" stroke-miterlimit="10"/><path d="M66.738 136.464h-.981v1.835h.98v-1.835ZM64.573 136.464h-.286v1.835h.286v-1.835Z" fill="#263238"/><path d="M63.635 136.587h-.818v1.593h.818v-1.593Z" fill="#fff"/><path d="M78.666 134.502H61.51v1.806h17.156v-1.806Z" fill="#4B8F46" stroke="#fff" stroke-width=".5" stroke-miterlimit="10"/><path d="M62.238 134.542v1.796M63.14 134.542v1.796M64.28 134.542v1.796M68.323 134.542v1.796M78.036 134.542v1.796M77.138 134.542v1.796M75.998 134.542v1.796M74.365 134.542v1.796M71.954 134.542v1.796" stroke="#fff" stroke-width=".5" stroke-miterlimit="10"/><path d="M68.323 134.502h-.98v1.835h.98v-1.835ZM66.159 134.502h-.286v1.835h.285v-1.835Z" fill="#263238"/><path d="M65.221 134.622h-.818v1.593h.818v-1.593Z" fill="#fff"/><path d="M78.08 132.536H60.923v1.807h17.155v-1.807Z" fill="#4B8F46" stroke="#fff" stroke-width=".5" stroke-miterlimit="10"/><path d="M61.652 132.576v1.796M62.553 132.576v1.796M63.693 132.576v1.796M67.737 132.576v1.796M77.45 132.576v1.796M76.552 132.576v1.796M75.411 132.576v1.796M73.779 132.576v1.796M71.368 132.576v1.796" stroke="#fff" stroke-width=".5" stroke-miterlimit="10"/><path d="M67.737 132.536h-.981v1.835h.98v-1.835ZM65.572 132.536h-.286v1.835h.286v-1.835Z" fill="#263238"/><path d="M64.635 132.659h-.819v1.593h.819v-1.593Z" fill="#fff"/><path d="M77.268 130.571H60.113v1.807h17.155v-1.807Z" fill="#4B8F46" stroke="#fff" stroke-width=".5" stroke-miterlimit="10"/><path d="M60.844 130.61v1.799M61.742 130.61v1.799M62.886 130.61v1.799M66.926 130.61v1.799M76.642 130.61v1.799M75.744 130.61v1.799M74.6 130.61v1.799M72.968 130.61v1.799M70.56 130.61v1.799" stroke="#fff" stroke-width=".5" stroke-miterlimit="10"/><path d="M66.93 130.571h-.981v1.836h.98v-1.836ZM64.765 130.571h-.286v1.836h.286v-1.836Z" fill="#263238"/><path d="M63.827 130.694h-.818v1.593h.818v-1.593Z" fill="#fff"/><path d="M76.345 128.605H59.19v1.807h17.155v-1.807Z" fill="#4B8F46" stroke="#fff" stroke-width=".5" stroke-miterlimit="10"/><path d="M59.921 128.648v1.796M60.819 128.648v1.796M61.96 128.648v1.796M66.003 128.648v1.796M75.719 128.648v1.796M74.818 128.648v1.796M73.677 128.648v1.796M72.045 128.648v1.796M69.634 128.648v1.796" stroke="#fff" stroke-width=".5" stroke-miterlimit="10"/><path d="M66.003 128.605h-.981v1.836h.98v-1.836ZM63.838 128.605h-.286v1.836h.286v-1.836Z" fill="#263238"/><path d="M62.9 128.729h-.818v1.592h.819v-1.592Z" fill="#fff"/><path d="m156.999 69.002-17.159-.405 2.961 5.426-63.448 34.043-19.84-17.956-16.841 16.2H24l1.647 5.893h19.4l14.588-14.035 18.846 17.054 67.147-36.026 2.44 4.467 8.931-14.66Z" fill="#263238"/><path d="M97.674 158.376c15.231 0 27.577-1.415 27.577-3.16s-12.346-3.16-27.577-3.16c-15.23 0-27.577 1.415-27.577 3.16s12.347 3.16 27.577 3.16Z" fill="#4B8F46"/><path opacity=".5" d="M97.674 158.376c15.231 0 27.577-1.415 27.577-3.16s-12.346-3.16-27.577-3.16c-15.23 0-27.577 1.415-27.577 3.16s12.347 3.16 27.577 3.16Z" fill="#fff"/><path d="M136.502 84.409s.847-.656.916-1.373c.069-.716.587-1.632.065-1.448-.521.185-.981 2.82-.981 2.82Z" fill="#fff" stroke="#263238" stroke-linecap="round" stroke-linejoin="round"/><path d="M135.912 85.26s.724-.59.851-1.177c.127-.586.391-2.418.13-2.092-.452.91-.782 1.877-.981 2.874.004.225-.041.449-.13.655l.13-.26Z" fill="#fff" stroke="#263238" stroke-linecap="round" stroke-linejoin="round"/><path d="M134.805 85.977s1.042-.391 1.107-.724c.065-.333.656-3.258.33-3.074-.326.185-1.046 2.81-1.046 2.81l-.391.988Z" fill="#fff" stroke="#263238" stroke-linecap="round" stroke-linejoin="round"/><path d="M130.964 89.433s-1.046-2.284-.981-2.874c.065-.59 3.725-1.698 3.92-1.763.196-.065.981-2.484 1.372-2.484.391 0 .196.59.131 1.307-.066.717-.326 2.484-.587 2.68-.261.195-2.172 1.24-2.172 1.24l.13 1.568-1.813.326Z" fill="#fff" stroke="#263238" stroke-linecap="round" stroke-linejoin="round"/><path d="m130.363 91.4.065-2.223 2.61-.717.264 2.48-2.939.46Z" fill="#fff" stroke="#263238" stroke-linecap="round" stroke-linejoin="round"/><path d="M121.085 111.128a32.5 32.5 0 0 0 6.983-.525c4.246-.724 7.964-1.177 8.101-2.172.138-.996-1.502-16.334-2.744-18.488l-3.334.847.33 12.67s-9.539.724-10.52.851c-.981.127-2.48 2.809-2.219 4.051.261 1.242 1.9 2.306 3.403 2.766ZM85.163 147.354l-3.652-1.246s-1.557 1.865-2.958 3.501c-1.4 1.636-3.066 4.072-2.642 4.586.423.515 4.116-1.838 5.832-3.189 1.024-.803 1.4-1.165 2.335-1.01l1.085-2.642ZM111.456 150.611s1.864 1.086 3.576 2.172 2.491 1.01 2.411 1.322c-.08.311-.934.467-3.345.311-2.411-.156-3.656-1.325-4.666-1.557-1.01-.231-2.331-.622-2.172-1.632.159-1.01 1.944-2.024 1.944-2.024l2.252 1.408Z" fill="#fff" stroke="#263238" stroke-linecap="round" stroke-linejoin="round"/><path d="M91.466 133.108a74.131 74.131 0 0 0 2.331 8.167c1.325 3.577 4.746 9.253 4.746 9.253l-13.394-3.186-1.477 3.577s8.87 4.279 15.403 5.676c6.534 1.397 8.011 1.557 8.786.467.775-1.09-.543-9.256-.775-11.899-.231-2.643-.235-6.766-.235-6.766l9.955 1.789-7.62 9.021 2.255 1.401s4.742-2.024 9.488-4.2c4.746-2.175 9.488-7.24 10.498-9.024 1.01-1.785-.08-2.799-4.199-4.978-4.12-2.179-11.903-4.434-13.535-4.434-1.633 0-8.326.311-8.326.311s-11.179-.543-13.901 4.825Z" fill="#263238" stroke="#263238" stroke-linecap="round" stroke-linejoin="round"/><path d="M117.754 140.262s6.458.155 9.724-.855M122.732 140.417c1.822.323 3.677.427 5.524.311M107.101 138.086l1.086-3.113M107.644 136.917l4.199-4.119M98.778 150.84s1.553 2.335 3.342 4.59M99.633 152.476s.698 2.487 1.477 3.42" stroke="#fff" stroke-linecap="round" stroke-linejoin="round"/><path d="M119.778 103.743s-2.089-.391-7.837-.13c-5.749.261-10.781 2.534-13.72 5.162-2.94 2.628-5.488 11.171-6.01 12.67-.52 1.499-2.287 8.623-2.613 9.669a638.432 638.432 0 0 0-.586 1.893s3.004 2.419 6.4 2.81c3.395.391 9.669-.851 11.106-.981l2.874-4.768 1.177 2.415a35.533 35.533 0 0 0 2.295-2.868c.457-.685.959-1.339 1.502-1.958l-1.958-.456s.724-.981.724-1.372c0-.391-1.716-1.644-1.716-1.644l.59-1.241v-.724s2.534-3.258 3.135-3.331c.601-.072 5.618-4.311 6.599-8.166.981-3.856-1.962-6.98-1.962-6.98Z" fill="#fff" stroke="#263238" stroke-linecap="round" stroke-linejoin="round"/><path d="M110.373 122.101s2.744-1.503 5.028-2.089c2.285-.586 4.247-2.744 4.247-2.744v-.916l.655.525s1.567-2.288 1.567-4.181c0-1.893-.13-5.488-.13-5.488a9.78 9.78 0 0 1-1.571 5.944c-1.875 2.744-9.796 8.949-9.796 8.949Z" fill="#fff" stroke="#263238" stroke-linecap="round" stroke-linejoin="round"/><path d="M117.689 109.426s-.394.724-1.448 3.074c-1.053 2.349-5.488 9.209-5.488 9.209s2.744-1.763 5.619-3.33c2.874-1.568 3.33-3.791 3.721-5.488.391-1.698.199-3.856-.782-3.856a3.428 3.428 0 0 0-1.622.391Z" fill="#fff" stroke="#263238" stroke-linecap="round" stroke-linejoin="round"/><path d="m117.164 112.432.196 1.701s-2.089 2.154-3.258 3.135c-1.169.981-3.07 3.461-3.07 3.461a19.158 19.158 0 0 0 3.855-1.894c1.763-1.176 2.744-4.181 2.744-4.181a9.296 9.296 0 0 0 1.025-1.111c.655-.782 1.372-2.614.85-2.679-.521-.065-2.342 1.568-2.342 1.568Z" fill="#263238" stroke="#263238" stroke-linecap="round" stroke-linejoin="round"/><path d="m118.866 111.845-2.744 2.223s1.307-5.749 1.698-6.99a4.83 4.83 0 0 1 1.502-2.093s1.046-.651 2.023 1.046c.978 1.698-.391 7.512-.391 7.512l-2.534.981.446-2.679Z" fill="#fff" stroke="#263238" stroke-linecap="round" stroke-linejoin="round"/><path d="M120.368 103.679a3.32 3.32 0 0 0-3.334 1.046c-1.448 1.632-1.698 5.292-2.089 6.469a6.717 6.717 0 0 1-.724 1.632l.851.978-1.484.394a21.714 21.714 0 0 1-1.372 3.917c-.786 1.506-2.093 4.181-2.093 4.181s4.641-5.028 5.553-6.27c.913-1.241 1.047-4.637 1.698-6.86.652-2.222 1.637-4.376 2.744-4.376a.962.962 0 0 0 .25-1.111Z" fill="#fff" stroke="#263238" stroke-linecap="round" stroke-linejoin="round"/><path d="M124.745 108.384s-4.116 2.284-4.706 2.678l-1.173.782s-.199-5.227.13-6.074a5.379 5.379 0 0 1 1.307-1.698s-.199 1.698 1.763 2.94c1.962 1.241 2.809 1.107 2.809 1.107l-.13.265Z" fill="#fff" stroke="#263238" stroke-linecap="round" stroke-linejoin="round"/><path d="M123.724 97.604s-3.222 4.587-3.808 6.44c-.587 1.854.586 3.808 1.857 4.489 1.27.681 3.218.195 4-.196.782-.39 1.267-.68 1.267-.68s2.534 0 3.62-.587c1.086-.586.586-2.439-.294-2.342-.879.098-.781.391-.781.391s.977-2.44 2.048-3.417c1.072-.977.88-3.62-1.755-4.293-2.636-.674-5.586-1.27-6.154.195Z" fill="#fff" stroke="#263238" stroke-linecap="round" stroke-linejoin="round"/><path d="M124.745 101.379a2.375 2.375 0 0 1-.851.782 2.666 2.666 0 0 1-1.177.329s-.065.847.59 1.108" stroke="#263238" stroke-linecap="round" stroke-linejoin="round"/><path d="M123.608 100.898c-.149.308-.387.5-.536.431-.148-.069-.145-.362 0-.688.145-.326.391-.5.536-.431.145.069.148.377 0 .688ZM125.986 102.567c-.148.308-.387.5-.532.431-.145-.069-.145-.362 0-.688.145-.326.387-.5.536-.431.148.069.148.377-.004.688Z" fill="#263238"/><path d="M122.066 104.464c.203.205.451.362.724.456M126.258 100.543s.894-.724 1.763.456M123.633 99.236c.462.245.83.636 1.046 1.112" stroke="#263238" stroke-linecap="round" stroke-linejoin="round"/><path d="M128.585 98.288s-3.319 1.169-6.248-.782c-2.928-1.951-1.755-4.782 2.44-4.782 4.196 0 9.774 3.511 9.662 5.95-.112 2.441-4.196 6.155-4.88 6.445-.684.289-1.951.195-1.365-.196.587-.391 1.086.098.88-.977-.206-1.076-1.086-1.267-.195-1.756a47.797 47.797 0 0 0 1.853-1.086s-4.391-.865-2.147-2.816Z" fill="#263238" stroke="#263238" stroke-linecap="round" stroke-linejoin="round"/><path d="m120.954 113.543-1.437 2.157-.391-1.371 1.828-.786ZM80.816 115.744a19.77 19.77 0 0 1-2.817.105c-.745-.105-2.237-1.358-2.812-1.763-.576-.405-1.119-3.12-1.086-3.356.032-.235.271-.307.507-.105.235.203 1.05 2.241 1.05 2.241l1.255.677a3.42 3.42 0 0 1 1.152-.138c.474.069 1.763.884 1.763.884l1.256-.102-.268 1.557Z" fill="#fff" stroke="#263238" stroke-linecap="round" stroke-linejoin="round"/><path d="m81.732 113.372-1.39.507.304 2.237 1.56-.405-.474-2.339Z" fill="#fff" stroke="#263238" stroke-linecap="round" stroke-linejoin="round"/><path d="M113.971 111.081s-3.829 1.553-11.077 2.382c-7.247.829-14.806 1.242-17.188 1.76-2.381.517-4.04.934-4.04.934l-.206-2.896s7.454-2.382 14.48-4.971c7.027-2.588 12.84-4.554 16.569-3.518 3.729 1.035 3.414 4.659 2.172 5.383" fill="#fff"/><path d="M113.971 111.081s-3.829 1.553-11.077 2.382c-7.247.829-14.806 1.242-17.188 1.76-2.381.517-4.04.934-4.04.934l-.206-2.896s7.454-2.382 14.48-4.971c7.027-2.588 12.84-4.554 16.569-3.518 3.729 1.035 3.414 4.659 2.172 5.383" stroke="#263238" stroke-linecap="round" stroke-linejoin="round"/></svg>