<svg width="152" height="152" fill="none" xmlns="http://www.w3.org/2000/svg"><path d="M9.625 136.262H147.26" stroke="#263238" stroke-linecap="round" stroke-linejoin="round"/><path opacity=".3" d="M147.282 75.136v-4.678h-3.11a9.995 9.995 0 0 0-1.234-3.04l2.246-2.247-3.307-3.304-2.238 2.234c-.92-.571-1.927-.99-2.982-1.24v-3.247h-4.678v3.247a9.951 9.951 0 0 0-2.925 1.216l-2.359-2.365-3.307 3.307 2.346 2.347a10.048 10.048 0 0 0-1.216 2.873h-3.383v4.679h3.329a9.995 9.995 0 0 0 1.152 2.897l-2.384 2.386 3.308 3.308 2.32-2.32a10.05 10.05 0 0 0 2.897 1.27v3.3h4.678v-3.19a10.033 10.033 0 0 0 3.01-1.182l2.274 2.277 3.307-3.308-2.207-2.21a10.063 10.063 0 0 0 1.298-3.01h3.165Zm-12.963 2.88a5.332 5.332 0 1 1-.005-10.664 5.332 5.332 0 0 1 .005 10.663Z" stroke="#000" stroke-linecap="round" stroke-linejoin="round"/><g opacity=".3" stroke="#000" stroke-linecap="round" stroke-linejoin="round"><path d="M34.984 120.542v-4.679h-3.107a9.987 9.987 0 0 0-1.237-3.04l2.25-2.246-3.31-3.305-2.22 2.235a10.045 10.045 0 0 0-2.982-1.244v-3.246h-4.694v3.246a10.104 10.104 0 0 0-2.928 1.216L14.4 107.12l-3.307 3.302 2.347 2.362a10.022 10.022 0 0 0-1.216 2.873H8.837v4.678h3.323a9.9 9.9 0 0 0 1.152 2.897l-2.368 2.371 3.307 3.308 2.32-2.32c.889.572 1.863 1 2.885 1.268v3.305h4.685v-3.18a10.018 10.018 0 0 0 3.01-1.183l2.273 2.274 3.308-3.307-2.21-2.207a10.037 10.037 0 0 0 1.298-3.01l3.164-.009Zm-12.962 2.882a5.328 5.328 0 0 1-4.922-3.296 5.331 5.331 0 1 1 9.854.006 5.32 5.32 0 0 1-2.89 2.886 5.323 5.323 0 0 1-2.042.404ZM21.161 96.83v-3.083h-2.046a6.586 6.586 0 0 0-.814-2.003l1.48-1.48-2.18-2.18-1.474 1.474a6.634 6.634 0 0 0-1.964-.818v-2.128h-3.085v2.128a6.69 6.69 0 0 0-1.928.794L7.6 87.98l-2.18 2.18 1.548 1.547a6.671 6.671 0 0 0-.803 1.894H3.931v3.07h2.195c.153.672.409 1.317.76 1.91l-1.572 1.571 2.18 2.18 1.52-1.52a6.623 6.623 0 0 0 1.93.842v2.177h3.07v-2.104c.7-.15 1.37-.413 1.986-.778l1.498 1.499 2.18-2.18-1.456-1.468c.391-.61.68-1.28.854-1.982l2.085.012Zm-8.539 1.897a3.515 3.515 0 1 1-.006-7.03 3.515 3.515 0 0 1 .006 7.03Z"/></g><g opacity=".2" fill="#0F6A08"><path d="M100.515 16.793c.912.957 3.648 2.055 3.648 2.055s.173-2.028.167-2.156c-.064-1.501-1.073-4.365-2.694-4.809a1.987 1.987 0 0 0-2.17.888 1.99 1.99 0 0 0-.28.781c-.198 1.17.556 2.423 1.329 3.24ZM127.741 29.1c.018.023 1.264-1.597 1.331-1.706.773-1.29 1.52-4.232.405-5.5a1.995 1.995 0 0 0-2.301-.455 1.99 1.99 0 0 0-.663.498c-.812.866-.873 2.328-.681 3.435.225 1.298 1.909 3.724 1.909 3.727Z"/><path d="M140.047 22.709c-1.472-.82-4.198.508-5.299 1.52-.094.088-1.423 1.642-1.392 1.654h.03c-.432.206-.891.434-1.389.69-.912.483-1.952 1.04-3.04 1.717a35.278 35.278 0 0 0-3.387 2.356 25.84 25.84 0 0 0-3.362 3.171l-.036.043c.2-.45.723-1.727.75-1.824.408-1.444.341-4.478-1.061-5.409a1.982 1.982 0 0 0-1.606-.225 1.994 1.994 0 0 0-1.239 1.046c-.553 1.052-.228 2.478.249 3.493.535 1.146 2.627 2.925 2.794 3.068a34.795 34.795 0 0 0-2.809 3.77c-.501.765-.982 1.55-1.453 2.346.161-.395.304-.75.304-.803.407-1.444.34-4.477-1.061-5.408a1.987 1.987 0 0 0-2.845.821c-.554 1.052-.228 2.478.249 3.496.477 1.019 2.234 2.581 2.702 2.986-.176.303-.358.608-.535.912-.848 1.474-1.687 2.948-2.553 4.371-.304.502-.623.982-.943 1.468.143-.352.262-.647.274-.696.407-1.447.34-4.48-1.061-5.411a1.992 1.992 0 0 0-2.845.824c-.554 1.052-.228 2.477.249 3.493.477 1.015 2.064 2.432 2.62 2.915-.34.483-.681.973-1.033 1.426-.246.304-.462.608-.73.912l-.76.878c-.504.541-1.024 1.1-1.52 1.615-.349.361-.687.699-1.027 1.04.304-.496.893-1.478.933-1.566a7.734 7.734 0 0 0 .523-3.867c.061-.134.109-.274.146-.417a1.992 1.992 0 0 0-1.572-2.51c-1.666-.238-3.733 1.981-4.393 3.343-.036.082-.362.991-.559 1.572.064-.359.131-.705.191-1.073.125-.73.228-1.46.341-2.247l.128-1.155c.042-.389.054-.796.085-1.198.048-.936.051-1.884.033-2.842.639.106 2.909.459 4.001.176 1.091-.282 2.395-.936 2.851-2.033a1.985 1.985 0 0 0-1.179-2.718c-1.621-.502-4.001 1.395-4.843 2.611-.052.076-.568 1.03-.839 1.563-.015-.578-.027-1.15-.061-1.733-.097-1.678-.249-3.371-.392-5.065-.046-.52-.082-1.036-.122-1.553.225.042 2.919.517 4.141.2 1.085-.28 2.392-.936 2.851-2.033a1.983 1.983 0 0 0 .015-1.622 2 2 0 0 0-1.194-1.096c-1.611-.486-3.992 1.395-4.846 2.63a44.712 44.712 0 0 0-.976 1.823 71.68 71.68 0 0 1-.191-3.398 34.887 34.887 0 0 1 .152-4.56c.103.018 2.909.526 4.162.203 1.088-.28 2.395-.936 2.851-2.033a1.985 1.985 0 0 0-1.179-2.718c-1.609-.49-3.989 1.395-4.846 2.63-.055.082-.608 1.127-.876 1.632l-.091-.027c.189-1.516.515-3.012.973-4.47.24-.805.517-1.562.802-2.291.511.149 2.864.8 4.022.632 1.159-.167 2.484-.669 3.059-1.705a1.993 1.993 0 0 0-.873-2.834c-1.547-.662-4.119.949-5.107 2.083-.052.06-.529.748-.87 1.252.134-.328.268-.669.402-.979.498-1.17 1.03-2.21 1.52-3.128.276-.52.535-.982.781-1.413.581-.119 2.909-.608 3.846-1.29.936-.68 1.894-1.735 1.924-2.924a1.994 1.994 0 0 0-.568-1.52 2 2 0 0 0-1.511-.59c-1.678.125-3.22 2.736-3.572 4.199-.031.127-.283 2.155-.25 2.149h.034c-.246.41-.505.854-.778 1.344-.499.912-1.055 1.94-1.584 3.103a35.901 35.901 0 0 0-1.52 3.834 26.253 26.253 0 0 0-1.113 4.505.251.251 0 0 1 0 .055 61.333 61.333 0 0 0-.383-1.94c-.459-1.431-2.189-3.927-3.87-3.927a1.988 1.988 0 0 0-1.921 2.255c.118 1.183 1.176 2.192 2.128 2.776 1.082.66 3.806.99 4.022 1.015a34.944 34.944 0 0 0-.262 4.697c0 .912.037 1.824.082 2.757a29.98 29.98 0 0 0-.176-.842c-.459-1.432-2.189-3.924-3.87-3.927a1.988 1.988 0 0 0-1.921 2.25c.118 1.182 1.176 2.191 2.128 2.775.951.583 3.289.912 3.903 1l.061 1.06c.106 1.697.219 3.39.28 5.056.024.587.021 1.165.024 1.742-.073-.37-.14-.68-.155-.73-.459-1.428-2.186-3.924-3.87-3.927a1.99 1.99 0 0 0-1.918 2.259c.115 1.182 1.176 2.191 2.128 2.775.951.584 3.064.888 3.794.985-.019.593-.034 1.186-.073 1.76-.04.39-.049.77-.107 1.162-.057.392-.103.769-.152 1.152-.124.726-.246 1.48-.383 2.188-.094.493-.191.961-.285 1.435a46.282 46.282 0 0 0-.086-1.824c-.237-1.483-1.565-4.21-3.228-4.465a1.992 1.992 0 0 0-2.24 1.94c-.061 1.185.83 2.343 1.69 3.067.945.793 3.481 1.52 3.797 1.605a100.917 100.917 0 0 1-2.046 8.132l1.049.447.027-.095a117.17 117.17 0 0 0 1.45-6.019c.167-.79.331-1.642.492-2.514.848.017 1.695-.014 2.539-.094.429 1.194 2.031 3.064 2.237 3.304-.565.56-1.121 1.1-1.653 1.605a105.466 105.466 0 0 1-4.539 4.05l1.149.49a102.219 102.219 0 0 0 5.879-5.65c.268.186 2.432 1.685 3.648 1.907 1.104.203 2.566.152 3.442-.65a2 2 0 0 0 .54-2.283 1.989 1.989 0 0 0-.474-.682c-1.255-1.115-4.207-.404-5.502.359-.076.043-.848.608-1.331 1 .249-.264.495-.517.75-.79.505-.538.995-1.092 1.52-1.684l.742-.894c.256-.304.487-.636.733-.955a42.215 42.215 0 0 0 1.599-2.35c.471.441 2.173 1.989 3.237 2.356 1.064.368 2.515.538 3.503-.124a2 2 0 0 0 .907-1.345 1.98 1.98 0 0 0-.394-1.574c-1.073-1.295-4.095-1.036-5.49-.48-.088.034-1.046.547-1.562.84.304-.487.608-.974.912-1.478.845-1.453 1.653-2.952 2.468-4.442.249-.456.501-.91.754-1.362.167.158 2.149 2.04 3.344 2.453 1.058.365 2.511.539 3.499-.124a2.001 2.001 0 0 0 .909-1.344 1.998 1.998 0 0 0-.392-1.575c-1.076-1.295-4.098-1.036-5.494-.48a45.74 45.74 0 0 0-1.824.988c.557-1 1.119-1.988 1.715-2.942a35.248 35.248 0 0 1 2.636-3.71c.076.077 2.128 2.05 3.359 2.472 1.061.365 2.514.538 3.499-.124a2 2 0 0 0 .909-1.344 1.998 1.998 0 0 0-.392-1.575c-1.073-1.295-4.098-1.036-5.494-.48a68.87 68.87 0 0 0-1.632.878l-.061-.076a25.85 25.85 0 0 1 3.277-3.189 30.33 30.33 0 0 1 1.934-1.468c.346.404 1.948 2.247 3.006 2.736 1.058.49 2.432.812 3.493.261a1.993 1.993 0 0 0 1.113-2.061 2 2 0 0 0-.28-.78c-.912-1.408-3.952-1.484-5.405-1.083-.079.021-.857.334-1.417.565.304-.197.59-.41.873-.608a45.812 45.812 0 0 1 4.417-2.523c.547.222 2.766 1.088 3.916 1.046 1.149-.043 2.538-.404 3.219-1.377a1.982 1.982 0 0 0 .358-1.558 1.99 1.99 0 0 0-.905-1.318Z"/></g><g opacity=".2" fill="#0F6A08"><path d="M51.963 17.38c-.912.96-3.648 2.055-3.648 2.058 0 .003-.173-2.027-.167-2.158.063-1.502 1.073-4.363 2.696-4.81a1.991 1.991 0 0 1 2.432 1.67c.21 1.17-.544 2.425-1.313 3.24ZM24.733 29.686c0 .027-1.261-1.593-1.328-1.706-.775-1.289-1.517-4.231-.404-5.484a1.99 1.99 0 0 1 2.96.043c.812.87.876 2.328.685 3.435-.225 1.283-1.91 3.712-1.913 3.712Z"/><path d="M12.43 23.296c1.469-.82 4.196.508 5.296 1.52.095.088 1.423 1.642 1.396 1.654h-.034c.432.203.894.431 1.392.69.912.483 1.95 1.036 3.04 1.714a36.244 36.244 0 0 1 3.39 2.356c1.214.958 2.34 2.02 3.368 3.174l.034.046c-.2-.45-.72-1.73-.751-1.824-.404-1.447-.34-4.481 1.06-5.412a1.992 1.992 0 0 1 2.85.824c.553 1.05.227 2.478-.25 3.493-.538 1.146-2.63 2.925-2.797 3.065a35.25 35.25 0 0 1 2.812 3.772c.499.763.98 1.55 1.454 2.344-.165-.395-.304-.748-.304-.8-.405-1.447-.341-4.48 1.06-5.41a1.992 1.992 0 0 1 2.849.823c.553 1.052.228 2.478-.25 3.493-.477 1.016-2.237 2.584-2.705 2.988.18.304.359.608.535.912.848 1.475 1.687 2.95 2.554 4.369.304.502.626.985.942 1.468-.143-.35-.258-.647-.274-.693-.404-1.447-.34-4.48 1.061-5.411a1.992 1.992 0 0 1 2.849.824c.553 1.049.228 2.477-.25 3.493-.477 1.015-2.067 2.432-2.62 2.912.34.486.681.973 1.03 1.429.25.304.466.608.73.912l.763.875c.505.541 1.022 1.1 1.52 1.618.35.358.69.696 1.03 1.036a59.677 59.677 0 0 1-.935-1.565 7.698 7.698 0 0 1-.52-3.867 2.487 2.487 0 0 1-.15-.414 1.991 1.991 0 0 1 1.579-2.508c1.666-.24 3.733 1.982 4.392 3.344.04.08.365.991.56 1.569-.064-.359-.128-.702-.189-1.073-.124-.727-.228-1.46-.343-2.244-.04-.383-.082-.766-.125-1.155-.042-.389-.055-.8-.085-1.216a42.052 42.052 0 0 1-.036-2.842c-.639.11-2.91.459-4.001.18-1.091-.28-2.393-.94-2.852-2.035a1.993 1.993 0 0 1 1.18-2.72c1.611-.487 3.991 1.395 4.846 2.63.054.078.568 1.033.842 1.562.015-.575.024-1.15.06-1.73.098-1.678.247-3.374.393-5.068.042-.517.079-1.033.121-1.553-.228.042-2.918.517-4.14.203-1.089-.28-2.396-.939-2.852-2.033a1.988 1.988 0 0 1 1.18-2.718c1.608-.49 3.988 1.392 4.846 2.626.063.095.802 1.469.972 1.825.088-1.137.164-2.274.195-3.4a35.007 35.007 0 0 0-.152-4.544c-.107.018-2.913.529-4.165.207-1.085-.28-2.392-.94-2.852-2.034a1.995 1.995 0 0 1 1.18-2.736c1.611-.486 3.992 1.395 4.846 2.63.058.082.608 1.13.878 1.632l.092-.027a25.753 25.753 0 0 0-.976-4.47 30.108 30.108 0 0 0-.8-2.291c-.514.149-2.866.8-4.025.635-1.11-.158-2.48-.669-3.058-1.708a1.99 1.99 0 0 1 .876-2.83c1.547-.663 4.119.945 5.104 2.079.054.06.529.748.87 1.252-.135-.325-.265-.666-.4-.979a41.567 41.567 0 0 0-1.52-3.125c-.273-.52-.534-.985-.78-1.416-.581-.119-2.91-.608-3.843-1.286-.933-.678-1.903-1.721-1.927-2.913a1.995 1.995 0 0 1 2.08-2.112c1.677.124 3.218 2.735 3.571 4.2.03.125.283 2.156.252 2.15h-.036c.246.41.508.854.781 1.344a46.94 46.94 0 0 1 1.581 3.104 34.657 34.657 0 0 1 1.52 3.836c.494 1.46.857 2.962 1.082 4.487v.055c.08-.486.35-1.84.383-1.94.471-1.444 2.186-3.927 3.882-3.93a1.995 1.995 0 0 1 1.922 2.258c-.119 1.18-1.18 2.192-2.128 2.776-1.08.656-3.803.988-4.022 1.012.193 1.558.281 3.127.264 4.697 0 .912-.04 1.824-.082 2.757.082-.416.161-.79.176-.842.46-1.432 2.186-3.925 3.87-3.928a1.995 1.995 0 0 1 1.922 2.26c-.119 1.179-1.18 2.191-2.128 2.775-.949.583-3.29.912-3.904 1-.021.352-.036.705-.06 1.06-.107 1.697-.22 3.39-.28 5.053-.022.587-.022 1.165-.025 1.745.077-.37.14-.684.156-.73.458-1.431 2.188-3.927 3.87-3.927a1.988 1.988 0 0 1 1.92 2.256c-.118 1.182-1.176 2.191-2.127 2.775-.952.584-3.065.888-3.794.985 0 .593.03 1.186.073 1.76.036.392.045.77.106 1.162.06.392.1.772.152 1.152.122.73.243 1.48.383 2.189.091.495.189.963.286 1.434 0-.583.067-1.726.082-1.823.237-1.484 1.569-4.21 3.232-4.47a1.988 1.988 0 0 1 2.237 1.94c.064 1.186-.83 2.344-1.687 3.067-.946.797-3.484 1.52-3.8 1.606a101.506 101.506 0 0 0 2.049 8.135l-1.052.447c0-.034 0-.064-.024-.098a104.375 104.375 0 0 1-1.454-6.019 88.769 88.769 0 0 1-.489-2.514c-.848.02-1.697-.012-2.541-.094-.426 1.195-2.028 3.064-2.238 3.304a101.517 101.517 0 0 0 6.196 5.654l-1.189.493c-1.08-.957-2.49-2.25-4.083-3.821a116.571 116.571 0 0 1-1.796-1.824c-.265.182-2.432 1.684-3.648 1.906-1.107.2-2.57.149-3.442-.654a1.988 1.988 0 0 1-.07-2.96c1.259-1.12 4.208-.408 5.503.355.076.046.851.626 1.331 1-.249-.264-.495-.517-.747-.79a67.616 67.616 0 0 1-1.52-1.684l-.742-.894c-.256-.304-.487-.636-.733-.955a39.748 39.748 0 0 1-1.596-2.35c-.474.444-2.173 1.989-3.24 2.356-1.067.368-2.515.538-3.5-.124a1.987 1.987 0 0 1-.516-2.916c1.073-1.298 4.098-1.04 5.493-.483.085.036 1.043.55 1.563.842-.304-.49-.608-.976-.912-1.477-.843-1.453-1.654-2.952-2.466-4.442-.25-.459-.505-.912-.757-1.365-.164.161-2.15 2.04-3.344 2.454-1.06.367-2.514.538-3.502-.122a1.991 1.991 0 0 1-.514-2.918c1.073-1.298 4.098-1.04 5.49-.48.107.039 1.481.78 1.825.984a67.584 67.584 0 0 0-1.715-2.94 34.31 34.31 0 0 0-2.633-3.708c-.079.073-2.128 2.046-3.344 2.468-1.06.365-2.514.538-3.502-.124a1.988 1.988 0 0 1-.526-2.907c1.073-1.298 4.095-1.04 5.49-.483.092.037 1.14.608 1.633.879l.06-.073a25.628 25.628 0 0 0-3.276-3.192 29.782 29.782 0 0 0-1.934-1.469c-.346.408-1.948 2.247-3.006 2.736-1.013.484-2.432.812-3.49.265a1.99 1.99 0 0 1-.836-2.846c.927-1.404 3.952-1.48 5.408-1.079.079.021.854.332 1.417.566-.304-.201-.59-.41-.873-.608a46.597 46.597 0 0 0-2.985-1.779c-.517-.267-.973-.517-1.435-.735-.547.221-2.767 1.088-3.916 1.048-1.149-.04-2.538-.404-3.222-1.377a1.995 1.995 0 0 1 .575-2.91Z"/></g><path d="M108.412 36.28H44.56c-1.02 0-1.848.828-1.848 1.849v96.319c0 1.021.827 1.848 1.848 1.848h63.852a1.848 1.848 0 0 0 1.849-1.848v-96.32c0-1.02-.828-1.848-1.849-1.848Z" fill="#263238" stroke="#263238" stroke-width=".5" stroke-linecap="round" stroke-linejoin="round"/><path d="M106.826 38.535H46.144v93.909h60.682V38.535Z" fill="#fff" stroke="#263238" stroke-width=".5" stroke-linecap="round" stroke-linejoin="round"/><path d="M81.594 28.4a.514.514 0 0 1-.514-.514v-2.903a1.097 1.097 0 0 0-1.1-1.097H75.3a1.094 1.094 0 0 0-1.097 1.097v2.903a.514.514 0 0 1-.516.514.514.514 0 0 0-.514.517v7.867h8.937v-7.867a.518.518 0 0 0-.516-.517Zm-3.952-.27a1.44 1.44 0 1 1 0-2.882 1.44 1.44 0 0 1 0 2.882Z" fill="#263238" stroke="#263238" stroke-width=".5" stroke-linecap="round" stroke-linejoin="round"/><path d="M66.311 34.282H88.97a2.63 2.63 0 0 1 2.63 2.63v2.322H63.681v-2.322a2.63 2.63 0 0 1 2.63-2.63Z" fill="#fff" stroke="#263238" stroke-width=".5" stroke-linecap="round" stroke-linejoin="round"/><path d="M64.375 35.14h26.521a2.625 2.625 0 0 0-1.94-.858H66.311a2.616 2.616 0 0 0-1.936.858Z" fill="#263238" stroke="#263238" stroke-width=".5" stroke-linecap="round" stroke-linejoin="round"/><path d="M91.598 39.21H63.682v1.626h27.916V39.21Z" fill="#fff" stroke="#263238" stroke-width=".5" stroke-linecap="round" stroke-linejoin="round"/><path d="M84.959 62.898h4.712M52.279 62.898H81.31M77.967 66.546H89.67M60.03 66.546h14.745M52.279 66.546h5.016M66.87 70.194h22.8M52.279 70.194h9.576M100.463 70.194a3.952 3.952 0 1 0 0-7.905 3.952 3.952 0 0 0 0 7.905ZM56.99 79.162H52.28M89.67 79.162H60.64M63.983 82.81H52.279M81.919 82.81H67.175M89.67 82.81h-5.015M75.079 86.458h-22.8M89.67 86.458h-9.575M100.463 86.458a3.952 3.952 0 1 0 0-7.905 3.952 3.952 0 0 0 0 7.905ZM84.959 95.426h4.712M52.279 95.426H81.31M77.967 99.074H89.67M60.03 99.074h14.745M52.279 99.074h5.016M66.87 102.722h22.8M52.279 102.722h9.576M100.463 102.722a3.952 3.952 0 1 0 0-7.904 3.952 3.952 0 0 0 0 7.904Z" stroke="#263238" stroke-miterlimit="10"/><path d="m98.958 81.849 1.073 1.91 4.059-3.938M98.958 65.412l1.073 1.913 4.059-3.94M98.39 97.357l1.073 1.912 4.058-3.94" stroke="#0F6A08" stroke-miterlimit="10" stroke-linecap="round"/><path d="M134.304 124.811a5.706 5.706 0 1 0 0-11.414 5.706 5.706 0 0 0 0 11.414Z" fill="#0F6A08"/><path d="M132.501 118.037h-1.827a.291.291 0 0 0-.291.292v3.514c0 .161.13.292.291.292h1.827a.292.292 0 0 0 .292-.292v-3.514a.292.292 0 0 0-.292-.292ZM137.752 118.63c.608-.912-.228-1.167-.228-1.167h-2.201l.036-.192s.192-1.495-.058-1.954c-.249-.459-1.149-.651-1.185-.478-.037.174.018.937-.058 1.359a13.815 13.815 0 0 1-.842 2.01.514.514 0 0 1-.134.137v3.407a.876.876 0 0 0 .499.131h3.195a.728.728 0 0 0 .531-.644.722.722 0 0 0-.033-.292.934.934 0 0 0 .42-1.092c.766-.65.058-1.225.058-1.225Z" fill="#fff"/><path d="M16.999 54.193a9.35 9.35 0 0 0 7.732-10.729 9.351 9.351 0 1 0-7.732 10.728Z" fill="#0F6A08"/><path d="M12.546 43.21H9.55a.477.477 0 0 0-.478.478v5.758c0 .264.214.477.478.477h2.997a.477.477 0 0 0 .477-.477v-5.758a.477.477 0 0 0-.477-.477ZM21.15 44.184c1.003-1.475-.378-1.916-.378-1.916h-3.608l.064-.304s.304-2.432-.095-3.2c-.398-.77-1.881-1.068-1.933-.794-.052.273.033 1.538-.094 2.228-.128.69-1.216 3.013-1.38 3.295a.957.957 0 0 1-.216.222V49.3c.242.152.525.227.811.216h5.23a1.217 1.217 0 0 0 .817-1.538c1.097-.785.69-1.788.69-1.788 1.253-1.067.091-2.006.091-2.006Z" fill="#fff"/><path d="M86.686 22.955a5.706 5.706 0 1 0 0-11.412 5.706 5.706 0 0 0 0 11.412Z" fill="#0F6A08"/><path d="M84.883 16.179h-1.827a.292.292 0 0 0-.292.292v3.514c0 .161.13.292.292.292h1.827c.161 0 .292-.131.292-.292V16.47a.292.292 0 0 0-.292-.292ZM90.133 16.772c.608-.912-.228-1.167-.228-1.167h-2.201l.037-.192s.191-1.493-.058-1.952c-.25-.459-1.146-.65-1.186-.477-.04.173.018.936-.058 1.359-.228.69-.51 1.362-.842 2.01a.548.548 0 0 1-.133.136v3.405c.148.094.322.14.498.134h3.195a.743.743 0 0 0 .499-.94.933.933 0 0 0 .42-1.091c.765-.65.057-1.225.057-1.225Z" fill="#fff"/><path d="m58.666 121.251-3.092 18.748 4.74-5.356 5.15 5.563-1.855-19.368-4.943.413Z" fill="#0F6A08" stroke="#263238" stroke-width=".5" stroke-miterlimit="10"/><path d="m61.35 121.409.788 18.984 3.55-6.207 6.174 4.399-5.751-18.587-4.76 1.411Z" fill="#0F6A08" stroke="#263238" stroke-width=".5" stroke-miterlimit="10"/><path d="M72.893 117.344c0-.547 1.17-1.173 1.094-1.699-.075-.526-1.377-.812-1.52-1.322-.142-.511.794-1.453.569-1.94-.225-.486-1.547-.386-1.824-.839-.277-.453.353-1.614 0-2.018-.353-.405-1.593.066-2-.286-.408-.353-.113-1.648-.566-1.943-.453-.295-1.52.514-2 .289-.48-.225-.572-1.547-1.091-1.702-.52-.155-1.299.912-1.824.845-.526-.067-.98-1.326-1.52-1.326-.542 0-1 1.25-1.52 1.326-.52.076-1.323-.994-1.824-.845-.502.149-.608 1.48-1.092 1.702-.483.222-1.547-.578-2-.289-.453.289-.158 1.59-.566 1.943-.407.352-1.647-.122-2.003.286-.356.407.304 1.565 0 2.021-.304.456-1.617.344-1.842.836-.225.493.723 1.417.571 1.94-.152.523-1.45.781-1.52 1.322-.07.541 1.095 1.152 1.095 1.699 0 .548-1.17 1.171-1.095 1.7.076.529 1.377.811 1.52 1.322.143.511-.793 1.453-.571 1.94.222.486 1.55.386 1.842.836.292.45-.356 1.614 0 2.021.356.408 1.593-.067 2 .286.408.353.113 1.648.566 1.94.453.291 1.52-.511 2-.286.48.225.572 1.547 1.092 1.699.52.152 1.298-.912 1.824-.842.525.07.981 1.326 1.52 1.326.538 0 1-1.25 1.52-1.326.52-.076 1.325.994 1.824.842.498-.152.607-1.477 1.09-1.699.484-.222 1.548.577 2.001.286.453-.292.158-1.587.566-1.94.407-.353 1.647.122 2-.286.353-.407-.304-1.565 0-2.021.304-.456 1.614-.344 1.842-.836.228-.493-.726-1.417-.571-1.94.155-.523 1.45-.784 1.52-1.322.07-.538-1.107-1.161-1.107-1.7Z" fill="#263238"/><path d="M62.168 125.85a8.515 8.515 0 1 0 0-17.03 8.515 8.515 0 0 0 0 17.03Z" fill="#fff" stroke="#263238" stroke-width=".5" stroke-linecap="round" stroke-linejoin="round"/><path d="M66.374 121.54a5.947 5.947 0 1 0-8.411-8.41 5.947 5.947 0 0 0 8.411 8.41Z" fill="#fff" stroke="#263238" stroke-width=".5" stroke-linecap="round" stroke-linejoin="round"/><path d="M62.177 121.996a4.676 4.676 0 1 0-.001-9.352 4.676 4.676 0 0 0 .001 9.352Z" fill="#0F6A08"/><path d="M60.7 116.444h-1.496a.24.24 0 0 0-.24.24v2.876c0 .133.107.24.24.24H60.7a.24.24 0 0 0 .24-.24v-2.876a.24.24 0 0 0-.24-.24ZM65.004 116.931c.502-.739-.188-.958-.188-.958h-1.803l.03-.158s.159-1.216-.045-1.599c-.204-.383-.942-.532-.973-.392-.03.14.015.769-.048 1.113a11.307 11.307 0 0 1-.69 1.647.401.401 0 0 1-.11.113v2.791a.723.723 0 0 0 .407.109h2.62a.614.614 0 0 0 .367-.299.604.604 0 0 0 .041-.47.762.762 0 0 0 .347-.894.61.61 0 0 0 .045-1.003Z" fill="#fff"/><path d="M116.678 91.443s-.17 7.767.088 10.242c.259 2.474 1.739 15.078 2.317 19.456.577 4.378.83 12.768.83 12.768s-.663.167-.663.745a7.494 7.494 0 0 1-.082 1.079c-.37.457-.786.874-1.243 1.243-.499.332-3.232.994-2.818 1.657.413.663 6.961.331 6.961.331s-2.155.995-3.399 1.244c-1.243.249-.826 1.325.745 1.407 1.572.082 3.481.25 5.223.25s2.487-.663 3.894-.745c1.408-.082 1.906-.085 2.156-.249.249-.165.413-2.569.413-2.569l-.331-2.405s1.635-8.652.994-14.501a71.375 71.375 0 0 1 .416-17.884s1.602-5.597 1.347-8.068c-.255-2.472-.678-5.098-.678-5.098l-15.747.52-.423.577Z" fill="#263238" stroke="#263238" stroke-width=".5" stroke-linecap="round" stroke-linejoin="round"/><path d="M122.141 67.67s-2.885 2.183-3.709 3.667c-.824 1.483-.869 9.7-.957 11.998-.088 2.299-.931 5.33-.912 6.63.018 1.302-.046 2.913 4.478 2.907 4.523-.006 10.895-.945 11.658-1.556.763-.612 1.067-.694 1.408-2.02.34-1.325 2.699-10.162 2.936-12.965.237-2.803.146-4.076-2.274-7.685-2.42-3.608-5.478-4.137-5.478-4.137l-5.606 2.25-1.544.911Z" fill="#fff" stroke="#263238" stroke-width=".5" stroke-linecap="round" stroke-linejoin="round"/><path d="m122.141 67.67.131 2.78-3.524 17.814 1.426 3.556 3.077-3.809-.186-17.741 1.301-1.763-.681-1.748-1.544.912Z" fill="#263238" stroke="#263238" stroke-width=".5" stroke-linecap="round" stroke-linejoin="round"/><path d="m123.293 65.546-1.252.708-1.28 2.94 1.38-1.523.639.264 1.617-1.66-1.104-.73Z" fill="#fff" stroke="#263238" stroke-width=".5" stroke-linecap="round" stroke-linejoin="round"/><path d="M119.347 52.942s-.018 3.828.101 4.496c.118.67.036 2.07.644 3.101.608 1.03 1.143 3.064 1.593 3.344.379.2.791.33 1.216.38l.35 2.943 5.341-4.186-.252-3.092a2.755 2.755 0 0 0 .833-1.918c.021-1.216-.101-1.921-.687-2.128a3.41 3.41 0 0 1-1.043-.642l.459-2.106s1.14-1.581-2.189-2.168c-3.329-.587-6.116.924-6.366 1.976Z" fill="#fff" stroke="#263238" stroke-width=".5" stroke-linecap="round" stroke-linejoin="round"/><path d="M118.134 51.954s-.155.833 2.736 1.669c2.891.836 4.445.726 4.445.726s-.407.28-.07.541c.21.16.45.276.705.344 0 0 .128 2.35.383 2.432.256.082.739-.195.739-.195s-.067-.912.447-1.246c.295-.188.628-.309.976-.353 0 0 .89-3.648-.231-4.879-1.122-1.231-2.578-1.572-6.004-1.012-3.426.56-4.439 1.568-4.126 1.973Z" fill="#263238" stroke="#263238" stroke-width=".5" stroke-linecap="round" stroke-linejoin="round"/><path d="m122.36 60.274-1.134.116-.112-3.14-.852-.94-.623-.207M121.7 61.57c.345.018.691.005 1.034-.037.333-.053.662-.123.988-.21 0 0-.775.696-1.338.806-.562.11-.684-.56-.684-.56ZM122.889 64.275s.046.103.705-.156a7.312 7.312 0 0 0 1.538-1.003M124.382 55.95c-.66-.24-2.344.198-2.344.198" stroke="#263238" stroke-width=".5" stroke-linecap="round" stroke-linejoin="round"/><path d="M123.728 57.408c.015.246-.082.453-.219.462-.137.009-.261-.183-.28-.429-.018-.246.079-.45.219-.462.14-.012.28.173.28.429ZM120.852 57.59c0 .246-.082.453-.219.462-.137.01-.261-.18-.279-.425-.019-.247.079-.454.218-.463.14-.009.262.183.28.426Z" fill="#263238"/><path d="m123.12 66.612 1.423 2.627 5.517-5.22-1.079-1.286-5.861 3.88Z" fill="#fff" stroke="#263238" stroke-width=".5" stroke-linecap="round" stroke-linejoin="round"/><path d="m108.142 74.775 10.187 1.678 1.566 13.21-9.178-1.457-2.575-13.43Z" fill="#0F6A08" stroke="#263238" stroke-width=".5" stroke-miterlimit="10"/><path d="M108.577 77.733s-.663.055-.83.55a1.393 1.393 0 0 0 .167 1.271c.222.277 1.271.608 1.824.441.553-.167.72-.608.331-.881a3.949 3.949 0 0 0-1.158-.444l-.334-.937Z" fill="#fff" stroke="#263238" stroke-width=".5" stroke-linecap="round" stroke-linejoin="round"/><path d="M107.92 79.554s-.222.717.164 1.103 1.438.499 1.769.113c.332-.386-.112-.775-.112-.775s-1.441-.11-1.821-.441ZM108.245 81.168s-.054 1.158.386 1.657c.441.498.94.222.83-.222a2.824 2.824 0 0 0-.331-.772l-.885-.663Z" fill="#fff" stroke="#263238" stroke-width=".5" stroke-linecap="round" stroke-linejoin="round"/><path d="M108.078 80.657a.915.915 0 0 0 .389.885c.496.331 1.216.663 1.435.167a1.05 1.05 0 0 0 .082-.476 1.051 1.051 0 0 0-.137-.463s-1.106.276-1.769-.113Z" fill="#fff" stroke="#263238" stroke-width=".5" stroke-linecap="round" stroke-linejoin="round"/><path d="m110.756 75.538.085.538 5.026.882v-.818a.692.692 0 0 0-.484-.66l-.565-.18-.116-.404a.606.606 0 0 0-.483-.431l-1.842-.304a.61.61 0 0 0-.709.608h-.194a.692.692 0 0 0-.718.769Z" fill="#263238" stroke="#263238" stroke-width=".5" stroke-linecap="round" stroke-linejoin="round"/><path d="M121.883 82.533s-.687-.744-.997-.994c-.31-.249-1.995-.249-1.995-.249v1.058s-2.614.185-3.362.304c-.748.118-.872.498-.684.812.189.313 2.055.124 2.055.124l.933.125s-1.431.374-1.869.435c-.438.06-1.307 0-1.307.304s.124.495.808.559c.684.064 1.809.06 2.554.25.745.188-1.243.303-1.806.303-.562 0-.608.499-.249.624.359.124 1.559.303 1.559.303.45.25.932.439 1.432.56.934.25.304.124 2.365 0a13.16 13.16 0 0 0 2.992-.435l.061-2.867-1.931-.608-.559-.608Z" fill="#fff" stroke="#263238" stroke-width=".5" stroke-linecap="round" stroke-linejoin="round"/><path d="m118.891 82.348 1.122.125M117.523 86.522l1.867.06" stroke="#263238" stroke-width=".5" stroke-linecap="round" stroke-linejoin="round"/><path d="m124.373 83.78-.25 3.55 1.307.064.125-3.55-1.182-.065Z" fill="#fff" stroke="#263238" stroke-width=".5" stroke-linecap="round" stroke-linejoin="round"/><path d="M131.936 65.968c.933.304 6.205 3.344 6.205 6.007s-.745 12.768-.994 15.12c-.25 2.354-.998 1.87-3.676 1.87s-6.724-.124-7.472-.437a.985.985 0 0 1-.563-1.122l.116-3.563s.188-.873.812-.997c.623-.125 4.66.45 4.66.45s.748-6.789.872-8.096c.125-1.307-.346-3.648.651-4.204" fill="#fff"/><path d="M131.936 65.968c.933.304 6.205 3.344 6.205 6.007s-.745 12.768-.994 15.12c-.25 2.354-.998 1.87-3.676 1.87s-6.724-.124-7.472-.437a.985.985 0 0 1-.563-1.122l.116-3.563s.188-.873.812-.997c.623-.125 4.66.45 4.66.45s.748-6.789.872-8.096c.125-1.307-.346-3.648.651-4.204" stroke="#263238" stroke-width=".5" stroke-linecap="round" stroke-linejoin="round"/><path d="M133.964 85.275c-.934-.374-2.94-1.98-2.94-1.98s2.368.624 2.678.563" stroke="#263238" stroke-width=".5" stroke-linecap="round" stroke-linejoin="round"/></svg>