<svg width="317" height="212" fill="none" xmlns="http://www.w3.org/2000/svg"><path d="M38.843 61.225c-1.724 39.089 16.142 67.785 52.41 96.905 31.155 25.016 67.027 33.412 107.536 33.954 22.921.306 48.78-6.419 66.312-18.181 17.532-11.762 30.402-31.176 30.17-51.791-.233-20.615-15.736-41.18-36.819-44.427-21.302-3.282-42.554 10.333-63.822 6.911-15.419-2.48-27.846-13.5-37.618-25.27-9.772-11.77-18.073-24.931-30.056-34.624-9.975-8.056-22.515-13.462-35.504-13.92-12.988-.458-26.378 4.333-34.996 13.746-.034 0-16.679 15.455-17.613 36.697Z" fill="#F5F5F5"/><path d="M134.64 37.842a47.593 47.593 0 0 0-19.552 19.516 47.798 47.798 0 0 0-5.451 27.123 47.743 47.743 0 0 0 10.489 25.59 47.498 47.498 0 0 0 22.892 15.433 47.318 47.318 0 0 0 22.551 1.283 47.397 47.397 0 0 0 20.59-9.318l40.04 50.244 6.124-4.897-40.377-50.668a47.478 47.478 0 0 0 10.414-18.232 47.806 47.806 0 0 0-1.173-31.343 47.643 47.643 0 0 0-16.034-20.988 47.393 47.393 0 0 0-50.513-3.743Zm33.903 4.04a39.69 39.69 0 0 1 21.432 16.03 39.9 39.9 0 0 1-5.061 50.244 39.623 39.623 0 0 1-24.195 11.404 39.583 39.583 0 0 1-25.915-6.582 39.791 39.791 0 0 1-15.87-21.58 39.916 39.916 0 0 1 1.38-26.782 39.756 39.756 0 0 1 18.004-19.824 39.3 39.3 0 0 1 30.225-2.909Z" fill="#455A64"/></svg>