<svg width="225" height="225" fill="none" xmlns="http://www.w3.org/2000/svg"><path d="M21.141 111.812h61.227V18.414H21.141v93.398Z" fill="#EBEBEB"/><path d="M56.489 63.692h25.879V22.148h-25.88v41.544ZM27.783 63.692h25.88V22.148h-25.88v41.544ZM56.489 108.067h25.879V66.523h-25.88v41.544ZM27.783 108.067h25.88V66.523h-25.88v41.544Z" fill="#fff"/><path d="M44.761 18.41h-23.62v133.622h13.671l-9.54-67.995 19.49-65.628Z" fill="#DBDBDB"/><path d="m40.671 22.023-3.744 15.529-3.812 15.516-7.627 31.023.005-.076 3.527 32.422 1.765 16.213 1.687 16.218-1.908-16.195-1.84-16.205-3.677-32.404v-.04l.009-.041 7.771-30.987 3.889-15.494 3.955-15.48ZM22.55 24.763l.107 13.4.064 13.402.053 26.802-.053 26.797-.064 13.401-.108 13.401-.112-13.401-.063-13.401-.05-26.797.054-26.802.064-13.401.107-13.401Z" fill="#EBEBEB"/><path d="m26.964 27.274-.733 14.243-.797 14.242-1.584 28.476c.157 5.292.261 10.58.391 15.867l.374 15.867.373 15.867.302 15.872-.54-15.858-.45-15.867-.45-15.863c-.144-5.292-.32-10.58-.45-15.867l1.746-28.471.877-14.234.941-14.274Z" fill="#EBEBEB"/><path d="m30.038 145.633-1.549-15.372L27 114.88c-.959-10.256-1.957-20.506-2.88-30.766v-.059l4.378-23.945 2.219-11.96 2.25-11.962-2.066 11.997L28.8 60.17l-4.262 23.98v-.058c.982 10.256 1.886 20.515 2.831 30.775l1.35 15.39 1.319 15.377Z" fill="#EBEBEB"/><path d="M21.141 86.035h5.333v-3.114H21.14v3.114ZM58.752 18.41h23.62v133.622h-13.67l9.54-67.995-19.49-65.628Z" fill="#DBDBDB"/><path d="m62.843 22.023 3.955 15.48 3.888 15.493 7.771 30.987.014.04-.005.041-3.676 32.404-1.84 16.205-1.909 16.195 1.688-16.218 1.764-16.213 3.528-32.422.004.076-7.627-31.023-3.811-15.516-3.745-15.53ZM80.964 24.763l.112 13.4.064 13.402.049 26.802-.05 26.797-.063 13.401-.112 13.401-.108-13.401-.063-13.401-.054-26.797.054-26.802.063-13.401.108-13.401Z" fill="#EBEBEB"/><path d="m76.554 27.274.936 14.234.9 14.233 1.71 28.472c-.117 5.287-.292 10.575-.45 15.867l-.45 15.862-.45 15.908-.526 15.862.301-15.871.373-15.867.374-15.867c.135-5.288.234-10.575.391-15.867l-1.602-28.476-.796-14.243-.711-14.247Z" fill="#EBEBEB"/><path d="m73.476 145.634 1.31-15.395 1.35-15.39c.945-10.26 1.849-20.52 2.83-30.775v.076L74.7 60.17l-2.102-11.988-2.07-11.997 2.25 11.96 2.223 11.966 4.379 23.945v.058c-.927 10.26-1.921 20.511-2.88 30.767l-1.499 15.381-1.525 15.372Z" fill="#EBEBEB"/><path d="M82.368 82.917h-5.332v3.114h5.332v-3.114Z" fill="#DBDBDB"/><path d="M151.582 121.131v61.771h37.35v-61.771h-37.35Zm33.948 38.974h-30.559v-16.083h30.559v16.083Zm0-19.912h-30.559v-16.079h30.559v16.079Z" fill="#EBEBEB"/><path d="M203.854 121.131h-14.931v61.767h14.931v-61.767ZM162.234 124.114h-7.263v16.079h7.263v-16.079ZM185.756 179.248h-30.817v-15.781h30.817v15.781Zm-30.367-.45h29.917v-14.881h-29.917v14.881Z" fill="#DBDBDB"/><path d="M172.089 168.003h-6.03v3.051h6.03v-3.051Z" fill="#DBDBDB"/><path d="M174.1 171.054h-6.484v-3.042h6.484v3.042Zm-6.034-.45h5.584v-2.142h-5.584v2.142ZM162.234 144.026h-7.263v16.079h7.263v-16.079Z" fill="#DBDBDB"/><path d="M188.509 95.243c4.275 4.185 4.991 10.656 4.091 16.326-.023.13-.221.094-.221-.027 0-1.292.036-2.57.032-3.843l-.063-.171a8.613 8.613 0 0 1-2.777-2.984c-.715-1.404-.994-2.988-1.543-4.455-.05-.14.099-.099.198-.027 2.601 1.917 3.429 3.983 4.176 6.75a22.848 22.848 0 0 0-.45-4.293c-.563-2.614-1.674-5.21-3.551-7.15a.089.089 0 0 1-.02-.026.109.109 0 0 1-.008-.031.07.07 0 0 1 .004-.032.077.077 0 0 1 .015-.028.096.096 0 0 1 .026-.02.083.083 0 0 1 .091.01Z" fill="#A6A6A6"/><path d="M187.704 95.728c-.734.027-1.193 1.201-1.769 1.543a.544.544 0 0 1-.647.037.548.548 0 0 1-.162-.163c-.567-.792.211-1.773.944-2.317-.526.216-.958.594-1.525.702a.534.534 0 0 1-.688-.414c-.248-1.08 1.106-1.562 2.038-1.584-.45-.315-1.746-1.166-1.058-1.584.689-.419 2.21.796 2.7 1.197.729.59 1.598 1.471 1.629 2.394.045 1.08-.895.414-1.462.189Z" fill="#DBDBDB"/><path d="M187.92 95.908c-.941-.428-2.75.189-2.903-.167-.31-.724 1.134-1.22 1.913-1.318-.72-.194-2.093-.504-2.052-1.193.054-.846 2.11-.121 3.15.68 1.314 1.003 1.305 1.975 1.089 2.169-.297.265-1.044-.1-1.197-.171Z" fill="#EBEBEB"/><path d="M198.243 94.828c-4.428 4.019-5.4 10.458-4.707 16.16 0 .13.216.103.22 0 .05-1.292.059-2.57.113-3.843.027-.059.045-.113.072-.171a8.556 8.556 0 0 0 2.889-2.876c.765-1.377 1.107-2.947 1.71-4.392.054-.14-.099-.103-.198-.032-2.669 1.801-3.578 3.848-4.428 6.575.07-1.441.276-2.873.616-4.275.662-2.592 1.868-5.144 3.821-7.011.072-.09-.032-.207-.108-.135Z" fill="#A6A6A6"/><path d="M199.026 95.346c.734.054 1.152 1.242 1.71 1.606a.555.555 0 0 0 .429.138.547.547 0 0 0 .386-.232c.598-.77-.14-1.8-.855-2.354.517.239.936.63 1.498.76a.53.53 0 0 0 .702-.386c.288-1.071-1.044-1.602-1.975-1.66.45-.293 1.8-1.099 1.116-1.54-.684-.44-2.251.711-2.75 1.094-.747.562-1.647 1.408-1.715 2.33-.085 1.072.878.446 1.454.244Z" fill="#DBDBDB"/><path d="M198.81 95.517c.954-.392 2.736.292 2.903-.059.337-.71-1.085-1.26-1.859-1.386.725-.166 2.111-.423 2.093-1.116 0-.85-2.102-.202-3.15.558-1.35.954-1.377 1.926-1.17 2.129.265.274 1.021-.059 1.183-.126Z" fill="#EBEBEB"/><path d="M193.711 105.439a43.53 43.53 0 0 1-1.372 6.358.156.156 0 0 1-.068.101c-.035.023-.078.032-.119.023a.153.153 0 0 1-.1-.068.152.152 0 0 1-.023-.119c.288-1.962.819-3.883 1.111-5.85.324-1.977.444-3.982.36-5.984-.189-3.299-1.085-6.809-3.236-9.392-.049-.063.05-.148.099-.09 4.311 5.026 3.627 11.187 3.623 11.74.612-2.079 1.237-4.463 3.546-6.583.099-.094.18-.05.162.108-.414 3.856-1.485 5.872-3.722 7.938-.085.612-.162 1.228-.261 1.818Z" fill="#A6A6A6"/><path d="M190.206 91.084c-.774-.342-1.845.643-2.615.71a.626.626 0 0 1-.689-.289.655.655 0 0 1-.085-.25c-.193-1.107 1.108-1.728 2.143-1.93-.653-.037-1.292.134-1.931-.037a.615.615 0 0 1-.509-.774c.288-1.246 1.935-1.062 2.912-.62-.311-.55-1.224-2.084-.301-2.174.922-.09 1.894 1.94 2.205 2.605.45.977.899 2.331.485 3.303-.499 1.139-1.143-.022-1.615-.544Z" fill="#DBDBDB"/><path d="M190.35 91.381c-.761-.9-2.948-1.188-2.925-1.633.04-.9 1.8-.698 2.646-.405-.648-.563-1.917-1.575-1.526-2.25.477-.85 2.25.94 2.925 2.29.855 1.706.36 2.7.036 2.8-.459.103-1.044-.649-1.156-.802ZM196.551 106.605l1.899 14.526h-11.57c.239-1.287 2.394-14.544 2.394-14.544l7.277.018ZM201.74 197.654c0 5.076-39.952 9.189-89.24 9.189s-89.24-4.113-89.24-9.189 39.951-9.189 89.24-9.189c49.288 0 89.24 4.135 89.24 9.189Z" fill="#EBEBEB"/><path d="m21.141 182.898 22.842-.108 22.837-.04 45.68-.072 45.679.072 22.838.04 22.837.108-22.837.113-22.838.04-45.679.072-45.68-.072-22.837-.04-22.842-.113Z" fill="#263238"/><path d="M150.534 27.864H74.457a7.766 7.766 0 0 0-7.695 7.84v156.599a7.771 7.771 0 0 0 7.695 7.839h76.077a7.782 7.782 0 0 0 7.704-7.839v-156.6a7.774 7.774 0 0 0-7.704-7.839Zm2.889 159.602c0 4.122-3.087 7.456-6.894 7.456H78.471c-3.816 0-6.903-3.334-6.903-7.456V41.639c-.018-8.397 3.087-8.789 6.903-8.789h13.635c.792 0 1.44.9 1.44 2.016v.482c0 2.614 1.431 2.623 3.186 2.623h31.518c1.773 0 3.195 0 3.195-2.623v-.5c0-1.116.639-2.016 1.444-2.016h13.631c3.807 0 6.894 1.116 6.894 8.807l.009 145.827Z" fill="#37474F"/><path d="M153.423 41.639v145.827c0 4.122-3.087 7.456-6.894 7.456H78.471c-3.816 0-6.903-3.334-6.903-7.456V41.638c-.018-8.396 3.087-8.788 6.903-8.788h13.635c.792 0 1.44.9 1.44 2.016v.481c0 2.615 1.431 2.624 3.186 2.624h31.518c1.773 0 3.195 0 3.195-2.623v-.5c0-1.116.639-2.016 1.444-2.016h13.631c3.816.018 6.903 1.116 6.903 8.806Z" fill="#EBEBEB"/><path d="M153.423 41.639v61.299H71.55v-61.3c0-8.396 3.105-8.788 6.921-8.788h13.635c.792 0 1.44.9 1.44 2.016v.481c0 2.615 1.431 2.624 3.186 2.624h31.518c1.773 0 3.195 0 3.195-2.623v-.5c0-1.116.639-2.016 1.444-2.016h13.631c3.816.018 6.903 1.116 6.903 8.806Z" fill="#4B8F46"/><path d="m89.752 36.108-.13.13c-.027 0-.05.05-.076.077a1.754 1.754 0 0 0-1.27-.526 1.737 1.737 0 0 0-1.269.526l-.072-.076-.13-.13.166-.145c.119-.098.249-.181.388-.247.16-.081.331-.139.508-.171.085 0 .171 0 .257-.036h.395c.154.02.305.058.45.112a2.059 2.059 0 0 1 .622.36l.139.126h.022Z" fill="#fff"/><path d="M87.421 36.729a4.49 4.49 0 0 0-.207-.207 1.493 1.493 0 0 1 2.12 0l-.207.207a1.206 1.206 0 0 0-1.706 0Z" fill="#fff"/><path d="m88.92 36.936-.207.207a.59.59 0 0 0-.45-.18.608.608 0 0 0-.45.18l-.207-.207a.899.899 0 0 1 1.314 0ZM88.461 37.35a.184.184 0 0 1-.184.185.19.19 0 0 1-.201-.266.19.19 0 0 1 .2-.108.183.183 0 0 1 .172.117.185.185 0 0 1 .013.072ZM76.905 36.505a.544.544 0 1 1 1.088 0 .544.544 0 0 1-1.088 0ZM78.615 36.505a.544.544 0 1 1 1.088 0 .544.544 0 0 1-1.088 0ZM80.325 36.504a.544.544 0 1 1 1.088 0 .544.544 0 0 1-1.088 0ZM82.035 36.504a.544.544 0 1 1 1.088 0 .544.544 0 0 1-1.088 0ZM83.74 36.505a.544.544 0 1 1 1.088 0 .544.544 0 0 1-1.088 0ZM147.285 37.688h-4.419v-2.044h4.419v2.044Zm-4.194-.226h3.969V35.87h-3.96l-.009 1.593Z" fill="#fff"/><path d="M146.083 35.991h-2.848v1.35h2.848v-1.35ZM147.676 36.122h-.391v1.094h.391v-1.094ZM79.326 49.815l-2.416-2.263 2.416-2.264.374.396-1.99 1.868 1.99 1.867-.374.396ZM121.95 85.923a17.69 17.69 0 0 1-5.197 2.178 18.037 18.037 0 1 1 5.197-2.178Z" fill="#fff"/><path d="M117.977 68.53a5.483 5.483 0 0 1-9.368 3.876 5.48 5.48 0 0 1-1.183-5.981 5.483 5.483 0 0 1 8.947-1.77 5.485 5.485 0 0 1 1.604 3.875Z" fill="#4B8F46"/><path d="M121.95 83.664v2.25c-1.605 1-3.36 1.735-5.197 2.178a17.947 17.947 0 0 1-13.757-2.182v-2.25a9.474 9.474 0 0 1 9.477-9.477 9.477 9.477 0 0 1 9.477 9.477v.004Z" fill="#4B8F46"/><path d="M144.666 96.691H80.334v62.46h64.332v-62.46Z" fill="#fff"/><path d="m102.051 104.121-1.652 3.933a.188.188 0 0 1-.036.063l-.036.041a.157.157 0 0 0-.049.031c-.023 0-.036.036-.063.041h-.261a.125.125 0 0 1-.063-.041l-.05-.031a.218.218 0 0 0-.026-.041.195.195 0 0 1-.028-.063l-.9-2.092-.9 2.092a.195.195 0 0 1-.026.063l-.041.041a.076.076 0 0 0-.036.031.319.319 0 0 1-.054.041.1.1 0 0 0-.054 0h-.166a.104.104 0 0 0-.05 0 .149.149 0 0 1-.063-.041c-.022 0-.027-.027-.05-.031l-.035-.041s0-.04-.032-.063l-1.66-3.933a.37.37 0 1 1 .683-.283l1.319 3.123.873-2.07a.367.367 0 0 1 .351-.23.39.39 0 0 1 .351.23l.868 2.07 1.319-3.123a.381.381 0 0 1 .204-.201.372.372 0 0 1 .286.003.362.362 0 0 1 .077.481ZM103.135 107.915v-3.964a.375.375 0 0 1 .106-.266.38.38 0 0 1 .12-.081.39.39 0 0 1 .143-.027h2.205a.375.375 0 0 1 .264.638.385.385 0 0 1-.264.114h-1.827v1.233h1.571a.376.376 0 0 1 .24.628.376.376 0 0 1-.24.123h-1.571v1.238h1.827a.374.374 0 1 1 0 .747H103.5a.361.361 0 0 1-.264-.113.361.361 0 0 1-.101-.27ZM107.136 107.915v-3.964a.374.374 0 0 1 .636-.265.38.38 0 0 1 .115.265v3.6h1.827a.374.374 0 1 1 0 .747h-2.209a.354.354 0 0 1-.144-.03.362.362 0 0 1-.225-.353ZM110.457 105.854a2.474 2.474 0 0 1 2.475-2.43 2.551 2.551 0 0 1 1.561.526.397.397 0 0 1 .068.54.392.392 0 0 1-.255.146.392.392 0 0 1-.285-.069 1.696 1.696 0 0 0-1.089-.374 1.804 1.804 0 0 0-1.215.486 1.677 1.677 0 0 0-.491 1.175c0 .218.043.435.128.636.084.202.207.385.363.538.33.309.763.483 1.215.486a1.7 1.7 0 0 0 1.089-.369.408.408 0 0 1 .54.072.394.394 0 0 1-.068.54 2.517 2.517 0 0 1-1.561.527 2.467 2.467 0 0 1-2.475-2.43ZM119.461 104.148a2.486 2.486 0 0 1 0 3.416 2.24 2.24 0 0 1-1.615.72 2.284 2.284 0 0 1-1.652-.72 2.517 2.517 0 0 1-.67-1.708c0-.633.24-1.243.67-1.708.211-.228.466-.41.75-.535a2.19 2.19 0 0 1 2.517.535Zm-.09 1.706a1.728 1.728 0 0 0-.45-1.179 1.454 1.454 0 0 0-2.16 0 1.717 1.717 0 0 0-.45 1.179c-.007.435.154.856.45 1.174a1.452 1.452 0 0 0 1.08.486 1.451 1.451 0 0 0 1.08-.486c.295-.32.456-.74.45-1.174ZM125.266 103.951v3.982a.38.38 0 0 1-.113.262.38.38 0 0 1-.528.001.363.363 0 0 1-.081-.121.364.364 0 0 1-.029-.142v-2.844l-.972 1.35a.36.36 0 0 1-.302.158.365.365 0 0 1-.174-.041.365.365 0 0 1-.136-.117l-.968-1.35v2.844a.373.373 0 1 1-.747 0v-3.982a.374.374 0 0 1 .369-.374.357.357 0 0 1 .297.158l1.35 1.863 1.35-1.863a.377.377 0 0 1 .131-.117.378.378 0 0 1 .437.069c.071.07.113.164.116.264ZM126.562 107.915v-3.964a.375.375 0 0 1 .106-.266.373.373 0 0 1 .263-.108h2.219a.372.372 0 0 1 .26.637.387.387 0 0 1-.26.115h-1.832v1.233h1.575a.379.379 0 0 1 .241.628.379.379 0 0 1-.241.123h-1.575v1.238h1.832a.373.373 0 1 1 0 .747h-2.21a.372.372 0 0 1-.378-.383Z" fill="#263238"/><path d="M87.858 119.359v-1.593a.148.148 0 0 1 .148-.149h.9a.155.155 0 0 1 .091.052.155.155 0 0 1 .036.099.15.15 0 0 1-.036.098.151.151 0 0 1-.09.053h-.73v.495h.626a.147.147 0 0 1 .148.148.148.148 0 0 1-.148.149h-.626v.499h.73a.148.148 0 0 1 .148.149.147.147 0 0 1-.149.148h-.9a.157.157 0 0 1-.056-.011.15.15 0 0 1-.092-.137ZM91.085 117.766v1.593a.152.152 0 0 1-.258.105.15.15 0 0 1-.044-.105v-1.134l-.387.54a.145.145 0 0 1-.121.058.154.154 0 0 1-.127-.058l-.382-.54v1.134a.154.154 0 0 1-.25.091.158.158 0 0 1-.052-.091v-1.593c0-.04.016-.077.044-.105a.148.148 0 0 1 .105-.044.152.152 0 0 1 .117.063l.535.747.54-.747a.142.142 0 0 1 .122-.063c.04 0 .079.015.108.043a.16.16 0 0 1 .05.106ZM92.525 119.061h-.653l-.135.351a.157.157 0 0 1-.14.095.104.104 0 0 1-.049 0 .163.163 0 0 1-.05-.03.15.15 0 0 1-.04-.164l.594-1.588a.152.152 0 0 1 .144-.095.143.143 0 0 1 .144.095l.599 1.588a.153.153 0 0 1-.09.194.1.1 0 0 1-.055 0 .143.143 0 0 1-.135-.095l-.135-.351Zm-.109-.297-.22-.58-.216.58h.436ZM93.326 117.766a.148.148 0 0 1 .148-.149c.04 0 .078.016.107.043a.155.155 0 0 1 .046.106v1.593a.152.152 0 0 1-.258.105.15.15 0 0 1-.043-.105v-1.593ZM94.131 119.359v-1.593a.148.148 0 0 1 .148-.149c.04 0 .078.016.107.043a.155.155 0 0 1 .047.106v1.444h.728a.148.148 0 0 1 .149.149.147.147 0 0 1-.148.148h-.9a.148.148 0 0 1-.131-.148Z" fill="#4B8F46"/><path d="M87.75 124.61a.642.642 0 0 1 .614-.664.638.638 0 0 1 .664.614.07.07 0 0 1-.021.045.066.066 0 0 1-.047.018h-1.084a.518.518 0 0 0 .513.504.502.502 0 0 0 .45-.238.066.066 0 0 1 .085-.023.07.07 0 0 1 .03.043.074.074 0 0 1-.007.052.632.632 0 0 1-.535.297.659.659 0 0 1-.467-.185.66.66 0 0 1-.195-.463Zm.135-.108h1.003a.51.51 0 0 0-.501-.426.508.508 0 0 0-.502.426ZM91.35 124.484a.412.412 0 0 0-.24-.417.4.4 0 0 0-.334 0 .4.4 0 0 0-.223.247c-.017.055-.023.113-.017.17v.729a.06.06 0 0 1-.013.019.05.05 0 0 1-.019.012.043.043 0 0 1-.032 0v-.729a.406.406 0 0 0-.102-.317.415.415 0 0 0-.609 0 .41.41 0 0 0-.103.317v.72a.065.065 0 0 1-.007.031.064.064 0 0 1-.02.023h-.081a.065.065 0 0 1-.034-.017.064.064 0 0 1-.02-.032v-1.206c0-.017.007-.033.019-.045a.062.062 0 0 1 .044-.018c.017 0 .033.006.044.018a.064.064 0 0 1 .019.045v.126a.518.518 0 0 1 .184-.14.519.519 0 0 1 .225-.049.538.538 0 0 1 .45.279.547.547 0 0 1 .68-.24.538.538 0 0 1 .333.496v.72a.06.06 0 0 1-.005.025.054.054 0 0 1-.015.021.064.064 0 0 1-.022.014.055.055 0 0 1-.025.003.062.062 0 0 1-.064-.063l-.013-.742ZM93.933 124.484a.41.41 0 0 0-.41-.41.403.403 0 0 0-.156.032.4.4 0 0 0-.222.221.41.41 0 0 0-.031.157v.729a.076.076 0 0 1-.036.031.03.03 0 0 1-.016.004.03.03 0 0 1-.016-.004v-.729a.41.41 0 0 0-.796-.169c-.018.055-.024.112-.018.169v.72a.066.066 0 0 1-.01.031.057.057 0 0 1-.021.023h-.027a.058.058 0 0 1-.054-.049v-1.206c-.001-.008 0-.016.003-.024a.046.046 0 0 1 .012-.02.054.054 0 0 1 .02-.014.048.048 0 0 1 .023-.005.055.055 0 0 1 .026.003.065.065 0 0 1 .042.06v.126a.52.52 0 0 1 .404-.189.53.53 0 0 1 .473.279.545.545 0 0 1 .856-.122c.1.1.156.236.156.378v.72a.064.064 0 0 1-.018.045.062.062 0 0 1-.044.018.062.062 0 0 1-.063-.063l-.077-.742ZM95.72 124.011v1.192a.067.067 0 0 1-.022.045.066.066 0 0 1-.046.018.062.062 0 0 1-.063-.063v-.198a.604.604 0 0 1-.495.261.661.661 0 1 1 0-1.323.617.617 0 0 1 .495.261v-.193c0-.009 0-.017.003-.026a.059.059 0 0 1 .034-.036.056.056 0 0 1 .026-.006c.009 0 .018.002.026.005a.085.085 0 0 1 .022.015.067.067 0 0 1 .02.048Zm-.131.594a.499.499 0 1 0-.495.531.52.52 0 0 0 .495-.531ZM96.403 125.654a.101.101 0 0 0 .07-.029.097.097 0 0 0 .03-.07v-1.544c0-.018.007-.035.02-.048a.07.07 0 0 1 .047-.019.064.064 0 0 1 .045.021.068.068 0 0 1 .018.046v1.539a.229.229 0 0 1-.067.162.226.226 0 0 1-.163.068.063.063 0 0 1-.045-.108.062.062 0 0 1 .046-.018Zm.104-2.075a.071.071 0 0 1 .02-.046.07.07 0 0 1 .047-.021.064.064 0 0 1 .045.021.068.068 0 0 1 .019.046v.063a.067.067 0 0 1-.019.046.066.066 0 0 1-.044.022.077.077 0 0 1-.067-.068v-.063ZM98.33 124.011v1.192a.064.064 0 0 1-.019.045.062.062 0 0 1-.045.018.062.062 0 0 1-.044-.018.064.064 0 0 1-.018-.045v-.198a.617.617 0 0 1-.5.261.661.661 0 1 1 0-1.323.638.638 0 0 1 .28.071.638.638 0 0 1 .22.19v-.193c0-.017.006-.033.018-.045a.066.066 0 0 1 .044-.018c.017 0 .033.007.045.018a.064.064 0 0 1 .018.045Zm-.126.594a.502.502 0 0 0-.33-.439.497.497 0 0 0-.533.128.5.5 0 0 0 .363.842.517.517 0 0 0 .5-.531ZM100.8 124.484a.41.41 0 1 0-.819 0v.729a.05.05 0 0 1-.012.019.05.05 0 0 1-.02.012.043.043 0 0 1-.031 0v-.729a.41.41 0 1 0-.815 0v.72a.066.066 0 0 1-.009.031.057.057 0 0 1-.022.023h-.027a.072.072 0 0 1-.034-.016.072.072 0 0 1-.02-.033v-1.206c0-.017.007-.033.019-.045a.066.066 0 0 1 .044-.018.055.055 0 0 1 .025.003.064.064 0 0 1 .023.014.063.063 0 0 1 .02.046v.126a.52.52 0 0 1 .404-.189.53.53 0 0 1 .472.279.547.547 0 0 1 .857-.122c.1.1.156.236.156.378v.72a.063.063 0 0 1-.018.045.063.063 0 0 1-.045.018.062.062 0 0 1-.044-.018.063.063 0 0 1-.018-.045l-.086-.742ZM101.367 124.61a.65.65 0 0 1 .17-.46.638.638 0 0 1 .903-.035.636.636 0 0 1 .205.445.067.067 0 0 1-.018.045.067.067 0 0 1-.045.018h-1.085a.52.52 0 0 0 .513.504.483.483 0 0 0 .423-.238.073.073 0 0 1 .09-.023.072.072 0 0 1 0 .095.627.627 0 0 1-.531.297.655.655 0 0 1-.625-.648Zm.139-.108h.999a.507.507 0 0 0-.495-.428.517.517 0 0 0-.504.428ZM103.014 124.993a.06.06 0 0 1 .021-.014.05.05 0 0 1 .024-.005.05.05 0 0 1 .024.005.726.726 0 0 0 .426.167.394.394 0 0 0 .252-.081.21.21 0 0 0 .071-.068.198.198 0 0 0 .028-.094.206.206 0 0 0-.095-.162.673.673 0 0 0-.265-.09.712.712 0 0 1-.302-.104.274.274 0 0 1-.102-.098.275.275 0 0 1-.042-.136.346.346 0 0 1 .144-.261.574.574 0 0 1 .324-.09.724.724 0 0 1 .396.144.075.075 0 0 1 0 .095.066.066 0 0 1-.045.017.07.07 0 0 1-.045-.017.563.563 0 0 0-.324-.135.414.414 0 0 0-.252.076.21.21 0 0 0-.081.153.17.17 0 0 0 .02.074.168.168 0 0 0 .052.057.77.77 0 0 0 .27.094.88.88 0 0 1 .32.104.309.309 0 0 1 .112.115.31.31 0 0 1 0 .31.317.317 0 0 1-.112.115.532.532 0 0 1-.329.103.786.786 0 0 1-.486-.189.045.045 0 0 1-.014-.019.046.046 0 0 1-.006-.023.045.045 0 0 1 .003-.023.046.046 0 0 1 .013-.02ZM105.413 124.88h-1.053a.07.07 0 0 1-.018-.048.07.07 0 0 1 .018-.047l1.093-1.35a.05.05 0 0 1 .02-.015.054.054 0 0 1 .05 0 .05.05 0 0 1 .02.015.086.086 0 0 1 0 .032v1.314h.126a.065.065 0 0 1 .031-.001.066.066 0 0 1 .047.036c.004.009.007.02.007.03 0 .01-.003.02-.007.03a.063.063 0 0 1-.02.023.065.065 0 0 1-.058.012h-.126v.324a.067.067 0 0 1-.02.048.066.066 0 0 1-.048.02.065.065 0 0 1-.047-.02.067.067 0 0 1-.02-.048l.005-.355Zm0-.131v-1.107l-.901 1.107h.901ZM107.064 123.376a.957.957 0 0 1 .67.276.948.948 0 0 1 .275.669.912.912 0 0 1-.099.45.475.475 0 0 1-.243.203h-.054a.192.192 0 0 1-.158-.072.233.233 0 0 1-.04-.131v-.121a.448.448 0 0 1-.351.162.506.506 0 0 1-.461-.506.507.507 0 0 1 .461-.507.498.498 0 0 1 .481.504v.45a.194.194 0 0 0 0 .059.074.074 0 0 0 .025.005.07.07 0 0 0 .025-.005.28.28 0 0 0 .093-.054.258.258 0 0 0 .064-.086.809.809 0 0 0-.412-1.121.817.817 0 0 0-1.111.593.825.825 0 0 0 .046.471.82.82 0 0 0 .955.48c.036 0 .077 0 .077.045.003.009.004.017.003.026a.061.061 0 0 1-.025.044.054.054 0 0 1-.023.011.924.924 0 0 1-.234.027.944.944 0 0 1-.668-1.613.945.945 0 0 1 .668-.277l.036.018Zm0 1.314a.357.357 0 0 0 .346-.369.352.352 0 0 0-.013-.144.369.369 0 0 0-.072-.126.363.363 0 0 0-.259-.116.341.341 0 0 0-.141.031.343.343 0 0 0-.203.355.36.36 0 0 0 .094.256.35.35 0 0 0 .248.113ZM110.763 124.484a.41.41 0 1 0-.815 0v.729a.044.044 0 0 1-.012.019.047.047 0 0 1-.019.012.044.044 0 0 1-.032 0h-.022v-.729a.403.403 0 0 0-.103-.317.419.419 0 0 0-.304-.135.417.417 0 0 0-.305.135.42.42 0 0 0-.103.317v.72a.056.056 0 0 1-.006.031.066.066 0 0 1-.021.023h-.027a.069.069 0 0 1-.034-.017.076.076 0 0 1-.02-.032v-1.206a.064.064 0 0 1 .108-.045.063.063 0 0 1 .018.045v.126a.525.525 0 0 1 .41-.189.543.543 0 0 0 .747.203.543.543 0 0 0 .198-.203.535.535 0 0 1 .535.535v.72a.057.057 0 0 1-.063.063.064.064 0 0 1-.063-.063l-.067-.742ZM112.549 124.011v1.192a.063.063 0 0 1-.018.045.067.067 0 0 1-.112-.045v-.198a.61.61 0 0 1-.495.261.662.662 0 1 1 0-1.323.617.617 0 0 1 .495.261v-.193c0-.018.007-.035.02-.048a.065.065 0 0 1 .047-.02.067.067 0 0 1 .045.022.061.061 0 0 1 .018.046Zm-.13.594a.5.5 0 0 0-.612-.445.502.502 0 0 0-.244.143.5.5 0 0 0-.092.535.497.497 0 0 0 .453.298.517.517 0 0 0 .495-.531ZM113.116 123.579c0-.017.007-.033.019-.046a.062.062 0 0 1 .044-.021c.018 0 .036.007.048.019.013.013.02.03.02.048v.063a.067.067 0 0 1-.02.048.066.066 0 0 1-.048.02.063.063 0 0 1-.044-.022.066.066 0 0 1-.019-.046v-.063Zm0 .45c0-.008.001-.017.004-.025a.061.061 0 0 1 .013-.022.051.051 0 0 1 .021-.015.069.069 0 0 1 .073.014c.013.013.02.03.02.048v1.193a.07.07 0 0 1-.021.045.072.072 0 0 1-.047.018.063.063 0 0 1-.044-.019.063.063 0 0 1-.019-.044v-1.193ZM113.85 123.444a.067.067 0 0 1 .063-.067c.018 0 .035.007.048.02.012.012.019.03.019.047v1.76a.043.043 0 0 1-.005.025.051.051 0 0 1-.015.021.055.055 0 0 1-.022.014.069.069 0 0 1-.025.003.067.067 0 0 1-.045-.018.067.067 0 0 1-.018-.045v-1.76ZM114.592 124.997a.134.134 0 0 1 .135.135c0 .036-.014.07-.039.096a.136.136 0 0 1-.231-.096c0-.036.015-.07.04-.095a.132.132 0 0 1 .095-.04ZM114.957 124.605a.675.675 0 0 1 .393-.597.67.67 0 0 1 .709.084.06.06 0 0 1 .014.021.052.052 0 0 1 .005.024.053.053 0 0 1-.005.025.066.066 0 0 1-.014.02.066.066 0 0 1-.045.017.07.07 0 0 1-.045-.017.547.547 0 0 0-.49-.118.54.54 0 0 0-.304.84.545.545 0 0 0 .453.223.552.552 0 0 0 .341-.112.07.07 0 0 1 .045-.017c.017 0 .033.006.045.017.013.012.02.029.02.047a.063.063 0 0 1-.02.047.692.692 0 0 1-.418.14.664.664 0 0 1-.684-.644ZM117.117 123.943a.667.667 0 0 1 .636.383.66.66 0 0 1-.844.893.664.664 0 0 1-.418-.614.652.652 0 0 1 .626-.662Zm0 1.193a.516.516 0 0 0 .499-.531.492.492 0 0 0-.127-.384.502.502 0 0 0-.844.179.492.492 0 0 0-.023.205.518.518 0 0 0 .137.368.525.525 0 0 0 .358.163ZM120.15 124.484a.417.417 0 0 0-.41-.41.406.406 0 0 0-.405.41v.729a.044.044 0 0 1-.012.019.047.047 0 0 1-.019.012.044.044 0 0 1-.032 0h-.022v-.729a.403.403 0 0 0-.103-.317.419.419 0 0 0-.304-.135.417.417 0 0 0-.305.135.42.42 0 0 0-.103.317v.72a.06.06 0 0 1-.007.032.064.064 0 0 1-.024.022h-.027a.061.061 0 0 1-.034-.017.06.06 0 0 1-.02-.032v-1.206c0-.017.007-.033.018-.045a.063.063 0 0 1 .045-.018c.017 0 .033.006.045.018a.067.067 0 0 1 .018.045v.126a.516.516 0 0 1 .184-.14.516.516 0 0 1 .225-.049.546.546 0 0 0 .473.278.54.54 0 0 0 .473-.278c.142 0 .278.056.378.157.101.1.157.236.157.378v.72a.067.067 0 0 1-.018.045.063.063 0 0 1-.045.018.063.063 0 0 1-.045-.018.067.067 0 0 1-.018-.045l-.063-.742Z" fill="#263238"/><path d="m87.579 126.784 6.228-.081 6.232-.05 12.461-.036 12.46.036 6.233.05 6.228.081-6.228.085-6.233.045-12.46.041-12.461-.041-6.232-.049-6.228-.081Z" fill="#DBDBDB"/><path d="M88.493 133.961h-.334v.589a.152.152 0 0 1-.15.127.154.154 0 0 1-.151-.127v-1.593a.147.147 0 0 1 .148-.148h.487a.575.575 0 1 1 0 1.152Zm-.334-.297h.334a.28.28 0 0 0 .279-.279.28.28 0 0 0-.279-.279h-.334v.558ZM90.207 134.249h-.657l-.13.351a.142.142 0 0 1-.14.094h-.054a.152.152 0 0 1-.085-.193l.593-1.593a.162.162 0 0 1 .145-.095c.03.001.06.01.086.026a.16.16 0 0 1 .057.069l.594 1.593a.153.153 0 0 1-.09.193h-.049a.142.142 0 0 1-.14-.094l-.13-.351Zm-.112-.293-.216-.58-.221.58h.436ZM90.9 134.226a.145.145 0 0 1 .198 0 .853.853 0 0 0 .513.207.587.587 0 0 0 .337-.099.246.246 0 0 0 .118-.194.169.169 0 0 0-.023-.085.235.235 0 0 0-.081-.081 1.08 1.08 0 0 0-.369-.131 1.344 1.344 0 0 1-.351-.103.603.603 0 0 1-.252-.212.402.402 0 0 1-.058-.22.502.502 0 0 1 .215-.396.803.803 0 0 1 .45-.14c.214.011.42.086.59.216.015.01.029.023.039.037a.133.133 0 0 1 .02.104.127.127 0 0 1-.023.048.134.134 0 0 1-.036.041.145.145 0 0 1-.05.022.13.13 0 0 1-.103-.022.796.796 0 0 0-.45-.171.507.507 0 0 0-.302.09.213.213 0 0 0-.103.171c0 .027.008.054.022.076a.216.216 0 0 0 .073.068.868.868 0 0 0 .337.121 1.8 1.8 0 0 1 .373.113.66.66 0 0 1 .27.225.449.449 0 0 1 .063.229.533.533 0 0 1-.233.419.857.857 0 0 1-.5.153 1.176 1.176 0 0 1-.689-.27.147.147 0 0 1 .005-.216ZM92.655 134.226a.145.145 0 0 1 .198 0 .866.866 0 0 0 .518.207.587.587 0 0 0 .337-.099.236.236 0 0 0 .112-.194.134.134 0 0 0-.022-.085.235.235 0 0 0-.081-.081 1.056 1.056 0 0 0-.369-.131 1.346 1.346 0 0 1-.351-.103.589.589 0 0 1-.248-.212.408.408 0 0 1-.063-.22.501.501 0 0 1 .216-.396.812.812 0 0 1 .45-.14c.213.011.417.086.585.216.03.021.051.052.059.087a.138.138 0 0 1-.018.102.134.134 0 0 1-.194.041.796.796 0 0 0-.45-.171.537.537 0 0 0-.306.09.207.207 0 0 0-.099.171.138.138 0 0 0 0 .076.216.216 0 0 0 .072.068.926.926 0 0 0 .338.121c.129.023.254.061.374.113a.66.66 0 0 1 .27.225.449.449 0 0 1 .063.229.528.528 0 0 1-.23.419.906.906 0 0 1-.5.153 1.175 1.175 0 0 1-.692-.27.146.146 0 0 1-.032-.115.147.147 0 0 1 .063-.101ZM96.939 133.029l-.661 1.575v.023a.062.062 0 0 1-.028 0h-.112a.042.042 0 0 1-.027 0h-.023v-.023l-.35-.837-.356.837v.023h-.139a.085.085 0 0 1-.023 0v-.023l-.662-1.575a.145.145 0 0 1 .081-.189.146.146 0 0 1 .113-.001.146.146 0 0 1 .081.078l.526 1.251.347-.828a.16.16 0 0 1 .144-.095.164.164 0 0 1 .14.095l.346.828.526-1.251a.156.156 0 0 1 .084-.079.156.156 0 0 1 .115.002.146.146 0 0 1-.016.124.14.14 0 0 1-.046.044.133.133 0 0 1-.06.021ZM98.82 133.043a.986.986 0 0 1 0 1.35.907.907 0 0 1-.643.288.897.897 0 0 1-.662-.288.996.996 0 0 1 0-1.35.892.892 0 0 1 .662-.288.857.857 0 0 1 .643.288Zm-.036.684a.691.691 0 0 0-.184-.473.57.57 0 0 0-.423-.193.576.576 0 0 0-.45.193.693.693 0 0 0 0 .941.576.576 0 0 0 .45.193.563.563 0 0 0 .422-.193.684.684 0 0 0 .185-.468ZM100.876 134.474a.148.148 0 0 1-.009.113.155.155 0 0 1-.085.076h-.063a.237.237 0 0 1-.108-.027.355.355 0 0 1-.086-.095.779.779 0 0 1-.054-.324.215.215 0 0 0-.036-.117.186.186 0 0 0-.081-.076.524.524 0 0 0-.148-.068H99.9v.594a.15.15 0 0 1-.096.135.159.159 0 0 1-.057.009.144.144 0 0 1-.144-.144v-1.593a.144.144 0 0 1 .144-.148h.486a.573.573 0 0 1 .554.73.57.57 0 0 1-.19.291.389.389 0 0 1 .095.099c.059.086.09.188.09.293a.59.59 0 0 0 0 .157c.022.008.042.02.058.036a.157.157 0 0 1 .036.059Zm-.378-1.085a.28.28 0 0 0-.279-.283H99.9v.544h.333a.274.274 0 0 0 .183-.08.274.274 0 0 0 .082-.181ZM101.313 134.55v-1.593a.137.137 0 0 1 .01-.057.143.143 0 0 1 .139-.091h.319a.944.944 0 0 1 0 1.885h-.319a.155.155 0 0 1-.057-.009.152.152 0 0 1-.048-.031.158.158 0 0 1-.033-.048.151.151 0 0 1-.011-.056Zm.297-.153h.171a.644.644 0 0 0 .594-.646.646.646 0 0 0-.594-.645h-.171v1.291Z" fill="#4B8F46"/><path d="m88.128 139.019-.248.167h-.044a.055.055 0 0 1-.055-.054c0-.015.006-.029.016-.039a.054.054 0 0 1 .038-.015l.28-.135-.28-.131s-.04-.027-.04-.054a.058.058 0 0 1 .054-.054.086.086 0 0 1 .045 0l.247.171-.022-.297c0-.007 0-.015.003-.022a.05.05 0 0 1 .011-.019.049.049 0 0 1 .018-.013.054.054 0 0 1 .022-.004c.007 0 .015.001.022.004a.049.049 0 0 1 .018.013.052.052 0 0 1 .014.041l-.023.297.244-.171h.045a.054.054 0 0 1 .054.054.054.054 0 0 1-.037.054l-.279.131.28.135a.044.044 0 0 1 .027.017c.007.009.01.021.008.032a.054.054 0 0 1-.014.041.048.048 0 0 1-.018.013.17.17 0 0 1-.067.005l-.242-.167.022.293c0 .007 0 .014-.003.022a.062.062 0 0 1-.011.019.064.064 0 0 1-.018.013.054.054 0 0 1-.022.004.054.054 0 0 1-.022-.004.064.064 0 0 1-.018-.013.06.06 0 0 1-.011-.019.058.058 0 0 1-.003-.022l.009-.293ZM89.289 139.019l-.248.167h-.044a.055.055 0 0 1-.055-.054c0-.015.006-.029.016-.039a.054.054 0 0 1 .038-.015l.28-.135-.28-.131c-.022 0-.04-.027-.04-.054a.058.058 0 0 1 .054-.054.086.086 0 0 1 .045 0l.247.171v-.297c0-.007 0-.015.003-.022a.05.05 0 0 1 .012-.019.049.049 0 0 1 .018-.013.054.054 0 0 1 .022-.004c.007 0 .014.001.021.004a.049.049 0 0 1 .018.013.054.054 0 0 1 .014.041l-.022.297.243-.171a.086.086 0 0 1 .045 0 .054.054 0 0 1 .054.054.054.054 0 0 1-.036.054l-.279.131.279.135a.044.044 0 0 1 .028.017c.006.009.01.021.008.032a.054.054 0 0 1-.014.041.049.049 0 0 1-.018.013.055.055 0 0 1-.022.005h-.045l-.243-.167.022.293c.001.007 0 .014-.002.022a.06.06 0 0 1-.012.019.064.064 0 0 1-.018.013.054.054 0 0 1-.022.004.054.054 0 0 1-.021-.004.064.064 0 0 1-.018-.013.06.06 0 0 1-.012-.019.058.058 0 0 1-.003-.022l-.013-.293ZM90.45 139.019l-.248.166h-.044a.054.054 0 0 1-.039-.015.055.055 0 0 1 .038-.093l.28-.135-.28-.13s-.04-.027-.04-.054a.058.058 0 0 1 .017-.037.058.058 0 0 1 .037-.017.07.07 0 0 1 .045 0l.248.171-.014-.275c0-.007 0-.014.003-.022a.06.06 0 0 1 .011-.019.064.064 0 0 1 .018-.013.08.08 0 0 1 .022-.004c.007 0 .015.002.022.004a.063.063 0 0 1 .018.013.06.06 0 0 1 .011.019.056.056 0 0 1 .003.022l-.023.297.248-.171a.092.092 0 0 1 .04 0 .054.054 0 0 1 .054.054.052.052 0 0 1-.036.054l-.278.131.278.135a.042.042 0 0 1 .028.018c.007.009.01.02.008.031.001.008 0 .015-.002.023a.06.06 0 0 1-.012.019.046.046 0 0 1-.018.012.054.054 0 0 1-.022.005.092.092 0 0 1-.04 0l-.248-.167.023.293a.054.054 0 0 1-.014.041.048.048 0 0 1-.018.013.04.04 0 0 1-.022.004.041.041 0 0 1-.022-.004.049.049 0 0 1-.018-.013.05.05 0 0 1-.011-.019.056.056 0 0 1-.003-.022v-.315ZM91.611 139.019l-.248.167h-.044a.055.055 0 0 1-.055-.054c0-.015.006-.029.016-.039a.054.054 0 0 1 .038-.015l.28-.135-.28-.131c-.022 0-.04-.027-.04-.054a.058.058 0 0 1 .054-.054.086.086 0 0 1 .045 0l.248.171-.023-.297c0-.007 0-.015.003-.022a.05.05 0 0 1 .011-.019.049.049 0 0 1 .018-.013.054.054 0 0 1 .022-.004c.007 0 .015.001.022.004a.049.049 0 0 1 .018.013.052.052 0 0 1 .014.041l-.022.297.242-.171a.086.086 0 0 1 .045 0 .055.055 0 0 1 .055.054.054.054 0 0 1-.037.054l-.278.131.278.135a.044.044 0 0 1 .028.017c.007.009.01.021.008.032.001.007 0 .015-.002.022a.052.052 0 0 1-.012.019.049.049 0 0 1-.018.013.055.055 0 0 1-.022.005h-.044l-.243-.167.022.293c0 .007 0 .014-.003.022a.062.062 0 0 1-.011.019.064.064 0 0 1-.018.013.054.054 0 0 1-.022.004.054.054 0 0 1-.022-.004.064.064 0 0 1-.018-.013.06.06 0 0 1-.011-.019.058.058 0 0 1-.003-.022l.009-.293ZM92.772 139.019l-.248.167h-.044a.055.055 0 0 1-.055-.054c0-.015.006-.029.016-.039a.054.054 0 0 1 .038-.015l.28-.135-.28-.131s-.04-.027-.04-.054a.058.058 0 0 1 .054-.054.086.086 0 0 1 .045 0l.248.171v-.297a.05.05 0 0 1 .014-.041.049.049 0 0 1 .018-.013.054.054 0 0 1 .022-.004c.007 0 .014.001.021.004a.049.049 0 0 1 .018.013.054.054 0 0 1 .014.041v.297l.243-.171a.086.086 0 0 1 .046 0 .054.054 0 0 1 .054.054.054.054 0 0 1-.037.054l-.278.131.278.135a.044.044 0 0 1 .028.017c.007.009.01.021.008.032a.054.054 0 0 1-.014.041.049.049 0 0 1-.018.013.055.055 0 0 1-.022.005h-.044l-.243-.167v.293c0 .007 0 .014-.003.022a.06.06 0 0 1-.012.019.064.064 0 0 1-.018.013.054.054 0 0 1-.022.004.054.054 0 0 1-.021-.004.064.064 0 0 1-.018-.013.06.06 0 0 1-.012-.019.058.058 0 0 1-.002-.022l-.014-.293ZM93.933 139.019l-.248.167h-.044a.055.055 0 0 1-.055-.054c0-.015.006-.029.016-.039a.054.054 0 0 1 .038-.015l.28-.135-.28-.131c-.022 0-.04-.027-.04-.054a.058.058 0 0 1 .017-.037.058.058 0 0 1 .037-.017.086.086 0 0 1 .045 0l.248.171-.023-.297c0-.007 0-.015.003-.022a.05.05 0 0 1 .011-.019.049.049 0 0 1 .018-.013.054.054 0 0 1 .022-.004c.008 0 .015.001.022.004a.048.048 0 0 1 .018.013.054.054 0 0 1 .014.041l-.022.297.242-.171a.086.086 0 0 1 .046 0 .054.054 0 0 1 .054.054.054.054 0 0 1-.037.054l-.278.131.278.135a.044.044 0 0 1 .028.017c.007.009.01.021.008.032a.054.054 0 0 1-.014.041.048.048 0 0 1-.018.013.054.054 0 0 1-.022.005h-.044l-.243-.167.022.293c0 .007 0 .014-.003.022a.06.06 0 0 1-.011.019.063.063 0 0 1-.018.013.053.053 0 0 1-.022.004.054.054 0 0 1-.022-.004.064.064 0 0 1-.018-.013.06.06 0 0 1-.011-.019.058.058 0 0 1-.003-.022l.009-.293ZM95.09 139.018l-.243.167h-.045a.055.055 0 0 1-.055-.054.054.054 0 0 1 .055-.054l.274-.135-.274-.131s-.041-.027-.041-.054a.058.058 0 0 1 .054-.054.086.086 0 0 1 .045 0l.243.171v-.297a.05.05 0 0 1 .012-.043.048.048 0 0 1 .02-.012c.006-.003.014-.004.022-.003.008 0 .015.001.022.004a.064.064 0 0 1 .018.013.062.062 0 0 1 .011.019.056.056 0 0 1 .003.022v.297l.243-.171a.086.086 0 0 1 .045 0 .055.055 0 0 1 .054.054.052.052 0 0 1-.009.033.053.053 0 0 1-.027.021l-.279.131.279.135a.042.042 0 0 1 .028.018c.006.009.01.02.008.031a.053.053 0 0 1-.032.054.055.055 0 0 1-.022.005h-.045l-.243-.167v.293c0 .007 0 .015-.003.022a.062.062 0 0 1-.011.019.064.064 0 0 1-.018.013.054.054 0 0 1-.022.004.044.044 0 0 1-.023-.003.048.048 0 0 1-.019-.012.05.05 0 0 1-.012-.043l-.013-.293ZM96.255 139.019l-.248.167h-.044a.055.055 0 0 1-.054-.054c0-.015.005-.029.015-.039a.054.054 0 0 1 .038-.015l.28-.135-.28-.131c-.022 0-.04-.027-.04-.054a.058.058 0 0 1 .054-.054.086.086 0 0 1 .045 0l.248.171-.023-.297c0-.007 0-.015.003-.022a.05.05 0 0 1 .011-.019.049.049 0 0 1 .018-.013.054.054 0 0 1 .022-.004c.008 0 .015.001.022.004a.049.049 0 0 1 .018.013.054.054 0 0 1 .014.041l-.022.297.243-.171a.086.086 0 0 1 .044 0 .054.054 0 0 1 .054.054.054.054 0 0 1-.035.054l-.28.131.28.135a.044.044 0 0 1 .027.017c.007.009.01.021.008.032a.054.054 0 0 1-.014.041.049.049 0 0 1-.018.013.055.055 0 0 1-.022.005h-.044l-.243-.167.022.293c0 .007 0 .014-.003.022a.06.06 0 0 1-.011.019.064.064 0 0 1-.018.013.054.054 0 0 1-.022.004.054.054 0 0 1-.022-.004.064.064 0 0 1-.018-.013.06.06 0 0 1-.011-.019.058.058 0 0 1-.003-.022l.009-.293ZM97.416 139.019l-.248.167h-.044a.055.055 0 0 1-.054-.054c0-.015.005-.029.015-.039a.054.054 0 0 1 .039-.015l.274-.135-.274-.131c-.023 0-.041-.027-.041-.054a.058.058 0 0 1 .054-.054.086.086 0 0 1 .045 0l.248.171v-.297a.05.05 0 0 1 .014-.041.049.049 0 0 1 .018-.013.054.054 0 0 1 .022-.004c.007 0 .014.001.021.004a.048.048 0 0 1 .018.013.054.054 0 0 1 .014.041v.297l.243-.171a.086.086 0 0 1 .046 0 .05.05 0 0 1 .02.004.058.058 0 0 1 .03.029.058.058 0 0 1 .003.021.054.054 0 0 1-.035.054l-.28.131.28.135a.044.044 0 0 1 .027.017c.007.009.01.021.008.032a.054.054 0 0 1-.014.041.048.048 0 0 1-.018.013.054.054 0 0 1-.021.005h-.045l-.244-.167v.293c.001.007 0 .014-.002.022a.06.06 0 0 1-.012.019.063.063 0 0 1-.018.013.053.053 0 0 1-.021.004.054.054 0 0 1-.022-.004.064.064 0 0 1-.018-.013.06.06 0 0 1-.012-.019.058.058 0 0 1-.002-.022l-.014-.293ZM98.577 139.019l-.248.166h-.044a.054.054 0 0 1-.039-.015.055.055 0 0 1 .038-.093l.28-.135-.28-.13s-.04-.027-.04-.054a.058.058 0 0 1 .017-.037.058.058 0 0 1 .037-.017.07.07 0 0 1 .045 0l.248.171-.041-.275c0-.007 0-.014.003-.022a.06.06 0 0 1 .011-.019.064.064 0 0 1 .018-.013.08.08 0 0 1 .022-.004c.008 0 .015.002.022.004a.063.063 0 0 1 .018.013.06.06 0 0 1 .011.019.056.056 0 0 1 .003.022l-.023.297.243-.171a.086.086 0 0 1 .046 0 .054.054 0 0 1 .054.054.052.052 0 0 1-.036.054l-.28.131.28.135a.042.042 0 0 1 .027.018c.007.009.01.02.009.031 0 .008 0 .015-.003.023a.06.06 0 0 1-.012.019.046.046 0 0 1-.018.012.054.054 0 0 1-.021.005h-.046l-.243-.167.023.293a.054.054 0 0 1-.014.041.048.048 0 0 1-.018.013.04.04 0 0 1-.022.004.041.041 0 0 1-.022-.004.049.049 0 0 1-.018-.013.05.05 0 0 1-.011-.019.056.056 0 0 1-.003-.022l.027-.315ZM99.738 139.019l-.248.167h-.044a.055.055 0 0 1-.055-.054c0-.015.006-.029.016-.039a.054.054 0 0 1 .038-.015l.28-.135-.28-.131c-.022 0-.04-.027-.04-.054a.058.058 0 0 1 .054-.054.086.086 0 0 1 .045 0l.247.171v-.297c0-.007 0-.015.003-.022a.05.05 0 0 1 .012-.019.049.049 0 0 1 .018-.013.054.054 0 0 1 .021-.004c.008 0 .015.001.022.004a.049.049 0 0 1 .018.013.052.052 0 0 1 .014.041l-.022.297.247-.171a.072.072 0 0 1 .041 0 .055.055 0 0 1 .054.054.049.049 0 0 1-.009.033.051.051 0 0 1-.027.021l-.279.131.279.135a.046.046 0 0 1 .028.017.051.051 0 0 1 .008.032.042.042 0 0 1-.003.022.045.045 0 0 1-.011.019.046.046 0 0 1-.018.013.059.059 0 0 1-.022.005.072.072 0 0 1-.041 0l-.247-.167.022.293c.001.007 0 .014-.002.022a.062.062 0 0 1-.012.019.064.064 0 0 1-.018.013.054.054 0 0 1-.022.004.054.054 0 0 1-.021-.004.064.064 0 0 1-.018-.013.06.06 0 0 1-.012-.019.058.058 0 0 1-.003-.022l-.013-.293Z" fill="#263238"/><path d="m87.579 141.976 6.228-.086 6.232-.045 12.461-.04 12.46.04 6.233.045 6.228.086-6.228.081-6.233.045-12.46.04-12.461-.04-6.232-.045-6.228-.081Z" fill="#DBDBDB"/><path d="M100.647 137.034h-.225v4.041h.225v-4.041Z" fill="#263238"/><path d="M130.828 153.392H94.171v11.524h36.657v-11.524Z" fill="#4B8F46"/><path d="M106.312 160.651v-2.39a.225.225 0 0 1 .385-.159.225.225 0 0 1 .066.159v2.165h1.098a.227.227 0 0 1 .157.067.233.233 0 0 1 .068.158.23.23 0 0 1-.225.225h-1.323a.227.227 0 0 1-.226-.225ZM110.668 158.4a1.481 1.481 0 0 1 0 2.048 1.324 1.324 0 0 1-.967.45 1.364 1.364 0 0 1-.995-.45 1.46 1.46 0 0 1-.4-1.022 1.48 1.48 0 0 1 .4-1.026 1.364 1.364 0 0 1 .995-.45c.184.003.365.045.531.123a1.3 1.3 0 0 1 .436.327Zm-.054 1.026a1.051 1.051 0 0 0-.274-.711.922.922 0 0 0-.29-.209.916.916 0 0 0-.349-.079.902.902 0 0 0-.657.288 1.036 1.036 0 0 0-.275.711 1 1 0 0 0 .573.917c.113.05.235.077.359.078a.88.88 0 0 0 .639-.293c.178-.19.276-.441.274-.702ZM111.749 159.43a1.457 1.457 0 0 1 .443-1.041 1.473 1.473 0 0 1 1.051-.421c.335-.001.661.11.927.315a.23.23 0 0 1-.115.412.23.23 0 0 1-.169-.048 1.062 1.062 0 0 0-1.038-.145 1.001 1.001 0 0 0-.334.222.973.973 0 0 0-.302.706.964.964 0 0 0 .302.693.982.982 0 0 0 .729.297 1.11 1.11 0 0 0 .558-.153v-.553h-.581a.234.234 0 0 1-.212-.321.219.219 0 0 1 .125-.122.214.214 0 0 1 .087-.016h.806a.229.229 0 0 1 .234.225v.972a.221.221 0 0 1-.077.099c-.258.2-.574.31-.9.315a1.477 1.477 0 0 1-1.069-.396 1.456 1.456 0 0 1-.337-.473 1.457 1.457 0 0 1-.128-.567ZM115.2 158.269a.207.207 0 0 1 .016-.085.214.214 0 0 1 .204-.135.225.225 0 0 1 .211.135.228.228 0 0 1 .019.085v2.381a.23.23 0 0 1-.315.208.224.224 0 0 1-.12-.122.233.233 0 0 1-.015-.086v-2.381ZM116.851 160.65a.224.224 0 0 1-.384.159.225.225 0 0 1-.066-.159v-2.353a.219.219 0 0 1 .09-.185.227.227 0 0 1 .164-.038c.057.01.108.041.142.088l1.31 1.8v-1.67a.227.227 0 0 1 .225-.225.225.225 0 0 1 .225.225v2.358a.227.227 0 0 1-.064.158.227.227 0 0 1-.157.067.21.21 0 0 1-.166-.081l-.023-.027-1.296-1.8v1.683Z" fill="#fff"/><path d="M100.863 169.16c0-.017.007-.033.018-.045a.063.063 0 0 1 .045-.018h.976c.017 0 .033.006.045.018a.063.063 0 0 1 .018.045.062.062 0 0 1-.018.046.066.066 0 0 1-.045.021h-.9v.747h.792c.018 0 .036.007.048.02.013.013.02.03.02.048a.063.063 0 0 1-.02.047.066.066 0 0 1-.048.02h-.792v.81a.07.07 0 0 1-.019.048.067.067 0 0 1-.048.02.067.067 0 0 1-.045-.022.065.065 0 0 1-.018-.046l-.009-1.759ZM102.834 169.65a.667.667 0 0 1 .636.383.66.66 0 0 1-.844.893.664.664 0 0 1-.418-.614.648.648 0 0 1 .626-.662Zm0 1.193a.534.534 0 0 0 .565-.618.534.534 0 0 0-.413-.439.539.539 0 0 0-.56.224.54.54 0 0 0-.092.302.533.533 0 0 0 .136.377.51.51 0 0 0 .364.167v-.013ZM103.9 169.731a.064.064 0 0 1 .009-.05.071.071 0 0 1 .041-.031c.009 0 .017.002.025.006a.06.06 0 0 1 .021.014.074.074 0 0 1 .014.022c.002.009.004.017.003.026v.292-.036a.655.655 0 0 1 .531-.324c.009 0 .017.002.025.006a.06.06 0 0 1 .021.014.074.074 0 0 1 .014.022c.002.009.004.017.003.026a.063.063 0 0 1-.063.063.48.48 0 0 0-.383.216 1.3 1.3 0 0 0-.162.306v.58a.061.061 0 0 1-.037.063.075.075 0 0 1-.026.005.065.065 0 0 1-.047-.02.067.067 0 0 1-.02-.048l.031-1.152ZM106.24 170.878a.62.62 0 0 1-.895.558.066.066 0 0 1-.027-.085.061.061 0 0 1 .013-.022.074.074 0 0 1 .022-.014.057.057 0 0 1 .026-.004.062.062 0 0 1 .024.008.513.513 0 0 0 .406.014.508.508 0 0 0 .268-.266.49.49 0 0 0 .037-.189v-.162a.592.592 0 0 1-.495.261.656.656 0 1 1 0-1.314.614.614 0 0 1 .495.257v-.194a.07.07 0 0 1 0-.035.06.06 0 0 1 .019-.03.065.065 0 0 1 .032-.016.06.06 0 0 1 .035.005.06.06 0 0 1 .023.005.048.048 0 0 1 .02.014c.006.005.01.012.012.02.003.008.004.016.003.024l-.018 1.165Zm-.126-.562a.487.487 0 0 0-.126-.38.494.494 0 0 0-.859.38.5.5 0 0 0 .292.5.5.5 0 0 0 .567-.12.485.485 0 0 0 .126-.38ZM107.433 169.65a.667.667 0 0 1 .636.383.66.66 0 0 1-.844.893.664.664 0 0 1-.418-.614.648.648 0 0 1 .626-.662Zm0 1.193a.535.535 0 0 0 .523-.302.532.532 0 0 0-.365-.755.539.539 0 0 0-.653.526.509.509 0 0 0 .134.375.521.521 0 0 0 .361.169v-.013ZM108.967 169.726a.072.072 0 0 1-.02.047.075.075 0 0 1-.047.021h-.167v.963a.108.108 0 0 0 .029.066.101.101 0 0 0 .066.028c.018 0 .035.008.048.02a.07.07 0 0 1 0 .096.07.07 0 0 1-.048.019.232.232 0 0 1-.164-.065.232.232 0 0 1-.066-.164v-.963h-.148c-.063 0-.063-.036-.063-.068 0-.031 0-.063.063-.063h.166v-.49c0-.017.007-.034.019-.046a.067.067 0 0 1 .044-.022.072.072 0 0 1 .072.068v.477h.149a.067.067 0 0 1 .051.023.062.062 0 0 1 .014.025.054.054 0 0 1 .002.028ZM110.394 170.343v-.616c0-.018.007-.035.02-.048a.065.065 0 0 1 .047-.02c.018 0 .036.007.048.02.013.013.02.03.02.048v.193a.605.605 0 0 1 .499-.256.635.635 0 0 1 .456.193.638.638 0 0 1 .183.459.65.65 0 0 1-.639.662.625.625 0 0 1-.499-.261v.756a.063.063 0 0 1-.02.047.066.066 0 0 1-.048.02.065.065 0 0 1-.047-.02.063.063 0 0 1-.02-.047v-1.13Zm.135-.027a.504.504 0 1 0 1.008 0 .504.504 0 0 0-1.008 0ZM113.287 169.727v1.193a.07.07 0 0 1-.011.058.072.072 0 0 1-.054.026.066.066 0 0 1-.053-.026.06.06 0 0 1-.013-.028.061.061 0 0 1 .001-.03v-.198a.61.61 0 0 1-.495.265.663.663 0 0 1-.468-1.129.663.663 0 0 1 .468-.194.615.615 0 0 1 .495.257v-.194a.063.063 0 0 1 .063-.063.07.07 0 0 1 .046.018c.013.012.02.028.021.045Zm-.13.599a.502.502 0 0 0-.33-.439.498.498 0 1 0-.165.97.514.514 0 0 0 .356-.165.513.513 0 0 0 .139-.366ZM113.755 170.708a.07.07 0 0 1 .048-.022c.009 0 .018.002.026.006a.696.696 0 0 0 .426.169.392.392 0 0 0 .247-.081.202.202 0 0 0 .104-.162.202.202 0 0 0-.094-.162.645.645 0 0 0-.284-.099.749.749 0 0 1-.297-.104.285.285 0 0 1-.105-.099.283.283 0 0 1-.039-.139.332.332 0 0 1 .144-.261.581.581 0 0 1 .32-.086.73.73 0 0 1 .396.14.073.073 0 0 1 0 .094.06.06 0 0 1-.021.014.07.07 0 0 1-.025.005.069.069 0 0 1-.024-.005.582.582 0 0 0-.344-.144.385.385 0 0 0-.248.072.194.194 0 0 0-.06.067.195.195 0 0 0-.025.086c0 .026.007.052.02.075a.155.155 0 0 0 .056.055.638.638 0 0 0 .27.095c.113.014.221.05.319.108a.311.311 0 0 1 .107.42.32.32 0 0 1-.107.115.553.553 0 0 1-.328.108.815.815 0 0 1-.49-.189.062.062 0 0 1-.008-.04.07.07 0 0 1 .016-.036ZM115.06 170.708a.065.065 0 0 1 .021-.016.05.05 0 0 1 .024-.005c.009 0 .018.001.025.005a.715.715 0 0 0 .425.169.406.406 0 0 0 .252-.081.186.186 0 0 0 .071-.257.183.183 0 0 0-.071-.067.636.636 0 0 0-.283-.099.749.749 0 0 1-.297-.104.285.285 0 0 1-.105-.099.283.283 0 0 1-.039-.139.332.332 0 0 1 .144-.261.597.597 0 0 1 .324-.086.728.728 0 0 1 .391.14c.013.012.02.029.02.047a.063.063 0 0 1-.02.047.052.052 0 0 1-.019.014.06.06 0 0 1-.023.005.069.069 0 0 1-.024-.005.604.604 0 0 0-.343-.144.398.398 0 0 0-.252.072.21.21 0 0 0-.086.153.16.16 0 0 0 .023.074.16.16 0 0 0 .054.056.652.652 0 0 0 .27.095.887.887 0 0 1 .324.108.325.325 0 0 1 .148.27.335.335 0 0 1-.153.265.526.526 0 0 1-.328.108.82.82 0 0 1-.491-.189.064.064 0 0 1 .018-.076ZM116.879 170.973l-.027-.027-.495-1.183a.069.069 0 0 1 0-.049.08.08 0 0 1 .031-.037.067.067 0 0 1 .05.001.063.063 0 0 1 .035.035l.45 1.044.302-.729a.073.073 0 0 1 .131 0l.301.729.45-1.044a.061.061 0 0 1 .033-.034.061.061 0 0 1 .048-.002.068.068 0 0 1 .036.086l-.495 1.174a.095.095 0 0 1-.022.036h-.032a.07.07 0 0 1-.054-.04l-.31-.734-.306.729a.076.076 0 0 1-.024.029.07.07 0 0 1-.035.012h-.023l-.044.004ZM119.25 169.65a.667.667 0 0 1 .636.383.66.66 0 0 1-.844.893.664.664 0 0 1-.418-.614.652.652 0 0 1 .626-.662Zm0 1.193a.535.535 0 0 0 .523-.302.532.532 0 0 0-.365-.755.539.539 0 0 0-.653.526.509.509 0 0 0 .134.375.51.51 0 0 0 .361.169v-.013ZM120.33 169.732a.063.063 0 0 1 .067-.068.061.061 0 0 1 .024.007.059.059 0 0 1 .02.015.072.072 0 0 1 .012.021.052.052 0 0 1 .003.025v.292l.022-.036a.641.641 0 0 1 .527-.324c.018 0 .035.007.048.02a.07.07 0 0 1 .019.048.066.066 0 0 1-.021.045.07.07 0 0 1-.046.018.48.48 0 0 0-.383.216 1.095 1.095 0 0 0-.157.306v.58a.052.052 0 0 1-.003.025.072.072 0 0 1-.012.021.059.059 0 0 1-.02.015.061.061 0 0 1-.024.007.075.075 0 0 1-.026-.004.064.064 0 0 1-.041-.064l-.009-1.165ZM122.503 170.73a.637.637 0 0 1-.508.256.662.662 0 1 1 0-1.323.62.62 0 0 1 .508.257v-.761c0-.018.008-.035.02-.047a.067.067 0 0 1 .115.047v1.76a.07.07 0 0 1-.019.048.07.07 0 0 1-.096 0 .072.072 0 0 1-.02-.048v-.189Zm0-.383v-.045a.523.523 0 0 0-.537-.504.528.528 0 1 0 .372.911c.1-.094.16-.224.165-.362ZM123.534 170.208a.063.063 0 0 1 .063-.063.447.447 0 0 0 .45-.45.447.447 0 0 0-.45-.45.453.453 0 0 0-.392.23.072.072 0 0 1-.09.022.064.064 0 0 1-.013-.019.069.069 0 0 1-.005-.024.06.06 0 0 1 .018-.042.585.585 0 0 1 .21-.215.578.578 0 0 1 .29-.078.582.582 0 0 1 .067 1.161v.27a.066.066 0 0 1-.021.045.065.065 0 0 1-.046.018.063.063 0 0 1-.045-.018.067.067 0 0 1-.018-.045l-.018-.342Zm0 .657a.061.061 0 0 1-.001-.03.056.056 0 0 1 .013-.028.063.063 0 0 1 .023-.02.082.082 0 0 1 .03-.007c.011 0 .021.003.03.007a.076.076 0 0 1 .024.02c.006.008.01.017.012.028.002.01.002.02-.001.03v.059a.062.062 0 0 1-.021.044.064.064 0 0 1-.091 0 .067.067 0 0 1-.018-.044v-.059Z" fill="#263238"/><path d="M116.797 34.686h-8.599a.528.528 0 0 1-.531-.531.53.53 0 0 1 .531-.531h8.599a.533.533 0 0 1 .531.531.529.529 0 0 1-.531.531Z" fill="#fff"/><path d="M54.72 154.553c-.522 2.218-1.075 4.401-1.184 6.678.063.112.05.526 0 .413 0 .369-.571.302-.571-.062v-.698c-1.305-1.625-3.2-2.651-4.73-4.05a8.89 8.89 0 0 1-2.591-4.126c-1.27-4.379-.081-9-1.607-13.388-1.319-3.762-3.681-7.038-5.679-10.449-2.11-3.6-3.667-7.398-3.825-11.624-.122-3.235.261-7.546 2.727-9.967 2.61-2.574 5.85-.648 7.852 1.647 5.796 6.655 8.478 15.066 9.563 23.665.599 4.761 1.22 9.55 1.076 14.351a38.722 38.722 0 0 1-1.031 7.61Z" fill="#4B8F46"/><path d="M53.55 162.981a82.284 82.284 0 0 0-.157-13.5v-.045c.072-3.645.36-7.276.215-10.926a64.746 64.746 0 0 0-1.601-11.7c0-.045-.081-.031-.072 0a76.547 76.547 0 0 1 1.268 11.457 71.932 71.932 0 0 1-.049 6.179c-.036.67-.099 1.35-.144 2.02a72.066 72.066 0 0 0-10.845-28.696c-.072-.117-.283 0-.212.13a74.897 74.897 0 0 1 8.83 21.276c-2.79-5.166-7.002-9.414-10.126-14.377 0-.027-.063 0-.049.027 2.808 5.53 7.448 9.9 10.404 15.331.508 2.219.931 4.46 1.242 6.714.418 3.091.643 6.205.675 9.324-1.701-3.172-3.465-6.21-4.851-9.567a.08.08 0 0 0-.04-.039.09.09 0 0 0-.029-.005.074.074 0 0 0-.052.022.076.076 0 0 0-.014.081c1.179 3.487 2.768 7.245 4.995 10.219 0 2.208-.062 4.416-.184 6.624-.347 5.886-1.35 11.7-1.8 17.55a.135.135 0 0 0 .028.1.133.133 0 0 0 .09.051.138.138 0 0 0 .1-.028.137.137 0 0 0 .052-.091 134.383 134.383 0 0 0 2.326-18.131Z" fill="#263238"/><path d="M47.313 117.58c0-.04-.081 0-.068.032 1.076 2.974 1.684 5.985 2.462 9.031.008.027.025.05.048.064a.108.108 0 0 0 .078.016.108.108 0 0 0 .07-.04.111.111 0 0 0 .025-.076c-.316-3.091-1.418-6.174-2.615-9.027Z" fill="#263238"/><path d="M74.615 130.05a45.52 45.52 0 0 1-2.471 5.08c-1.94 3.515-3.956 6.75-4.325 10.832-.162 1.827-.22 3.663-.778 5.4a16.1 16.1 0 0 1-2.16 4.248c-2.097 3.055-4.72 5.692-6.664 8.865a37.233 37.233 0 0 0-4.433 10.678c-.045.207-.369.149-.324-.054a.2.2 0 0 0 0-.049.05.05 0 0 1 0-.041c-.31-8.779.392-17.626 3.069-26.037a90.102 90.102 0 0 1 4.248-10.822c1.435-3.047 3.222-5.981 5.742-8.258 1.633-1.471 5.175-4.261 7.501-2.785 1.13.72 1.035 1.84.595 2.943Z" fill="#4B8F46"/><path d="M65.794 149.945a72.941 72.941 0 0 1-5.102 7.335c-.851 1.107-1.71 2.209-2.561 3.321-.4.522-.85 1.044-1.22 1.611.234-.923.45-1.85.694-2.772 1.134-4.433 2.223-8.91 3.91-13.172 1.647-4.171 3.843-8.1 6.093-11.952.063-.099-.104-.175-.162-.076-1.854 3.051-3.74 6.097-5.296 9.315a48.455 48.455 0 0 0-2.25 5.526 85.766 85.766 0 0 1 2.992-11.808c0-.036-.036-.059-.05-.023a40.297 40.297 0 0 0-3.109 12.281 71.61 71.61 0 0 0-1.057 3.451c-1.382 4.91-2.597 9.873-3.722 14.85-.02-3.274.264-6.543.846-9.765 0-.072-.099-.09-.117 0a30.98 30.98 0 0 0-.846 10.292c-.426 1.896-.842 3.79-1.247 5.683-.859 4.05-1.921 8.168-2.425 12.276a.082.082 0 0 0 .038.083c.009.006.019.01.03.012.01.001.021.001.032-.001a.08.08 0 0 0 .029-.014.08.08 0 0 0 .033-.053c.603-2.214.968-4.5 1.458-6.75a519.555 519.555 0 0 1 3.902-16.528c.544-1.193 1.593-2.25 2.38-3.249.864-1.098 1.728-2.196 2.57-3.312a49.26 49.26 0 0 0 4.225-6.539c.036-.036-.04-.067-.067-.022Z" fill="#263238"/><path d="M66.15 146.192a45.775 45.775 0 0 0-4.95 7.929c0 .036.036.076.058.04 1.679-2.632 3.33-5.287 5.009-7.92.005-.045-.067-.09-.117-.049Z" fill="#263238"/><path d="M28.8 138.366c1.139 1.962 2.434 4.311 1.948 6.664-.31 1.49-1.399 2.7-1.597 4.217-.45 3.352 2.898 5.571 5.319 7.155 6.026 3.955 14.292 7.479 15.39 15.556.04.288.535.216.5-.067a.12.12 0 0 0 0-.05s.031-.027.031-.049a31.02 31.02 0 0 0-.112-12.335c-.9-4.162-2.7-7.902-4.86-11.56-3.627-6.188-7.47-12.528-12.956-17.267-1.517-1.309-4.626-3.672-5.85-.711-1.174 2.88.792 6.057 2.187 8.447Z" fill="#4B8F46"/><path d="M34.317 151.488c3.996 4.325 10.35 6.75 13.788 11.597-2.038-7.425-5.4-14.108-10.597-19.908a.159.159 0 0 1 .014-.206.158.158 0 0 1 .206-.015 39.225 39.225 0 0 1 8.663 12.546 56.072 56.072 0 0 0-3.731-9.54.101.101 0 0 1 0-.07.103.103 0 0 1 .176-.033 36.33 36.33 0 0 1 4.018 10.741c4.536 10.971 4.95 23.85 4.005 35.406 0 .167-.266.171-.261 0 .261-9.112.113-18.387-2.07-27.288-.045-.189-.099-.369-.144-.553-3.744-5.22-10.071-7.65-14.139-12.6-.045-.054.027-.126.072-.077Z" fill="#263238"/><path d="M33.39 147.771c2.097 1.926 4.163 3.892 6.264 5.818 0 0 0 .054-.032.041a30.844 30.844 0 0 1-6.358-5.733.09.09 0 0 1 .008-.118.094.094 0 0 1 .058-.026.093.093 0 0 1 .06.018ZM33.057 139.432a66.423 66.423 0 0 0 6.307 8.648.033.033 0 0 1 .003.014.035.035 0 0 1-.012.025.033.033 0 0 1-.012.008c-.005.002-.01.002-.015.002a.033.033 0 0 1-.025-.012 30.442 30.442 0 0 1-6.358-8.617.067.067 0 0 1 0-.044.065.065 0 0 1 .03-.034.066.066 0 0 1 .042-.009.066.066 0 0 1 .04.019Z" fill="#263238"/><path d="M42.502 200.147H60.88l-2.479-24.723H45.333l-2.83 24.723Z" fill="#455A64"/><path d="M44.874 179.442h13.932l-.4-4.018H45.333l-.459 4.018Z" fill="#263238"/><path d="M43.078 176.634h17.226v-3.947H43.078v3.947Z" fill="#455A64"/></svg>