<svg width="213" height="213" fill="none" xmlns="http://www.w3.org/2000/svg"><path d="M140.827 71.555H72.173l-8.567-42.617h85.788l-8.567 42.617Z" fill="#263238"/><path d="m70.047 30.323-12.643 85.98h98.193l-12.644-85.98" fill="#4B8F46"/><mask id="a" style="mask-type:luminance" maskUnits="userSpaceOnUse" x="57" y="30" width="99" height="87"><path d="m70.047 30.323-12.643 85.98h98.193l-12.644-85.98" fill="#fff"/></mask><g mask="url(#a)"><path opacity=".3" d="M155.597 116.303H57.403l5.287-35.954h87.62l5.287 35.954Z" fill="#000" fill-opacity=".7"/></g><path d="m70.047 30.323-12.643 85.98h98.193l-12.644-85.98" stroke="#263238" stroke-linecap="round" stroke-linejoin="round"/><path d="M140.282 30.323H72.718l-11.715 85.98h90.994l-11.715-85.98Z" fill="#263238"/><path d="M133.606 36.875H96.932l-.426-.937a1.444 1.444 0 0 0-1.32-.852H86.87a.852.852 0 0 0-.852.852v.954h-6.624a.808.808 0 0 0-.793.967l5.419 26.945h44.96l5.419-26.945a.807.807 0 0 0-.16-.682.814.814 0 0 0-.633-.302Z" fill="#BFBFBF" stroke="#263238" stroke-linecap="round" stroke-linejoin="round"/><path d="m134.991 38.94-.469 2.327-4.813 23.937a1.582 1.582 0 0 1-1.547 1.278H84.838a1.576 1.576 0 0 1-1.546-1.278L78.383 40.7l-.354-1.76a.812.812 0 0 1 .439-.884.809.809 0 0 1 .341-.082h55.38a.808.808 0 0 1 .801.967Z" fill="#fff"/><mask id="b" style="mask-type:luminance" maskUnits="userSpaceOnUse" x="78" y="37" width="58" height="30"><path d="m134.991 38.94-.469 2.327-4.813 23.937a1.582 1.582 0 0 1-1.547 1.278H84.838a1.576 1.576 0 0 1-1.546-1.278L78.383 40.7l-.354-1.76a.812.812 0 0 1 .439-.884.809.809 0 0 1 .341-.082h55.38a.808.808 0 0 1 .801.967Z" fill="#fff"/></mask><g mask="url(#b)"><path opacity=".4" d="m134.522 41.267-4.813 23.937a1.581 1.581 0 0 1-1.547 1.278H84.838a1.576 1.576 0 0 1-1.546-1.278L78.384 40.7l56.138.567Z" fill="#4B8F46"/></g><path d="m134.991 38.94-.469 2.327-4.813 23.937a1.582 1.582 0 0 1-1.547 1.278H84.838a1.576 1.576 0 0 1-1.546-1.278L78.383 40.7l-.354-1.76a.812.812 0 0 1 .439-.884.809.809 0 0 1 .341-.082h55.38a.808.808 0 0 1 .801.967Z" stroke="#263238" stroke-linecap="round" stroke-linejoin="round"/><path d="M134.258 43.082H96.702l-.426-.933a1.482 1.482 0 0 0-1.35-.852h-8.52a.852.852 0 0 0-.852.852v.954h-6.816a.816.816 0 0 0-.81.967l5.538 26.864h46.038l5.538-26.864a.816.816 0 0 0-.784-.988Z" fill="#BFBFBF" stroke="#263238" stroke-linecap="round" stroke-linejoin="round"/><path d="m135.673 45.22-.469 2.275-4.937 23.911a1.607 1.607 0 0 1-1.585 1.278H84.318a1.606 1.606 0 0 1-1.584-1.278l-4.955-23.992-.451-2.194a.813.813 0 0 1 .809-.967h56.726a.814.814 0 0 1 .81.967Z" fill="#fff"/><mask id="c" style="mask-type:luminance" maskUnits="userSpaceOnUse" x="77" y="44" width="59" height="29"><path d="m135.673 45.22-.469 2.275-4.937 23.911a1.607 1.607 0 0 1-1.585 1.278H84.318a1.606 1.606 0 0 1-1.584-1.278l-4.955-23.992-.451-2.194a.813.813 0 0 1 .809-.967h56.726a.814.814 0 0 1 .81.967Z" fill="#fff"/></mask><g mask="url(#c)"><path opacity=".4" d="m135.204 47.495-4.937 23.911a1.608 1.608 0 0 1-1.585 1.278H84.318a1.606 1.606 0 0 1-1.584-1.278l-4.955-23.992 57.425.081Z" fill="#4B8F46"/></g><path d="m135.673 45.22-.469 2.275-4.937 23.911a1.607 1.607 0 0 1-1.585 1.278H84.318a1.606 1.606 0 0 1-1.584-1.278l-4.955-23.992-.451-2.194a.813.813 0 0 1 .809-.967h56.726a.814.814 0 0 1 .81.967Z" stroke="#263238" stroke-linecap="round" stroke-linejoin="round"/><path d="M134.906 49.288h-38.43l-.426-.933a1.513 1.513 0 0 0-1.38-.852h-8.742a.852.852 0 0 0-.877.852v.95h-6.957a.817.817 0 0 0-.83.963l5.678 26.783h47.116l5.678-26.783a.808.808 0 0 0-.177-.691.822.822 0 0 0-.653-.289Z" fill="#BFBFBF" stroke="#263238" stroke-linecap="round" stroke-linejoin="round"/><path d="M135.528 50.537H77.472a.814.814 0 0 0-.826.958l5.538 26.11a1.632 1.632 0 0 0 1.619 1.278h45.399a1.633 1.633 0 0 0 1.618-1.278l5.538-26.11a.812.812 0 0 0-.83-.958Z" fill="#fff" stroke="#263238" stroke-linecap="round" stroke-linejoin="round"/><path d="M135.557 54.218h-39.31l-.448-.93a1.555 1.555 0 0 0-1.41-.851h-8.946a.854.854 0 0 0-.899.852v.95h-7.101a.822.822 0 0 0-.852.958l5.806 26.706h48.202l5.806-26.706a.824.824 0 0 0-.848-.98Z" fill="#BFBFBF" stroke="#263238" stroke-linecap="round" stroke-linejoin="round"/><path d="M136.192 55.538H76.808a.822.822 0 0 0-.852.959l5.661 26.032a1.661 1.661 0 0 0 1.657 1.253h46.435a1.66 1.66 0 0 0 1.657-1.252l5.661-26.033a.825.825 0 0 0-.481-.89.821.821 0 0 0-.354-.069Z" fill="#fff" stroke="#263238" stroke-linecap="round" stroke-linejoin="round"/><path d="M136.205 59.146H96.016l-.456-.929a1.597 1.597 0 0 0-1.444-.852h-9.129a.873.873 0 0 0-.916.827v.946h-7.276a.853.853 0 0 0-.852.954l5.939 26.625h49.254l5.938-26.625a.857.857 0 0 0-.514-.879.853.853 0 0 0-.355-.067Z" fill="#BFBFBF" stroke="#263238" stroke-linecap="round" stroke-linejoin="round"/><path d="M136.853 60.544H76.147a.826.826 0 0 0-.852.954l1.423 6.39 4.363 19.566a1.704 1.704 0 0 0 1.704 1.253h47.456a1.704 1.704 0 0 0 1.704-1.253l2.13-9.598 3.647-16.354a.831.831 0 0 0-.204-.689.816.816 0 0 0-.665-.27Z" fill="#fff"/><mask id="d" style="mask-type:luminance" maskUnits="userSpaceOnUse" x="75" y="60" width="63" height="29"><path d="M136.853 60.544H76.147a.826.826 0 0 0-.852.954l1.423 6.39 4.363 19.566a1.704 1.704 0 0 0 1.704 1.253h47.456a1.704 1.704 0 0 0 1.704-1.253l2.13-9.598 3.647-16.354a.831.831 0 0 0-.204-.689.816.816 0 0 0-.665-.27Z" fill="#fff"/></mask><g mask="url(#d)"><path opacity=".4" d="m76.701 67.884 4.363 19.566a1.704 1.704 0 0 0 1.704 1.252h47.473a1.703 1.703 0 0 0 1.704-1.252l2.13-9.598-57.374-9.968Z" fill="#4B8F46"/></g><path d="M136.853 60.544H76.147a.826.826 0 0 0-.852.954l1.423 6.39 4.363 19.566a1.704 1.704 0 0 0 1.704 1.253h47.456a1.704 1.704 0 0 0 1.704-1.253l2.13-9.598 3.647-16.354a.831.831 0 0 0-.204-.689.816.816 0 0 0-.665-.27Z" stroke="#263238" stroke-linecap="round" stroke-linejoin="round"/><path d="m94.474 89.627-.537-.895a1.768 1.768 0 0 0-1.606-.767l-9.917.456a.924.924 0 0 0-.959.852l.043.937-7.907.363c-.604.025-1.039.502-.894.984l7.668 25.986 53.523-2.463 5.244-26.57c.093-.494-.38-.928-.989-.898l-43.669 2.015Z" fill="#BFBFBF" stroke="#263238" stroke-linecap="round" stroke-linejoin="round"/><path d="m139.898 90.171-.596 3.06-4.503 22.845a1.825 1.825 0 0 1-1.785 1.321l-51.576 2.369a1.83 1.83 0 0 1-1.9-1.151L72.42 94.461l-.345-1.171c-.14-.482.294-.959.899-.984l65.949-3.033c.601-.026 1.073.409.975.898Z" fill="#fff"/><mask id="e" style="mask-type:luminance" maskUnits="userSpaceOnUse" x="72" y="89" width="68" height="31"><path d="m139.898 90.171-.596 3.06-4.503 22.845a1.825 1.825 0 0 1-1.785 1.321l-51.576 2.369a1.83 1.83 0 0 1-1.9-1.151L72.42 94.461l-.345-1.171c-.14-.482.294-.959.899-.984l65.949-3.033c.601-.026 1.073.409.975.898Z" fill="#fff"/></mask><g mask="url(#e)"><path opacity=".4" d="m139.302 93.23-4.503 22.847a1.822 1.822 0 0 1-1.785 1.32l-51.576 2.369a1.824 1.824 0 0 1-1.9-1.15L72.42 94.462l66.882-1.231Z" fill="#4B8F46"/></g><path d="m139.898 90.171-.596 3.06-4.503 22.845a1.825 1.825 0 0 1-1.785 1.321l-51.576 2.369a1.83 1.83 0 0 1-1.9-1.151L72.42 94.461l-.345-1.171c-.14-.482.294-.959.899-.984l65.949-3.033c.601-.026 1.073.409.975.898Z" stroke="#263238" stroke-linecap="round" stroke-linejoin="round"/><path d="m95.612 95.557-.456-.938a1.819 1.819 0 0 0-1.56-.92l-10.1-.528a.937.937 0 0 0-1.065.763l-.047.933-8.06-.427c-.617-.034-1.103.397-1.01.887l5.21 26.535 54.584 2.854 7.945-25.845c.145-.481-.294-.959-.912-.988l-44.53-2.326Z" fill="#BFBFBF" stroke="#263238" stroke-linecap="round" stroke-linejoin="round"/><path d="m141.671 100.673-1.278 4.209-6.45 20.984a1.853 1.853 0 0 1-1.943 1.133l-52.598-2.747a1.866 1.866 0 0 1-1.815-1.329l-4.451-22.693-.622-3.174c-.098-.49.392-.92 1.01-.886l67.235 3.514c.618.034 1.061.512.912.989Z" fill="#fff"/><mask id="f" style="mask-type:luminance" maskUnits="userSpaceOnUse" x="72" y="96" width="70" height="32"><path d="m141.671 100.673-1.278 4.209-6.45 20.984a1.853 1.853 0 0 1-1.943 1.133l-52.598-2.747a1.866 1.866 0 0 1-1.815-1.329l-4.451-22.693-.622-3.174c-.098-.49.392-.92 1.01-.886l67.235 3.514c.618.034 1.061.512.912.989Z" fill="#fff"/></mask><g mask="url(#f)"><path opacity=".4" d="m140.376 104.881-6.45 20.985a1.858 1.858 0 0 1-1.943 1.133l-52.598-2.747a1.866 1.866 0 0 1-1.815-1.329l-4.451-22.694 67.257 4.652Z" fill="#4B8F46"/></g><path d="m141.671 100.673-1.278 4.209-6.45 20.984a1.853 1.853 0 0 1-1.943 1.133l-52.598-2.747a1.866 1.866 0 0 1-1.815-1.329l-4.451-22.693-.622-3.174c-.098-.49.392-.92 1.01-.886l67.235 3.514c.618.034 1.061.512.912.989Z" stroke="#263238" stroke-linecap="round" stroke-linejoin="round"/><path d="m94.64 102.351-.494-.911a1.853 1.853 0 0 0-1.632-.852H82.167a.944.944 0 0 0-1.04.813v.929h-8.23c-.63 0-1.103.451-.98.937l6.714 26.144h55.738l6.714-26.144c.123-.486-.35-.937-.98-.937l-45.463.021Z" fill="#BFBFBF" stroke="#263238" stroke-linecap="round" stroke-linejoin="round"/><path d="M133.338 131.843H79.662c-.929 0-1.734-.515-1.917-1.227l-6.56-25.487c-.128-.486.345-.938.98-.938h68.671c.634 0 1.107.452.979.938l-6.543 25.487c-.183.712-.988 1.227-1.934 1.227Z" fill="#fff" stroke="#263238" stroke-linecap="round" stroke-linejoin="round"/><path d="m94.41 108.558-.524-.907a1.918 1.918 0 0 0-1.665-.831H81.698a.96.96 0 0 0-1.06.814v.924H72.25c-.648 0-1.13.452-1.001.937l6.845 26.063h56.812l6.846-26.075c.127-.486-.354-.938-1.002-.938l-46.34.013Z" fill="#BFBFBF" stroke="#263238" stroke-linecap="round" stroke-linejoin="round"/><path d="M133.875 138.024h-54.75c-.945 0-1.763-.516-1.95-1.227l-6.676-25.407c-.124-.485.358-.937 1-.937H141.5c.643 0 1.125.452 1.001.937l-6.675 25.407c-.188.728-1.005 1.227-1.951 1.227Z" fill="#fff" stroke="#263238" stroke-linecap="round" stroke-linejoin="round"/><path d="M144.998 167.405H68.002L51.15 119.612h110.7l-16.852 47.793Z" fill="#4B8F46"/><mask id="g" style="mask-type:luminance" maskUnits="userSpaceOnUse" x="51" y="119" width="111" height="49"><path d="M144.998 167.405H68.002L51.15 119.612h110.7l-16.852 47.793Z" fill="#fff"/></mask><g mask="url(#g)"><path opacity=".3" d="M144.998 167.405H68.002L51.15 119.612h110.7l-16.852 47.793Z" fill="#000" fill-opacity=".7"/></g><path d="M144.998 167.405H68.002L51.15 119.612h110.7l-16.852 47.793Z" stroke="#263238" stroke-linecap="round" stroke-linejoin="round"/><path d="M160.385 113.32H52.615l-1.465 6.292h110.7l-1.465-6.292Z" fill="#4B8F46" stroke="#263238" stroke-linecap="round" stroke-linejoin="round"/><path d="M79.777 141.509 78.7 151.711h55.602l-1.078-10.202h-2.454l.699 7.28H81.532l.699-7.28h-2.454Z" fill="#BFBFBF" stroke="#263238" stroke-linecap="round" stroke-linejoin="round"/><path d="M133.883 154.055H79.117l-.418-2.343h55.602l-.418 2.343ZM130.769 141.509l-.341 2.705.341 4.575h.699l-.699-7.28ZM82.23 141.509l.346 2.705-.345 4.575h-.699l.699-7.28Z" fill="#757575" stroke="#263238" stroke-linecap="round" stroke-linejoin="round"/><path d="M124.418 136.389H88.582l-1.708-8.657h39.252l-1.708 8.657Z" fill="#fff" stroke="#263238" stroke-linecap="round" stroke-linejoin="round"/><path d="m99.011 133.312.239-3.667h1.09l.32 5.09h-.703l-.252-3.595-.242 3.595h-.708l-.852-3.544.32 3.544h-.669l-.494-5.09h1.09l.861 3.667ZM101.814 133.108l-1.163-3.463h.822l.699 2.385.481-2.385h.75l-.852 3.463.068 1.627h-.745l-.06-1.627ZM105.648 131.975h.993v.724h-.98v2.036h-.746l-.085-5.09h2.096v.762h-1.278v1.568ZM107.318 129.645h.784l-.081 5.09h-.746l.043-5.09ZM108.677 129.645h.805l-.132 4.396h1.231l-.03.694h-1.968l.094-5.09ZM111.761 131.855h1.052l-.047.729h-1.047l-.081 1.457h1.278l-.047.694h-2.028l.239-5.09h2.13l-.056.762h-1.346l-.047 1.448ZM114.786 129.585c.767 0 1.112.486 1.031 1.333v.162h-.733l.021-.217c.034-.375-.098-.52-.345-.52-.247 0-.4.145-.426.52-.025.375.098.66.562 1.125.584.587.746 1.005.691 1.572-.077.788-.499 1.231-1.227 1.231-.729 0-1.078-.426-1.023-1.231l.026-.303h.716l-.03.354c-.03.353.11.477.349.477s.4-.124.426-.477c.026-.354-.094-.631-.554-1.087-.592-.588-.767-1.014-.72-1.606.043-.847.473-1.333 1.236-1.333Z" fill="#263238"/><path d="m108.898 52.624-.349-1.001a1.679 1.679 0 0 0-1.389-1.048l-9.474-1.223a.908.908 0 0 0-1.06.716l-.124.958-7.549-.971a.852.852 0 0 0-1.027.852l2.689 27.75 51.119 6.59 9.637-26.16a.863.863 0 0 0-.128-.728.848.848 0 0 0-.648-.355l-41.697-5.38Z" fill="#fff"/><mask id="h" style="mask-type:luminance" maskUnits="userSpaceOnUse" x="87" y="49" width="65" height="37"><path d="m108.898 52.624-.349-1.001a1.679 1.679 0 0 0-1.389-1.048l-9.474-1.223a.908.908 0 0 0-1.06.716l-.124.958-7.549-.971a.852.852 0 0 0-1.027.852l2.689 27.75 51.119 6.59 9.637-26.16a.863.863 0 0 0-.128-.728.848.848 0 0 0-.648-.355l-41.697-5.38Z" fill="#fff"/></mask><g mask="url(#h)"><path opacity=".4" d="m108.898 52.624-.349-1.001a1.679 1.679 0 0 0-1.389-1.048l-9.474-1.223a.908.908 0 0 0-1.06.716l-.124.958-7.549-.971a.852.852 0 0 0-1.027.852l2.689 27.75 51.119 6.59 9.637-26.16a.863.863 0 0 0-.128-.728.848.848 0 0 0-.648-.355l-41.697-5.38Z" fill="#4B8F46"/></g><path d="m108.898 52.624-.349-1.001a1.679 1.679 0 0 0-1.389-1.048l-9.474-1.223a.908.908 0 0 0-1.06.716l-.124.958-7.549-.971a.852.852 0 0 0-1.027.852l2.689 27.75 51.119 6.59 9.637-26.16a.863.863 0 0 0-.128-.728.848.848 0 0 0-.648-.355l-41.697-5.38Z" stroke="#263238" stroke-linecap="round" stroke-linejoin="round"/><path d="m151.86 60.658-8.724 23.69-.673 1.823a1.772 1.772 0 0 1-1.921 1.04l-49.267-6.356a1.768 1.768 0 0 1-1.594-1.495l-2.62-27.051a.854.854 0 0 1 1.027-.852l41.927 5.405 21.07 2.714a.856.856 0 0 1 .648.355.858.858 0 0 1 .127.727Z" fill="#fff"/><mask id="i" style="mask-type:luminance" maskUnits="userSpaceOnUse" x="87" y="51" width="65" height="37"><path d="m151.86 60.658-8.724 23.69-.673 1.823a1.772 1.772 0 0 1-1.921 1.04l-49.267-6.356a1.768 1.768 0 0 1-1.594-1.495l-2.62-27.051a.854.854 0 0 1 1.027-.852l41.927 5.405 21.07 2.714a.856.856 0 0 1 .648.355.858.858 0 0 1 .127.727Z" fill="#fff"/></mask><g mask="url(#i)"><path opacity=".3" d="m151.86 60.658-8.724 23.69c-6.181-1.461-6.416-5.312-7.451-7.306-1.141-2.198-8.379-3.365-10.403-3.719-2.023-.353-3.254-2.402-3.254-2.402-1.824-5.112 7.693-9.585 7.693-9.585-.187-.703.09-3.008.29-4.465l21.07 2.714a.853.853 0 0 1 .779 1.073Z" fill="#000" fill-opacity=".7"/></g><path d="m151.86 60.658-8.724 23.69-.673 1.823a1.772 1.772 0 0 1-1.921 1.04l-49.267-6.356a1.768 1.768 0 0 1-1.594-1.495l-2.62-27.051a.854.854 0 0 1 1.027-.852l41.927 5.405 21.07 2.714a.856.856 0 0 1 .648.355.858.858 0 0 1 .127.727Z" stroke="#263238" stroke-linecap="round" stroke-linejoin="round"/><path d="M96.327 59.598 97 76.34l6.066.783.716-16.682-7.455-.843Z" fill="#4B8F46" stroke="#263238" stroke-linecap="round" stroke-linejoin="round"/><path d="M100.029 75.108a2.168 2.168 0 0 0-.294-1.751 6.495 6.495 0 0 0-1.231-1.35 6.05 6.05 0 0 0 2.288.758c0-.874-.852-1.478-1.58-1.939a1.2 1.2 0 0 1 1.03.077.842.842 0 0 0-.302-.72c.093.081.238-.047.234-.166a.767.767 0 0 0-.149-.328 1.629 1.629 0 0 1-.132-.822c0-1.001.03-2.007.042-3.008a.478.478 0 0 0 .35.388c0-.396-.047-.793-.086-1.189a623.612 623.612 0 0 0-.285-3.007" stroke="#263238" stroke-linecap="round" stroke-linejoin="round"/><path d="M196.386 114.031s-34.378-30.757-36.568-32.695c-2.189-1.938-3.791-1.853-4.971-3.033-1.18-1.18-1.772-2.02-6.573-1.938-4.801.08-11.208-2.527-12.64-3.455-1.431-.929-3.455-.252-4.805-.776-1.351-.524-4.801-.064-6.91 0s-2.275-2.087-1.431-4.532c.843-2.446 7.242-3.958 8.094-3.455.852.502 4.213-.925 4.213-.925-.507-1.772-.337-6.07-.337-6.07s-3.54-1.517-4.886-2.02a8.603 8.603 0 0 0-3.203-.336s.426-1.934 1.094-2.654c.669-.72 3.877-1.393 6.995-3.583 3.119-2.19 5.057-2.696 5.538-2.53.482.166 3.962 1.18 4.891 1.18.929 0 2.275-.852 3.621-.588s3.791 2.36 4.886 2.612c1.095.25 1.431.481 2.867.481.631 0 3.204 1.879 3.204 1.879 1.077.205 2.124.544 3.118 1.01 1.597.758 3.284 4.383 4.043 5.563.758 1.18.852 4.043.852 4.043s2.023 1.094 2.781 2.61c.759 1.517 28.683 16.517 28.683 16.517s4.401 17.249-2.556 32.695Z" fill="#fff"/><path opacity=".4" d="M171.908 92.122a5935.265 5935.265 0 0 0-12.073-10.786c-2.194-1.938-3.791-1.853-4.971-3.033-1.18-1.18-1.772-2.02-6.573-1.938-4.801.08-11.208-2.527-12.64-3.455-1.431-.929-3.455-.252-4.805-.776-1.351-.524-4.801-.064-6.91 0s-2.275-2.087-1.431-4.532c.843-2.446 7.242-3.958 8.094-3.455.852.502 4.213-.925 4.213-.925-.507-1.772-.337-6.07-.337-6.07s-3.54-1.517-4.886-2.02a8.603 8.603 0 0 0-3.203-.336s.426-1.934 1.094-2.654c.669-.72 3.877-1.393 6.995-3.583 3.119-2.19 5.057-2.696 5.538-2.53.482.166 3.962 1.18 4.891 1.18.703 0 1.653-.486 2.662-.61-.818.457-1.384 1.326-1.231 1.79.243.733.929 2.599.967 2.718-.183-.179-4.601-4.541-7.455-4.315-2.466.191-4.971 4.345-4.549 7.395.421 3.05-.601 3.05-.047 5.325.554 2.275 1.056 5.478.213 6.744-.844 1.265-2.526-.984-2.526-.984a4.108 4.108 0 0 0-2.13 3.51c0 2.445 2.556 2.611 4.064 2.867 1.508.255 7.071 3.301 10.871 3.463l3.8.158s-2.194-2.982-1.278-3.136c.916-.153 3.706.12 5.538 2.982 1.832 2.863 3.238 3.498 6.633 4.904 2.006.805 7.297 6.517 11.472 12.102ZM188.744 75.785c-.516-.243-17.04-8.03-17.871-9.193-.831-1.163-1.853-1.448-2.782-2.62-.929-1.171-4.043-1.93-4.464-3.532-.422-1.601-.929-6.462-1.704-7.063a14.14 14.14 0 0 0-2.02-1.235l1.253 3.123s-2.854-4.043-3.532-4.154c-.677-.11.733 2.94.609 2.846-.123-.094-3.216-2.982-5.806-5.172.308.186.638.329.984.426 1.099.252 1.431.482 2.867.482.631 0 3.204 1.878 3.204 1.878 1.077.206 2.124.545 3.118 1.01 1.597.758 3.284 4.383 4.043 5.563.758 1.18.852 4.043.852 4.043s2.023 1.095 2.781 2.612c.456.92 10.42 6.547 18.468 10.986Z" fill="#4B8F46"/><path d="M196.386 114.031s-34.378-30.757-36.568-32.695c-2.189-1.938-3.791-1.853-4.971-3.033-1.18-1.18-1.772-2.02-6.573-1.938-4.801.08-11.208-2.527-12.64-3.455-1.431-.929-3.455-.252-4.805-.776-1.351-.524-4.801-.064-6.91 0s-2.275-2.087-1.431-4.532c.843-2.446 7.242-3.958 8.094-3.455.852.502 4.213-.925 4.213-.925-.507-1.772-.337-6.07-.337-6.07s-3.54-1.517-4.886-2.02a8.603 8.603 0 0 0-3.203-.336s.426-1.934 1.094-2.654c.669-.72 3.877-1.393 6.995-3.583 3.119-2.19 5.057-2.696 5.538-2.53.482.166 3.962 1.18 4.891 1.18.929 0 2.275-.852 3.621-.588s3.791 2.36 4.886 2.612c1.095.25 1.431.481 2.867.481.631 0 3.204 1.879 3.204 1.879 1.077.205 2.124.544 3.118 1.01 1.597.758 3.284 4.383 4.043 5.563.758 1.18.852 4.043.852 4.043s2.023 1.094 2.781 2.61c.759 1.517 28.683 16.517 28.683 16.517" stroke="#263238" stroke-linecap="round" stroke-linejoin="round"/><path d="M134.471 57.152s.392-3.314 0-3.774M144.861 49.037s5.734 4.852 6.182 5.15M150.246 47.405c.788.49 7.144 6.126 9.223 7.417M167.503 62.196c-.617-.362-2.249-1.15-2.415-1.768M134.808 63.223s.336 1.376 0 2.049M129.751 67.576s-.784 2.19 1.069 3.651M137.394 46.792a4.28 4.28 0 0 0-1.125 2.245M128.652 53.378a3.825 3.825 0 0 0 2.19 2.245M153.85 77.366a41.699 41.699 0 0 0-3.604-4.52" stroke="#263238" stroke-linecap="round" stroke-linejoin="round"/><path d="M35.993 189.702s27.52-18.088 29.202-20.422a18.158 18.158 0 0 1 3.033-3.408s.788-6.744 2.812-10.224c2.023-3.481 2.807-6.071 3.706-7.869.899-1.797 5.167-3.143 6.39-3.834 1.223-.69 3.374-2.023 4.61-2.023a6.916 6.916 0 0 1 2.696.788s4.158-2.13 6.066-.788c0 0 4.72.226 5.841.111 1.12-.115 2.811.677 2.811.677s2.807-2.019 4.716-1.235c1.908.784 2.82 1.12 2.871 2.245.051 1.124-.473 4.941-.473 4.941h-.937s-3.144 4.094-3.48 4.912c-.337.818-2.13 5.312-2.13 5.312s2.356-1.797 3.834-3.144c1.478-1.346 4.047-3.932 6.743-4.605 2.697-.673 4.605.831 4.605 2.437 0 0-3.144 2.505-3.834 3.293-.69.788-1.891 2.807-3.246 4.26-1.354 1.453-4.477 7.57-7.195 10.488-2.718 2.918-14.484 9.21-17.193 10.109 0 0-16.401 11.46-23.592 21.121 0 0-19.545.115-27.856-13.142Z" fill="#fff"/><path opacity=".4" d="M89.353 179.252c.235.239 1.193.383 2.556.426a41.24 41.24 0 0 1-4.456 2.062s-10.726 7.493-18.633 15.472c2.723-4.332 7.95-9.738 9.892-10.863 2.705-1.576 7.902-6.662 7.902-6.662s1.96-1.223 2.74-.435ZM107.552 155.771a32.492 32.492 0 0 1 3.689-3.122 18.867 18.867 0 0 0-3.339 5.146c-.52 2.824-5.394 8.648-5.394 8.648 1.572-5.053.222-6.067.665-7.528.443-1.461.728-5.044.728-5.044s.852-1.469 1.751-1.806c.899-.336 3.259-6.292 3.698-7.097.439-.805-2.91-2.13-3.809-2.228-.898-.098-1.235 1.457-3.033 2.228-1.797.771-4.055 2.185-4.886 3.012-.83.826-2.275 4.481-2.368 4.707.063-.256 1.082-4.358 1.346-5.176.221-.681 2.381-1.938 3.182-2.385-1.33.617-2.075-.554-3.182-1.619-1.189-1.142-2.96-1.504-4.9-.912-1.938.592-3.237 2.053-3.245 1.943-.009-.111-2.897-.618-3.834-.341-.938.277-3.102 1.257-3.102 1.257s-1.968-1.134-5.201 2.057c-1.35 1.333-5.845 11.502-5.172 10.284.673-1.219 3.608-4.857 3.792-5.082-.196.477-6.156 13.853-7.374 14.705-1.219.852-1.572 3.868-5.964 6.343-4.167 2.348-20.235 12.448-21.829 13.449 7.621-5.065 24.129-16.137 25.407-17.93a18.158 18.158 0 0 1 3.033-3.408s.788-6.744 2.812-10.224c2.023-3.481 2.807-6.071 3.706-7.869.899-1.797 5.167-3.143 6.39-3.834 1.222-.69 3.374-2.023 4.61-2.023a6.915 6.915 0 0 1 2.696.788s4.158-2.13 6.066-.788c0 0 4.72.226 5.841.111 1.12-.115 2.811.677 2.811.677s2.807-2.019 4.716-1.235c1.908.784 2.82 1.12 2.871 2.245.051 1.124-.473 4.941-.473 4.941h-.937s-3.144 4.094-3.48 4.912c-.337.818-2.13 5.312-2.13 5.312s2.364-1.768 3.842-3.114ZM118.901 153.603s-3.144 2.505-3.834 3.293c-.405.473-1.006 1.393-1.704 2.369a18.68 18.68 0 0 0 .72-3.493 5.781 5.781 0 0 1 2.696-2.13 5.096 5.096 0 0 1 2.13-.162.562.562 0 0 1-.008.123Z" fill="#4B8F46"/><path d="M35.993 189.702s27.52-18.088 29.202-20.422a18.158 18.158 0 0 1 3.033-3.408s.788-6.744 2.812-10.224c2.023-3.481 2.807-6.071 3.706-7.869.899-1.797 5.167-3.143 6.39-3.834 1.223-.69 3.374-2.023 4.61-2.023a6.916 6.916 0 0 1 2.696.788s4.158-2.13 6.066-.788c0 0 4.72.226 5.841.111 1.12-.115 2.811.677 2.811.677s2.807-2.019 4.716-1.235c1.908.784 2.82 1.12 2.871 2.245.051 1.124-.473 4.941-.473 4.941h-.937s-3.144 4.094-3.48 4.912c-.337.818-2.13 5.312-2.13 5.312s2.356-1.797 3.834-3.144c1.478-1.346 4.047-3.932 6.743-4.605 2.697-.673 4.605.831 4.605 2.437 0 0-3.144 2.505-3.834 3.293-.69.788-1.891 2.807-3.246 4.26-1.354 1.453-4.477 7.57-7.195 10.488-2.718 2.918-14.484 9.21-17.193 10.109 0 0-16.401 11.46-23.592 21.121" stroke="#263238" stroke-linecap="round" stroke-linejoin="round"/><path d="M103.735 158.898s.673 3.374-.677 6.39M99.352 145.322a14.034 14.034 0 0 0 3.834-2.582M109.35 148.674c.363-.743.61-1.538.733-2.356M94.52 141.952a5.805 5.805 0 0 0-3.765 1.278M88.455 142.74s-3.37 1.572-4.55 1.572c-1.18 0-3.093 1.572-3.093 2.024M68.228 165.885a23.32 23.32 0 0 0 2.42-4.891M100.08 146.335s-2.13.558-2.862 2.356c-.733 1.797-4.103 8.034-4.103 8.034M89.353 145.321c-.451 1.07-5.508 10.45-5.508 10.45" stroke="#263238" stroke-linecap="round" stroke-linejoin="round"/></svg>