<svg width="152" height="152" fill="none" xmlns="http://www.w3.org/2000/svg"><path d="M134.116 95.103c-1.277.216-3.67 1.86-3.673 1.86-.003 0 1.563 1.25 1.672 1.317 1.262.766 4.153 1.504 5.402.42a1.961 1.961 0 0 0 .459-2.259 1.957 1.957 0 0 0-.486-.654c-.851-.8-2.286-.87-3.374-.684Z" fill="#0F6A08"/><path d="M128.674 88.615c-1.128.523-2.885 2.569-3.025 2.736a34.782 34.782 0 0 0-3.693-2.778c-.751-.496-1.52-.97-2.299-1.438.387.16.733.304.785.304 1.419.404 4.402.355 5.323-1.019a1.964 1.964 0 0 0-.155-2.3 1.954 1.954 0 0 0-.642-.503c-1.03-.547-2.432-.234-3.435.231-1.003.466-2.547 2.186-2.949 2.645-.304-.176-.608-.355-.912-.529-1.444-.842-2.891-1.672-4.283-2.532a38.072 38.072 0 0 1-1.438-.93c.344.14.635.258.681.27 1.42.408 4.402.356 5.32-1.018a1.95 1.95 0 0 0 .227-1.58 1.96 1.96 0 0 0-1.023-1.223c-1.031-.547-2.432-.234-3.433.231-1 .465-2.398 2.019-2.875 2.563-.478-.338-.955-.672-1.399-1.022-.304-.243-.608-.456-.891-.72l-.86-.751c-.529-.499-1.076-1.01-1.581-1.52-.352-.344-.681-.678-1.015-1.016.486.305 1.447.888 1.535.928 1.341.608 4.296 1.018 5.414-.2a1.948 1.948 0 0 0 .463-1.528 1.959 1.959 0 0 0-.827-1.364c-.934-.7-2.369-.608-3.43-.304-1.164.337-3.14 2.016-3.383 2.228a96.026 96.026 0 0 1-1.572-1.632 99.924 99.924 0 0 1-2.809-3.125l-.912.608c.83.912 1.839 2.012 3.013 3.207a82.995 82.995 0 0 0 1.787 1.775c-.48.682-.918 1.392-1.31 2.128-1.216-.304-3.614-.015-3.921.025-.152-.77-.304-1.52-.41-2.229a135.415 135.415 0 0 1-.609-3.967l-.982.641c.165 1.043.365 2.217.608 3.503a98.4 98.4 0 0 0 .511 2.465c-.304.116-2.709 1.076-3.554 1.952-.766.79-1.52 2.015-1.343 3.167a1.955 1.955 0 0 0 2.383 1.672c1.599-.416 2.626-3.216 2.712-4.69 0-.088-.049-1.037-.092-1.636.08.347.152.687.238 1.043.164.708.35 1.41.544 2.164.106.362.215.727.325 1.095.11.368.255.745.38 1.121.304.867.669 1.727 1.049 2.588-.608.145-2.81.693-3.694 1.362-.884.668-1.824 1.763-1.809 2.93a1.954 1.954 0 0 0 2.104 2.013c1.645-.17 3.086-2.782 3.393-4.226.018-.091.121-1.152.164-1.736.234.517.462 1.03.714 1.544.73 1.484 1.52 2.964 2.283 4.442.24.453.471.912.703 1.362-.219.048-2.84.641-3.828 1.392-.878.669-1.824 1.763-1.809 2.931a1.95 1.95 0 0 0 2.104 2.012c1.645-.17 3.083-2.781 3.39-4.225a47.7 47.7 0 0 0 .185-2.028c.514 1 1.015 2 1.471 3.006a34.63 34.63 0 0 1 1.639 4.196c-.103.024-2.839.632-3.852 1.398-.878.669-1.824 1.763-1.824 2.931a1.953 1.953 0 0 0 2.104 2.012c1.645-.17 3.086-2.782 3.393-4.226.021-.112.179-1.757.185-2.058.024.082.061.168.085.25.403 1.441.678 2.915.821 4.405.088.823.125 1.614.146 2.383-.523.061-2.9.365-3.888.955-.988.589-1.994 1.553-2.128 2.714a1.953 1.953 0 0 0 .439 1.531c.176.211.394.382.641.502.246.121.515.189.789.199 1.654 0 3.375-2.432 3.837-3.828.024-.076.194-.881.304-1.468v1.04c0 1.249-.091 2.395-.176 3.407-.052.575-.11 1.095-.171 1.581-.48.329-2.398 1.669-2.991 2.63-.593.961-1.058 2.295-.632 3.383a1.96 1.96 0 0 0 1.093 1.162 1.96 1.96 0 0 0 1.594-.04c1.474-.754 1.876-3.709 1.639-5.168-.022-.128-.566-2.061-.59-2.043l-.031.019a44.708 44.708 0 0 0 .447-4.934 34.79 34.79 0 0 0-.076-4.059 25.608 25.608 0 0 0-.729-4.478v-.051a62.28 62.28 0 0 0 1.085 1.611c.961 1.122 3.478 2.736 5.004 2.085.25-.113.474-.277.656-.483a1.944 1.944 0 0 0 .481-1.52 1.947 1.947 0 0 0-.259-.772c-.556-1.025-1.9-1.539-2.991-1.703-1.216-.185-3.824.554-4.031.608a34.747 34.747 0 0 0-1.547-4.353 62.416 62.416 0 0 0-1.125-2.468c.234.346.447.656.48.696.961 1.121 3.478 2.736 5.001 2.085a1.96 1.96 0 0 0 1.14-2.002 1.95 1.95 0 0 0-.259-.773c-.556-1.028-1.9-1.539-2.991-1.706-1.091-.167-3.344.42-3.915.58-.155-.303-.304-.625-.459-.936-.745-1.498-1.493-2.988-2.18-4.474-.243-.523-.462-1.046-.684-1.572l.416.608c.961 1.122 3.478 2.736 5.004 2.088a1.958 1.958 0 0 0 .879-2.778c-.557-1.025-1.9-1.538-2.992-1.703-1.091-.164-3.113.362-3.812.554-.21-.544-.422-1.089-.608-1.624-.115-.367-.252-.714-.346-1.091-.095-.377-.201-.739-.304-1.103-.168-.709-.34-1.435-.487-2.128a76.98 76.98 0 0 1-.285-1.408c.234.526.717 1.541.766 1.62a7.62 7.62 0 0 0 2.878 2.536c.075.123.162.24.259.346a1.956 1.956 0 0 0 2.912.08c1.104-1.232.417-4.132-.328-5.409a36.226 36.226 0 0 0-.976-1.313c.258.246.505.49.772.738.529.502 1.07.985 1.648 1.52l.875.733c.289.252.624.48.937.724.738.55 1.52 1.073 2.304 1.58-.438.463-1.964 2.129-2.332 3.174-.367 1.046-.538 2.469.107 3.442a1.953 1.953 0 0 0 1.317.897 1.96 1.96 0 0 0 1.549-.378c1.28-1.052 1.04-4.025.496-5.396-.033-.088-.532-1.027-.818-1.54.478.303.955.607 1.447.893 1.426.839 2.894 1.638 4.357 2.447.446.246.89.499 1.334.748-.155.161-2.012 2.104-2.432 3.274-.365 1.04-.541 2.469.107 3.441a1.95 1.95 0 0 0 1.316.898 1.958 1.958 0 0 0 1.547-.378c1.28-1.052 1.04-4.025.499-5.396a45.952 45.952 0 0 0-.964-1.793c.979.55 1.949 1.106 2.885 1.696a34.8 34.8 0 0 1 3.633 2.605c-.073.076-2.022 2.092-2.432 3.292-.365 1.04-.541 2.469.106 3.442a1.967 1.967 0 0 0 1.318.897 1.958 1.958 0 0 0 1.549-.38c1.277-1.05 1.037-4.022.496-5.397a50.733 50.733 0 0 0-.979-1.824l.206.162c1.131.98 2.172 2.06 3.11 3.225.526.639.994 1.277 1.435 1.906-.401.338-2.216 1.906-2.715 2.943-.498 1.037-.808 2.395-.27 3.432a1.96 1.96 0 0 0 2.022 1.103c.273-.036.535-.129.769-.273 1.386-.912 1.474-3.882 1.085-5.308a37.457 37.457 0 0 0-.55-1.395c.194.289.401.58.583.86a44.645 44.645 0 0 1 2.463 4.353c-.222.538-1.083 2.715-1.046 3.846.036 1.131.386 2.496 1.338 3.171a1.952 1.952 0 0 0 2.304.045c.225-.157.415-.36.556-.596.815-1.437-.48-4.125-1.483-5.21-.085-.094-1.608-1.408-1.618-1.38l-.015.033c-.2-.425-.422-.878-.672-1.371a42.573 42.573 0 0 0-1.675-2.985 34.36 34.36 0 0 0-2.301-3.344 25.485 25.485 0 0 0-3.076-3.344l-.043-.034c.441.201 1.693.718 1.794.745 1.419.408 4.402.356 5.323-1.018a1.964 1.964 0 0 0-.155-2.3 1.954 1.954 0 0 0-.642-.503c-1.021-.538-2.426-.216-3.426.24Z" fill="#0F6A08"/><path d="M109.197 110.656c-.031 0 .608 1.903.669 2.018.629 1.335 2.632 3.545 4.271 3.344a1.95 1.95 0 0 0 1.623-1.622c.044-.27.03-.546-.039-.81-.268-1.137-1.426-1.988-2.432-2.432-1.189-.562-4.092-.498-4.092-.498ZM43.958 45.296c.912-.517 2.247-2.432 2.247-2.432s-1.52-.508-1.623-.526c-1.162-.225-3.542.021-4.184 1.183a1.573 1.573 0 0 0 .83 2.185c.864.386 1.964.037 2.73-.41Z" fill="#0F6A08"/><path d="M49.856 48.673c.702-.708 1.456-2.736 1.52-2.897 1.159.433 2.345.789 3.55 1.064.703.164 1.417.304 2.129.444-.335 0-.636-.025-.678-.022-1.183.092-3.411.958-3.724 2.247a1.574 1.574 0 0 0 1.38 1.888c.927.128 1.897-.499 2.52-1.128.623-.63 1.31-2.353 1.484-2.809l.824.149c1.322.228 2.641.453 3.93.711.453.091.897.198 1.34.304-.303 0-.55-.018-.589 0-1.18.088-3.41.955-3.72 2.247a1.571 1.571 0 0 0 1.376 1.888c.93.124 1.897-.502 2.523-1.128.627-.626 1.244-2.189 1.45-2.736.453.121.912.24 1.338.38.304.1.58.176.87.304l.857.328c.535.228 1.091.46 1.608.696.362.161.702.304 1.046.48a41.098 41.098 0 0 0-1.41-.27c-1.183-.091-3.518.429-4.023 1.657a1.567 1.567 0 0 0 1.08 2.073c.911.268 1.948-.203 2.662-.73.782-.58 1.803-2.392 1.928-2.62a77.05 77.05 0 0 1 1.635.794 90.724 90.724 0 0 1 2.983 1.568l.52-.699a80.166 80.166 0 0 0-4.998-2.417c.17-.646.303-1.302.395-1.964.994-.11 2.736-.994 2.946-1.11.325.536.638 1.062.912 1.563a72.218 72.218 0 0 1 1.55 2.822l.56-.758a78.34 78.34 0 0 0-2.505-4.176c.191-.17 1.738-1.566 2.127-2.457.356-.812.587-1.942.131-2.76a1.569 1.569 0 0 0-2.258-.608c-1.089.76-1.086 3.152-.736 4.286.018.067.322.766.52 1.216-.155-.24-.304-.474-.469-.717-.303-.49-.653-.967-1.009-1.48l-.55-.733c-.176-.25-.398-.49-.608-.739a29.65 29.65 0 0 0-1.52-1.657c.426-.28 1.924-1.3 2.402-2.052.477-.75.875-1.824.547-2.705a1.573 1.573 0 0 0-2.143-.934c-1.19.587-1.548 2.952-1.378 4.126 0 .073.228.912.36 1.352-.32-.322-.636-.647-.968-.963-.96-.912-1.96-1.824-2.954-2.709l-.912-.83c.152-.097 1.957-1.274 2.495-2.113.475-.744.873-1.824.548-2.708a1.572 1.572 0 0 0-2.128-.93c-1.192.586-1.55 2.951-1.377 4.125 0 .088.328 1.277.422 1.575a46.839 46.839 0 0 1-1.943-1.855 27.759 27.759 0 0 1-2.316-2.718c.07-.045 1.96-1.264 2.511-2.128.474-.744.873-1.824.547-2.705a1.57 1.57 0 0 0-2.128-.934c-1.191.587-1.547 2.952-1.377 4.126 0 .09.353 1.37.432 1.599-.043-.055-.091-.107-.134-.164a20.176 20.176 0 0 1-1.824-3.089 22.252 22.252 0 0 1-.772-1.751c.374-.192 2.08-1.082 2.66-1.803.58-.72 1.07-1.72.842-2.63a1.57 1.57 0 0 0-2.028-1.16c-1.25.45-1.863 2.763-1.824 3.951 0 .064.098.715.174 1.189-.1-.262-.207-.526-.304-.778a30.595 30.595 0 0 1-.815-2.615 26.841 26.841 0 0 1-.304-1.237c.27-.38 1.343-1.921 1.52-2.812.176-.89.155-2.021-.465-2.736a1.572 1.572 0 0 0-2.335-.097c-.912.976-.38 3.31.2 4.344.052.088 1 1.392 1.013 1.374l.018-.024c.08.37.167.763.274 1.194.2.794.438 1.685.76 2.64.335 1.034.73 2.05 1.182 3.04a20.698 20.698 0 0 0 1.794 3.17l.027.033a35.142 35.142 0 0 0-1.264-.912c-1.037-.574-3.375-1.082-4.344-.18a1.571 1.571 0 0 0 .106 2.336c.705.608 1.86.629 2.736.45.976-.201 2.736-1.478 2.864-1.581a27.58 27.58 0 0 0 2.377 2.848c.492.526 1.01 1.037 1.52 1.545-.274-.195-.52-.368-.556-.39-1.037-.577-3.375-1.085-4.345-.179a1.571 1.571 0 0 0 .107 2.335c.705.608 1.86.63 2.736.45.875-.18 2.39-1.24 2.788-1.52l.608.577c.975.912 1.951 1.824 2.881 2.764.332.325.642.66.955.99a14.68 14.68 0 0 0-.483-.337c-1.034-.577-3.375-1.082-4.345-.18a1.57 1.57 0 0 0 .11 2.336c.702.608 1.857.629 2.736.45.878-.18 2.243-1.137 2.715-1.475.304.35.608.7.912 1.055.188.243.389.468.565.727l.532.744c.322.487.657.985.958 1.469.212.334.41.656.608.979-.323-.329-.97-.958-1.028-1.007a6.134 6.134 0 0 0-2.873-1.106 1.73 1.73 0 0 0-.304-.192 1.572 1.572 0 0 0-2.213.751c-.49 1.234.836 3.226 1.751 3.98.055.045.693.462 1.1.717-.26-.112-.516-.228-.787-.34-.535-.232-1.079-.444-1.66-.675l-.863-.304c-.286-.11-.608-.189-.912-.286a32.872 32.872 0 0 0-2.173-.547c.2-.471.884-2.15.869-3.04-.015-.891-.28-2.01-1.037-2.56a1.573 1.573 0 0 0-2.3.404c-.67 1.146.337 3.317 1.127 4.199.049.057.687.626 1.043.933-.444-.094-.885-.192-1.338-.27-1.304-.235-2.633-.43-3.952-.633l-1.216-.192c.073-.164.93-2.143.912-3.137-.015-.884-.28-2.01-1.037-2.56a1.572 1.572 0 0 0-2.3.405c-.67 1.146.337 3.316 1.124 4.201.06.064.979.885 1.216 1.082a71.486 71.486 0 0 1-2.645-.477 27.848 27.848 0 0 1-3.456-.952c.033-.076.939-2.128.912-3.155-.016-.885-.28-2.01-1.037-2.56a1.572 1.572 0 0 0-2.301.405c-.67 1.146.337 3.316 1.128 4.2.06.068 1.051.95 1.24 1.095-.064-.021-.134-.04-.2-.064a20.22 20.22 0 0 1-3.238-1.562c-.572-.331-1.1-.684-1.609-1.034.207-.367 1.14-2.052 1.216-2.97.076-.918-.057-2.028-.747-2.66a1.576 1.576 0 0 0-2.335.15c-.79 1.066-.027 3.343.66 4.298.036.055.477.544.802.912-.228-.161-.465-.326-.678-.487a42.821 42.821 0 0 1-2.128-1.73 38.796 38.796 0 0 1-.942-.86c.018-.465.06-2.344-.28-3.186-.34-.842-.985-1.772-1.89-2.012a1.571 1.571 0 0 0-2.001 1.216c-.213 1.31 1.52 2.973 2.566 3.511.09.046 1.599.608 1.602.587v-.028a36.371 36.371 0 0 0 2.98 2.627 27.425 27.425 0 0 0 2.659 1.876c1.03.646 2.116 1.2 3.244 1.653l.04.016c-.387-.03-1.475-.07-1.557-.064-1.183.091-3.414.957-3.724 2.246a1.571 1.571 0 0 0 1.377 1.888c.93.1 1.912-.526 2.52-1.155Z" fill="#0F6A08"/><path d="M58.398 26.678c.022 0-.99-1.261-1.064-1.331-.845-.83-2.967-1.94-4.134-1.332a1.568 1.568 0 0 0-.51 2.28c.513.782 1.623 1.101 2.507 1.156 1.043.076 3.198-.77 3.201-.773Z" fill="#0F6A08"/><g opacity=".1" fill="#000"><path d="M22.724 56.159c.043-.326-.334-.681-.334-1.016 0-.334.377-.693.334-1.015-.043-.322-.499-.58-.584-.912-.085-.331.186-.763.058-1.067-.128-.304-.63-.429-.796-.712-.168-.282-.019-.784-.22-1.045-.2-.262-.72-.25-.954-.484-.234-.234-.219-.75-.483-.954-.265-.204-.757-.055-1.046-.22-.289-.163-.404-.668-.711-.796-.307-.127-.745.143-1.067.058-.323-.085-.566-.54-.897-.584-.332-.042-.678.335-1.016.335-.337 0-.69-.362-1.024-.322-.334.04-.578.498-.894.583-.316.085-.766-.185-1.07-.057-.304.127-.425.629-.711.796-.286.167-.784.018-1.046.219-.261.2-.25.72-.483.954-.234.235-.751.22-.952.484-.2.264-.055.757-.222 1.046-.167.288-.669.404-.796.711-.128.307.146.745.058 1.067-.089.322-.539.566-.584.912-.046.347.334.681.334 1.015 0 .335-.374.69-.334 1.016.04.325.498.577.584.912.085.334-.183.763-.058 1.067.124.304.632.425.796.711.164.286.018.785.222 1.046.204.261.718.25.952.483.234.234.222.751.483.955.261.203.76.055 1.046.219.286.164.407.669.714.796.307.128.745-.143 1.067-.058.322.086.563.538.894.584.331.046.68-.334 1.015-.334.335 0 .694.377 1.016.334.322-.042.58-.498.896-.584.317-.085.763.183 1.067.058.304-.124.43-.632.712-.796.283-.164.784-.019 1.046-.222.261-.204.249-.718.483-.952.234-.234.754-.222.955-.483.2-.261.054-.757.221-1.046.168-.289.67-.404.794-.711.125-.307-.143-.748-.058-1.067.085-.32.55-.593.593-.924Zm-7.716 4.97a5.985 5.985 0 1 1 0-11.97 5.985 5.985 0 0 1 0 11.97Z"/><path d="M18.395 58.53a4.788 4.788 0 1 0-6.772-6.772 4.788 4.788 0 0 0 6.772 6.771Z"/></g><g opacity=".1" fill="#000"><path d="M141.284 53.914c.055-.431-.447-.912-.447-1.356 0-.444.502-.912.447-1.355-.055-.444-.666-.773-.778-1.195-.113-.423.246-1.022.076-1.426-.17-.404-.842-.572-1.061-.952-.219-.38-.028-1.045-.304-1.395-.277-.35-.961-.331-1.274-.644-.313-.313-.304-1.004-.644-1.274-.341-.27-1.013-.073-1.396-.304-.383-.231-.541-.89-.951-1.061-.411-.17-.994.192-1.426.076-.432-.116-.751-.72-1.195-.778-.444-.058-.912.447-1.356.447-.443 0-.912-.502-1.355-.447-.444.054-.773.666-1.195.778-.423.112-1.019-.243-1.426-.076-.407.167-.568.842-.951 1.064-.384.222-1.046.024-1.396.304-.349.28-.316.958-.62 1.28-.304.322-1.003.304-1.271.644-.267.34-.073 1.013-.304 1.396-.231.383-.893.54-1.064.951-.17.41.195.994.079 1.426-.115.432-.72.75-.778 1.195-.058.444.444.912.444 1.355 0 .444-.502.913-.444 1.356.058.444.666.773.778 1.195.113.423-.246 1.018-.079 1.426.167.407.842.568 1.064.951.222.383.028 1.046.304 1.396.277.35.961.331 1.271.644.31.313.304 1.003.644 1.27.341.268 1.013.074 1.399.305.386.23.541.894.951 1.064.411.17.994-.192 1.423-.08.429.113.754.721 1.195.78.441.057.912-.445 1.356-.445.444 0 .912.502 1.356.444.443-.058.772-.666 1.194-.778.423-.113 1.022.246 1.426.079.404-.167.572-.842.952-1.064.38-.222 1.045-.024 1.395-.304.349-.28.331-.96.644-1.27.313-.31 1.004-.305 1.274-.645.271-.34.073-1.013.304-1.396.231-.383.891-.544 1.061-.951.17-.408-.191-.997-.076-1.426.116-.429.696-.763.754-1.204Zm-10.3 6.633a7.989 7.989 0 1 1 0-15.977 7.989 7.989 0 0 1 0 15.977Z"/><path d="M134.667 57.102a6.39 6.39 0 1 0-7.67-10.224 6.39 6.39 0 0 0 7.67 10.224Z"/></g><g opacity=".1" fill="#000"><path d="M124.512 118.903a6.693 6.693 0 0 0-6.179 4.129 6.69 6.69 0 0 0 8.739 8.738 6.685 6.685 0 0 0 4.128-6.179 6.686 6.686 0 0 0-6.688-6.688Zm.432 11.327v.706h-.851v-.706c-1.155-.158-1.675-1.036-1.675-2.298v-.556h.969v.638c0 .836.347 1.317 1.092 1.317.745 0 1.091-.481 1.091-1.317 0-2.073-3.113-2.1-3.113-4.721 0-1.277.52-2.113 1.636-2.286v-.745h.851v.73c1.131.161 1.648 1.036 1.648 2.286v.252h-.97v-.319c0-.824-.331-1.328-1.076-1.328-.745 0-1.064.504-1.064 1.328 0 2.088 3.125 2.101 3.125 4.721 0 1.25-.532 2.14-1.663 2.298Z"/><path d="M124.512 114.647a10.942 10.942 0 0 0-10.733 13.08 10.942 10.942 0 0 0 14.921 7.975 10.947 10.947 0 0 0 6.756-10.111 10.944 10.944 0 0 0-10.944-10.944Zm0 19.152a8.208 8.208 0 1 1 0-16.416 8.208 8.208 0 0 1 0 16.416Z"/></g><g opacity=".1" fill="#000"><path d="M98.67 128.392a4.725 4.725 0 1 0 0 9.45 4.725 4.725 0 0 0 0-9.45Zm.303 8.001v.498h-.608v-.498c-.817-.113-1.182-.733-1.182-1.627v-.398h.705v.45c0 .59.243.93.77.93.525 0 .771-.34.771-.93 0-1.465-2.198-1.483-2.198-3.344 0-.912.365-1.492 1.156-1.614v-.526h.608v.526c.796.112 1.164.733 1.164 1.614v.18h-.687v-.225c0-.584-.234-.94-.76-.94s-.751.356-.751.94c0 1.474 2.207 1.483 2.207 3.344-.018.878-.395 1.507-1.192 1.62h-.003Z"/><path d="M98.67 125.385a7.727 7.727 0 0 0-7.143 4.772 7.732 7.732 0 0 0 10.101 10.101 7.727 7.727 0 0 0 4.772-7.143 7.734 7.734 0 0 0-7.73-7.73Zm0 13.528a5.797 5.797 0 1 1 5.797-5.798 5.808 5.808 0 0 1-1.693 4.11 5.79 5.79 0 0 1-4.105 1.703v-.015Z"/></g><g opacity=".1" fill="#000"><path d="M90.504 111.979a4.725 4.725 0 1 0 0 9.45 4.725 4.725 0 0 0 0-9.45Zm.304 8.001v.495H90.2v-.495c-.815-.113-1.183-.733-1.183-1.627v-.401h.687v.45c0 .59.244.93.77.93.525 0 .769-.34.769-.93 0-1.465-2.198-1.483-2.198-3.344 0-.912.367-1.493 1.155-1.614v-.526h.608v.526c.8.112 1.164.732 1.164 1.614v.179h-.684v-.225c0-.583-.237-.939-.763-.939s-.75.356-.75.939c0 1.475 2.206 1.484 2.206 3.344 0 .882-.374 1.511-1.173 1.624Z"/><path d="M90.504 108.972a7.728 7.728 0 0 0-7.586 9.237 7.731 7.731 0 1 0 7.586-9.237Zm0 13.528a5.797 5.797 0 1 1 5.797-5.798 5.8 5.8 0 0 1-5.797 5.81v-.012Z"/></g><path opacity=".1" d="M26.077 22.506h4.472l-2.238-3.87-2.234 3.87ZM17.3 22.506h4.472l-2.234-3.87-2.237 3.87Z" fill="#000"/><path opacity=".1" d="M23.925 13.58a8.7 8.7 0 1 0 8.7 8.7 8.71 8.71 0 0 0-8.7-8.7Zm6.153 10.132h-3.53a.982.982 0 0 1-.85-1.471l2.553-4.426h-3.724v8.451h1.38v.72h1.924V28H20.26v-1.012h1.68v-.721h1.773V17.8h-4.113l2.553 4.426a.982.982 0 0 1-.85 1.486h-3.53a.98.98 0 0 1-.851-1.471l2.553-4.426h-.103a.413.413 0 0 1 0-.824h4.341a.413.413 0 0 1 .824 0h4.32a.415.415 0 0 1 .414.578.414.414 0 0 1-.414.246h-.484l2.557 4.426a.98.98 0 0 1-.851 1.471Z" fill="#000"/><path opacity=".1" d="M23.925 12.318a9.961 9.961 0 1 0 0 19.923 9.961 9.961 0 0 0 0-19.923Zm0 18.967a9.005 9.005 0 1 1 9.004-9.005 9.017 9.017 0 0 1-9.004 9.005ZM32.713 124.485h4.472l-2.234-3.873-2.238 3.873ZM23.94 124.485h4.472l-2.238-3.873-2.234 3.873Z" fill="#000"/><path opacity=".1" d="M30.561 115.56a8.701 8.701 0 1 0-.001 17.402 8.701 8.701 0 0 0 .001-17.402Zm6.156 10.114h-3.532a.983.983 0 0 1-.85-.49.981.981 0 0 1 .002-.982l2.553-4.423h-3.724v8.463h1.38v.721h1.925v1.012h-7.576v-1.012h1.681v-.721h1.763v-8.466h-4.104l2.554 4.423a.979.979 0 0 1-.848 1.472h-3.533a.984.984 0 0 1-.85-.49.982.982 0 0 1 .002-.982l2.554-4.423h-.104a.416.416 0 0 1-.413-.413.415.415 0 0 1 .413-.414h4.33a.413.413 0 0 1 .826 0h4.33a.416.416 0 0 1 .412.414.415.415 0 0 1-.413.413h-.483l2.553 4.423a.983.983 0 0 1-.848 1.475Z" fill="#000"/><path opacity=".1" d="M30.561 114.305a9.96 9.96 0 0 0-9.204 6.149 9.964 9.964 0 0 0 13.016 13.017 9.96 9.96 0 0 0 6.15-9.204 9.961 9.961 0 0 0-9.962-9.962Zm0 18.966a9.007 9.007 0 0 1-8.319-5.558 9.007 9.007 0 0 1 6.562-12.278 9.005 9.005 0 0 1 10.762 8.832 9.012 9.012 0 0 1-9.005 8.995v.009Z" fill="#000"/><path d="M119.314 84.716c1.797.334 3.757-.818 4.864-2.67.842-1.388 1.137-2.76 1.48-4.331.386-1.715 13.738-63.788 13.878-64.403H71.914L58.15 77.278l-.56 2.581a4.905 4.905 0 0 1-.607 1.52l-.408.678a4.56 4.56 0 0 1-8.065-.495 7.22 7.22 0 0 0-6.478-4.275h-.252a7.232 7.232 0 0 0-6.895 5.536l-5.585 23.171h67.613l5.132-21.28" fill="#fff"/><path d="M119.314 84.716c1.797.334 3.757-.818 4.864-2.67.842-1.388 1.137-2.76 1.48-4.331.386-1.715 13.738-63.788 13.878-64.403H71.914L58.15 77.278l-.56 2.581a4.905 4.905 0 0 1-.607 1.52l-.408.678a4.56 4.56 0 0 1-8.065-.495 7.22 7.22 0 0 0-6.478-4.275h-.252a7.232 7.232 0 0 0-6.895 5.536l-5.585 23.171h67.613l5.132-21.28" stroke="#263238" stroke-width=".75" stroke-linecap="round" stroke-linejoin="round"/><path d="M73.656 27.622h59.642M117.432 34.23h13.957M95.544 34.23h20.42M81.882 34.23h12.489M71.747 34.23h8.962M115.669 37.608h14.984M81.737 37.608H114.2M71.014 37.608h9.4M112.586 40.988h17.334M86.585 40.988h24.825M70.279 40.988h15.13M118.314 44.366h10.871M101.715 44.366h15.13M85.704 44.366h14.543M73.656 44.366h10.725M69.543 44.366h2.79M125.953 47.746h2.496M101.126 47.746h22.918M83.646 47.746h16.011M68.81 47.746h13.221M122.722 51.124h4.994M108.178 51.124h13.221M103.77 51.124h2.94M82.618 51.124h20.42M68.075 51.124h13.367M67.339 54.501h59.642M123.163 57.882h3.085M109.647 57.882h11.606M90.258 57.882h17.334M85.996 57.882h2.94M72.483 57.882H84.38M66.606 57.882h4.114M110.528 61.26h14.984M94.662 61.26h13.957M82.472 61.26h10.722M65.87 61.26H81M120.077 64.64h4.7M104.506 64.64h13.954M94.517 64.64h8.962M86.436 64.64h6.612M78.8 64.64h6.463M69.102 64.64h8.08M65.138 64.64h2.642M116.11 68.018h7.934M102.156 68.018h12.191M89.081 68.018h11.312M73.805 68.018h13.513M64.402 68.018h7.932M115.669 71.394h7.639M102.448 71.394h11.753M88.786 71.394h11.607M79.386 71.394h8.08M69.692 71.394h8.226M63.667 71.394h5.143M118.168 74.775h4.405M103.184 74.775h13.515M91.285 74.775h10.135M83.5 74.775h6.168M71.014 74.775h10.282M62.934 74.775h7.05" stroke="#263238" stroke-width=".75" stroke-miterlimit="10"/><path d="M108.926 77.277v.022a7.22 7.22 0 0 0-6.423 5.514l-5.59 23.18H29.298l5.588-23.18a7.232 7.232 0 0 1 6.895-5.536h67.144Z" fill="#fff" stroke="#263238" stroke-width=".75" stroke-linecap="round" stroke-linejoin="round"/><path d="M119.314 84.716h-17.27l.459-1.903a7.24 7.24 0 0 1 7.016-5.539c2.736 0 5.548 1.5 6.609 4.278.748 1.963 1.924 2.927 3.186 3.164Z" fill="#263238" stroke="#263238" stroke-width=".75" stroke-linecap="round" stroke-linejoin="round"/><path d="M98.168 82.734c0 .225-.55.392-.59.608-.04.216.407.575.328.778-.079.204-.653.168-.766.36-.112.19.192.67.049.841-.143.17-.672-.042-.84.107-.166.148 0 .696-.182.823-.182.128-.644-.212-.839-.109-.194.103-.164.678-.37.76-.207.082-.584-.347-.797-.286-.213.061-.304.63-.517.669-.213.04-.505-.456-.727-.435-.221.022-.41.56-.632.56-.222 0-.42-.541-.635-.56-.216-.018-.51.475-.724.435-.212-.04-.304-.608-.52-.669-.215-.06-.592.368-.793.286-.2-.082-.182-.657-.37-.76-.19-.103-.663.234-.84.11-.176-.125-.024-.682-.185-.824-.161-.143-.7.057-.84-.107s.162-.656.052-.845c-.11-.188-.687-.152-.766-.356-.079-.203.368-.562.326-.778-.043-.216-.587-.38-.587-.608 0-.228.547-.389.587-.608.04-.219-.405-.571-.326-.778.08-.207.65-.164.766-.356.116-.191-.194-.672-.051-.842.142-.17.675.043.839-.106.164-.15 0-.696.185-.824.186-.128.642.213.84.106.197-.106.163-.675.37-.76.207-.085.58.35.793.29.213-.062.304-.63.52-.67.216-.04.502.456.724.435.222-.021.41-.562.635-.562.225 0 .417.54.633.562.215.021.513-.477.726-.435.213.043.304.608.517.67.213.06.608-.369.796-.29.189.08.18.66.371.76.192.1.66-.23.84-.106.179.124.024.678.182.824.158.146.702-.061.839.106.137.167-.161.657-.049.842.113.186.687.155.766.359.08.204-.37.56-.328.775.042.216.59.386.59.608Z" fill="#0F6A08"/><path d="M92.285 86.236c2.467 0 4.466-1.568 4.466-3.502 0-1.935-2-3.503-4.466-3.503S87.82 80.8 87.82 82.734c0 1.934 1.999 3.502 4.465 3.502Z" fill="#fff"/><path d="M92.285 85.57c1.996 0 3.615-1.27 3.615-2.836 0-1.567-1.619-2.837-3.615-2.837-1.996 0-3.614 1.27-3.614 2.837 0 1.566 1.618 2.836 3.614 2.836Z" fill="#0F6A08"/><path d="M94.83 99.8H65.47M56.13 99.8H35.094M71.838 99.18s5.542-6.137 7.123-12.16c1.58-6.021-2.307-2.757-3.86 3.922-1.554 6.68-1.554 8.39 0 7.147a16.11 16.11 0 0 0 3.73-4.66c.607-1.243-1.4-.465-1.867 2.019-.468 2.483 2.331-1.086 3.106-2.33.776-1.242 2.332-1.863 1.089 1.4-1.244 3.261-3.107 2.638-1.399.465 1.709-2.174 3.575-6.689 3.73-4.196.156 2.493-.468 5.278-1.714 6.062-1.246.784 2.329-3.572 3.417-3.262 1.088.31 1.553 1.553.465 2.487-1.088.933-1.088-2.177 7.147-1.867" stroke="#263238" stroke-width=".75" stroke-linecap="round" stroke-linejoin="round"/><path d="m91.461 90.607 4.56 3.648a.282.282 0 0 1-.249.493l-5.776-1.499 1.465-2.642Z" fill="#fff" stroke="#263238" stroke-width=".5" stroke-linecap="round" stroke-linejoin="round"/><path d="M90.723 89.188 64.08 73.413l-2.976 5.065 27.585 14.941c.068.048.142.088.219.119.912.383 2.064-.28 2.566-1.484.501-1.204.164-2.486-.751-2.866Z" fill="#8C8C8C" stroke="#263238" stroke-width=".5" stroke-linecap="round" stroke-linejoin="round"/><path d="M64.782 76.645c-.778 1.864-2.56 2.894-3.979 2.302a2.294 2.294 0 0 1-.389-.213L33.106 63.515l-2.226-1.243-.273-.149.07-.167 3.13-7.497.135-.304.361.22 3.12 1.9L63.62 72.21c1.435.58 1.94 2.575 1.161 4.435Z" fill="#fff" stroke="#263238" stroke-width=".5" stroke-linecap="round" stroke-linejoin="round"/><path d="M63.36 72.049 37.422 56.27l-3.119-1.9-.361-.219-.134.304-3.131 7.497-.07.167.273.15 2.226 1.242 26.682 14.87c1.422.422 3.113-.609 3.873-2.433.608-1.468.447-2.988-.301-3.9Z" fill="#8C8C8C" stroke="#263238" stroke-width=".5" stroke-linecap="round" stroke-linejoin="round"/><path d="M33.106 63.515c1.62.067 3.344-1.192 4.189-3.198a5.323 5.323 0 0 0 .127-4.059l-3.119-1.9a3.488 3.488 0 0 0-.495.1c-1.286.363-2.514 1.484-3.177 3.074-.663 1.59-.608 3.256.046 4.423.06.106.128.208.203.304" fill="#fff"/><path d="M33.106 63.515c1.62.067 3.344-1.192 4.189-3.198a5.323 5.323 0 0 0 .127-4.059l-3.119-1.9a3.488 3.488 0 0 0-.495.1c-1.286.363-2.514 1.484-3.177 3.074-.663 1.59-.608 3.256.046 4.423.06.106.128.208.203.304" stroke="#263238" stroke-width=".5" stroke-linecap="round" stroke-linejoin="round"/><path d="m35.538 58.922 20.258 13.184a.608.608 0 0 1 .204.779.607.607 0 0 1-.836.237L34.324 60.8l1.214-1.88Z" fill="#fff" stroke="#263238" stroke-width=".5" stroke-linecap="round" stroke-linejoin="round"/><path d="M35.316 59.402c-.912 2.204-3.04 3.423-4.71 2.72-1.668-.702-2.291-3.058-1.373-5.274.918-2.216 3.04-3.423 4.709-2.72 1.669.702 2.295 3.07 1.374 5.274Z" fill="#8C8C8C" stroke="#263238" stroke-width=".5" stroke-linecap="round" stroke-linejoin="round"/><path d="M34.656 59.128c-.72 1.727-2.374 2.685-3.69 2.128-1.317-.556-5.843-4.885-5.126-6.612.717-1.726 6.42-.194 7.737.356 1.316.55 1.806 2.399 1.079 4.128ZM77.316 87.79l1.645-.767c.374-.017.743.1 1.04.328.492.383 1.422.985 1.422.985s1.86.11 1.916.383c.054.274-1.095.608-1.259.608h-1.216s1.696.879 1.86.988c.165.11 2.52.821 2.192 1.04-.328.219-2.52.164-3.012.274a9.416 9.416 0 0 1-1.478.11l-1.86-1.697-1.317-1.426s-.425-.498.067-.827ZM36.036 68.136s-.11-1.48-.11-2.192c0-.711-.382-2.08-.546-2.189-.165-.109-1.86-.766-2.353-1.216-.493-.45-1.098.165-.879.548.219.383 1.48 1.094 1.48 1.094l-.328.493-1.216-1.04s-1.258-1.97-1.587-1.806c-.328.164-.219.438 0 .82.22.384.11 2.846.712 3.345.602.498 2.41 1.097 2.41 1.097l.165 1.368s1.696.11 1.915.165c.219.054.337-.487.337-.487Z" fill="#fff" stroke="#263238" stroke-width=".5" stroke-linecap="round" stroke-linejoin="round"/><path d="m32.422 70.225.219-1.478s-.055-.492 1.215-.711a4.731 4.731 0 0 1 2.19.11.431.431 0 0 1 .273.382 9.435 9.435 0 0 1-.164 1.587s-1.98-.775-3.733.11Z" fill="#fff" stroke="#263238" stroke-width=".5" stroke-linecap="round" stroke-linejoin="round"/><path d="M54.383 142.88v3.952s.912.459 3.572.459a20.616 20.616 0 0 0 6.958-1.374c1.28-.547 1.739-1.739 1.28-1.921-.46-.183-2.736-.277-3.204-.642-.468-.364-2.38-1.556-2.38-1.556s-4.579 1.359-6.226 1.082Z" fill="#0F6A08" stroke="#263238" stroke-width=".5" stroke-linecap="round" stroke-linejoin="round"/><path d="M66.36 144.343a20.563 20.563 0 0 1-6.08 1.775c-3.162.407-5.11.058-5.904-.149v.864s.913.459 3.573.459a20.618 20.618 0 0 0 6.958-1.375c.924-.407 1.417-1.13 1.453-1.574Z" fill="#fff" stroke="#263238" stroke-width=".5" stroke-linecap="round" stroke-linejoin="round"/><path d="m55.757 105.072.459 1.283s1.921 3.648 3.295 6.317c1.374 2.669 2.836 8.33 3.295 8.88.46.55.365 1.28.092 2.104-.274.823-2.472 15.2-2.472 15.564 0 .365-.182.365.091.824.274.459.368 1.921.368 1.921a4.09 4.09 0 0 1-2.198 1.101c-1.465.274-4.304.274-4.304.274s-.365-1.739-.274-2.013c.091-.274.368-2.015.368-2.015s.912-4.488.73-6.774c-.183-2.286.276-7.417.459-7.964a8.47 8.47 0 0 0 .182-1.824l-.547-1.007v-.751s-4.396-4.487-6.135-6.225c-1.739-1.739-3.478-3.846-3.478-3.846s-2.015 8.974-2.566 10.895c-.55 1.922-.823 2.736-1.188 3.296-.365.559-4.12 5.493-5.493 7.508-1.375 2.016-3.478 5.585-3.478 5.585-.006.52.025 1.04.091 1.556.091.365-.912 1.739-.912 1.739l-.368.365s-2.198-2.198-3.022-2.38c-.823-.183-2.562.091-2.562.091s1.1-3.019 1.374-3.648c.273-.629 2.836-7.141 3.569-8.424.732-1.283 1.283-3.845 2.565-4.864 1.283-1.018 2.736-2.198 2.736-2.198l-.182-10.251-.182-2.839a9.272 9.272 0 0 1-.277-2.198v-1.824s8.333 1.921 12.464 1.739c4.131-.182 6.59-1.28 6.59-1.28l.91 1.283Z" fill="#263238" stroke="#263238" stroke-width=".5" stroke-linecap="round" stroke-linejoin="round"/><path d="M58.046 76.456s-4.764-2.08-7.281-2.08c-2.517 0-3.888.055-6.572.165-2.685.11-4.256.93-4.256.93l-3.953 1.313.326-7.168a6.14 6.14 0 0 0-2.463-.164 3.383 3.383 0 0 0-1.824.985s-1.477 9.746-1.422 10.622c.054.875 1.216 1.04 1.216 1.04l8.925-.165-.656 9.965-6.688 11.607s.054 1.806 5.53 3.615c5.474 1.808 12.208 1.216 14.287.656 2.08-.559 5.408-3.009 5.682-3.392s0-2.356 0-3.177c0-.821-1.368-8.597-1.15-8.98.22-.383 1.424-5.53 1.424-5.53s11.114 7.226 11.77 7.117c.657-.11 7.336-3.393 7.503-3.502.167-.11.608-.712-.055-1.7a2.758 2.758 0 0 0-2.127-1.149c-.329 0-4.819.383-4.819.383s-5.624-4.986-5.779-5.26c-.155-.273-1.04-2.571-1.423-3.173-.383-.602-6.195-2.958-6.195-2.958Z" fill="#0F6A08" stroke="#263238" stroke-width=".5" stroke-linecap="round" stroke-linejoin="round"/><path d="M71.458 87.856s1.8 1.025 2.159 1.654l-2.159-1.654Z" fill="#0F6A08"/><path d="M71.458 87.856s1.8 1.025 2.159 1.654" stroke="#263238" stroke-width=".5" stroke-linecap="round" stroke-linejoin="round"/><path d="M64.232 79.414s-1.645.13-3.344 1.924l3.344-1.924Z" fill="#0F6A08"/><path d="M64.232 79.414s-1.645.13-3.344 1.924" stroke="#263238" stroke-width=".5" stroke-linecap="round" stroke-linejoin="round"/><path d="M60.526 80.175a3.77 3.77 0 0 0-1.881 2.69" fill="#0F6A08"/><path d="M60.526 80.175a3.77 3.77 0 0 0-1.881 2.69M40.745 81.931l-.164-4.107.164 4.107ZM56.602 88.456l2.593-1.76-4.217 1.313M54.76 89.708l.896-.608M54.504 77.08a8.512 8.512 0 0 0-2.754 1.623c-2.128 1.916-3.286 1.751-3.286 1.751M56.623 76.565c-.326.034-.649.09-.967.168M51.422 77.934s-1.755 1.644-3.615 2.41M32.139 77.775c-.18.216-.286.483-.304.763M35.981 76.785l-.766.055s-.985-.438-1.477-.383a2.228 2.228 0 0 0-.912.568M32.64 76.565s-.984.383-1.149 1.259" stroke="#263238" stroke-width=".5" stroke-linecap="round" stroke-linejoin="round"/><path d="M57.76 92.225s-.775 5.259-1.122 6.882c-.346 1.624-.811 5.621-.811 5.621a8.375 8.375 0 0 1 1.796-.462c.912-.115 1.274.116 1.274.116s.696-1.682 0-4.582-1.137-7.575-1.137-7.575ZM31.771 141.875s.368 1.739.733 1.924c.364.185 2.106.547 2.289 1.006.182.459-1.648 1.28-2.84 1.465-1.191.186-3.295-.276-3.569-.459-.273-.182-.912-1.097-1.738-1.374-.827-.276-1.824-.638-1.648-1.739.176-1.1 1.188-3.112 1.188-3.112a5.947 5.947 0 0 1 3.755.091c2.012.732 1.83 2.198 1.83 2.198Z" fill="#0F6A08" stroke="#263238" stroke-width=".5" stroke-linecap="round" stroke-linejoin="round"/><path d="M31.953 146.271c1.192-.186 3.022-1.01 2.84-1.466a.374.374 0 0 0-.08-.112c-.89.304-1.984.471-2.99-.085-1.235-.687-1.648-2.198-3.296-2.736-.958-.32-2.24-.265-3.146-.168a6.22 6.22 0 0 0-.283 1.007c-.186 1.1.824 1.465 1.648 1.739.823.273 1.465 1.191 1.738 1.374.274.182 2.38.629 3.57.447Z" fill="#fff" stroke="#263238" stroke-width=".5" stroke-linecap="round" stroke-linejoin="round"/><path d="M31.406 145.617c-1.009-.459-1.924-1.648-3.39-2.563-1.337-.839-2.735.082-2.982.246.21.639.964.912 1.612 1.125.823.277 1.465 1.192 1.738 1.374.274.182 2.38.642 3.57.459.242-.04.481-.095.717-.164a11.88 11.88 0 0 1-1.265-.477Z" fill="#263238" stroke="#263238" stroke-width=".5" stroke-linecap="round" stroke-linejoin="round"/><path d="m58.976 74.978-1.642 1.15s-2.128-1.423-3.614-1.697c-1.487-.273-2.244-.328-2.244-.328l1.15-2.028a5.344 5.344 0 0 0 1.86-2.407c.492-1.478.985-2.08 2.082-1.52 1.098.559 1.52 2.736 1.52 4.104 0 1.368.888 2.727.888 2.727Z" fill="#fff" stroke="#263238" stroke-width=".5" stroke-linecap="round" stroke-linejoin="round"/><path d="M59.906 64.904s.93 1.368 1.04 1.864c.11.495-.383 1.477-.383 1.477s1.097 1.587 1.152 1.97c.055.383-.66 1.095-.66 1.095s.165 1.59.386 1.973c.222.383.438.93.165 1.422-.274.493-.66.821-1.824.985-1.165.165-2.08-.383-2.299-1.52-.218-1.137-.218-3.614-.383-3.952-.164-.337-.93-1.094-1.313-.492-.383.602-.11 1.216.164 1.75.168.331.436.6.766.767l-1.216.608a3.262 3.262 0 0 1-2.298.11 2.175 2.175 0 0 1-1.216-1.153c-.055-.164-.608-1.52-.766-1.806-.158-.285-1.316-1.915-1.371-3.833-.055-1.918 2.246-4.104 5.201-4.706 2.955-.602 4.326.712 4.983.766.657.055 0-.547.547-.164s.693 2.511-.675 2.84Z" fill="#fff" stroke="#263238" stroke-width=".5" stroke-linecap="round" stroke-linejoin="round"/><path d="M61.055 71.31s.061-.061.146-.156c-.222.03-.887.122-1.295.21-.492.11-.711 1.59-1.149 1.216-.438-.374-.657-3.614-.766-3.778-.11-.165.377-.706.377-.706s.766-1.04.766-1.48c0-.441-.766-.93-.492-1.04.273-.11 1.258-.656 1.258-.656 1.368-.329 1.259-2.463.712-2.846-.548-.383.109.219-.548.164-.656-.054-2.024-1.37-4.982-.766-2.958.605-5.256 2.79-5.202 4.706.055 1.915 1.216 3.56 1.371 3.834.155.273.712 1.641.767 1.805a2.174 2.174 0 0 0 1.215 1.152c.754.244 1.571.205 2.299-.109l1.216-.608a1.746 1.746 0 0 1-.766-.766c-.274-.547-.55-1.15-.164-1.751.386-.602 1.149.164 1.313.492.164.329.164 2.794.383 3.952.219 1.159 1.149 1.697 2.298 1.52 1.15-.176 1.52-.492 1.824-.985.304-.492.055-1.04-.164-1.422-.219-.383-.417-1.982-.417-1.982Z" fill="#263238" stroke="#263238" stroke-width=".5" stroke-linecap="round" stroke-linejoin="round"/><path d="M60.782 67.26a.787.787 0 0 0-.712.438" stroke="#263238" stroke-width=".5" stroke-linecap="round" stroke-linejoin="round"/><path d="M60.344 69.12c.12 0 .219-.269.219-.601 0-.333-.098-.602-.219-.602-.12 0-.219.27-.219.602 0 .332.098.602.219.602Z" fill="#263238"/><path d="M61.165 72.681s-.93.328-1.313-.331" stroke="#fff" stroke-width=".5" stroke-linecap="round" stroke-linejoin="round"/><path d="M50.768 74.377c2.517 0 7.28 2.08 7.28 2.08l.183.075a1.654 1.654 0 0 0-.304-.678c-.164-.11-1.04-1.368-2.684-2.025a9.395 9.395 0 0 0-3.393-.71c-.386 0-1.49 1.014-1.75 1.258h.668Z" fill="#0F6A08" stroke="#263238" stroke-width=".5" stroke-linecap="round" stroke-linejoin="round"/></svg>